G75*
%MOIN*%
%OFA0B0*%
%FSLAX25Y25*%
%IPPOS*%
%LPD*%
%AMOC8*
5,1,8,0,0,1.08239X$1,22.5*
%
%ADD10C,0.00000*%
%ADD11C,0.06800*%
D10*
X0010800Y0001500D02*
X0010800Y0119610D01*
X0090721Y0119610D01*
X0090721Y0001500D01*
X0010800Y0001500D01*
D11*
X0012800Y0016500D02*
X0018800Y0016500D01*
X0018800Y0026500D02*
X0012800Y0026500D01*
X0012800Y0036500D02*
X0018800Y0036500D01*
X0018800Y0046500D02*
X0012800Y0046500D01*
X0012800Y0056500D02*
X0018800Y0056500D01*
X0018800Y0066500D02*
X0012800Y0066500D01*
X0012800Y0076500D02*
X0018800Y0076500D01*
X0018800Y0086500D02*
X0012800Y0086500D01*
X0012800Y0096500D02*
X0018800Y0096500D01*
X0018800Y0106500D02*
X0012800Y0106500D01*
X0082800Y0106500D02*
X0088800Y0106500D01*
X0088800Y0096500D02*
X0082800Y0096500D01*
X0082800Y0086500D02*
X0088800Y0086500D01*
X0088800Y0076500D02*
X0082800Y0076500D01*
X0082800Y0066500D02*
X0088800Y0066500D01*
X0088800Y0056500D02*
X0082800Y0056500D01*
X0082800Y0046500D02*
X0088800Y0046500D01*
X0088800Y0036500D02*
X0082800Y0036500D01*
X0082800Y0026500D02*
X0088800Y0026500D01*
X0088800Y0016500D02*
X0082800Y0016500D01*
M02*
