%
M48
M72
T01C0.04000
%
T01
X15800Y76500
X15800Y66500
X15800Y56500
X15800Y46500
X15800Y36500
X15800Y26500
X15800Y16500
X15800Y86500
X15800Y96500
X15800Y106500
X85800Y76500
X85800Y66500
X85800Y56500
X85800Y46500
X85800Y36500
X85800Y26500
X85800Y16500
X85800Y86500
X85800Y96500
X85800Y106500
M30
