G75*
%MOIN*%
%OFA0B0*%
%FSLAX25Y25*%
%IPPOS*%
%LPD*%
%AMOC8*
5,1,8,0,0,1.08239X$1,22.5*
%
%ADD10C,0.00000*%
%ADD11R,0.05800X0.01400*%
%ADD12C,0.06000*%
%ADD13C,0.01200*%
%ADD14C,0.01000*%
D10*
X0010800Y0001500D02*
X0010800Y0119610D01*
X0090721Y0119610D01*
X0090721Y0001500D01*
X0010800Y0001500D01*
D11*
X0039700Y0050000D03*
X0039700Y0052500D03*
X0039700Y0055100D03*
X0039700Y0057700D03*
X0039700Y0060200D03*
X0039700Y0062800D03*
X0039700Y0065300D03*
X0039700Y0067900D03*
X0039700Y0070500D03*
X0039700Y0073000D03*
X0061900Y0073000D03*
X0061900Y0070500D03*
X0061900Y0067900D03*
X0061900Y0065300D03*
X0061900Y0062800D03*
X0061900Y0060200D03*
X0061900Y0057700D03*
X0061900Y0055100D03*
X0061900Y0052500D03*
X0061900Y0050000D03*
D12*
X0082800Y0046500D02*
X0088800Y0046500D01*
X0088800Y0036500D02*
X0082800Y0036500D01*
X0082800Y0026500D02*
X0088800Y0026500D01*
X0088800Y0016500D02*
X0082800Y0016500D01*
X0082800Y0056500D02*
X0088800Y0056500D01*
X0088800Y0066500D02*
X0082800Y0066500D01*
X0082800Y0076500D02*
X0088800Y0076500D01*
X0088800Y0086500D02*
X0082800Y0086500D01*
X0082800Y0096500D02*
X0088800Y0096500D01*
X0088800Y0106500D02*
X0082800Y0106500D01*
X0018800Y0106500D02*
X0012800Y0106500D01*
X0012800Y0096500D02*
X0018800Y0096500D01*
X0018800Y0086500D02*
X0012800Y0086500D01*
X0012800Y0076500D02*
X0018800Y0076500D01*
X0018800Y0066500D02*
X0012800Y0066500D01*
X0012800Y0056500D02*
X0018800Y0056500D01*
X0018800Y0046500D02*
X0012800Y0046500D01*
X0012800Y0036500D02*
X0018800Y0036500D01*
X0018800Y0026500D02*
X0012800Y0026500D01*
X0012800Y0016500D02*
X0018800Y0016500D01*
D13*
X0015800Y0016500D02*
X0040800Y0016500D01*
X0040800Y0050000D01*
X0039700Y0050000D01*
X0039700Y0052500D02*
X0035800Y0052500D01*
X0035800Y0026500D01*
X0015800Y0026500D01*
X0015800Y0036500D02*
X0030800Y0036500D01*
X0030800Y0055100D01*
X0039700Y0055100D01*
X0039700Y0057700D02*
X0025800Y0057700D01*
X0025800Y0046500D01*
X0015800Y0046500D01*
X0015800Y0056500D02*
X0020800Y0056500D01*
X0020800Y0060200D01*
X0039700Y0060200D01*
X0039700Y0062800D02*
X0020800Y0062800D01*
X0020800Y0066500D01*
X0015800Y0066500D01*
X0015800Y0076500D02*
X0025800Y0076500D01*
X0025800Y0065300D01*
X0039700Y0065300D01*
X0039700Y0067900D02*
X0030800Y0067900D01*
X0030800Y0086500D01*
X0015800Y0086500D01*
X0015800Y0096500D02*
X0035800Y0096500D01*
X0035800Y0070500D01*
X0039700Y0070500D01*
X0039700Y0073000D02*
X0040800Y0073000D01*
X0040800Y0106500D01*
X0015800Y0106500D01*
X0060800Y0106500D02*
X0060800Y0073000D01*
X0061900Y0073000D01*
X0061900Y0070500D02*
X0065800Y0070500D01*
X0065800Y0096500D01*
X0085800Y0096500D01*
X0085800Y0086500D02*
X0070800Y0086500D01*
X0070800Y0067900D01*
X0061900Y0067900D01*
X0061900Y0065300D02*
X0075800Y0065300D01*
X0075800Y0076500D01*
X0085800Y0076500D01*
X0085800Y0066500D02*
X0080800Y0066500D01*
X0080800Y0062800D01*
X0061900Y0062800D01*
X0061900Y0060200D02*
X0080800Y0060200D01*
X0080800Y0056500D01*
X0085800Y0056500D01*
X0085800Y0046500D02*
X0075800Y0046500D01*
X0075800Y0057700D01*
X0061900Y0057700D01*
X0061900Y0055100D02*
X0070800Y0055100D01*
X0070800Y0036500D01*
X0085800Y0036500D01*
X0085800Y0026500D02*
X0065800Y0026500D01*
X0065800Y0052500D01*
X0061900Y0052500D01*
X0061900Y0050000D02*
X0060800Y0050000D01*
X0060800Y0016500D01*
X0085800Y0016500D01*
X0085800Y0106500D02*
X0060800Y0106500D01*
D14*
X0058652Y0109302D02*
X0042948Y0109302D01*
X0042783Y0109467D02*
X0043767Y0108483D01*
X0044300Y0107196D01*
X0044300Y0076101D01*
X0045058Y0075343D01*
X0045500Y0074277D01*
X0045500Y0071777D01*
X0045500Y0069223D01*
X0045490Y0069200D01*
X0045500Y0069177D01*
X0045500Y0066623D01*
X0045490Y0066600D01*
X0045500Y0066577D01*
X0045500Y0061523D01*
X0045490Y0061500D01*
X0045500Y0061477D01*
X0045500Y0056423D01*
X0045490Y0056400D01*
X0045500Y0056377D01*
X0045500Y0053823D01*
X0045490Y0053800D01*
X0045500Y0053777D01*
X0045500Y0048723D01*
X0045058Y0047657D01*
X0044300Y0046899D01*
X0044300Y0015804D01*
X0043767Y0014517D01*
X0042783Y0013533D01*
X0041496Y0013000D01*
X0023644Y0013000D01*
X0022142Y0011498D01*
X0019974Y0010600D01*
X0015300Y0010600D01*
X0015300Y0006000D01*
X0086221Y0006000D01*
X0086221Y0010600D01*
X0081626Y0010600D01*
X0079458Y0011498D01*
X0077956Y0013000D01*
X0060104Y0013000D01*
X0058817Y0013533D01*
X0057833Y0014517D01*
X0057300Y0015804D01*
X0057300Y0046899D01*
X0056541Y0047657D01*
X0056100Y0048723D01*
X0056100Y0053777D01*
X0056110Y0053800D01*
X0056100Y0053823D01*
X0056100Y0056377D01*
X0056110Y0056400D01*
X0056100Y0056423D01*
X0056100Y0061477D01*
X0056110Y0061500D01*
X0056100Y0061523D01*
X0056100Y0066577D01*
X0056110Y0066600D01*
X0056100Y0066623D01*
X0056100Y0069177D01*
X0056110Y0069200D01*
X0056100Y0069223D01*
X0056100Y0074277D01*
X0056541Y0075343D01*
X0057300Y0076101D01*
X0057300Y0107196D01*
X0057833Y0108483D01*
X0058817Y0109467D01*
X0060104Y0110000D01*
X0077956Y0110000D01*
X0079458Y0111502D01*
X0081626Y0112400D01*
X0086221Y0112400D01*
X0086221Y0115110D01*
X0015300Y0115110D01*
X0015300Y0112400D01*
X0019974Y0112400D01*
X0022142Y0111502D01*
X0023644Y0110000D01*
X0041496Y0110000D01*
X0042783Y0109467D01*
X0043841Y0108303D02*
X0057759Y0108303D01*
X0057345Y0107305D02*
X0044255Y0107305D01*
X0044300Y0106306D02*
X0057300Y0106306D01*
X0057300Y0105308D02*
X0044300Y0105308D01*
X0044300Y0104309D02*
X0057300Y0104309D01*
X0057300Y0103311D02*
X0044300Y0103311D01*
X0044300Y0102312D02*
X0057300Y0102312D01*
X0057300Y0101314D02*
X0044300Y0101314D01*
X0044300Y0100315D02*
X0057300Y0100315D01*
X0057300Y0099317D02*
X0044300Y0099317D01*
X0044300Y0098318D02*
X0057300Y0098318D01*
X0057300Y0097320D02*
X0044300Y0097320D01*
X0044300Y0096321D02*
X0057300Y0096321D01*
X0057300Y0095323D02*
X0044300Y0095323D01*
X0044300Y0094324D02*
X0057300Y0094324D01*
X0057300Y0093326D02*
X0044300Y0093326D01*
X0044300Y0092327D02*
X0057300Y0092327D01*
X0057300Y0091329D02*
X0044300Y0091329D01*
X0044300Y0090330D02*
X0057300Y0090330D01*
X0057300Y0089332D02*
X0044300Y0089332D01*
X0044300Y0088333D02*
X0057300Y0088333D01*
X0057300Y0087335D02*
X0044300Y0087335D01*
X0044300Y0086336D02*
X0057300Y0086336D01*
X0057300Y0085338D02*
X0044300Y0085338D01*
X0044300Y0084339D02*
X0057300Y0084339D01*
X0057300Y0083341D02*
X0044300Y0083341D01*
X0044300Y0082342D02*
X0057300Y0082342D01*
X0057300Y0081344D02*
X0044300Y0081344D01*
X0044300Y0080345D02*
X0057300Y0080345D01*
X0057300Y0079347D02*
X0044300Y0079347D01*
X0044300Y0078348D02*
X0057300Y0078348D01*
X0057300Y0077350D02*
X0044300Y0077350D01*
X0044300Y0076351D02*
X0057300Y0076351D01*
X0056551Y0075353D02*
X0045049Y0075353D01*
X0045468Y0074354D02*
X0056132Y0074354D01*
X0056100Y0073356D02*
X0045500Y0073356D01*
X0045500Y0072357D02*
X0056100Y0072357D01*
X0056100Y0071359D02*
X0045500Y0071359D01*
X0045500Y0070360D02*
X0056100Y0070360D01*
X0056100Y0069362D02*
X0045500Y0069362D01*
X0045500Y0068363D02*
X0056100Y0068363D01*
X0056100Y0067365D02*
X0045500Y0067365D01*
X0045500Y0066366D02*
X0056100Y0066366D01*
X0056100Y0065368D02*
X0045500Y0065368D01*
X0045500Y0064369D02*
X0056100Y0064369D01*
X0056100Y0063370D02*
X0045500Y0063370D01*
X0045500Y0062372D02*
X0056100Y0062372D01*
X0056100Y0061373D02*
X0045500Y0061373D01*
X0045500Y0060375D02*
X0056100Y0060375D01*
X0056100Y0059376D02*
X0045500Y0059376D01*
X0045500Y0058378D02*
X0056100Y0058378D01*
X0056100Y0057379D02*
X0045500Y0057379D01*
X0045498Y0056381D02*
X0056102Y0056381D01*
X0056100Y0055382D02*
X0045500Y0055382D01*
X0045500Y0054384D02*
X0056100Y0054384D01*
X0056100Y0053385D02*
X0045500Y0053385D01*
X0045500Y0052387D02*
X0056100Y0052387D01*
X0056100Y0051388D02*
X0045500Y0051388D01*
X0045500Y0050390D02*
X0056100Y0050390D01*
X0056100Y0049391D02*
X0045500Y0049391D01*
X0045363Y0048393D02*
X0056237Y0048393D01*
X0056804Y0047394D02*
X0044796Y0047394D01*
X0044300Y0046396D02*
X0057300Y0046396D01*
X0057300Y0045397D02*
X0044300Y0045397D01*
X0044300Y0044399D02*
X0057300Y0044399D01*
X0057300Y0043400D02*
X0044300Y0043400D01*
X0044300Y0042402D02*
X0057300Y0042402D01*
X0057300Y0041403D02*
X0044300Y0041403D01*
X0044300Y0040405D02*
X0057300Y0040405D01*
X0057300Y0039406D02*
X0044300Y0039406D01*
X0044300Y0038408D02*
X0057300Y0038408D01*
X0057300Y0037409D02*
X0044300Y0037409D01*
X0044300Y0036411D02*
X0057300Y0036411D01*
X0057300Y0035412D02*
X0044300Y0035412D01*
X0044300Y0034414D02*
X0057300Y0034414D01*
X0057300Y0033415D02*
X0044300Y0033415D01*
X0044300Y0032417D02*
X0057300Y0032417D01*
X0057300Y0031418D02*
X0044300Y0031418D01*
X0044300Y0030420D02*
X0057300Y0030420D01*
X0057300Y0029421D02*
X0044300Y0029421D01*
X0044300Y0028423D02*
X0057300Y0028423D01*
X0057300Y0027424D02*
X0044300Y0027424D01*
X0044300Y0026426D02*
X0057300Y0026426D01*
X0057300Y0025427D02*
X0044300Y0025427D01*
X0044300Y0024429D02*
X0057300Y0024429D01*
X0057300Y0023430D02*
X0044300Y0023430D01*
X0044300Y0022432D02*
X0057300Y0022432D01*
X0057300Y0021433D02*
X0044300Y0021433D01*
X0044300Y0020434D02*
X0057300Y0020434D01*
X0057300Y0019436D02*
X0044300Y0019436D01*
X0044300Y0018437D02*
X0057300Y0018437D01*
X0057300Y0017439D02*
X0044300Y0017439D01*
X0044300Y0016440D02*
X0057300Y0016440D01*
X0057450Y0015442D02*
X0044150Y0015442D01*
X0043693Y0014443D02*
X0057907Y0014443D01*
X0059030Y0013445D02*
X0042570Y0013445D01*
X0037300Y0020000D02*
X0023644Y0020000D01*
X0022144Y0021500D01*
X0023644Y0023000D01*
X0036496Y0023000D01*
X0037300Y0023333D01*
X0037300Y0020000D01*
X0037300Y0020434D02*
X0023209Y0020434D01*
X0022211Y0021433D02*
X0037300Y0021433D01*
X0037300Y0022432D02*
X0023075Y0022432D01*
X0023644Y0030000D02*
X0022144Y0031500D01*
X0023644Y0033000D01*
X0031496Y0033000D01*
X0032300Y0033333D01*
X0032300Y0030000D01*
X0023644Y0030000D01*
X0023224Y0030420D02*
X0032300Y0030420D01*
X0032300Y0031418D02*
X0022226Y0031418D01*
X0023060Y0032417D02*
X0032300Y0032417D01*
X0027300Y0040000D02*
X0023644Y0040000D01*
X0022144Y0041500D01*
X0023644Y0043000D01*
X0026496Y0043000D01*
X0027300Y0043333D01*
X0027300Y0040000D01*
X0027300Y0040405D02*
X0023239Y0040405D01*
X0022241Y0041403D02*
X0027300Y0041403D01*
X0027300Y0042402D02*
X0023046Y0042402D01*
X0022300Y0051344D02*
X0022144Y0051500D01*
X0022300Y0051656D01*
X0022300Y0051344D01*
X0022300Y0051388D02*
X0022255Y0051388D01*
X0022300Y0071344D02*
X0022144Y0071500D01*
X0022300Y0071656D01*
X0022300Y0071344D01*
X0022300Y0071359D02*
X0022285Y0071359D01*
X0026496Y0080000D02*
X0027300Y0079667D01*
X0027300Y0083000D01*
X0023644Y0083000D01*
X0022144Y0081500D01*
X0023644Y0080000D01*
X0026496Y0080000D01*
X0027300Y0080345D02*
X0023299Y0080345D01*
X0022300Y0081344D02*
X0027300Y0081344D01*
X0027300Y0082342D02*
X0022986Y0082342D01*
X0023644Y0090000D02*
X0022144Y0091500D01*
X0023644Y0093000D01*
X0032300Y0093000D01*
X0032300Y0089667D01*
X0031496Y0090000D01*
X0023644Y0090000D01*
X0023314Y0090330D02*
X0032300Y0090330D01*
X0032300Y0091329D02*
X0022315Y0091329D01*
X0022971Y0092327D02*
X0032300Y0092327D01*
X0036496Y0100000D02*
X0023644Y0100000D01*
X0022144Y0101500D01*
X0023644Y0103000D01*
X0037300Y0103000D01*
X0037300Y0099667D01*
X0036496Y0100000D01*
X0037300Y0100315D02*
X0023328Y0100315D01*
X0022330Y0101314D02*
X0037300Y0101314D01*
X0037300Y0102312D02*
X0022956Y0102312D01*
X0023343Y0110301D02*
X0078257Y0110301D01*
X0079255Y0111299D02*
X0022345Y0111299D01*
X0020221Y0112298D02*
X0081379Y0112298D01*
X0086221Y0113296D02*
X0015300Y0113296D01*
X0015300Y0114295D02*
X0086221Y0114295D01*
X0077956Y0103000D02*
X0079456Y0101500D01*
X0077956Y0100000D01*
X0065104Y0100000D01*
X0064300Y0099667D01*
X0064300Y0103000D01*
X0077956Y0103000D01*
X0078644Y0102312D02*
X0064300Y0102312D01*
X0064300Y0101314D02*
X0079270Y0101314D01*
X0078272Y0100315D02*
X0064300Y0100315D01*
X0069300Y0093000D02*
X0077956Y0093000D01*
X0079456Y0091500D01*
X0077956Y0090000D01*
X0070104Y0090000D01*
X0069300Y0089667D01*
X0069300Y0093000D01*
X0069300Y0092327D02*
X0078629Y0092327D01*
X0079285Y0091329D02*
X0069300Y0091329D01*
X0069300Y0090330D02*
X0078286Y0090330D01*
X0077956Y0083000D02*
X0074300Y0083000D01*
X0074300Y0079667D01*
X0075104Y0080000D01*
X0077956Y0080000D01*
X0079456Y0081500D01*
X0077956Y0083000D01*
X0078614Y0082342D02*
X0074300Y0082342D01*
X0074300Y0081344D02*
X0079300Y0081344D01*
X0078301Y0080345D02*
X0074300Y0080345D01*
X0079300Y0071656D02*
X0079456Y0071500D01*
X0079300Y0071344D01*
X0079300Y0071656D01*
X0079300Y0071359D02*
X0079315Y0071359D01*
X0079300Y0051656D02*
X0079456Y0051500D01*
X0079300Y0051344D01*
X0079300Y0051656D01*
X0079300Y0051388D02*
X0079345Y0051388D01*
X0075104Y0043000D02*
X0074300Y0043333D01*
X0074300Y0040000D01*
X0077956Y0040000D01*
X0079456Y0041500D01*
X0077956Y0043000D01*
X0075104Y0043000D01*
X0074300Y0042402D02*
X0078554Y0042402D01*
X0079359Y0041403D02*
X0074300Y0041403D01*
X0074300Y0040405D02*
X0078361Y0040405D01*
X0077956Y0033000D02*
X0070104Y0033000D01*
X0069300Y0033333D01*
X0069300Y0030000D01*
X0077956Y0030000D01*
X0079456Y0031500D01*
X0077956Y0033000D01*
X0078540Y0032417D02*
X0069300Y0032417D01*
X0069300Y0031418D02*
X0079374Y0031418D01*
X0078376Y0030420D02*
X0069300Y0030420D01*
X0065104Y0023000D02*
X0064300Y0023333D01*
X0064300Y0020000D01*
X0077956Y0020000D01*
X0079456Y0021500D01*
X0077956Y0023000D01*
X0065104Y0023000D01*
X0064300Y0022432D02*
X0078525Y0022432D01*
X0079389Y0021433D02*
X0064300Y0021433D01*
X0064300Y0020434D02*
X0078391Y0020434D01*
X0078510Y0012446D02*
X0023090Y0012446D01*
X0022021Y0011448D02*
X0079579Y0011448D01*
X0086221Y0010449D02*
X0015300Y0010449D01*
X0015300Y0009451D02*
X0086221Y0009451D01*
X0086221Y0008452D02*
X0015300Y0008452D01*
X0015300Y0007454D02*
X0086221Y0007454D01*
X0086221Y0006455D02*
X0015300Y0006455D01*
M02*
