G75*
%MOIN*%
%OFA0B0*%
%FSLAX25Y25*%
%IPPOS*%
%LPD*%
%AMOC8*
5,1,8,0,0,1.08239X$1,22.5*
%
%ADD10C,0.00600*%
%ADD11C,0.01000*%
%ADD12C,0.00500*%
%ADD13C,0.00700*%
%ADD14C,0.00400*%
%ADD15C,0.00200*%
D10*
X0043300Y0040800D02*
X0043300Y0041800D01*
X0043800Y0042300D01*
X0043800Y0051300D01*
X0043300Y0051800D01*
X0043300Y0052800D01*
X0043302Y0052860D01*
X0043307Y0052921D01*
X0043316Y0052980D01*
X0043329Y0053039D01*
X0043345Y0053098D01*
X0043365Y0053155D01*
X0043388Y0053210D01*
X0043415Y0053265D01*
X0043444Y0053317D01*
X0043477Y0053368D01*
X0043513Y0053417D01*
X0043551Y0053463D01*
X0043593Y0053507D01*
X0043637Y0053549D01*
X0043683Y0053587D01*
X0043732Y0053623D01*
X0043783Y0053656D01*
X0043835Y0053685D01*
X0043890Y0053712D01*
X0043945Y0053735D01*
X0044002Y0053755D01*
X0044061Y0053771D01*
X0044120Y0053784D01*
X0044179Y0053793D01*
X0044240Y0053798D01*
X0044300Y0053800D01*
X0049300Y0053800D02*
X0049360Y0053798D01*
X0049421Y0053793D01*
X0049480Y0053784D01*
X0049539Y0053771D01*
X0049598Y0053755D01*
X0049655Y0053735D01*
X0049710Y0053712D01*
X0049765Y0053685D01*
X0049817Y0053656D01*
X0049868Y0053623D01*
X0049917Y0053587D01*
X0049963Y0053549D01*
X0050007Y0053507D01*
X0050049Y0053463D01*
X0050087Y0053417D01*
X0050123Y0053368D01*
X0050156Y0053317D01*
X0050185Y0053265D01*
X0050212Y0053210D01*
X0050235Y0053155D01*
X0050255Y0053098D01*
X0050271Y0053039D01*
X0050284Y0052980D01*
X0050293Y0052921D01*
X0050298Y0052860D01*
X0050300Y0052800D01*
X0050300Y0051800D01*
X0049800Y0051300D01*
X0049800Y0042300D01*
X0050300Y0041800D01*
X0050300Y0040800D01*
X0050298Y0040740D01*
X0050293Y0040679D01*
X0050284Y0040620D01*
X0050271Y0040561D01*
X0050255Y0040502D01*
X0050235Y0040445D01*
X0050212Y0040390D01*
X0050185Y0040335D01*
X0050156Y0040283D01*
X0050123Y0040232D01*
X0050087Y0040183D01*
X0050049Y0040137D01*
X0050007Y0040093D01*
X0049963Y0040051D01*
X0049917Y0040013D01*
X0049868Y0039977D01*
X0049817Y0039944D01*
X0049765Y0039915D01*
X0049710Y0039888D01*
X0049655Y0039865D01*
X0049598Y0039845D01*
X0049539Y0039829D01*
X0049480Y0039816D01*
X0049421Y0039807D01*
X0049360Y0039802D01*
X0049300Y0039800D01*
X0044300Y0039800D02*
X0044240Y0039802D01*
X0044179Y0039807D01*
X0044120Y0039816D01*
X0044061Y0039829D01*
X0044002Y0039845D01*
X0043945Y0039865D01*
X0043890Y0039888D01*
X0043835Y0039915D01*
X0043783Y0039944D01*
X0043732Y0039977D01*
X0043683Y0040013D01*
X0043637Y0040051D01*
X0043593Y0040093D01*
X0043551Y0040137D01*
X0043513Y0040183D01*
X0043477Y0040232D01*
X0043444Y0040283D01*
X0043415Y0040335D01*
X0043388Y0040390D01*
X0043365Y0040445D01*
X0043345Y0040502D01*
X0043329Y0040561D01*
X0043316Y0040620D01*
X0043307Y0040679D01*
X0043302Y0040740D01*
X0043300Y0040800D01*
X0058800Y0063800D02*
X0064800Y0063800D01*
X0064800Y0064800D01*
X0065800Y0064800D01*
X0058800Y0064800D02*
X0058800Y0063800D01*
X0058800Y0064800D02*
X0057800Y0064800D01*
X0049800Y0068300D02*
X0049800Y0072300D01*
X0049800Y0081800D01*
X0049800Y0085300D01*
X0057800Y0088800D02*
X0058800Y0088800D01*
X0058800Y0089800D01*
X0064800Y0089800D01*
X0064800Y0088800D01*
X0065800Y0088800D01*
X0073800Y0085300D02*
X0073800Y0081800D01*
X0073800Y0071800D01*
X0073800Y0068300D01*
X0060800Y0076800D02*
X0060802Y0076863D01*
X0060808Y0076925D01*
X0060818Y0076987D01*
X0060831Y0077049D01*
X0060849Y0077109D01*
X0060870Y0077168D01*
X0060895Y0077226D01*
X0060924Y0077282D01*
X0060956Y0077336D01*
X0060991Y0077388D01*
X0061029Y0077437D01*
X0061071Y0077485D01*
X0061115Y0077529D01*
X0061163Y0077571D01*
X0061212Y0077609D01*
X0061264Y0077644D01*
X0061318Y0077676D01*
X0061374Y0077705D01*
X0061432Y0077730D01*
X0061491Y0077751D01*
X0061551Y0077769D01*
X0061613Y0077782D01*
X0061675Y0077792D01*
X0061737Y0077798D01*
X0061800Y0077800D01*
X0061863Y0077798D01*
X0061925Y0077792D01*
X0061987Y0077782D01*
X0062049Y0077769D01*
X0062109Y0077751D01*
X0062168Y0077730D01*
X0062226Y0077705D01*
X0062282Y0077676D01*
X0062336Y0077644D01*
X0062388Y0077609D01*
X0062437Y0077571D01*
X0062485Y0077529D01*
X0062529Y0077485D01*
X0062571Y0077437D01*
X0062609Y0077388D01*
X0062644Y0077336D01*
X0062676Y0077282D01*
X0062705Y0077226D01*
X0062730Y0077168D01*
X0062751Y0077109D01*
X0062769Y0077049D01*
X0062782Y0076987D01*
X0062792Y0076925D01*
X0062798Y0076863D01*
X0062800Y0076800D01*
X0062798Y0076737D01*
X0062792Y0076675D01*
X0062782Y0076613D01*
X0062769Y0076551D01*
X0062751Y0076491D01*
X0062730Y0076432D01*
X0062705Y0076374D01*
X0062676Y0076318D01*
X0062644Y0076264D01*
X0062609Y0076212D01*
X0062571Y0076163D01*
X0062529Y0076115D01*
X0062485Y0076071D01*
X0062437Y0076029D01*
X0062388Y0075991D01*
X0062336Y0075956D01*
X0062282Y0075924D01*
X0062226Y0075895D01*
X0062168Y0075870D01*
X0062109Y0075849D01*
X0062049Y0075831D01*
X0061987Y0075818D01*
X0061925Y0075808D01*
X0061863Y0075802D01*
X0061800Y0075800D01*
X0061737Y0075802D01*
X0061675Y0075808D01*
X0061613Y0075818D01*
X0061551Y0075831D01*
X0061491Y0075849D01*
X0061432Y0075870D01*
X0061374Y0075895D01*
X0061318Y0075924D01*
X0061264Y0075956D01*
X0061212Y0075991D01*
X0061163Y0076029D01*
X0061115Y0076071D01*
X0061071Y0076115D01*
X0061029Y0076163D01*
X0060991Y0076212D01*
X0060956Y0076264D01*
X0060924Y0076318D01*
X0060895Y0076374D01*
X0060870Y0076432D01*
X0060849Y0076491D01*
X0060831Y0076551D01*
X0060818Y0076613D01*
X0060808Y0076675D01*
X0060802Y0076737D01*
X0060800Y0076800D01*
X0054800Y0076800D02*
X0054802Y0076972D01*
X0054808Y0077143D01*
X0054819Y0077315D01*
X0054834Y0077486D01*
X0054853Y0077657D01*
X0054876Y0077827D01*
X0054903Y0077997D01*
X0054935Y0078166D01*
X0054970Y0078334D01*
X0055010Y0078501D01*
X0055054Y0078667D01*
X0055101Y0078832D01*
X0055153Y0078996D01*
X0055209Y0079158D01*
X0055269Y0079319D01*
X0055333Y0079479D01*
X0055401Y0079637D01*
X0055472Y0079793D01*
X0055547Y0079947D01*
X0055627Y0080100D01*
X0055709Y0080250D01*
X0055796Y0080399D01*
X0055886Y0080545D01*
X0055980Y0080689D01*
X0056077Y0080831D01*
X0056178Y0080970D01*
X0056282Y0081107D01*
X0056389Y0081241D01*
X0056500Y0081372D01*
X0056613Y0081501D01*
X0056730Y0081627D01*
X0056850Y0081750D01*
X0056973Y0081870D01*
X0057099Y0081987D01*
X0057228Y0082100D01*
X0057359Y0082211D01*
X0057493Y0082318D01*
X0057630Y0082422D01*
X0057769Y0082523D01*
X0057911Y0082620D01*
X0058055Y0082714D01*
X0058201Y0082804D01*
X0058350Y0082891D01*
X0058500Y0082973D01*
X0058653Y0083053D01*
X0058807Y0083128D01*
X0058963Y0083199D01*
X0059121Y0083267D01*
X0059281Y0083331D01*
X0059442Y0083391D01*
X0059604Y0083447D01*
X0059768Y0083499D01*
X0059933Y0083546D01*
X0060099Y0083590D01*
X0060266Y0083630D01*
X0060434Y0083665D01*
X0060603Y0083697D01*
X0060773Y0083724D01*
X0060943Y0083747D01*
X0061114Y0083766D01*
X0061285Y0083781D01*
X0061457Y0083792D01*
X0061628Y0083798D01*
X0061800Y0083800D01*
X0061972Y0083798D01*
X0062143Y0083792D01*
X0062315Y0083781D01*
X0062486Y0083766D01*
X0062657Y0083747D01*
X0062827Y0083724D01*
X0062997Y0083697D01*
X0063166Y0083665D01*
X0063334Y0083630D01*
X0063501Y0083590D01*
X0063667Y0083546D01*
X0063832Y0083499D01*
X0063996Y0083447D01*
X0064158Y0083391D01*
X0064319Y0083331D01*
X0064479Y0083267D01*
X0064637Y0083199D01*
X0064793Y0083128D01*
X0064947Y0083053D01*
X0065100Y0082973D01*
X0065250Y0082891D01*
X0065399Y0082804D01*
X0065545Y0082714D01*
X0065689Y0082620D01*
X0065831Y0082523D01*
X0065970Y0082422D01*
X0066107Y0082318D01*
X0066241Y0082211D01*
X0066372Y0082100D01*
X0066501Y0081987D01*
X0066627Y0081870D01*
X0066750Y0081750D01*
X0066870Y0081627D01*
X0066987Y0081501D01*
X0067100Y0081372D01*
X0067211Y0081241D01*
X0067318Y0081107D01*
X0067422Y0080970D01*
X0067523Y0080831D01*
X0067620Y0080689D01*
X0067714Y0080545D01*
X0067804Y0080399D01*
X0067891Y0080250D01*
X0067973Y0080100D01*
X0068053Y0079947D01*
X0068128Y0079793D01*
X0068199Y0079637D01*
X0068267Y0079479D01*
X0068331Y0079319D01*
X0068391Y0079158D01*
X0068447Y0078996D01*
X0068499Y0078832D01*
X0068546Y0078667D01*
X0068590Y0078501D01*
X0068630Y0078334D01*
X0068665Y0078166D01*
X0068697Y0077997D01*
X0068724Y0077827D01*
X0068747Y0077657D01*
X0068766Y0077486D01*
X0068781Y0077315D01*
X0068792Y0077143D01*
X0068798Y0076972D01*
X0068800Y0076800D01*
X0068798Y0076628D01*
X0068792Y0076457D01*
X0068781Y0076285D01*
X0068766Y0076114D01*
X0068747Y0075943D01*
X0068724Y0075773D01*
X0068697Y0075603D01*
X0068665Y0075434D01*
X0068630Y0075266D01*
X0068590Y0075099D01*
X0068546Y0074933D01*
X0068499Y0074768D01*
X0068447Y0074604D01*
X0068391Y0074442D01*
X0068331Y0074281D01*
X0068267Y0074121D01*
X0068199Y0073963D01*
X0068128Y0073807D01*
X0068053Y0073653D01*
X0067973Y0073500D01*
X0067891Y0073350D01*
X0067804Y0073201D01*
X0067714Y0073055D01*
X0067620Y0072911D01*
X0067523Y0072769D01*
X0067422Y0072630D01*
X0067318Y0072493D01*
X0067211Y0072359D01*
X0067100Y0072228D01*
X0066987Y0072099D01*
X0066870Y0071973D01*
X0066750Y0071850D01*
X0066627Y0071730D01*
X0066501Y0071613D01*
X0066372Y0071500D01*
X0066241Y0071389D01*
X0066107Y0071282D01*
X0065970Y0071178D01*
X0065831Y0071077D01*
X0065689Y0070980D01*
X0065545Y0070886D01*
X0065399Y0070796D01*
X0065250Y0070709D01*
X0065100Y0070627D01*
X0064947Y0070547D01*
X0064793Y0070472D01*
X0064637Y0070401D01*
X0064479Y0070333D01*
X0064319Y0070269D01*
X0064158Y0070209D01*
X0063996Y0070153D01*
X0063832Y0070101D01*
X0063667Y0070054D01*
X0063501Y0070010D01*
X0063334Y0069970D01*
X0063166Y0069935D01*
X0062997Y0069903D01*
X0062827Y0069876D01*
X0062657Y0069853D01*
X0062486Y0069834D01*
X0062315Y0069819D01*
X0062143Y0069808D01*
X0061972Y0069802D01*
X0061800Y0069800D01*
X0061628Y0069802D01*
X0061457Y0069808D01*
X0061285Y0069819D01*
X0061114Y0069834D01*
X0060943Y0069853D01*
X0060773Y0069876D01*
X0060603Y0069903D01*
X0060434Y0069935D01*
X0060266Y0069970D01*
X0060099Y0070010D01*
X0059933Y0070054D01*
X0059768Y0070101D01*
X0059604Y0070153D01*
X0059442Y0070209D01*
X0059281Y0070269D01*
X0059121Y0070333D01*
X0058963Y0070401D01*
X0058807Y0070472D01*
X0058653Y0070547D01*
X0058500Y0070627D01*
X0058350Y0070709D01*
X0058201Y0070796D01*
X0058055Y0070886D01*
X0057911Y0070980D01*
X0057769Y0071077D01*
X0057630Y0071178D01*
X0057493Y0071282D01*
X0057359Y0071389D01*
X0057228Y0071500D01*
X0057099Y0071613D01*
X0056973Y0071730D01*
X0056850Y0071850D01*
X0056730Y0071973D01*
X0056613Y0072099D01*
X0056500Y0072228D01*
X0056389Y0072359D01*
X0056282Y0072493D01*
X0056178Y0072630D01*
X0056077Y0072769D01*
X0055980Y0072911D01*
X0055886Y0073055D01*
X0055796Y0073201D01*
X0055709Y0073350D01*
X0055627Y0073500D01*
X0055547Y0073653D01*
X0055472Y0073807D01*
X0055401Y0073963D01*
X0055333Y0074121D01*
X0055269Y0074281D01*
X0055209Y0074442D01*
X0055153Y0074604D01*
X0055101Y0074768D01*
X0055054Y0074933D01*
X0055010Y0075099D01*
X0054970Y0075266D01*
X0054935Y0075434D01*
X0054903Y0075603D01*
X0054876Y0075773D01*
X0054853Y0075943D01*
X0054834Y0076114D01*
X0054819Y0076285D01*
X0054808Y0076457D01*
X0054802Y0076628D01*
X0054800Y0076800D01*
X0054300Y0101800D02*
X0049300Y0101800D01*
X0046800Y0104300D01*
X0046800Y0109300D01*
X0049300Y0111800D01*
X0054300Y0111800D01*
X0056800Y0109300D01*
X0059300Y0111800D01*
X0064300Y0111800D01*
X0066800Y0109300D01*
X0066800Y0104300D01*
X0064300Y0101800D01*
X0059300Y0101800D01*
X0056800Y0104300D01*
X0054300Y0101800D01*
X0056800Y0104300D02*
X0056800Y0109300D01*
X0043800Y0130800D02*
X0189800Y0130800D01*
X0189800Y0152800D01*
X0043800Y0152800D01*
X0043800Y0144300D01*
X0043898Y0144298D01*
X0043996Y0144292D01*
X0044094Y0144283D01*
X0044191Y0144269D01*
X0044288Y0144252D01*
X0044384Y0144231D01*
X0044479Y0144206D01*
X0044573Y0144178D01*
X0044665Y0144145D01*
X0044757Y0144110D01*
X0044847Y0144070D01*
X0044935Y0144028D01*
X0045022Y0143981D01*
X0045106Y0143932D01*
X0045189Y0143879D01*
X0045269Y0143823D01*
X0045348Y0143763D01*
X0045424Y0143701D01*
X0045497Y0143636D01*
X0045568Y0143568D01*
X0045636Y0143497D01*
X0045701Y0143424D01*
X0045763Y0143348D01*
X0045823Y0143269D01*
X0045879Y0143189D01*
X0045932Y0143106D01*
X0045981Y0143022D01*
X0046028Y0142935D01*
X0046070Y0142847D01*
X0046110Y0142757D01*
X0046145Y0142665D01*
X0046178Y0142573D01*
X0046206Y0142479D01*
X0046231Y0142384D01*
X0046252Y0142288D01*
X0046269Y0142191D01*
X0046283Y0142094D01*
X0046292Y0141996D01*
X0046298Y0141898D01*
X0046300Y0141800D01*
X0046298Y0141702D01*
X0046292Y0141604D01*
X0046283Y0141506D01*
X0046269Y0141409D01*
X0046252Y0141312D01*
X0046231Y0141216D01*
X0046206Y0141121D01*
X0046178Y0141027D01*
X0046145Y0140935D01*
X0046110Y0140843D01*
X0046070Y0140753D01*
X0046028Y0140665D01*
X0045981Y0140578D01*
X0045932Y0140494D01*
X0045879Y0140411D01*
X0045823Y0140331D01*
X0045763Y0140252D01*
X0045701Y0140176D01*
X0045636Y0140103D01*
X0045568Y0140032D01*
X0045497Y0139964D01*
X0045424Y0139899D01*
X0045348Y0139837D01*
X0045269Y0139777D01*
X0045189Y0139721D01*
X0045106Y0139668D01*
X0045022Y0139619D01*
X0044935Y0139572D01*
X0044847Y0139530D01*
X0044757Y0139490D01*
X0044665Y0139455D01*
X0044573Y0139422D01*
X0044479Y0139394D01*
X0044384Y0139369D01*
X0044288Y0139348D01*
X0044191Y0139331D01*
X0044094Y0139317D01*
X0043996Y0139308D01*
X0043898Y0139302D01*
X0043800Y0139300D01*
X0043800Y0130800D01*
X0088800Y0099800D02*
X0088800Y0093800D01*
X0089800Y0093800D01*
X0089800Y0092800D01*
X0089800Y0099800D02*
X0088800Y0099800D01*
X0089800Y0099800D02*
X0089800Y0100800D01*
X0093300Y0108800D02*
X0096800Y0108800D01*
X0106800Y0108800D01*
X0110300Y0108800D01*
X0113800Y0100800D02*
X0113800Y0099800D01*
X0114800Y0099800D01*
X0114800Y0093800D01*
X0113800Y0093800D01*
X0113800Y0092800D01*
X0110300Y0084800D02*
X0106300Y0084800D01*
X0096800Y0084800D01*
X0093300Y0084800D01*
X0093300Y0072800D02*
X0093300Y0071800D01*
X0093800Y0071300D01*
X0093800Y0062300D01*
X0093300Y0061800D01*
X0093300Y0060800D01*
X0093302Y0060740D01*
X0093307Y0060679D01*
X0093316Y0060620D01*
X0093329Y0060561D01*
X0093345Y0060502D01*
X0093365Y0060445D01*
X0093388Y0060390D01*
X0093415Y0060335D01*
X0093444Y0060283D01*
X0093477Y0060232D01*
X0093513Y0060183D01*
X0093551Y0060137D01*
X0093593Y0060093D01*
X0093637Y0060051D01*
X0093683Y0060013D01*
X0093732Y0059977D01*
X0093783Y0059944D01*
X0093835Y0059915D01*
X0093890Y0059888D01*
X0093945Y0059865D01*
X0094002Y0059845D01*
X0094061Y0059829D01*
X0094120Y0059816D01*
X0094179Y0059807D01*
X0094240Y0059802D01*
X0094300Y0059800D01*
X0099300Y0059800D02*
X0099360Y0059802D01*
X0099421Y0059807D01*
X0099480Y0059816D01*
X0099539Y0059829D01*
X0099598Y0059845D01*
X0099655Y0059865D01*
X0099710Y0059888D01*
X0099765Y0059915D01*
X0099817Y0059944D01*
X0099868Y0059977D01*
X0099917Y0060013D01*
X0099963Y0060051D01*
X0100007Y0060093D01*
X0100049Y0060137D01*
X0100087Y0060183D01*
X0100123Y0060232D01*
X0100156Y0060283D01*
X0100185Y0060335D01*
X0100212Y0060390D01*
X0100235Y0060445D01*
X0100255Y0060502D01*
X0100271Y0060561D01*
X0100284Y0060620D01*
X0100293Y0060679D01*
X0100298Y0060740D01*
X0100300Y0060800D01*
X0100300Y0061800D01*
X0099800Y0062300D01*
X0099800Y0071300D01*
X0100300Y0071800D01*
X0100300Y0072800D01*
X0100298Y0072860D01*
X0100293Y0072921D01*
X0100284Y0072980D01*
X0100271Y0073039D01*
X0100255Y0073098D01*
X0100235Y0073155D01*
X0100212Y0073210D01*
X0100185Y0073265D01*
X0100156Y0073317D01*
X0100123Y0073368D01*
X0100087Y0073417D01*
X0100049Y0073463D01*
X0100007Y0073507D01*
X0099963Y0073549D01*
X0099917Y0073587D01*
X0099868Y0073623D01*
X0099817Y0073656D01*
X0099765Y0073685D01*
X0099710Y0073712D01*
X0099655Y0073735D01*
X0099598Y0073755D01*
X0099539Y0073771D01*
X0099480Y0073784D01*
X0099421Y0073793D01*
X0099360Y0073798D01*
X0099300Y0073800D01*
X0094300Y0073800D02*
X0094240Y0073798D01*
X0094179Y0073793D01*
X0094120Y0073784D01*
X0094061Y0073771D01*
X0094002Y0073755D01*
X0093945Y0073735D01*
X0093890Y0073712D01*
X0093835Y0073685D01*
X0093783Y0073656D01*
X0093732Y0073623D01*
X0093683Y0073587D01*
X0093637Y0073549D01*
X0093593Y0073507D01*
X0093551Y0073463D01*
X0093513Y0073417D01*
X0093477Y0073368D01*
X0093444Y0073317D01*
X0093415Y0073265D01*
X0093388Y0073210D01*
X0093365Y0073155D01*
X0093345Y0073098D01*
X0093329Y0073039D01*
X0093316Y0072980D01*
X0093307Y0072921D01*
X0093302Y0072860D01*
X0093300Y0072800D01*
X0100800Y0096800D02*
X0100802Y0096863D01*
X0100808Y0096925D01*
X0100818Y0096987D01*
X0100831Y0097049D01*
X0100849Y0097109D01*
X0100870Y0097168D01*
X0100895Y0097226D01*
X0100924Y0097282D01*
X0100956Y0097336D01*
X0100991Y0097388D01*
X0101029Y0097437D01*
X0101071Y0097485D01*
X0101115Y0097529D01*
X0101163Y0097571D01*
X0101212Y0097609D01*
X0101264Y0097644D01*
X0101318Y0097676D01*
X0101374Y0097705D01*
X0101432Y0097730D01*
X0101491Y0097751D01*
X0101551Y0097769D01*
X0101613Y0097782D01*
X0101675Y0097792D01*
X0101737Y0097798D01*
X0101800Y0097800D01*
X0101863Y0097798D01*
X0101925Y0097792D01*
X0101987Y0097782D01*
X0102049Y0097769D01*
X0102109Y0097751D01*
X0102168Y0097730D01*
X0102226Y0097705D01*
X0102282Y0097676D01*
X0102336Y0097644D01*
X0102388Y0097609D01*
X0102437Y0097571D01*
X0102485Y0097529D01*
X0102529Y0097485D01*
X0102571Y0097437D01*
X0102609Y0097388D01*
X0102644Y0097336D01*
X0102676Y0097282D01*
X0102705Y0097226D01*
X0102730Y0097168D01*
X0102751Y0097109D01*
X0102769Y0097049D01*
X0102782Y0096987D01*
X0102792Y0096925D01*
X0102798Y0096863D01*
X0102800Y0096800D01*
X0102798Y0096737D01*
X0102792Y0096675D01*
X0102782Y0096613D01*
X0102769Y0096551D01*
X0102751Y0096491D01*
X0102730Y0096432D01*
X0102705Y0096374D01*
X0102676Y0096318D01*
X0102644Y0096264D01*
X0102609Y0096212D01*
X0102571Y0096163D01*
X0102529Y0096115D01*
X0102485Y0096071D01*
X0102437Y0096029D01*
X0102388Y0095991D01*
X0102336Y0095956D01*
X0102282Y0095924D01*
X0102226Y0095895D01*
X0102168Y0095870D01*
X0102109Y0095849D01*
X0102049Y0095831D01*
X0101987Y0095818D01*
X0101925Y0095808D01*
X0101863Y0095802D01*
X0101800Y0095800D01*
X0101737Y0095802D01*
X0101675Y0095808D01*
X0101613Y0095818D01*
X0101551Y0095831D01*
X0101491Y0095849D01*
X0101432Y0095870D01*
X0101374Y0095895D01*
X0101318Y0095924D01*
X0101264Y0095956D01*
X0101212Y0095991D01*
X0101163Y0096029D01*
X0101115Y0096071D01*
X0101071Y0096115D01*
X0101029Y0096163D01*
X0100991Y0096212D01*
X0100956Y0096264D01*
X0100924Y0096318D01*
X0100895Y0096374D01*
X0100870Y0096432D01*
X0100849Y0096491D01*
X0100831Y0096551D01*
X0100818Y0096613D01*
X0100808Y0096675D01*
X0100802Y0096737D01*
X0100800Y0096800D01*
X0094800Y0096800D02*
X0094802Y0096972D01*
X0094808Y0097143D01*
X0094819Y0097315D01*
X0094834Y0097486D01*
X0094853Y0097657D01*
X0094876Y0097827D01*
X0094903Y0097997D01*
X0094935Y0098166D01*
X0094970Y0098334D01*
X0095010Y0098501D01*
X0095054Y0098667D01*
X0095101Y0098832D01*
X0095153Y0098996D01*
X0095209Y0099158D01*
X0095269Y0099319D01*
X0095333Y0099479D01*
X0095401Y0099637D01*
X0095472Y0099793D01*
X0095547Y0099947D01*
X0095627Y0100100D01*
X0095709Y0100250D01*
X0095796Y0100399D01*
X0095886Y0100545D01*
X0095980Y0100689D01*
X0096077Y0100831D01*
X0096178Y0100970D01*
X0096282Y0101107D01*
X0096389Y0101241D01*
X0096500Y0101372D01*
X0096613Y0101501D01*
X0096730Y0101627D01*
X0096850Y0101750D01*
X0096973Y0101870D01*
X0097099Y0101987D01*
X0097228Y0102100D01*
X0097359Y0102211D01*
X0097493Y0102318D01*
X0097630Y0102422D01*
X0097769Y0102523D01*
X0097911Y0102620D01*
X0098055Y0102714D01*
X0098201Y0102804D01*
X0098350Y0102891D01*
X0098500Y0102973D01*
X0098653Y0103053D01*
X0098807Y0103128D01*
X0098963Y0103199D01*
X0099121Y0103267D01*
X0099281Y0103331D01*
X0099442Y0103391D01*
X0099604Y0103447D01*
X0099768Y0103499D01*
X0099933Y0103546D01*
X0100099Y0103590D01*
X0100266Y0103630D01*
X0100434Y0103665D01*
X0100603Y0103697D01*
X0100773Y0103724D01*
X0100943Y0103747D01*
X0101114Y0103766D01*
X0101285Y0103781D01*
X0101457Y0103792D01*
X0101628Y0103798D01*
X0101800Y0103800D01*
X0101972Y0103798D01*
X0102143Y0103792D01*
X0102315Y0103781D01*
X0102486Y0103766D01*
X0102657Y0103747D01*
X0102827Y0103724D01*
X0102997Y0103697D01*
X0103166Y0103665D01*
X0103334Y0103630D01*
X0103501Y0103590D01*
X0103667Y0103546D01*
X0103832Y0103499D01*
X0103996Y0103447D01*
X0104158Y0103391D01*
X0104319Y0103331D01*
X0104479Y0103267D01*
X0104637Y0103199D01*
X0104793Y0103128D01*
X0104947Y0103053D01*
X0105100Y0102973D01*
X0105250Y0102891D01*
X0105399Y0102804D01*
X0105545Y0102714D01*
X0105689Y0102620D01*
X0105831Y0102523D01*
X0105970Y0102422D01*
X0106107Y0102318D01*
X0106241Y0102211D01*
X0106372Y0102100D01*
X0106501Y0101987D01*
X0106627Y0101870D01*
X0106750Y0101750D01*
X0106870Y0101627D01*
X0106987Y0101501D01*
X0107100Y0101372D01*
X0107211Y0101241D01*
X0107318Y0101107D01*
X0107422Y0100970D01*
X0107523Y0100831D01*
X0107620Y0100689D01*
X0107714Y0100545D01*
X0107804Y0100399D01*
X0107891Y0100250D01*
X0107973Y0100100D01*
X0108053Y0099947D01*
X0108128Y0099793D01*
X0108199Y0099637D01*
X0108267Y0099479D01*
X0108331Y0099319D01*
X0108391Y0099158D01*
X0108447Y0098996D01*
X0108499Y0098832D01*
X0108546Y0098667D01*
X0108590Y0098501D01*
X0108630Y0098334D01*
X0108665Y0098166D01*
X0108697Y0097997D01*
X0108724Y0097827D01*
X0108747Y0097657D01*
X0108766Y0097486D01*
X0108781Y0097315D01*
X0108792Y0097143D01*
X0108798Y0096972D01*
X0108800Y0096800D01*
X0108798Y0096628D01*
X0108792Y0096457D01*
X0108781Y0096285D01*
X0108766Y0096114D01*
X0108747Y0095943D01*
X0108724Y0095773D01*
X0108697Y0095603D01*
X0108665Y0095434D01*
X0108630Y0095266D01*
X0108590Y0095099D01*
X0108546Y0094933D01*
X0108499Y0094768D01*
X0108447Y0094604D01*
X0108391Y0094442D01*
X0108331Y0094281D01*
X0108267Y0094121D01*
X0108199Y0093963D01*
X0108128Y0093807D01*
X0108053Y0093653D01*
X0107973Y0093500D01*
X0107891Y0093350D01*
X0107804Y0093201D01*
X0107714Y0093055D01*
X0107620Y0092911D01*
X0107523Y0092769D01*
X0107422Y0092630D01*
X0107318Y0092493D01*
X0107211Y0092359D01*
X0107100Y0092228D01*
X0106987Y0092099D01*
X0106870Y0091973D01*
X0106750Y0091850D01*
X0106627Y0091730D01*
X0106501Y0091613D01*
X0106372Y0091500D01*
X0106241Y0091389D01*
X0106107Y0091282D01*
X0105970Y0091178D01*
X0105831Y0091077D01*
X0105689Y0090980D01*
X0105545Y0090886D01*
X0105399Y0090796D01*
X0105250Y0090709D01*
X0105100Y0090627D01*
X0104947Y0090547D01*
X0104793Y0090472D01*
X0104637Y0090401D01*
X0104479Y0090333D01*
X0104319Y0090269D01*
X0104158Y0090209D01*
X0103996Y0090153D01*
X0103832Y0090101D01*
X0103667Y0090054D01*
X0103501Y0090010D01*
X0103334Y0089970D01*
X0103166Y0089935D01*
X0102997Y0089903D01*
X0102827Y0089876D01*
X0102657Y0089853D01*
X0102486Y0089834D01*
X0102315Y0089819D01*
X0102143Y0089808D01*
X0101972Y0089802D01*
X0101800Y0089800D01*
X0101628Y0089802D01*
X0101457Y0089808D01*
X0101285Y0089819D01*
X0101114Y0089834D01*
X0100943Y0089853D01*
X0100773Y0089876D01*
X0100603Y0089903D01*
X0100434Y0089935D01*
X0100266Y0089970D01*
X0100099Y0090010D01*
X0099933Y0090054D01*
X0099768Y0090101D01*
X0099604Y0090153D01*
X0099442Y0090209D01*
X0099281Y0090269D01*
X0099121Y0090333D01*
X0098963Y0090401D01*
X0098807Y0090472D01*
X0098653Y0090547D01*
X0098500Y0090627D01*
X0098350Y0090709D01*
X0098201Y0090796D01*
X0098055Y0090886D01*
X0097911Y0090980D01*
X0097769Y0091077D01*
X0097630Y0091178D01*
X0097493Y0091282D01*
X0097359Y0091389D01*
X0097228Y0091500D01*
X0097099Y0091613D01*
X0096973Y0091730D01*
X0096850Y0091850D01*
X0096730Y0091973D01*
X0096613Y0092099D01*
X0096500Y0092228D01*
X0096389Y0092359D01*
X0096282Y0092493D01*
X0096178Y0092630D01*
X0096077Y0092769D01*
X0095980Y0092911D01*
X0095886Y0093055D01*
X0095796Y0093201D01*
X0095709Y0093350D01*
X0095627Y0093500D01*
X0095547Y0093653D01*
X0095472Y0093807D01*
X0095401Y0093963D01*
X0095333Y0094121D01*
X0095269Y0094281D01*
X0095209Y0094442D01*
X0095153Y0094604D01*
X0095101Y0094768D01*
X0095054Y0094933D01*
X0095010Y0095099D01*
X0094970Y0095266D01*
X0094935Y0095434D01*
X0094903Y0095603D01*
X0094876Y0095773D01*
X0094853Y0095943D01*
X0094834Y0096114D01*
X0094819Y0096285D01*
X0094808Y0096457D01*
X0094802Y0096628D01*
X0094800Y0096800D01*
X0135800Y0093300D02*
X0135800Y0110300D01*
X0135802Y0110360D01*
X0135807Y0110421D01*
X0135816Y0110480D01*
X0135829Y0110539D01*
X0135845Y0110598D01*
X0135865Y0110655D01*
X0135888Y0110710D01*
X0135915Y0110765D01*
X0135944Y0110817D01*
X0135977Y0110868D01*
X0136013Y0110917D01*
X0136051Y0110963D01*
X0136093Y0111007D01*
X0136137Y0111049D01*
X0136183Y0111087D01*
X0136232Y0111123D01*
X0136283Y0111156D01*
X0136335Y0111185D01*
X0136390Y0111212D01*
X0136445Y0111235D01*
X0136502Y0111255D01*
X0136561Y0111271D01*
X0136620Y0111284D01*
X0136679Y0111293D01*
X0136740Y0111298D01*
X0136800Y0111300D01*
X0146800Y0111300D01*
X0146860Y0111298D01*
X0146921Y0111293D01*
X0146980Y0111284D01*
X0147039Y0111271D01*
X0147098Y0111255D01*
X0147155Y0111235D01*
X0147210Y0111212D01*
X0147265Y0111185D01*
X0147317Y0111156D01*
X0147368Y0111123D01*
X0147417Y0111087D01*
X0147463Y0111049D01*
X0147507Y0111007D01*
X0147549Y0110963D01*
X0147587Y0110917D01*
X0147623Y0110868D01*
X0147656Y0110817D01*
X0147685Y0110765D01*
X0147712Y0110710D01*
X0147735Y0110655D01*
X0147755Y0110598D01*
X0147771Y0110539D01*
X0147784Y0110480D01*
X0147793Y0110421D01*
X0147798Y0110360D01*
X0147800Y0110300D01*
X0147800Y0093300D01*
X0147798Y0093240D01*
X0147793Y0093179D01*
X0147784Y0093120D01*
X0147771Y0093061D01*
X0147755Y0093002D01*
X0147735Y0092945D01*
X0147712Y0092890D01*
X0147685Y0092835D01*
X0147656Y0092783D01*
X0147623Y0092732D01*
X0147587Y0092683D01*
X0147549Y0092637D01*
X0147507Y0092593D01*
X0147463Y0092551D01*
X0147417Y0092513D01*
X0147368Y0092477D01*
X0147317Y0092444D01*
X0147265Y0092415D01*
X0147210Y0092388D01*
X0147155Y0092365D01*
X0147098Y0092345D01*
X0147039Y0092329D01*
X0146980Y0092316D01*
X0146921Y0092307D01*
X0146860Y0092302D01*
X0146800Y0092300D01*
X0136800Y0092300D01*
X0136740Y0092302D01*
X0136679Y0092307D01*
X0136620Y0092316D01*
X0136561Y0092329D01*
X0136502Y0092345D01*
X0136445Y0092365D01*
X0136390Y0092388D01*
X0136335Y0092415D01*
X0136283Y0092444D01*
X0136232Y0092477D01*
X0136183Y0092513D01*
X0136137Y0092551D01*
X0136093Y0092593D01*
X0136051Y0092637D01*
X0136013Y0092683D01*
X0135977Y0092732D01*
X0135944Y0092783D01*
X0135915Y0092835D01*
X0135888Y0092890D01*
X0135865Y0092945D01*
X0135845Y0093002D01*
X0135829Y0093061D01*
X0135816Y0093120D01*
X0135807Y0093179D01*
X0135802Y0093240D01*
X0135800Y0093300D01*
X0141800Y0100300D02*
X0141800Y0100800D01*
X0141800Y0102800D02*
X0141800Y0103300D01*
X0151800Y0110800D02*
X0151926Y0110798D01*
X0152051Y0110792D01*
X0152177Y0110782D01*
X0152301Y0110768D01*
X0152426Y0110751D01*
X0152550Y0110729D01*
X0152673Y0110704D01*
X0152795Y0110674D01*
X0152916Y0110641D01*
X0153036Y0110604D01*
X0153155Y0110563D01*
X0153273Y0110519D01*
X0153389Y0110471D01*
X0153503Y0110419D01*
X0153616Y0110364D01*
X0153727Y0110305D01*
X0153836Y0110243D01*
X0153943Y0110177D01*
X0154048Y0110108D01*
X0154151Y0110036D01*
X0154252Y0109961D01*
X0154350Y0109882D01*
X0154445Y0109800D01*
X0154538Y0109716D01*
X0154629Y0109628D01*
X0151800Y0110800D02*
X0151674Y0110798D01*
X0151549Y0110792D01*
X0151423Y0110782D01*
X0151299Y0110768D01*
X0151174Y0110751D01*
X0151050Y0110729D01*
X0150927Y0110704D01*
X0150805Y0110674D01*
X0150684Y0110641D01*
X0150564Y0110604D01*
X0150445Y0110563D01*
X0150327Y0110519D01*
X0150211Y0110471D01*
X0150097Y0110419D01*
X0149984Y0110364D01*
X0149873Y0110305D01*
X0149764Y0110243D01*
X0149657Y0110177D01*
X0149552Y0110108D01*
X0149449Y0110036D01*
X0149348Y0109961D01*
X0149250Y0109882D01*
X0149155Y0109800D01*
X0149062Y0109716D01*
X0148971Y0109628D01*
X0151800Y0102800D02*
X0151926Y0102802D01*
X0152051Y0102808D01*
X0152177Y0102818D01*
X0152301Y0102832D01*
X0152426Y0102849D01*
X0152550Y0102871D01*
X0152673Y0102896D01*
X0152795Y0102926D01*
X0152916Y0102959D01*
X0153036Y0102996D01*
X0153155Y0103037D01*
X0153273Y0103081D01*
X0153389Y0103129D01*
X0153503Y0103181D01*
X0153616Y0103236D01*
X0153727Y0103295D01*
X0153836Y0103357D01*
X0153943Y0103423D01*
X0154048Y0103492D01*
X0154151Y0103564D01*
X0154252Y0103639D01*
X0154350Y0103718D01*
X0154445Y0103800D01*
X0154538Y0103884D01*
X0154629Y0103972D01*
X0151800Y0102800D02*
X0151674Y0102802D01*
X0151549Y0102808D01*
X0151423Y0102818D01*
X0151299Y0102832D01*
X0151174Y0102849D01*
X0151050Y0102871D01*
X0150927Y0102896D01*
X0150805Y0102926D01*
X0150684Y0102959D01*
X0150564Y0102996D01*
X0150445Y0103037D01*
X0150327Y0103081D01*
X0150211Y0103129D01*
X0150097Y0103181D01*
X0149984Y0103236D01*
X0149873Y0103295D01*
X0149764Y0103357D01*
X0149657Y0103423D01*
X0149552Y0103492D01*
X0149449Y0103564D01*
X0149348Y0103639D01*
X0149250Y0103718D01*
X0149155Y0103800D01*
X0149062Y0103884D01*
X0148971Y0103972D01*
X0160800Y0110300D02*
X0160800Y0093300D01*
X0160802Y0093240D01*
X0160807Y0093179D01*
X0160816Y0093120D01*
X0160829Y0093061D01*
X0160845Y0093002D01*
X0160865Y0092945D01*
X0160888Y0092890D01*
X0160915Y0092835D01*
X0160944Y0092783D01*
X0160977Y0092732D01*
X0161013Y0092683D01*
X0161051Y0092637D01*
X0161093Y0092593D01*
X0161137Y0092551D01*
X0161183Y0092513D01*
X0161232Y0092477D01*
X0161283Y0092444D01*
X0161335Y0092415D01*
X0161390Y0092388D01*
X0161445Y0092365D01*
X0161502Y0092345D01*
X0161561Y0092329D01*
X0161620Y0092316D01*
X0161679Y0092307D01*
X0161740Y0092302D01*
X0161800Y0092300D01*
X0171800Y0092300D01*
X0171860Y0092302D01*
X0171921Y0092307D01*
X0171980Y0092316D01*
X0172039Y0092329D01*
X0172098Y0092345D01*
X0172155Y0092365D01*
X0172210Y0092388D01*
X0172265Y0092415D01*
X0172317Y0092444D01*
X0172368Y0092477D01*
X0172417Y0092513D01*
X0172463Y0092551D01*
X0172507Y0092593D01*
X0172549Y0092637D01*
X0172587Y0092683D01*
X0172623Y0092732D01*
X0172656Y0092783D01*
X0172685Y0092835D01*
X0172712Y0092890D01*
X0172735Y0092945D01*
X0172755Y0093002D01*
X0172771Y0093061D01*
X0172784Y0093120D01*
X0172793Y0093179D01*
X0172798Y0093240D01*
X0172800Y0093300D01*
X0172800Y0110300D01*
X0172798Y0110360D01*
X0172793Y0110421D01*
X0172784Y0110480D01*
X0172771Y0110539D01*
X0172755Y0110598D01*
X0172735Y0110655D01*
X0172712Y0110710D01*
X0172685Y0110765D01*
X0172656Y0110817D01*
X0172623Y0110868D01*
X0172587Y0110917D01*
X0172549Y0110963D01*
X0172507Y0111007D01*
X0172463Y0111049D01*
X0172417Y0111087D01*
X0172368Y0111123D01*
X0172317Y0111156D01*
X0172265Y0111185D01*
X0172210Y0111212D01*
X0172155Y0111235D01*
X0172098Y0111255D01*
X0172039Y0111271D01*
X0171980Y0111284D01*
X0171921Y0111293D01*
X0171860Y0111298D01*
X0171800Y0111300D01*
X0161800Y0111300D01*
X0161740Y0111298D01*
X0161679Y0111293D01*
X0161620Y0111284D01*
X0161561Y0111271D01*
X0161502Y0111255D01*
X0161445Y0111235D01*
X0161390Y0111212D01*
X0161335Y0111185D01*
X0161283Y0111156D01*
X0161232Y0111123D01*
X0161183Y0111087D01*
X0161137Y0111049D01*
X0161093Y0111007D01*
X0161051Y0110963D01*
X0161013Y0110917D01*
X0160977Y0110868D01*
X0160944Y0110817D01*
X0160915Y0110765D01*
X0160888Y0110710D01*
X0160865Y0110655D01*
X0160845Y0110598D01*
X0160829Y0110539D01*
X0160816Y0110480D01*
X0160807Y0110421D01*
X0160802Y0110360D01*
X0160800Y0110300D01*
X0166800Y0103300D02*
X0166800Y0102800D01*
X0166800Y0100800D02*
X0166800Y0100300D01*
X0164300Y0036800D02*
X0159300Y0036800D01*
X0156800Y0034300D01*
X0156800Y0029300D01*
X0159300Y0026800D01*
X0164300Y0026800D01*
X0166800Y0029300D01*
X0166800Y0034300D01*
X0164300Y0036800D01*
X0166800Y0034300D02*
X0169300Y0036800D01*
X0174300Y0036800D01*
X0176800Y0034300D01*
X0179300Y0036800D01*
X0184300Y0036800D01*
X0186800Y0034300D01*
X0189300Y0036800D01*
X0194300Y0036800D01*
X0196800Y0034300D01*
X0199300Y0036800D01*
X0204300Y0036800D01*
X0206800Y0034300D01*
X0206800Y0029300D01*
X0204300Y0026800D01*
X0199300Y0026800D01*
X0196800Y0029300D01*
X0194300Y0026800D01*
X0189300Y0026800D01*
X0186800Y0029300D01*
X0184300Y0026800D01*
X0179300Y0026800D01*
X0176800Y0029300D01*
X0174300Y0026800D01*
X0169300Y0026800D01*
X0166800Y0029300D01*
X0156800Y0029300D02*
X0154300Y0026800D01*
X0149300Y0026800D01*
X0146800Y0029300D01*
X0144300Y0026800D01*
X0139300Y0026800D01*
X0136800Y0029300D01*
X0134300Y0026800D01*
X0129300Y0026800D01*
X0126800Y0029300D01*
X0124300Y0026800D01*
X0119300Y0026800D01*
X0116800Y0029300D01*
X0114300Y0026800D01*
X0109300Y0026800D01*
X0106800Y0029300D01*
X0104300Y0026800D01*
X0099300Y0026800D01*
X0096800Y0029300D01*
X0094300Y0026800D01*
X0089300Y0026800D01*
X0086800Y0029300D01*
X0086800Y0034300D01*
X0089300Y0036800D01*
X0094300Y0036800D01*
X0096800Y0034300D01*
X0099300Y0036800D01*
X0104300Y0036800D01*
X0106800Y0034300D01*
X0106800Y0029300D01*
X0106800Y0034300D02*
X0109300Y0036800D01*
X0114300Y0036800D01*
X0116800Y0034300D01*
X0119300Y0036800D01*
X0124300Y0036800D01*
X0126800Y0034300D01*
X0129300Y0036800D01*
X0134300Y0036800D01*
X0136800Y0034300D01*
X0136800Y0029300D01*
X0136800Y0034300D02*
X0139300Y0036800D01*
X0144300Y0036800D01*
X0146800Y0034300D01*
X0149300Y0036800D01*
X0154300Y0036800D01*
X0156800Y0034300D01*
X0146800Y0034300D02*
X0146800Y0029300D01*
X0126800Y0029300D02*
X0126800Y0034300D01*
X0116800Y0034300D02*
X0116800Y0029300D01*
X0096800Y0029300D02*
X0096800Y0034300D01*
X0176800Y0034300D02*
X0176800Y0029300D01*
X0186800Y0029300D02*
X0186800Y0034300D01*
X0196800Y0034300D02*
X0196800Y0029300D01*
X0064300Y0196800D02*
X0059300Y0196800D01*
X0056800Y0199300D01*
X0056800Y0204300D01*
X0059300Y0206800D01*
X0056800Y0209300D01*
X0056800Y0214300D01*
X0059300Y0216800D01*
X0064300Y0216800D01*
X0066800Y0214300D01*
X0066800Y0209300D01*
X0064300Y0206800D01*
X0066800Y0204300D01*
X0066800Y0199300D01*
X0064300Y0196800D01*
X0064300Y0206800D02*
X0059300Y0206800D01*
X0057800Y0228300D02*
X0056800Y0228300D01*
X0056300Y0228800D01*
X0047300Y0228800D01*
X0046800Y0228300D01*
X0045800Y0228300D01*
X0045740Y0228302D01*
X0045679Y0228307D01*
X0045620Y0228316D01*
X0045561Y0228329D01*
X0045502Y0228345D01*
X0045445Y0228365D01*
X0045390Y0228388D01*
X0045335Y0228415D01*
X0045283Y0228444D01*
X0045232Y0228477D01*
X0045183Y0228513D01*
X0045137Y0228551D01*
X0045093Y0228593D01*
X0045051Y0228637D01*
X0045013Y0228683D01*
X0044977Y0228732D01*
X0044944Y0228783D01*
X0044915Y0228835D01*
X0044888Y0228890D01*
X0044865Y0228945D01*
X0044845Y0229002D01*
X0044829Y0229061D01*
X0044816Y0229120D01*
X0044807Y0229179D01*
X0044802Y0229240D01*
X0044800Y0229300D01*
X0044800Y0234300D02*
X0044802Y0234360D01*
X0044807Y0234421D01*
X0044816Y0234480D01*
X0044829Y0234539D01*
X0044845Y0234598D01*
X0044865Y0234655D01*
X0044888Y0234710D01*
X0044915Y0234765D01*
X0044944Y0234817D01*
X0044977Y0234868D01*
X0045013Y0234917D01*
X0045051Y0234963D01*
X0045093Y0235007D01*
X0045137Y0235049D01*
X0045183Y0235087D01*
X0045232Y0235123D01*
X0045283Y0235156D01*
X0045335Y0235185D01*
X0045390Y0235212D01*
X0045445Y0235235D01*
X0045502Y0235255D01*
X0045561Y0235271D01*
X0045620Y0235284D01*
X0045679Y0235293D01*
X0045740Y0235298D01*
X0045800Y0235300D01*
X0046800Y0235300D01*
X0047300Y0234800D01*
X0056300Y0234800D01*
X0056800Y0235300D01*
X0057800Y0235300D01*
X0057860Y0235298D01*
X0057921Y0235293D01*
X0057980Y0235284D01*
X0058039Y0235271D01*
X0058098Y0235255D01*
X0058155Y0235235D01*
X0058210Y0235212D01*
X0058265Y0235185D01*
X0058317Y0235156D01*
X0058368Y0235123D01*
X0058417Y0235087D01*
X0058463Y0235049D01*
X0058507Y0235007D01*
X0058549Y0234963D01*
X0058587Y0234917D01*
X0058623Y0234868D01*
X0058656Y0234817D01*
X0058685Y0234765D01*
X0058712Y0234710D01*
X0058735Y0234655D01*
X0058755Y0234598D01*
X0058771Y0234539D01*
X0058784Y0234480D01*
X0058793Y0234421D01*
X0058798Y0234360D01*
X0058800Y0234300D01*
X0058800Y0229300D02*
X0058798Y0229240D01*
X0058793Y0229179D01*
X0058784Y0229120D01*
X0058771Y0229061D01*
X0058755Y0229002D01*
X0058735Y0228945D01*
X0058712Y0228890D01*
X0058685Y0228835D01*
X0058656Y0228783D01*
X0058623Y0228732D01*
X0058587Y0228683D01*
X0058549Y0228637D01*
X0058507Y0228593D01*
X0058463Y0228551D01*
X0058417Y0228513D01*
X0058368Y0228477D01*
X0058317Y0228444D01*
X0058265Y0228415D01*
X0058210Y0228388D01*
X0058155Y0228365D01*
X0058098Y0228345D01*
X0058039Y0228329D01*
X0057980Y0228316D01*
X0057921Y0228307D01*
X0057860Y0228302D01*
X0057800Y0228300D01*
X0081800Y0223300D02*
X0081800Y0200300D01*
X0151800Y0200300D01*
X0151800Y0207800D01*
X0151674Y0207802D01*
X0151549Y0207808D01*
X0151424Y0207818D01*
X0151299Y0207832D01*
X0151174Y0207849D01*
X0151050Y0207871D01*
X0150927Y0207896D01*
X0150805Y0207926D01*
X0150684Y0207959D01*
X0150564Y0207996D01*
X0150445Y0208036D01*
X0150328Y0208081D01*
X0150211Y0208129D01*
X0150097Y0208181D01*
X0149984Y0208236D01*
X0149873Y0208295D01*
X0149764Y0208357D01*
X0149657Y0208423D01*
X0149552Y0208492D01*
X0149449Y0208564D01*
X0149348Y0208639D01*
X0149250Y0208718D01*
X0149155Y0208800D01*
X0149062Y0208884D01*
X0148972Y0208972D01*
X0148884Y0209062D01*
X0148800Y0209155D01*
X0148718Y0209250D01*
X0148639Y0209348D01*
X0148564Y0209449D01*
X0148492Y0209552D01*
X0148423Y0209657D01*
X0148357Y0209764D01*
X0148295Y0209873D01*
X0148236Y0209984D01*
X0148181Y0210097D01*
X0148129Y0210211D01*
X0148081Y0210328D01*
X0148036Y0210445D01*
X0147996Y0210564D01*
X0147959Y0210684D01*
X0147926Y0210805D01*
X0147896Y0210927D01*
X0147871Y0211050D01*
X0147849Y0211174D01*
X0147832Y0211299D01*
X0147818Y0211424D01*
X0147808Y0211549D01*
X0147802Y0211674D01*
X0147800Y0211800D01*
X0147802Y0211926D01*
X0147808Y0212051D01*
X0147818Y0212176D01*
X0147832Y0212301D01*
X0147849Y0212426D01*
X0147871Y0212550D01*
X0147896Y0212673D01*
X0147926Y0212795D01*
X0147959Y0212916D01*
X0147996Y0213036D01*
X0148036Y0213155D01*
X0148081Y0213272D01*
X0148129Y0213389D01*
X0148181Y0213503D01*
X0148236Y0213616D01*
X0148295Y0213727D01*
X0148357Y0213836D01*
X0148423Y0213943D01*
X0148492Y0214048D01*
X0148564Y0214151D01*
X0148639Y0214252D01*
X0148718Y0214350D01*
X0148800Y0214445D01*
X0148884Y0214538D01*
X0148972Y0214628D01*
X0149062Y0214716D01*
X0149155Y0214800D01*
X0149250Y0214882D01*
X0149348Y0214961D01*
X0149449Y0215036D01*
X0149552Y0215108D01*
X0149657Y0215177D01*
X0149764Y0215243D01*
X0149873Y0215305D01*
X0149984Y0215364D01*
X0150097Y0215419D01*
X0150211Y0215471D01*
X0150328Y0215519D01*
X0150445Y0215564D01*
X0150564Y0215604D01*
X0150684Y0215641D01*
X0150805Y0215674D01*
X0150927Y0215704D01*
X0151050Y0215729D01*
X0151174Y0215751D01*
X0151299Y0215768D01*
X0151424Y0215782D01*
X0151549Y0215792D01*
X0151674Y0215798D01*
X0151800Y0215800D01*
X0151800Y0223300D01*
X0081800Y0223300D01*
X0026800Y0224300D02*
X0026800Y0219300D01*
X0024300Y0216800D01*
X0026800Y0214300D01*
X0026800Y0209300D01*
X0024300Y0206800D01*
X0019300Y0206800D01*
X0016800Y0209300D01*
X0016800Y0214300D01*
X0019300Y0216800D01*
X0016800Y0219300D01*
X0016800Y0224300D01*
X0019300Y0226800D01*
X0024300Y0226800D01*
X0026800Y0224300D01*
X0024300Y0216800D02*
X0019300Y0216800D01*
D11*
X0138800Y0102800D02*
X0141800Y0102800D01*
X0144800Y0102800D01*
X0144800Y0100800D02*
X0141800Y0100800D01*
X0138800Y0100800D01*
X0163800Y0100800D02*
X0166800Y0100800D01*
X0169800Y0100800D01*
X0169800Y0102800D02*
X0166800Y0102800D01*
X0163800Y0102800D01*
D12*
X0159550Y0103156D02*
X0159550Y0100154D01*
X0159550Y0101655D02*
X0155046Y0101655D01*
X0156547Y0100154D01*
X0156947Y0101054D02*
X0156947Y0096550D01*
X0155446Y0096550D02*
X0158449Y0096550D01*
X0158799Y0095550D02*
X0159550Y0096301D01*
X0159550Y0097802D01*
X0158799Y0098553D01*
X0155797Y0098553D02*
X0155046Y0097802D01*
X0155046Y0096301D01*
X0155797Y0095550D01*
X0158799Y0095550D01*
X0153845Y0096550D02*
X0152343Y0098051D01*
X0150842Y0097301D02*
X0150842Y0100303D01*
X0151593Y0101054D01*
X0153094Y0101054D01*
X0153845Y0100303D01*
X0153845Y0097301D01*
X0153094Y0096550D01*
X0151593Y0096550D01*
X0150842Y0097301D01*
X0155446Y0099553D02*
X0156947Y0101054D01*
X0134550Y0100154D02*
X0131547Y0103156D01*
X0130797Y0103156D01*
X0130046Y0102406D01*
X0130046Y0100905D01*
X0130797Y0100154D01*
X0130797Y0098553D02*
X0130046Y0097802D01*
X0130046Y0096301D01*
X0130797Y0095550D01*
X0133799Y0095550D01*
X0134550Y0096301D01*
X0134550Y0097802D01*
X0133799Y0098553D01*
X0134550Y0100154D02*
X0134550Y0103156D01*
X0097656Y0111550D02*
X0094654Y0111550D01*
X0096155Y0111550D02*
X0096155Y0116054D01*
X0094654Y0114553D01*
X0093053Y0115303D02*
X0092302Y0116054D01*
X0090801Y0116054D01*
X0090050Y0115303D01*
X0090050Y0114553D01*
X0090801Y0113802D01*
X0092302Y0113802D01*
X0093053Y0113051D01*
X0093053Y0112301D01*
X0092302Y0111550D01*
X0090801Y0111550D01*
X0090050Y0112301D01*
X0081050Y0087449D02*
X0081050Y0084446D01*
X0078047Y0087449D01*
X0077297Y0087449D01*
X0076546Y0086698D01*
X0076546Y0085197D01*
X0077297Y0084446D01*
X0077297Y0082845D02*
X0076546Y0082094D01*
X0076546Y0080593D01*
X0077297Y0079842D01*
X0078047Y0079842D01*
X0078798Y0080593D01*
X0078798Y0082094D01*
X0079549Y0082845D01*
X0080299Y0082845D01*
X0081050Y0082094D01*
X0081050Y0080593D01*
X0080299Y0079842D01*
X0088251Y0043754D02*
X0089753Y0043754D01*
X0089002Y0043754D02*
X0089002Y0040001D01*
X0088251Y0039250D01*
X0087501Y0039250D01*
X0086750Y0040001D01*
X0091354Y0040751D02*
X0093606Y0040751D01*
X0094356Y0041502D01*
X0094356Y0043003D01*
X0093606Y0043754D01*
X0091354Y0043754D01*
X0091354Y0039250D01*
X0095958Y0040001D02*
X0096708Y0039250D01*
X0098210Y0039250D01*
X0098960Y0040001D01*
X0098960Y0040751D01*
X0098210Y0041502D01*
X0097459Y0041502D01*
X0098210Y0041502D02*
X0098960Y0042253D01*
X0098960Y0043003D01*
X0098210Y0043754D01*
X0096708Y0043754D01*
X0095958Y0043003D01*
X0058210Y0114250D02*
X0058210Y0118754D01*
X0055958Y0116502D01*
X0058960Y0116502D01*
X0054356Y0116502D02*
X0053606Y0115751D01*
X0051354Y0115751D01*
X0051354Y0114250D02*
X0051354Y0118754D01*
X0053606Y0118754D01*
X0054356Y0118003D01*
X0054356Y0116502D01*
X0049753Y0118754D02*
X0048251Y0118754D01*
X0049002Y0118754D02*
X0049002Y0115001D01*
X0048251Y0114250D01*
X0047501Y0114250D01*
X0046750Y0115001D01*
X0053599Y0196750D02*
X0054350Y0197501D01*
X0054350Y0198251D01*
X0053599Y0199002D01*
X0049846Y0199002D01*
X0049846Y0198251D02*
X0049846Y0199753D01*
X0049846Y0201354D02*
X0049846Y0203606D01*
X0050597Y0204356D01*
X0052098Y0204356D01*
X0052849Y0203606D01*
X0052849Y0201354D01*
X0054350Y0201354D02*
X0049846Y0201354D01*
X0050597Y0205958D02*
X0049846Y0206708D01*
X0049846Y0208210D01*
X0050597Y0208960D01*
X0051347Y0208960D01*
X0054350Y0205958D01*
X0054350Y0208960D01*
X0033750Y0214289D02*
X0033750Y0215039D01*
X0032999Y0215790D01*
X0029246Y0215790D01*
X0029246Y0215039D02*
X0029246Y0216541D01*
X0029246Y0218142D02*
X0029246Y0220394D01*
X0029997Y0221145D01*
X0031498Y0221145D01*
X0032249Y0220394D01*
X0032249Y0218142D01*
X0033750Y0218142D02*
X0029246Y0218142D01*
X0030747Y0222746D02*
X0029246Y0224247D01*
X0033750Y0224247D01*
X0033750Y0222746D02*
X0033750Y0225749D01*
X0033750Y0214289D02*
X0032999Y0213538D01*
X0153546Y0213274D02*
X0153546Y0211773D01*
X0153546Y0212523D02*
X0158050Y0212523D01*
X0158050Y0211773D02*
X0158050Y0213274D01*
X0157299Y0214842D02*
X0158050Y0215593D01*
X0158050Y0217094D01*
X0157299Y0217845D01*
X0158050Y0219446D02*
X0155047Y0222449D01*
X0154297Y0222449D01*
X0153546Y0221698D01*
X0153546Y0220197D01*
X0154297Y0219446D01*
X0154297Y0217845D02*
X0153546Y0217094D01*
X0153546Y0215593D01*
X0154297Y0214842D01*
X0157299Y0214842D01*
X0158050Y0219446D02*
X0158050Y0222449D01*
D13*
X0040850Y0147096D02*
X0040850Y0142892D01*
X0040850Y0144994D02*
X0034545Y0144994D01*
X0036646Y0142892D01*
X0035596Y0140651D02*
X0034545Y0139600D01*
X0034545Y0137498D01*
X0035596Y0136447D01*
X0039799Y0136447D01*
X0040850Y0137498D01*
X0040850Y0139600D01*
X0039799Y0140651D01*
X0040850Y0134252D02*
X0040850Y0132150D01*
X0040850Y0133201D02*
X0034545Y0133201D01*
X0034545Y0132150D02*
X0034545Y0134252D01*
D14*
X0038497Y0040851D02*
X0038497Y0039100D01*
X0042000Y0039100D01*
X0040832Y0039100D02*
X0040832Y0040851D01*
X0040249Y0041435D01*
X0039081Y0041435D01*
X0038497Y0040851D01*
X0039665Y0042691D02*
X0038497Y0043859D01*
X0042000Y0043859D01*
X0042000Y0045026D02*
X0042000Y0042691D01*
X0042000Y0041435D02*
X0040832Y0040268D01*
X0088497Y0059100D02*
X0088497Y0060851D01*
X0089081Y0061435D01*
X0090249Y0061435D01*
X0090832Y0060851D01*
X0090832Y0059100D01*
X0090832Y0060268D02*
X0092000Y0061435D01*
X0091416Y0062691D02*
X0092000Y0063275D01*
X0092000Y0064443D01*
X0091416Y0065026D01*
X0090832Y0065026D01*
X0090249Y0064443D01*
X0090249Y0063859D01*
X0090249Y0064443D02*
X0089665Y0065026D01*
X0089081Y0065026D01*
X0088497Y0064443D01*
X0088497Y0063275D01*
X0089081Y0062691D01*
X0088497Y0059100D02*
X0092000Y0059100D01*
X0058644Y0223500D02*
X0056309Y0223500D01*
X0058644Y0225835D01*
X0058644Y0226419D01*
X0058060Y0227003D01*
X0056893Y0227003D01*
X0056309Y0226419D01*
X0055053Y0226419D02*
X0055053Y0225251D01*
X0054469Y0224668D01*
X0052718Y0224668D01*
X0053886Y0224668D02*
X0055053Y0223500D01*
X0052718Y0223500D02*
X0052718Y0227003D01*
X0054469Y0227003D01*
X0055053Y0226419D01*
D15*
X0096800Y0108800D02*
X0096800Y0107800D01*
X0106800Y0107800D01*
X0106800Y0108800D01*
X0106300Y0085800D02*
X0096800Y0085800D01*
X0096800Y0084800D01*
X0106300Y0084800D02*
X0106300Y0085800D01*
X0073800Y0081800D02*
X0072800Y0081800D01*
X0072800Y0071800D01*
X0073800Y0071800D01*
X0050800Y0072300D02*
X0049800Y0072300D01*
X0050800Y0072300D02*
X0050800Y0081800D01*
X0049800Y0081800D01*
M02*
