G75*
%MOIN*%
%OFA0B0*%
%FSLAX25Y25*%
%IPPOS*%
%LPD*%
%AMOC8*
5,1,8,0,0,1.08239X$1,22.5*
%
%ADD10C,0.00600*%
%ADD11OC8,0.06300*%
%ADD12C,0.05200*%
%ADD13C,0.06000*%
%ADD14C,0.05200*%
%ADD15OC8,0.05200*%
%ADD16C,0.03200*%
%ADD17C,0.01600*%
D10*
X0046250Y0252100D02*
X0049453Y0252100D01*
X0050521Y0253168D01*
X0050521Y0255303D01*
X0049453Y0256370D01*
X0046250Y0256370D01*
X0046250Y0258505D02*
X0046250Y0252100D01*
X0052689Y0256370D02*
X0053757Y0256370D01*
X0055892Y0254235D01*
X0055892Y0252100D02*
X0055892Y0256370D01*
X0058067Y0255303D02*
X0058067Y0252100D01*
X0061270Y0252100D01*
X0062337Y0253168D01*
X0061270Y0254235D01*
X0058067Y0254235D01*
X0058067Y0255303D02*
X0059135Y0256370D01*
X0061270Y0256370D01*
X0064512Y0255303D02*
X0064512Y0253168D01*
X0065580Y0252100D01*
X0067715Y0252100D01*
X0068783Y0253168D01*
X0068783Y0255303D01*
X0067715Y0256370D01*
X0065580Y0256370D01*
X0064512Y0255303D01*
X0070958Y0256370D02*
X0072026Y0255303D01*
X0075228Y0255303D01*
X0072026Y0255303D02*
X0070958Y0254235D01*
X0070958Y0253168D01*
X0072026Y0252100D01*
X0075228Y0252100D01*
X0075228Y0258505D01*
X0072026Y0258505D01*
X0070958Y0257438D01*
X0070958Y0256370D01*
X0083849Y0256370D02*
X0087052Y0256370D01*
X0088119Y0255303D01*
X0087052Y0254235D01*
X0084917Y0254235D01*
X0083849Y0253168D01*
X0084917Y0252100D01*
X0088119Y0252100D01*
X0090294Y0254235D02*
X0094565Y0254235D01*
X0094565Y0253168D02*
X0094565Y0255303D01*
X0093497Y0256370D01*
X0091362Y0256370D01*
X0090294Y0255303D01*
X0090294Y0254235D01*
X0091362Y0252100D02*
X0093497Y0252100D01*
X0094565Y0253168D01*
X0096740Y0253168D02*
X0097808Y0252100D01*
X0101010Y0252100D01*
X0101010Y0249965D02*
X0101010Y0256370D01*
X0097808Y0256370D01*
X0096740Y0255303D01*
X0096740Y0253168D01*
X0103185Y0254235D02*
X0107456Y0254235D01*
X0107456Y0253168D02*
X0107456Y0255303D01*
X0106388Y0256370D01*
X0104253Y0256370D01*
X0103185Y0255303D01*
X0103185Y0254235D01*
X0104253Y0252100D02*
X0106388Y0252100D01*
X0107456Y0253168D01*
X0109631Y0252100D02*
X0109631Y0255303D01*
X0110699Y0256370D01*
X0112834Y0256370D01*
X0113901Y0255303D01*
X0116076Y0257438D02*
X0117144Y0258505D01*
X0119279Y0258505D01*
X0120347Y0257438D01*
X0120347Y0253168D01*
X0119279Y0252100D01*
X0117144Y0252100D01*
X0116076Y0253168D01*
X0113901Y0252100D02*
X0113901Y0258505D01*
X0128967Y0256370D02*
X0132170Y0256370D01*
X0133238Y0255303D01*
X0132170Y0254235D01*
X0130035Y0254235D01*
X0128967Y0253168D01*
X0130035Y0252100D01*
X0133238Y0252100D01*
X0135413Y0254235D02*
X0139683Y0254235D01*
X0139683Y0253168D02*
X0139683Y0255303D01*
X0138616Y0256370D01*
X0136481Y0256370D01*
X0135413Y0255303D01*
X0135413Y0254235D01*
X0136481Y0252100D02*
X0138616Y0252100D01*
X0139683Y0253168D01*
X0141852Y0256370D02*
X0142919Y0256370D01*
X0145055Y0254235D01*
X0145055Y0252100D02*
X0145055Y0256370D01*
X0147230Y0258505D02*
X0151500Y0258505D01*
X0149365Y0258505D02*
X0149365Y0252100D01*
D11*
X0141800Y0106800D03*
X0141800Y0096800D03*
X0166800Y0096800D03*
X0166800Y0106800D03*
X0021800Y0071800D03*
X0011800Y0071800D03*
D12*
X0051800Y0124200D02*
X0051800Y0129400D01*
X0061800Y0129400D02*
X0061800Y0124200D01*
X0071800Y0124200D02*
X0071800Y0129400D01*
X0081800Y0129400D02*
X0081800Y0124200D01*
X0091800Y0124200D02*
X0091800Y0129400D01*
X0101800Y0129400D02*
X0101800Y0124200D01*
X0111800Y0124200D02*
X0111800Y0129400D01*
X0121800Y0129400D02*
X0121800Y0124200D01*
X0131800Y0124200D02*
X0131800Y0129400D01*
X0141800Y0129400D02*
X0141800Y0124200D01*
X0151800Y0124200D02*
X0151800Y0129400D01*
X0161800Y0129400D02*
X0161800Y0124200D01*
X0171800Y0124200D02*
X0171800Y0129400D01*
X0181800Y0129400D02*
X0181800Y0124200D01*
X0181800Y0154200D02*
X0181800Y0159400D01*
X0171800Y0159400D02*
X0171800Y0154200D01*
X0161800Y0154200D02*
X0161800Y0159400D01*
X0151800Y0159400D02*
X0151800Y0154200D01*
X0141800Y0154200D02*
X0141800Y0159400D01*
X0131800Y0159400D02*
X0131800Y0154200D01*
X0121800Y0154200D02*
X0121800Y0159400D01*
X0111800Y0159400D02*
X0111800Y0154200D01*
X0101800Y0154200D02*
X0101800Y0159400D01*
X0091800Y0159400D02*
X0091800Y0154200D01*
X0081800Y0154200D02*
X0081800Y0159400D01*
X0071800Y0159400D02*
X0071800Y0154200D01*
X0061800Y0154200D02*
X0061800Y0159400D01*
X0051800Y0159400D02*
X0051800Y0154200D01*
X0086800Y0194200D02*
X0086800Y0199400D01*
X0096800Y0199400D02*
X0096800Y0194200D01*
X0106800Y0194200D02*
X0106800Y0199400D01*
X0116800Y0199400D02*
X0116800Y0194200D01*
X0126800Y0194200D02*
X0126800Y0199400D01*
X0136800Y0199400D02*
X0136800Y0194200D01*
X0146800Y0194200D02*
X0146800Y0199400D01*
X0146800Y0224200D02*
X0146800Y0229400D01*
X0136800Y0229400D02*
X0136800Y0224200D01*
X0126800Y0224200D02*
X0126800Y0229400D01*
X0116800Y0229400D02*
X0116800Y0224200D01*
X0106800Y0224200D02*
X0106800Y0229400D01*
X0096800Y0229400D02*
X0096800Y0224200D01*
X0086800Y0224200D02*
X0086800Y0229400D01*
D13*
X0064800Y0211800D02*
X0058800Y0211800D01*
X0058800Y0201800D02*
X0064800Y0201800D01*
X0024800Y0211800D02*
X0018800Y0211800D01*
X0018800Y0221800D02*
X0024800Y0221800D01*
X0051800Y0109800D02*
X0051800Y0103800D01*
X0052900Y0092600D02*
X0052900Y0086600D01*
X0061800Y0103800D02*
X0061800Y0109800D01*
X0070700Y0092600D02*
X0070700Y0086600D01*
X0086000Y0087900D02*
X0092000Y0087900D01*
X0092000Y0105700D02*
X0086000Y0105700D01*
X0111600Y0105700D02*
X0117600Y0105700D01*
X0117600Y0087900D02*
X0111600Y0087900D01*
X0070700Y0067000D02*
X0070700Y0061000D01*
X0052900Y0061000D02*
X0052900Y0067000D01*
X0091800Y0034800D02*
X0091800Y0028800D01*
X0101800Y0028800D02*
X0101800Y0034800D01*
X0111800Y0034800D02*
X0111800Y0028800D01*
X0121800Y0028800D02*
X0121800Y0034800D01*
X0131800Y0034800D02*
X0131800Y0028800D01*
X0141800Y0028800D02*
X0141800Y0034800D01*
X0151800Y0034800D02*
X0151800Y0028800D01*
X0161800Y0028800D02*
X0161800Y0034800D01*
X0171800Y0034800D02*
X0171800Y0028800D01*
X0181800Y0028800D02*
X0181800Y0034800D01*
X0191800Y0034800D02*
X0191800Y0028800D01*
X0201800Y0028800D02*
X0201800Y0034800D01*
D14*
X0156800Y0106800D03*
X0146800Y0106800D03*
D15*
X0096800Y0076800D03*
X0096800Y0056800D03*
X0046800Y0056800D03*
X0046800Y0036800D03*
X0041800Y0231800D03*
X0061800Y0231800D03*
D16*
X0066800Y0236800D01*
X0156800Y0236800D01*
X0161800Y0231800D01*
X0161800Y0191800D01*
X0156800Y0186800D01*
X0131800Y0186800D01*
X0126800Y0191800D01*
X0126800Y0196800D01*
X0131800Y0206800D02*
X0081800Y0206800D01*
X0071800Y0196800D01*
X0071800Y0176800D01*
X0076800Y0171800D01*
X0096800Y0171800D01*
X0101800Y0166800D01*
X0101800Y0156800D01*
X0111800Y0156800D02*
X0111800Y0166800D01*
X0116800Y0171800D01*
X0171800Y0171800D01*
X0176800Y0176800D01*
X0191800Y0176800D01*
X0196800Y0171800D01*
X0196800Y0151800D01*
X0201800Y0146800D01*
X0201800Y0056800D01*
X0191800Y0046800D01*
X0191800Y0031800D01*
X0191800Y0026800D01*
X0181800Y0016800D01*
X0141800Y0016800D01*
X0141800Y0031800D01*
X0141800Y0016800D02*
X0036800Y0016800D01*
X0011800Y0041800D01*
X0011800Y0071800D01*
X0021800Y0071800D02*
X0021800Y0136800D01*
X0026800Y0141800D01*
X0026800Y0196800D01*
X0031800Y0201800D01*
X0031800Y0206800D01*
X0026800Y0211800D01*
X0021800Y0211800D01*
X0021800Y0221800D02*
X0036800Y0221800D01*
X0041800Y0226800D01*
X0041800Y0231800D01*
X0041800Y0241800D01*
X0046800Y0246800D01*
X0161800Y0246800D01*
X0176800Y0231800D01*
X0176800Y0176800D01*
X0196800Y0151800D02*
X0191800Y0146800D01*
X0131800Y0146800D01*
X0121800Y0136800D01*
X0121800Y0126800D01*
X0121800Y0111800D01*
X0136800Y0096800D01*
X0141800Y0096800D01*
X0141800Y0071800D01*
X0131800Y0061800D01*
X0101800Y0061800D01*
X0096800Y0056800D01*
X0076800Y0056800D01*
X0070700Y0062900D01*
X0070700Y0064000D01*
X0070700Y0089600D01*
X0076800Y0096800D02*
X0086800Y0086800D01*
X0087900Y0086800D01*
X0087900Y0080700D01*
X0091800Y0076800D01*
X0096800Y0076800D01*
X0087900Y0086800D02*
X0113500Y0086800D01*
X0114600Y0087900D01*
X0114600Y0105700D02*
X0116800Y0107900D01*
X0116800Y0116800D01*
X0111800Y0121800D01*
X0111800Y0126800D01*
X0111800Y0141800D01*
X0026800Y0141800D01*
X0041800Y0116800D02*
X0041800Y0096800D01*
X0046800Y0091800D01*
X0050700Y0091800D01*
X0052900Y0089600D01*
X0052900Y0064000D01*
X0046800Y0057900D01*
X0046800Y0056800D01*
X0046800Y0036800D02*
X0036800Y0036800D01*
X0021800Y0051800D01*
X0021800Y0071800D01*
X0046800Y0036800D02*
X0051800Y0031800D01*
X0091800Y0031800D01*
X0111800Y0031800D02*
X0111800Y0041800D01*
X0121800Y0051800D01*
X0166800Y0051800D01*
X0181800Y0066800D01*
X0181800Y0126800D01*
X0176800Y0136800D02*
X0191800Y0136800D01*
X0196800Y0131800D01*
X0196800Y0061800D01*
X0181800Y0046800D01*
X0131800Y0046800D01*
X0121800Y0036800D01*
X0121800Y0031800D01*
X0087900Y0086800D02*
X0089000Y0087900D01*
X0076800Y0096800D02*
X0076800Y0111800D01*
X0081800Y0116800D01*
X0091800Y0116800D01*
X0091800Y0126800D01*
X0089000Y0105700D02*
X0114600Y0105700D01*
X0131800Y0116800D02*
X0141800Y0106800D01*
X0146800Y0106800D01*
X0141800Y0096800D02*
X0166800Y0096800D01*
X0166800Y0106800D02*
X0156800Y0106800D01*
X0141800Y0121800D01*
X0141800Y0126800D01*
X0131800Y0126800D02*
X0131800Y0116800D01*
X0116800Y0141800D02*
X0111800Y0141800D01*
X0116800Y0141800D02*
X0121800Y0146800D01*
X0121800Y0156800D01*
X0131800Y0156800D01*
X0116800Y0171800D02*
X0116800Y0196800D01*
X0131800Y0206800D02*
X0136800Y0201800D01*
X0136800Y0196800D01*
X0146800Y0196800D01*
X0116800Y0221800D02*
X0111800Y0216800D01*
X0081800Y0216800D01*
X0066800Y0201800D01*
X0061800Y0201800D01*
X0031800Y0201800D01*
X0061800Y0211800D02*
X0061800Y0231800D01*
X0116800Y0226800D02*
X0116800Y0221800D01*
X0176800Y0136800D02*
X0171800Y0131800D01*
X0171800Y0126800D01*
X0071800Y0126800D02*
X0071800Y0116800D01*
X0061800Y0106800D01*
X0051800Y0106800D02*
X0051800Y0111800D01*
X0061800Y0121800D01*
X0061800Y0126800D01*
X0051800Y0126800D02*
X0041800Y0116800D01*
D17*
X0001800Y0001800D02*
X0001800Y0266800D01*
X0226800Y0266800D01*
X0226800Y0001800D01*
X0001800Y0001800D01*
X0001800Y0003194D02*
X0226800Y0003194D01*
X0226800Y0004793D02*
X0001800Y0004793D01*
X0001800Y0006391D02*
X0226800Y0006391D01*
X0226800Y0007990D02*
X0001800Y0007990D01*
X0001800Y0009588D02*
X0226800Y0009588D01*
X0226800Y0011187D02*
X0001800Y0011187D01*
X0001800Y0012785D02*
X0226800Y0012785D01*
X0226800Y0014384D02*
X0183909Y0014384D01*
X0183613Y0014087D02*
X0184513Y0014987D01*
X0184513Y0014987D01*
X0193613Y0024087D01*
X0194513Y0024987D01*
X0194527Y0025022D01*
X0195700Y0026194D01*
X0196400Y0027885D01*
X0196400Y0035715D01*
X0195700Y0037406D01*
X0195000Y0038105D01*
X0195000Y0045475D01*
X0203613Y0054087D01*
X0204513Y0054987D01*
X0205000Y0056163D01*
X0205000Y0147437D01*
X0204513Y0148613D01*
X0200000Y0153125D01*
X0200000Y0172437D01*
X0199513Y0173613D01*
X0194513Y0178613D01*
X0193613Y0179513D01*
X0192437Y0180000D01*
X0180000Y0180000D01*
X0180000Y0232437D01*
X0179513Y0233613D01*
X0178613Y0234513D01*
X0163613Y0249513D01*
X0162437Y0250000D01*
X0155733Y0250000D01*
X0155733Y0261238D01*
X0155706Y0261446D01*
X0155652Y0261649D01*
X0155571Y0261843D01*
X0155467Y0262024D01*
X0155339Y0262191D01*
X0155191Y0262339D01*
X0155024Y0262467D01*
X0154843Y0262571D01*
X0154649Y0262652D01*
X0154446Y0262706D01*
X0154238Y0262733D01*
X0062739Y0262733D01*
X0062531Y0262706D01*
X0062328Y0262652D01*
X0062134Y0262571D01*
X0061953Y0262467D01*
X0061786Y0262339D01*
X0061638Y0262191D01*
X0061510Y0262024D01*
X0061405Y0261843D01*
X0061325Y0261649D01*
X0061271Y0261446D01*
X0061244Y0261238D01*
X0061244Y0250000D01*
X0046163Y0250000D01*
X0044987Y0249513D01*
X0044087Y0248613D01*
X0039087Y0243613D01*
X0038600Y0242437D01*
X0038600Y0234540D01*
X0037600Y0233540D01*
X0037600Y0230060D01*
X0038600Y0229060D01*
X0038600Y0228125D01*
X0035475Y0225000D01*
X0028105Y0225000D01*
X0027406Y0225700D01*
X0025715Y0226400D01*
X0017885Y0226400D01*
X0016194Y0225700D01*
X0014900Y0224406D01*
X0014200Y0222715D01*
X0014200Y0220885D01*
X0014900Y0219194D01*
X0016194Y0217900D01*
X0017885Y0217200D01*
X0025715Y0217200D01*
X0027406Y0217900D01*
X0028105Y0218600D01*
X0037437Y0218600D01*
X0038613Y0219087D01*
X0039513Y0219987D01*
X0044513Y0224987D01*
X0045000Y0226163D01*
X0045000Y0229060D01*
X0046000Y0230060D01*
X0046000Y0233540D01*
X0045000Y0234540D01*
X0045000Y0240475D01*
X0048125Y0243600D01*
X0160475Y0243600D01*
X0173600Y0230475D01*
X0173600Y0178125D01*
X0170475Y0175000D01*
X0120000Y0175000D01*
X0120000Y0191460D01*
X0120361Y0191821D01*
X0121000Y0193365D01*
X0121000Y0200235D01*
X0120361Y0201779D01*
X0119179Y0202961D01*
X0117635Y0203600D01*
X0115965Y0203600D01*
X0114421Y0202961D01*
X0113239Y0201779D01*
X0112600Y0200235D01*
X0112600Y0193365D01*
X0113239Y0191821D01*
X0113600Y0191460D01*
X0113600Y0173125D01*
X0109987Y0169513D01*
X0109087Y0168613D01*
X0108600Y0167437D01*
X0108600Y0162140D01*
X0108239Y0161779D01*
X0107600Y0160235D01*
X0107600Y0153365D01*
X0108239Y0151821D01*
X0109421Y0150639D01*
X0110965Y0150000D01*
X0112635Y0150000D01*
X0114179Y0150639D01*
X0115361Y0151821D01*
X0116000Y0153365D01*
X0116000Y0160235D01*
X0115361Y0161779D01*
X0115000Y0162140D01*
X0115000Y0165475D01*
X0118125Y0168600D01*
X0172437Y0168600D01*
X0173613Y0169087D01*
X0174513Y0169987D01*
X0178125Y0173600D01*
X0190475Y0173600D01*
X0193600Y0170475D01*
X0193600Y0153125D01*
X0190475Y0150000D01*
X0131163Y0150000D01*
X0129987Y0149513D01*
X0129087Y0148613D01*
X0119087Y0138613D01*
X0118600Y0137437D01*
X0118600Y0132140D01*
X0118239Y0131779D01*
X0117600Y0130235D01*
X0117600Y0123365D01*
X0118239Y0121821D01*
X0118600Y0121460D01*
X0118600Y0119525D01*
X0115637Y0122488D01*
X0116000Y0123365D01*
X0116000Y0130235D01*
X0115361Y0131779D01*
X0115000Y0132140D01*
X0115000Y0138600D01*
X0117437Y0138600D01*
X0118613Y0139087D01*
X0124513Y0144987D01*
X0125000Y0146163D01*
X0125000Y0151460D01*
X0125361Y0151821D01*
X0126000Y0153365D01*
X0126000Y0153600D01*
X0127600Y0153600D01*
X0127600Y0153365D01*
X0128239Y0151821D01*
X0129421Y0150639D01*
X0130965Y0150000D01*
X0132635Y0150000D01*
X0134179Y0150639D01*
X0135361Y0151821D01*
X0136000Y0153365D01*
X0136000Y0160235D01*
X0135361Y0161779D01*
X0134179Y0162961D01*
X0132635Y0163600D01*
X0130965Y0163600D01*
X0129421Y0162961D01*
X0128239Y0161779D01*
X0127600Y0160235D01*
X0127600Y0160000D01*
X0126000Y0160000D01*
X0126000Y0160235D01*
X0125361Y0161779D01*
X0124179Y0162961D01*
X0122635Y0163600D01*
X0120965Y0163600D01*
X0119421Y0162961D01*
X0118239Y0161779D01*
X0117600Y0160235D01*
X0117600Y0153365D01*
X0118239Y0151821D01*
X0118600Y0151460D01*
X0118600Y0148125D01*
X0115475Y0145000D01*
X0030000Y0145000D01*
X0030000Y0195475D01*
X0033125Y0198600D01*
X0055495Y0198600D01*
X0056194Y0197900D01*
X0057885Y0197200D01*
X0065715Y0197200D01*
X0067406Y0197900D01*
X0068578Y0199073D01*
X0068613Y0199087D01*
X0069513Y0199987D01*
X0083125Y0213600D01*
X0112437Y0213600D01*
X0113613Y0214087D01*
X0119513Y0219987D01*
X0120000Y0221163D01*
X0120000Y0221460D01*
X0120361Y0221821D01*
X0121000Y0223365D01*
X0121000Y0230235D01*
X0120361Y0231779D01*
X0119179Y0232961D01*
X0117635Y0233600D01*
X0115965Y0233600D01*
X0114421Y0232961D01*
X0113239Y0231779D01*
X0112600Y0230235D01*
X0112600Y0223365D01*
X0112963Y0222488D01*
X0110475Y0220000D01*
X0081163Y0220000D01*
X0079987Y0219513D01*
X0066535Y0206060D01*
X0065715Y0206400D01*
X0057885Y0206400D01*
X0056194Y0205700D01*
X0055495Y0205000D01*
X0035000Y0205000D01*
X0035000Y0207437D01*
X0034513Y0208613D01*
X0029513Y0213613D01*
X0028613Y0214513D01*
X0028578Y0214527D01*
X0027406Y0215700D01*
X0025715Y0216400D01*
X0017885Y0216400D01*
X0016194Y0215700D01*
X0014900Y0214406D01*
X0014200Y0212715D01*
X0014200Y0210885D01*
X0014900Y0209194D01*
X0016194Y0207900D01*
X0017885Y0207200D01*
X0025715Y0207200D01*
X0026535Y0207540D01*
X0028600Y0205475D01*
X0028600Y0203125D01*
X0024987Y0199513D01*
X0024087Y0198613D01*
X0023600Y0197437D01*
X0023600Y0143125D01*
X0019087Y0138613D01*
X0018600Y0137437D01*
X0018600Y0075317D01*
X0017050Y0073768D01*
X0017050Y0069832D01*
X0018600Y0068282D01*
X0018600Y0051163D01*
X0019087Y0049987D01*
X0019987Y0049087D01*
X0034987Y0034087D01*
X0036163Y0033600D01*
X0044060Y0033600D01*
X0045060Y0032600D01*
X0046475Y0032600D01*
X0049087Y0029987D01*
X0049987Y0029087D01*
X0051163Y0028600D01*
X0087200Y0028600D01*
X0087200Y0027885D01*
X0087900Y0026194D01*
X0089194Y0024900D01*
X0090885Y0024200D01*
X0092715Y0024200D01*
X0094406Y0024900D01*
X0095700Y0026194D01*
X0096400Y0027885D01*
X0096400Y0035715D01*
X0095700Y0037406D01*
X0094406Y0038700D01*
X0092715Y0039400D01*
X0090885Y0039400D01*
X0089194Y0038700D01*
X0087900Y0037406D01*
X0087200Y0035715D01*
X0087200Y0035000D01*
X0053125Y0035000D01*
X0051000Y0037125D01*
X0051000Y0038540D01*
X0048540Y0041000D01*
X0045060Y0041000D01*
X0044060Y0040000D01*
X0038125Y0040000D01*
X0025000Y0053125D01*
X0025000Y0068282D01*
X0026550Y0069832D01*
X0026550Y0073768D01*
X0025000Y0075317D01*
X0025000Y0135475D01*
X0028125Y0138600D01*
X0108600Y0138600D01*
X0108600Y0132140D01*
X0108239Y0131779D01*
X0107600Y0130235D01*
X0107600Y0123365D01*
X0108239Y0121821D01*
X0108600Y0121460D01*
X0108600Y0121163D01*
X0109087Y0119987D01*
X0113600Y0115475D01*
X0113600Y0110300D01*
X0110685Y0110300D01*
X0108994Y0109600D01*
X0108295Y0108900D01*
X0095305Y0108900D01*
X0094606Y0109600D01*
X0092915Y0110300D01*
X0085085Y0110300D01*
X0083394Y0109600D01*
X0082100Y0108306D01*
X0081400Y0106615D01*
X0081400Y0104785D01*
X0082100Y0103094D01*
X0083394Y0101800D01*
X0085085Y0101100D01*
X0092915Y0101100D01*
X0094606Y0101800D01*
X0095305Y0102500D01*
X0108295Y0102500D01*
X0108994Y0101800D01*
X0110685Y0101100D01*
X0118515Y0101100D01*
X0120206Y0101800D01*
X0121500Y0103094D01*
X0122200Y0104785D01*
X0122200Y0106615D01*
X0122016Y0107058D01*
X0134087Y0094987D01*
X0134987Y0094087D01*
X0136163Y0093600D01*
X0138282Y0093600D01*
X0138600Y0093282D01*
X0138600Y0073125D01*
X0130475Y0065000D01*
X0101163Y0065000D01*
X0099987Y0064513D01*
X0096475Y0061000D01*
X0095060Y0061000D01*
X0094060Y0060000D01*
X0078125Y0060000D01*
X0075300Y0062825D01*
X0075300Y0067915D01*
X0074600Y0069606D01*
X0073900Y0070305D01*
X0073900Y0083295D01*
X0074600Y0083994D01*
X0075300Y0085685D01*
X0075300Y0093515D01*
X0075116Y0093958D01*
X0081400Y0087675D01*
X0081400Y0086985D01*
X0082100Y0085294D01*
X0083394Y0084000D01*
X0084700Y0083459D01*
X0084700Y0080063D01*
X0085187Y0078887D01*
X0089087Y0074987D01*
X0089987Y0074087D01*
X0091163Y0073600D01*
X0094060Y0073600D01*
X0095060Y0072600D01*
X0098540Y0072600D01*
X0101000Y0075060D01*
X0101000Y0078540D01*
X0098540Y0081000D01*
X0095060Y0081000D01*
X0094060Y0080000D01*
X0093125Y0080000D01*
X0091100Y0082025D01*
X0091100Y0083300D01*
X0092915Y0083300D01*
X0093639Y0083600D01*
X0109961Y0083600D01*
X0110685Y0083300D01*
X0118515Y0083300D01*
X0120206Y0084000D01*
X0121500Y0085294D01*
X0122200Y0086985D01*
X0122200Y0088815D01*
X0121500Y0090506D01*
X0120206Y0091800D01*
X0118515Y0092500D01*
X0110685Y0092500D01*
X0108994Y0091800D01*
X0107700Y0090506D01*
X0107491Y0090000D01*
X0096109Y0090000D01*
X0095900Y0090506D01*
X0094606Y0091800D01*
X0092915Y0092500D01*
X0085625Y0092500D01*
X0080000Y0098125D01*
X0080000Y0110475D01*
X0083125Y0113600D01*
X0092437Y0113600D01*
X0093613Y0114087D01*
X0094513Y0114987D01*
X0095000Y0116163D01*
X0095000Y0121460D01*
X0095361Y0121821D01*
X0096000Y0123365D01*
X0096000Y0130235D01*
X0095361Y0131779D01*
X0094179Y0132961D01*
X0092635Y0133600D01*
X0090965Y0133600D01*
X0089421Y0132961D01*
X0088239Y0131779D01*
X0087600Y0130235D01*
X0087600Y0123365D01*
X0088239Y0121821D01*
X0088600Y0121460D01*
X0088600Y0120000D01*
X0081163Y0120000D01*
X0079987Y0119513D01*
X0074987Y0114513D01*
X0074087Y0113613D01*
X0073600Y0112437D01*
X0073600Y0096205D01*
X0073306Y0096500D01*
X0071615Y0097200D01*
X0069785Y0097200D01*
X0068094Y0096500D01*
X0066800Y0095206D01*
X0066100Y0093515D01*
X0066100Y0085685D01*
X0066800Y0083994D01*
X0067500Y0083295D01*
X0067500Y0070305D01*
X0066800Y0069606D01*
X0066100Y0067915D01*
X0066100Y0060085D01*
X0066800Y0058394D01*
X0068094Y0057100D01*
X0069785Y0056400D01*
X0071615Y0056400D01*
X0072364Y0056710D01*
X0074087Y0054987D01*
X0074987Y0054087D01*
X0076163Y0053600D01*
X0094060Y0053600D01*
X0095060Y0052600D01*
X0098540Y0052600D01*
X0101000Y0055060D01*
X0101000Y0056475D01*
X0103125Y0058600D01*
X0132437Y0058600D01*
X0133613Y0059087D01*
X0134513Y0059987D01*
X0144513Y0069987D01*
X0145000Y0071163D01*
X0145000Y0093282D01*
X0145318Y0093600D01*
X0163282Y0093600D01*
X0164832Y0092050D01*
X0168768Y0092050D01*
X0171550Y0094832D01*
X0171550Y0098768D01*
X0168768Y0101550D01*
X0164832Y0101550D01*
X0163282Y0100000D01*
X0145318Y0100000D01*
X0143768Y0101550D01*
X0139832Y0101550D01*
X0138282Y0100000D01*
X0138125Y0100000D01*
X0125000Y0113125D01*
X0125000Y0121460D01*
X0125361Y0121821D01*
X0126000Y0123365D01*
X0126000Y0130235D01*
X0125361Y0131779D01*
X0125000Y0132140D01*
X0125000Y0135475D01*
X0133125Y0143600D01*
X0192437Y0143600D01*
X0193613Y0144087D01*
X0196800Y0147275D01*
X0198600Y0145475D01*
X0198600Y0134525D01*
X0193613Y0139513D01*
X0192437Y0140000D01*
X0176163Y0140000D01*
X0174987Y0139513D01*
X0174087Y0138613D01*
X0169087Y0133613D01*
X0168600Y0132437D01*
X0168600Y0132140D01*
X0168239Y0131779D01*
X0167600Y0130235D01*
X0167600Y0123365D01*
X0168239Y0121821D01*
X0169421Y0120639D01*
X0170965Y0120000D01*
X0172635Y0120000D01*
X0174179Y0120639D01*
X0175361Y0121821D01*
X0176000Y0123365D01*
X0176000Y0130235D01*
X0175637Y0131112D01*
X0178125Y0133600D01*
X0190475Y0133600D01*
X0193600Y0130475D01*
X0193600Y0063125D01*
X0180475Y0050000D01*
X0169525Y0050000D01*
X0183613Y0064087D01*
X0184513Y0064987D01*
X0185000Y0066163D01*
X0185000Y0121460D01*
X0185361Y0121821D01*
X0186000Y0123365D01*
X0186000Y0130235D01*
X0185361Y0131779D01*
X0184179Y0132961D01*
X0182635Y0133600D01*
X0180965Y0133600D01*
X0179421Y0132961D01*
X0178239Y0131779D01*
X0177600Y0130235D01*
X0177600Y0123365D01*
X0178239Y0121821D01*
X0178600Y0121460D01*
X0178600Y0068125D01*
X0165475Y0055000D01*
X0121163Y0055000D01*
X0119987Y0054513D01*
X0109087Y0043613D01*
X0108600Y0042437D01*
X0108600Y0038105D01*
X0107900Y0037406D01*
X0107200Y0035715D01*
X0107200Y0027885D01*
X0107900Y0026194D01*
X0109194Y0024900D01*
X0110885Y0024200D01*
X0112715Y0024200D01*
X0114406Y0024900D01*
X0115700Y0026194D01*
X0116400Y0027885D01*
X0116400Y0035715D01*
X0115700Y0037406D01*
X0115000Y0038105D01*
X0115000Y0040475D01*
X0123125Y0048600D01*
X0129075Y0048600D01*
X0119987Y0039513D01*
X0119087Y0038613D01*
X0119073Y0038578D01*
X0117900Y0037406D01*
X0117200Y0035715D01*
X0117200Y0027885D01*
X0117900Y0026194D01*
X0119194Y0024900D01*
X0120885Y0024200D01*
X0122715Y0024200D01*
X0124406Y0024900D01*
X0125700Y0026194D01*
X0126400Y0027885D01*
X0126400Y0035715D01*
X0126060Y0036535D01*
X0133125Y0043600D01*
X0182437Y0043600D01*
X0183613Y0044087D01*
X0184513Y0044987D01*
X0198600Y0059075D01*
X0198600Y0058125D01*
X0189087Y0048613D01*
X0188600Y0047437D01*
X0188600Y0038105D01*
X0187900Y0037406D01*
X0187200Y0035715D01*
X0187200Y0027885D01*
X0187540Y0027065D01*
X0180475Y0020000D01*
X0145000Y0020000D01*
X0145000Y0025495D01*
X0145700Y0026194D01*
X0146400Y0027885D01*
X0146400Y0035715D01*
X0145700Y0037406D01*
X0144406Y0038700D01*
X0142715Y0039400D01*
X0140885Y0039400D01*
X0139194Y0038700D01*
X0137900Y0037406D01*
X0137200Y0035715D01*
X0137200Y0027885D01*
X0137900Y0026194D01*
X0138600Y0025495D01*
X0138600Y0020000D01*
X0038125Y0020000D01*
X0015000Y0043125D01*
X0015000Y0068282D01*
X0016550Y0069832D01*
X0016550Y0073768D01*
X0013768Y0076550D01*
X0009832Y0076550D01*
X0007050Y0073768D01*
X0007050Y0069832D01*
X0008600Y0068282D01*
X0008600Y0041163D01*
X0009087Y0039987D01*
X0034087Y0014987D01*
X0034987Y0014087D01*
X0036163Y0013600D01*
X0182437Y0013600D01*
X0183613Y0014087D01*
X0185508Y0015982D02*
X0226800Y0015982D01*
X0226800Y0017581D02*
X0187106Y0017581D01*
X0188705Y0019179D02*
X0226800Y0019179D01*
X0226800Y0020778D02*
X0190303Y0020778D01*
X0191902Y0022376D02*
X0226800Y0022376D01*
X0226800Y0023975D02*
X0193500Y0023975D01*
X0193613Y0024087D02*
X0193613Y0024087D01*
X0195079Y0025573D02*
X0198521Y0025573D01*
X0197900Y0026194D02*
X0199194Y0024900D01*
X0200885Y0024200D01*
X0202715Y0024200D01*
X0204406Y0024900D01*
X0205700Y0026194D01*
X0206400Y0027885D01*
X0206400Y0035715D01*
X0205700Y0037406D01*
X0204406Y0038700D01*
X0202715Y0039400D01*
X0200885Y0039400D01*
X0199194Y0038700D01*
X0197900Y0037406D01*
X0197200Y0035715D01*
X0197200Y0027885D01*
X0197900Y0026194D01*
X0197495Y0027172D02*
X0196105Y0027172D01*
X0196400Y0028770D02*
X0197200Y0028770D01*
X0197200Y0030369D02*
X0196400Y0030369D01*
X0196400Y0031967D02*
X0197200Y0031967D01*
X0197200Y0033566D02*
X0196400Y0033566D01*
X0196400Y0035164D02*
X0197200Y0035164D01*
X0197634Y0036763D02*
X0195966Y0036763D01*
X0195000Y0038361D02*
X0198856Y0038361D01*
X0195000Y0039960D02*
X0226800Y0039960D01*
X0226800Y0041558D02*
X0195000Y0041558D01*
X0195000Y0043157D02*
X0226800Y0043157D01*
X0226800Y0044755D02*
X0195000Y0044755D01*
X0195879Y0046354D02*
X0226800Y0046354D01*
X0226800Y0047952D02*
X0197478Y0047952D01*
X0199076Y0049551D02*
X0226800Y0049551D01*
X0226800Y0051149D02*
X0200675Y0051149D01*
X0202273Y0052748D02*
X0226800Y0052748D01*
X0226800Y0054346D02*
X0203872Y0054346D01*
X0204909Y0055945D02*
X0226800Y0055945D01*
X0226800Y0057543D02*
X0205000Y0057543D01*
X0205000Y0059142D02*
X0226800Y0059142D01*
X0226800Y0060740D02*
X0205000Y0060740D01*
X0205000Y0062339D02*
X0226800Y0062339D01*
X0226800Y0063937D02*
X0205000Y0063937D01*
X0205000Y0065536D02*
X0226800Y0065536D01*
X0226800Y0067134D02*
X0205000Y0067134D01*
X0205000Y0068733D02*
X0226800Y0068733D01*
X0226800Y0070332D02*
X0205000Y0070332D01*
X0205000Y0071930D02*
X0226800Y0071930D01*
X0226800Y0073529D02*
X0205000Y0073529D01*
X0205000Y0075127D02*
X0226800Y0075127D01*
X0226800Y0076726D02*
X0205000Y0076726D01*
X0205000Y0078324D02*
X0226800Y0078324D01*
X0226800Y0079923D02*
X0205000Y0079923D01*
X0205000Y0081521D02*
X0226800Y0081521D01*
X0226800Y0083120D02*
X0205000Y0083120D01*
X0205000Y0084718D02*
X0226800Y0084718D01*
X0226800Y0086317D02*
X0205000Y0086317D01*
X0205000Y0087915D02*
X0226800Y0087915D01*
X0226800Y0089514D02*
X0205000Y0089514D01*
X0205000Y0091112D02*
X0226800Y0091112D01*
X0226800Y0092711D02*
X0205000Y0092711D01*
X0205000Y0094309D02*
X0226800Y0094309D01*
X0226800Y0095908D02*
X0205000Y0095908D01*
X0205000Y0097506D02*
X0226800Y0097506D01*
X0226800Y0099105D02*
X0205000Y0099105D01*
X0205000Y0100703D02*
X0226800Y0100703D01*
X0226800Y0102302D02*
X0205000Y0102302D01*
X0205000Y0103900D02*
X0226800Y0103900D01*
X0226800Y0105499D02*
X0205000Y0105499D01*
X0205000Y0107097D02*
X0226800Y0107097D01*
X0226800Y0108696D02*
X0205000Y0108696D01*
X0205000Y0110294D02*
X0226800Y0110294D01*
X0226800Y0111893D02*
X0205000Y0111893D01*
X0205000Y0113491D02*
X0226800Y0113491D01*
X0226800Y0115090D02*
X0205000Y0115090D01*
X0205000Y0116688D02*
X0226800Y0116688D01*
X0226800Y0118287D02*
X0205000Y0118287D01*
X0205000Y0119885D02*
X0226800Y0119885D01*
X0226800Y0121484D02*
X0205000Y0121484D01*
X0205000Y0123082D02*
X0226800Y0123082D01*
X0226800Y0124681D02*
X0205000Y0124681D01*
X0205000Y0126279D02*
X0226800Y0126279D01*
X0226800Y0127878D02*
X0205000Y0127878D01*
X0205000Y0129476D02*
X0226800Y0129476D01*
X0226800Y0131075D02*
X0205000Y0131075D01*
X0205000Y0132673D02*
X0226800Y0132673D01*
X0226800Y0134272D02*
X0205000Y0134272D01*
X0205000Y0135870D02*
X0226800Y0135870D01*
X0226800Y0137469D02*
X0205000Y0137469D01*
X0205000Y0139068D02*
X0226800Y0139068D01*
X0226800Y0140666D02*
X0205000Y0140666D01*
X0205000Y0142265D02*
X0226800Y0142265D01*
X0226800Y0143863D02*
X0205000Y0143863D01*
X0205000Y0145462D02*
X0226800Y0145462D01*
X0226800Y0147060D02*
X0205000Y0147060D01*
X0204467Y0148659D02*
X0226800Y0148659D01*
X0226800Y0150257D02*
X0202868Y0150257D01*
X0201270Y0151856D02*
X0226800Y0151856D01*
X0226800Y0153454D02*
X0200000Y0153454D01*
X0200000Y0155053D02*
X0226800Y0155053D01*
X0226800Y0156651D02*
X0200000Y0156651D01*
X0200000Y0158250D02*
X0226800Y0158250D01*
X0226800Y0159848D02*
X0200000Y0159848D01*
X0200000Y0161447D02*
X0226800Y0161447D01*
X0226800Y0163045D02*
X0200000Y0163045D01*
X0200000Y0164644D02*
X0226800Y0164644D01*
X0226800Y0166242D02*
X0200000Y0166242D01*
X0200000Y0167841D02*
X0226800Y0167841D01*
X0226800Y0169439D02*
X0200000Y0169439D01*
X0200000Y0171038D02*
X0226800Y0171038D01*
X0226800Y0172636D02*
X0199917Y0172636D01*
X0198891Y0174235D02*
X0226800Y0174235D01*
X0226800Y0175833D02*
X0197292Y0175833D01*
X0195694Y0177432D02*
X0226800Y0177432D01*
X0226800Y0179030D02*
X0194095Y0179030D01*
X0191438Y0172636D02*
X0177162Y0172636D01*
X0175563Y0171038D02*
X0193037Y0171038D01*
X0193600Y0169439D02*
X0173965Y0169439D01*
X0171308Y0175833D02*
X0120000Y0175833D01*
X0120000Y0177432D02*
X0172906Y0177432D01*
X0173600Y0179030D02*
X0120000Y0179030D01*
X0120000Y0180629D02*
X0173600Y0180629D01*
X0173600Y0182227D02*
X0120000Y0182227D01*
X0120000Y0183826D02*
X0130618Y0183826D01*
X0131163Y0183600D02*
X0157437Y0183600D01*
X0158613Y0184087D01*
X0159513Y0184987D01*
X0164513Y0189987D01*
X0165000Y0191163D01*
X0165000Y0232437D01*
X0164513Y0233613D01*
X0163613Y0234513D01*
X0158613Y0239513D01*
X0157437Y0240000D01*
X0066163Y0240000D01*
X0064987Y0239513D01*
X0064087Y0238613D01*
X0061475Y0236000D01*
X0060060Y0236000D01*
X0057600Y0233540D01*
X0057600Y0230060D01*
X0058600Y0229060D01*
X0058600Y0216400D01*
X0057885Y0216400D01*
X0056194Y0215700D01*
X0054900Y0214406D01*
X0054200Y0212715D01*
X0054200Y0210885D01*
X0054900Y0209194D01*
X0056194Y0207900D01*
X0057885Y0207200D01*
X0065715Y0207200D01*
X0067406Y0207900D01*
X0068700Y0209194D01*
X0069400Y0210885D01*
X0069400Y0212715D01*
X0068700Y0214406D01*
X0067406Y0215700D01*
X0065715Y0216400D01*
X0065000Y0216400D01*
X0065000Y0229060D01*
X0066000Y0230060D01*
X0066000Y0231475D01*
X0068125Y0233600D01*
X0155475Y0233600D01*
X0158600Y0230475D01*
X0158600Y0193125D01*
X0155475Y0190000D01*
X0133125Y0190000D01*
X0130637Y0192488D01*
X0131000Y0193365D01*
X0131000Y0200235D01*
X0130361Y0201779D01*
X0129179Y0202961D01*
X0127635Y0203600D01*
X0125965Y0203600D01*
X0124421Y0202961D01*
X0123239Y0201779D01*
X0122600Y0200235D01*
X0122600Y0193365D01*
X0123239Y0191821D01*
X0123600Y0191460D01*
X0123600Y0191163D01*
X0124087Y0189987D01*
X0124987Y0189087D01*
X0124987Y0189087D01*
X0129087Y0184987D01*
X0129987Y0184087D01*
X0131163Y0183600D01*
X0129087Y0184987D02*
X0129087Y0184987D01*
X0128650Y0185424D02*
X0120000Y0185424D01*
X0120000Y0187023D02*
X0127052Y0187023D01*
X0125453Y0188621D02*
X0120000Y0188621D01*
X0120000Y0190220D02*
X0123991Y0190220D01*
X0123242Y0191818D02*
X0120358Y0191818D01*
X0121000Y0193417D02*
X0122600Y0193417D01*
X0122600Y0195015D02*
X0121000Y0195015D01*
X0121000Y0196614D02*
X0122600Y0196614D01*
X0122600Y0198212D02*
X0121000Y0198212D01*
X0121000Y0199811D02*
X0122600Y0199811D01*
X0123086Y0201409D02*
X0120514Y0201409D01*
X0119065Y0203008D02*
X0124535Y0203008D01*
X0129065Y0203008D02*
X0131067Y0203008D01*
X0130475Y0203600D02*
X0132963Y0201112D01*
X0132600Y0200235D01*
X0132600Y0193365D01*
X0133239Y0191821D01*
X0134421Y0190639D01*
X0135965Y0190000D01*
X0137635Y0190000D01*
X0139179Y0190639D01*
X0140361Y0191821D01*
X0141000Y0193365D01*
X0141000Y0193600D01*
X0142600Y0193600D01*
X0142600Y0193365D01*
X0143239Y0191821D01*
X0144421Y0190639D01*
X0145965Y0190000D01*
X0147635Y0190000D01*
X0149179Y0190639D01*
X0150361Y0191821D01*
X0151000Y0193365D01*
X0151000Y0200235D01*
X0150361Y0201779D01*
X0149179Y0202961D01*
X0147635Y0203600D01*
X0145965Y0203600D01*
X0144421Y0202961D01*
X0143239Y0201779D01*
X0142600Y0200235D01*
X0142600Y0200000D01*
X0141000Y0200000D01*
X0141000Y0200235D01*
X0140361Y0201779D01*
X0140000Y0202140D01*
X0140000Y0202437D01*
X0139513Y0203613D01*
X0134513Y0208613D01*
X0133613Y0209513D01*
X0132437Y0210000D01*
X0081163Y0210000D01*
X0079987Y0209513D01*
X0069987Y0199513D01*
X0069087Y0198613D01*
X0068600Y0197437D01*
X0068600Y0176163D01*
X0069087Y0174987D01*
X0074087Y0169987D01*
X0074987Y0169087D01*
X0076163Y0168600D01*
X0095475Y0168600D01*
X0098600Y0165475D01*
X0098600Y0162140D01*
X0098239Y0161779D01*
X0097600Y0160235D01*
X0097600Y0153365D01*
X0098239Y0151821D01*
X0099421Y0150639D01*
X0100965Y0150000D01*
X0102635Y0150000D01*
X0104179Y0150639D01*
X0105361Y0151821D01*
X0106000Y0153365D01*
X0106000Y0160235D01*
X0105361Y0161779D01*
X0105000Y0162140D01*
X0105000Y0167437D01*
X0104513Y0168613D01*
X0103613Y0169513D01*
X0098613Y0174513D01*
X0097437Y0175000D01*
X0078125Y0175000D01*
X0075000Y0178125D01*
X0075000Y0195475D01*
X0083125Y0203600D01*
X0130475Y0203600D01*
X0130514Y0201409D02*
X0132665Y0201409D01*
X0132600Y0199811D02*
X0131000Y0199811D01*
X0131000Y0198212D02*
X0132600Y0198212D01*
X0132600Y0196614D02*
X0131000Y0196614D01*
X0131000Y0195015D02*
X0132600Y0195015D01*
X0132600Y0193417D02*
X0131000Y0193417D01*
X0131307Y0191818D02*
X0133242Y0191818D01*
X0132906Y0190220D02*
X0135434Y0190220D01*
X0138166Y0190220D02*
X0145434Y0190220D01*
X0143242Y0191818D02*
X0140358Y0191818D01*
X0141000Y0193417D02*
X0142600Y0193417D01*
X0148166Y0190220D02*
X0155694Y0190220D01*
X0157293Y0191818D02*
X0150358Y0191818D01*
X0151000Y0193417D02*
X0158600Y0193417D01*
X0158600Y0195015D02*
X0151000Y0195015D01*
X0151000Y0196614D02*
X0158600Y0196614D01*
X0158600Y0198212D02*
X0151000Y0198212D01*
X0151000Y0199811D02*
X0158600Y0199811D01*
X0158600Y0201409D02*
X0150514Y0201409D01*
X0149065Y0203008D02*
X0158600Y0203008D01*
X0158600Y0204606D02*
X0138519Y0204606D01*
X0139763Y0203008D02*
X0144535Y0203008D01*
X0143086Y0201409D02*
X0140514Y0201409D01*
X0136920Y0206205D02*
X0158600Y0206205D01*
X0158600Y0207803D02*
X0135322Y0207803D01*
X0133723Y0209402D02*
X0158600Y0209402D01*
X0158600Y0211001D02*
X0080526Y0211001D01*
X0079877Y0209402D02*
X0078927Y0209402D01*
X0078278Y0207803D02*
X0077329Y0207803D01*
X0076680Y0206205D02*
X0075730Y0206205D01*
X0075081Y0204606D02*
X0074132Y0204606D01*
X0073482Y0203008D02*
X0072533Y0203008D01*
X0071884Y0201409D02*
X0070935Y0201409D01*
X0070285Y0199811D02*
X0069336Y0199811D01*
X0068921Y0198212D02*
X0067718Y0198212D01*
X0068600Y0196614D02*
X0031139Y0196614D01*
X0030000Y0195015D02*
X0068600Y0195015D01*
X0068600Y0193417D02*
X0030000Y0193417D01*
X0030000Y0191818D02*
X0068600Y0191818D01*
X0068600Y0190220D02*
X0030000Y0190220D01*
X0030000Y0188621D02*
X0068600Y0188621D01*
X0068600Y0187023D02*
X0030000Y0187023D01*
X0030000Y0185424D02*
X0068600Y0185424D01*
X0068600Y0183826D02*
X0030000Y0183826D01*
X0030000Y0182227D02*
X0068600Y0182227D01*
X0068600Y0180629D02*
X0030000Y0180629D01*
X0030000Y0179030D02*
X0068600Y0179030D01*
X0068600Y0177432D02*
X0030000Y0177432D01*
X0030000Y0175833D02*
X0068737Y0175833D01*
X0069840Y0174235D02*
X0030000Y0174235D01*
X0030000Y0172636D02*
X0071438Y0172636D01*
X0073037Y0171038D02*
X0030000Y0171038D01*
X0030000Y0169439D02*
X0074635Y0169439D01*
X0077292Y0175833D02*
X0113600Y0175833D01*
X0113600Y0174235D02*
X0098891Y0174235D01*
X0100489Y0172636D02*
X0113111Y0172636D01*
X0111512Y0171038D02*
X0102088Y0171038D01*
X0103686Y0169439D02*
X0109914Y0169439D01*
X0108767Y0167841D02*
X0104833Y0167841D01*
X0105000Y0166242D02*
X0108600Y0166242D01*
X0108600Y0164644D02*
X0105000Y0164644D01*
X0105000Y0163045D02*
X0108600Y0163045D01*
X0108102Y0161447D02*
X0105498Y0161447D01*
X0106000Y0159848D02*
X0107600Y0159848D01*
X0107600Y0158250D02*
X0106000Y0158250D01*
X0106000Y0156651D02*
X0107600Y0156651D01*
X0107600Y0155053D02*
X0106000Y0155053D01*
X0106000Y0153454D02*
X0107600Y0153454D01*
X0108225Y0151856D02*
X0105375Y0151856D01*
X0103256Y0150257D02*
X0110344Y0150257D01*
X0113256Y0150257D02*
X0118600Y0150257D01*
X0118600Y0148659D02*
X0030000Y0148659D01*
X0030000Y0150257D02*
X0050344Y0150257D01*
X0050965Y0150000D02*
X0052635Y0150000D01*
X0054179Y0150639D01*
X0055361Y0151821D01*
X0056000Y0153365D01*
X0056000Y0160235D01*
X0055361Y0161779D01*
X0054179Y0162961D01*
X0052635Y0163600D01*
X0050965Y0163600D01*
X0049421Y0162961D01*
X0048239Y0161779D01*
X0047600Y0160235D01*
X0047600Y0153365D01*
X0048239Y0151821D01*
X0049421Y0150639D01*
X0050965Y0150000D01*
X0053256Y0150257D02*
X0060344Y0150257D01*
X0060965Y0150000D02*
X0062635Y0150000D01*
X0064179Y0150639D01*
X0065361Y0151821D01*
X0066000Y0153365D01*
X0066000Y0160235D01*
X0065361Y0161779D01*
X0064179Y0162961D01*
X0062635Y0163600D01*
X0060965Y0163600D01*
X0059421Y0162961D01*
X0058239Y0161779D01*
X0057600Y0160235D01*
X0057600Y0153365D01*
X0058239Y0151821D01*
X0059421Y0150639D01*
X0060965Y0150000D01*
X0063256Y0150257D02*
X0070344Y0150257D01*
X0070965Y0150000D02*
X0069421Y0150639D01*
X0068239Y0151821D01*
X0067600Y0153365D01*
X0067600Y0160235D01*
X0068239Y0161779D01*
X0069421Y0162961D01*
X0070965Y0163600D01*
X0072635Y0163600D01*
X0074179Y0162961D01*
X0075361Y0161779D01*
X0076000Y0160235D01*
X0076000Y0153365D01*
X0075361Y0151821D01*
X0074179Y0150639D01*
X0072635Y0150000D01*
X0070965Y0150000D01*
X0073256Y0150257D02*
X0080344Y0150257D01*
X0080965Y0150000D02*
X0082635Y0150000D01*
X0084179Y0150639D01*
X0085361Y0151821D01*
X0086000Y0153365D01*
X0086000Y0160235D01*
X0085361Y0161779D01*
X0084179Y0162961D01*
X0082635Y0163600D01*
X0080965Y0163600D01*
X0079421Y0162961D01*
X0078239Y0161779D01*
X0077600Y0160235D01*
X0077600Y0153365D01*
X0078239Y0151821D01*
X0079421Y0150639D01*
X0080965Y0150000D01*
X0083256Y0150257D02*
X0090344Y0150257D01*
X0090965Y0150000D02*
X0092635Y0150000D01*
X0094179Y0150639D01*
X0095361Y0151821D01*
X0096000Y0153365D01*
X0096000Y0160235D01*
X0095361Y0161779D01*
X0094179Y0162961D01*
X0092635Y0163600D01*
X0090965Y0163600D01*
X0089421Y0162961D01*
X0088239Y0161779D01*
X0087600Y0160235D01*
X0087600Y0153365D01*
X0088239Y0151821D01*
X0089421Y0150639D01*
X0090965Y0150000D01*
X0093256Y0150257D02*
X0100344Y0150257D01*
X0098225Y0151856D02*
X0095375Y0151856D01*
X0096000Y0153454D02*
X0097600Y0153454D01*
X0097600Y0155053D02*
X0096000Y0155053D01*
X0096000Y0156651D02*
X0097600Y0156651D01*
X0097600Y0158250D02*
X0096000Y0158250D01*
X0096000Y0159848D02*
X0097600Y0159848D01*
X0098102Y0161447D02*
X0095498Y0161447D01*
X0093975Y0163045D02*
X0098600Y0163045D01*
X0098600Y0164644D02*
X0030000Y0164644D01*
X0030000Y0166242D02*
X0097832Y0166242D01*
X0096234Y0167841D02*
X0030000Y0167841D01*
X0030000Y0163045D02*
X0049625Y0163045D01*
X0048102Y0161447D02*
X0030000Y0161447D01*
X0030000Y0159848D02*
X0047600Y0159848D01*
X0047600Y0158250D02*
X0030000Y0158250D01*
X0030000Y0156651D02*
X0047600Y0156651D01*
X0047600Y0155053D02*
X0030000Y0155053D01*
X0030000Y0153454D02*
X0047600Y0153454D01*
X0048225Y0151856D02*
X0030000Y0151856D01*
X0030000Y0147060D02*
X0117535Y0147060D01*
X0115936Y0145462D02*
X0030000Y0145462D01*
X0023600Y0145462D02*
X0001800Y0145462D01*
X0001800Y0147060D02*
X0023600Y0147060D01*
X0023600Y0148659D02*
X0001800Y0148659D01*
X0001800Y0150257D02*
X0023600Y0150257D01*
X0023600Y0151856D02*
X0001800Y0151856D01*
X0001800Y0153454D02*
X0023600Y0153454D01*
X0023600Y0155053D02*
X0001800Y0155053D01*
X0001800Y0156651D02*
X0023600Y0156651D01*
X0023600Y0158250D02*
X0001800Y0158250D01*
X0001800Y0159848D02*
X0023600Y0159848D01*
X0023600Y0161447D02*
X0001800Y0161447D01*
X0001800Y0163045D02*
X0023600Y0163045D01*
X0023600Y0164644D02*
X0001800Y0164644D01*
X0001800Y0166242D02*
X0023600Y0166242D01*
X0023600Y0167841D02*
X0001800Y0167841D01*
X0001800Y0169439D02*
X0023600Y0169439D01*
X0023600Y0171038D02*
X0001800Y0171038D01*
X0001800Y0172636D02*
X0023600Y0172636D01*
X0023600Y0174235D02*
X0001800Y0174235D01*
X0001800Y0175833D02*
X0023600Y0175833D01*
X0023600Y0177432D02*
X0001800Y0177432D01*
X0001800Y0179030D02*
X0023600Y0179030D01*
X0023600Y0180629D02*
X0001800Y0180629D01*
X0001800Y0182227D02*
X0023600Y0182227D01*
X0023600Y0183826D02*
X0001800Y0183826D01*
X0001800Y0185424D02*
X0023600Y0185424D01*
X0023600Y0187023D02*
X0001800Y0187023D01*
X0001800Y0188621D02*
X0023600Y0188621D01*
X0023600Y0190220D02*
X0001800Y0190220D01*
X0001800Y0191818D02*
X0023600Y0191818D01*
X0023600Y0193417D02*
X0001800Y0193417D01*
X0001800Y0195015D02*
X0023600Y0195015D01*
X0023600Y0196614D02*
X0001800Y0196614D01*
X0001800Y0198212D02*
X0023921Y0198212D01*
X0025285Y0199811D02*
X0001800Y0199811D01*
X0001800Y0201409D02*
X0026884Y0201409D01*
X0028482Y0203008D02*
X0001800Y0203008D01*
X0001800Y0204606D02*
X0028600Y0204606D01*
X0027870Y0206205D02*
X0001800Y0206205D01*
X0001800Y0207803D02*
X0016428Y0207803D01*
X0014814Y0209402D02*
X0001800Y0209402D01*
X0001800Y0211001D02*
X0014200Y0211001D01*
X0014200Y0212599D02*
X0001800Y0212599D01*
X0001800Y0214198D02*
X0014814Y0214198D01*
X0016427Y0215796D02*
X0001800Y0215796D01*
X0001800Y0217395D02*
X0017415Y0217395D01*
X0015102Y0218993D02*
X0001800Y0218993D01*
X0001800Y0220592D02*
X0014322Y0220592D01*
X0014200Y0222190D02*
X0001800Y0222190D01*
X0001800Y0223789D02*
X0014645Y0223789D01*
X0015882Y0225387D02*
X0001800Y0225387D01*
X0001800Y0226986D02*
X0037460Y0226986D01*
X0038600Y0228584D02*
X0001800Y0228584D01*
X0001800Y0230183D02*
X0037600Y0230183D01*
X0037600Y0231781D02*
X0001800Y0231781D01*
X0001800Y0233380D02*
X0037600Y0233380D01*
X0038600Y0234978D02*
X0001800Y0234978D01*
X0001800Y0236577D02*
X0038600Y0236577D01*
X0038600Y0238175D02*
X0001800Y0238175D01*
X0001800Y0239774D02*
X0038600Y0239774D01*
X0038600Y0241372D02*
X0001800Y0241372D01*
X0001800Y0242971D02*
X0038821Y0242971D01*
X0040044Y0244569D02*
X0001800Y0244569D01*
X0001800Y0246168D02*
X0041642Y0246168D01*
X0043241Y0247766D02*
X0001800Y0247766D01*
X0001800Y0249365D02*
X0044839Y0249365D01*
X0047496Y0242971D02*
X0161104Y0242971D01*
X0162702Y0241372D02*
X0045898Y0241372D01*
X0045000Y0239774D02*
X0065617Y0239774D01*
X0063650Y0238175D02*
X0045000Y0238175D01*
X0045000Y0236577D02*
X0062051Y0236577D01*
X0059038Y0234978D02*
X0045000Y0234978D01*
X0046000Y0233380D02*
X0057600Y0233380D01*
X0057600Y0231781D02*
X0046000Y0231781D01*
X0046000Y0230183D02*
X0057600Y0230183D01*
X0058600Y0228584D02*
X0045000Y0228584D01*
X0045000Y0226986D02*
X0058600Y0226986D01*
X0058600Y0225387D02*
X0044678Y0225387D01*
X0043314Y0223789D02*
X0058600Y0223789D01*
X0058600Y0222190D02*
X0041716Y0222190D01*
X0040117Y0220592D02*
X0058600Y0220592D01*
X0058600Y0218993D02*
X0038385Y0218993D01*
X0035862Y0225387D02*
X0027718Y0225387D01*
X0026185Y0217395D02*
X0058600Y0217395D01*
X0056427Y0215796D02*
X0027173Y0215796D01*
X0028928Y0214198D02*
X0054814Y0214198D01*
X0054200Y0212599D02*
X0030526Y0212599D01*
X0032125Y0211001D02*
X0054200Y0211001D01*
X0054814Y0209402D02*
X0033723Y0209402D01*
X0034848Y0207803D02*
X0056428Y0207803D01*
X0057414Y0206205D02*
X0035000Y0206205D01*
X0032738Y0198212D02*
X0055882Y0198212D01*
X0066186Y0206205D02*
X0066680Y0206205D01*
X0067172Y0207803D02*
X0068278Y0207803D01*
X0068786Y0209402D02*
X0069877Y0209402D01*
X0069400Y0211001D02*
X0071475Y0211001D01*
X0073074Y0212599D02*
X0069400Y0212599D01*
X0068786Y0214198D02*
X0074672Y0214198D01*
X0076271Y0215796D02*
X0067173Y0215796D01*
X0065000Y0217395D02*
X0077869Y0217395D01*
X0079468Y0218993D02*
X0065000Y0218993D01*
X0065000Y0220592D02*
X0084536Y0220592D01*
X0084421Y0220639D02*
X0085965Y0220000D01*
X0087635Y0220000D01*
X0089179Y0220639D01*
X0090361Y0221821D01*
X0091000Y0223365D01*
X0091000Y0230235D01*
X0090361Y0231779D01*
X0089179Y0232961D01*
X0087635Y0233600D01*
X0085965Y0233600D01*
X0084421Y0232961D01*
X0083239Y0231779D01*
X0082600Y0230235D01*
X0082600Y0223365D01*
X0083239Y0221821D01*
X0084421Y0220639D01*
X0083086Y0222190D02*
X0065000Y0222190D01*
X0065000Y0223789D02*
X0082600Y0223789D01*
X0082600Y0225387D02*
X0065000Y0225387D01*
X0065000Y0226986D02*
X0082600Y0226986D01*
X0082600Y0228584D02*
X0065000Y0228584D01*
X0066000Y0230183D02*
X0082600Y0230183D01*
X0083241Y0231781D02*
X0066307Y0231781D01*
X0067905Y0233380D02*
X0085433Y0233380D01*
X0088167Y0233380D02*
X0095433Y0233380D01*
X0095965Y0233600D02*
X0094421Y0232961D01*
X0093239Y0231779D01*
X0092600Y0230235D01*
X0092600Y0223365D01*
X0093239Y0221821D01*
X0094421Y0220639D01*
X0095965Y0220000D01*
X0097635Y0220000D01*
X0099179Y0220639D01*
X0100361Y0221821D01*
X0101000Y0223365D01*
X0101000Y0230235D01*
X0100361Y0231779D01*
X0099179Y0232961D01*
X0097635Y0233600D01*
X0095965Y0233600D01*
X0098167Y0233380D02*
X0105433Y0233380D01*
X0105965Y0233600D02*
X0104421Y0232961D01*
X0103239Y0231779D01*
X0102600Y0230235D01*
X0102600Y0223365D01*
X0103239Y0221821D01*
X0104421Y0220639D01*
X0105965Y0220000D01*
X0107635Y0220000D01*
X0109179Y0220639D01*
X0110361Y0221821D01*
X0111000Y0223365D01*
X0111000Y0230235D01*
X0110361Y0231779D01*
X0109179Y0232961D01*
X0107635Y0233600D01*
X0105965Y0233600D01*
X0108167Y0233380D02*
X0115433Y0233380D01*
X0113241Y0231781D02*
X0110359Y0231781D01*
X0111000Y0230183D02*
X0112600Y0230183D01*
X0112600Y0228584D02*
X0111000Y0228584D01*
X0111000Y0226986D02*
X0112600Y0226986D01*
X0112600Y0225387D02*
X0111000Y0225387D01*
X0111000Y0223789D02*
X0112600Y0223789D01*
X0112665Y0222190D02*
X0110514Y0222190D01*
X0111066Y0220592D02*
X0109064Y0220592D01*
X0104536Y0220592D02*
X0099064Y0220592D01*
X0100514Y0222190D02*
X0103086Y0222190D01*
X0102600Y0223789D02*
X0101000Y0223789D01*
X0101000Y0225387D02*
X0102600Y0225387D01*
X0102600Y0226986D02*
X0101000Y0226986D01*
X0101000Y0228584D02*
X0102600Y0228584D01*
X0102600Y0230183D02*
X0101000Y0230183D01*
X0100359Y0231781D02*
X0103241Y0231781D01*
X0094536Y0220592D02*
X0089064Y0220592D01*
X0090514Y0222190D02*
X0093086Y0222190D01*
X0092600Y0223789D02*
X0091000Y0223789D01*
X0091000Y0225387D02*
X0092600Y0225387D01*
X0092600Y0226986D02*
X0091000Y0226986D01*
X0091000Y0228584D02*
X0092600Y0228584D01*
X0092600Y0230183D02*
X0091000Y0230183D01*
X0090359Y0231781D02*
X0093241Y0231781D01*
X0082125Y0212599D02*
X0158600Y0212599D01*
X0158600Y0214198D02*
X0113723Y0214198D01*
X0115322Y0215796D02*
X0158600Y0215796D01*
X0158600Y0217395D02*
X0116920Y0217395D01*
X0118519Y0218993D02*
X0158600Y0218993D01*
X0158600Y0220592D02*
X0149064Y0220592D01*
X0149179Y0220639D02*
X0150361Y0221821D01*
X0151000Y0223365D01*
X0151000Y0230235D01*
X0150361Y0231779D01*
X0149179Y0232961D01*
X0147635Y0233600D01*
X0145965Y0233600D01*
X0144421Y0232961D01*
X0143239Y0231779D01*
X0142600Y0230235D01*
X0142600Y0223365D01*
X0143239Y0221821D01*
X0144421Y0220639D01*
X0145965Y0220000D01*
X0147635Y0220000D01*
X0149179Y0220639D01*
X0150514Y0222190D02*
X0158600Y0222190D01*
X0158600Y0223789D02*
X0151000Y0223789D01*
X0151000Y0225387D02*
X0158600Y0225387D01*
X0158600Y0226986D02*
X0151000Y0226986D01*
X0151000Y0228584D02*
X0158600Y0228584D01*
X0158600Y0230183D02*
X0151000Y0230183D01*
X0150359Y0231781D02*
X0157293Y0231781D01*
X0155695Y0233380D02*
X0148167Y0233380D01*
X0145433Y0233380D02*
X0138167Y0233380D01*
X0137635Y0233600D02*
X0135965Y0233600D01*
X0134421Y0232961D01*
X0133239Y0231779D01*
X0132600Y0230235D01*
X0132600Y0223365D01*
X0133239Y0221821D01*
X0134421Y0220639D01*
X0135965Y0220000D01*
X0137635Y0220000D01*
X0139179Y0220639D01*
X0140361Y0221821D01*
X0141000Y0223365D01*
X0141000Y0230235D01*
X0140361Y0231779D01*
X0139179Y0232961D01*
X0137635Y0233600D01*
X0135433Y0233380D02*
X0128167Y0233380D01*
X0127635Y0233600D02*
X0129179Y0232961D01*
X0130361Y0231779D01*
X0131000Y0230235D01*
X0131000Y0223365D01*
X0130361Y0221821D01*
X0129179Y0220639D01*
X0127635Y0220000D01*
X0125965Y0220000D01*
X0124421Y0220639D01*
X0123239Y0221821D01*
X0122600Y0223365D01*
X0122600Y0230235D01*
X0123239Y0231779D01*
X0124421Y0232961D01*
X0125965Y0233600D01*
X0127635Y0233600D01*
X0125433Y0233380D02*
X0118167Y0233380D01*
X0120359Y0231781D02*
X0123241Y0231781D01*
X0122600Y0230183D02*
X0121000Y0230183D01*
X0121000Y0228584D02*
X0122600Y0228584D01*
X0122600Y0226986D02*
X0121000Y0226986D01*
X0121000Y0225387D02*
X0122600Y0225387D01*
X0122600Y0223789D02*
X0121000Y0223789D01*
X0120514Y0222190D02*
X0123086Y0222190D01*
X0124536Y0220592D02*
X0119763Y0220592D01*
X0129064Y0220592D02*
X0134536Y0220592D01*
X0133086Y0222190D02*
X0130514Y0222190D01*
X0131000Y0223789D02*
X0132600Y0223789D01*
X0132600Y0225387D02*
X0131000Y0225387D01*
X0131000Y0226986D02*
X0132600Y0226986D01*
X0132600Y0228584D02*
X0131000Y0228584D01*
X0131000Y0230183D02*
X0132600Y0230183D01*
X0133241Y0231781D02*
X0130359Y0231781D01*
X0140359Y0231781D02*
X0143241Y0231781D01*
X0142600Y0230183D02*
X0141000Y0230183D01*
X0141000Y0228584D02*
X0142600Y0228584D01*
X0142600Y0226986D02*
X0141000Y0226986D01*
X0141000Y0225387D02*
X0142600Y0225387D01*
X0142600Y0223789D02*
X0141000Y0223789D01*
X0140514Y0222190D02*
X0143086Y0222190D01*
X0144536Y0220592D02*
X0139064Y0220592D01*
X0157983Y0239774D02*
X0164301Y0239774D01*
X0165899Y0238175D02*
X0159950Y0238175D01*
X0161549Y0236577D02*
X0167498Y0236577D01*
X0169096Y0234978D02*
X0163147Y0234978D01*
X0164609Y0233380D02*
X0170695Y0233380D01*
X0172293Y0231781D02*
X0165000Y0231781D01*
X0165000Y0230183D02*
X0173600Y0230183D01*
X0173600Y0228584D02*
X0165000Y0228584D01*
X0165000Y0226986D02*
X0173600Y0226986D01*
X0173600Y0225387D02*
X0165000Y0225387D01*
X0165000Y0223789D02*
X0173600Y0223789D01*
X0173600Y0222190D02*
X0165000Y0222190D01*
X0165000Y0220592D02*
X0173600Y0220592D01*
X0173600Y0218993D02*
X0165000Y0218993D01*
X0165000Y0217395D02*
X0173600Y0217395D01*
X0173600Y0215796D02*
X0165000Y0215796D01*
X0165000Y0214198D02*
X0173600Y0214198D01*
X0173600Y0212599D02*
X0165000Y0212599D01*
X0165000Y0211001D02*
X0173600Y0211001D01*
X0173600Y0209402D02*
X0165000Y0209402D01*
X0165000Y0207803D02*
X0173600Y0207803D01*
X0173600Y0206205D02*
X0165000Y0206205D01*
X0165000Y0204606D02*
X0173600Y0204606D01*
X0173600Y0203008D02*
X0165000Y0203008D01*
X0165000Y0201409D02*
X0173600Y0201409D01*
X0173600Y0199811D02*
X0165000Y0199811D01*
X0165000Y0198212D02*
X0173600Y0198212D01*
X0173600Y0196614D02*
X0165000Y0196614D01*
X0165000Y0195015D02*
X0173600Y0195015D01*
X0173600Y0193417D02*
X0165000Y0193417D01*
X0165000Y0191818D02*
X0173600Y0191818D01*
X0173600Y0190220D02*
X0164609Y0190220D01*
X0163147Y0188621D02*
X0173600Y0188621D01*
X0173600Y0187023D02*
X0161548Y0187023D01*
X0159950Y0185424D02*
X0173600Y0185424D01*
X0173600Y0183826D02*
X0157982Y0183826D01*
X0160965Y0163600D02*
X0159421Y0162961D01*
X0158239Y0161779D01*
X0157600Y0160235D01*
X0157600Y0153365D01*
X0158239Y0151821D01*
X0159421Y0150639D01*
X0160965Y0150000D01*
X0162635Y0150000D01*
X0164179Y0150639D01*
X0165361Y0151821D01*
X0166000Y0153365D01*
X0166000Y0160235D01*
X0165361Y0161779D01*
X0164179Y0162961D01*
X0162635Y0163600D01*
X0160965Y0163600D01*
X0159625Y0163045D02*
X0153975Y0163045D01*
X0154179Y0162961D02*
X0152635Y0163600D01*
X0150965Y0163600D01*
X0149421Y0162961D01*
X0148239Y0161779D01*
X0147600Y0160235D01*
X0147600Y0153365D01*
X0148239Y0151821D01*
X0149421Y0150639D01*
X0150965Y0150000D01*
X0152635Y0150000D01*
X0154179Y0150639D01*
X0155361Y0151821D01*
X0156000Y0153365D01*
X0156000Y0160235D01*
X0155361Y0161779D01*
X0154179Y0162961D01*
X0155498Y0161447D02*
X0158102Y0161447D01*
X0157600Y0159848D02*
X0156000Y0159848D01*
X0156000Y0158250D02*
X0157600Y0158250D01*
X0157600Y0156651D02*
X0156000Y0156651D01*
X0156000Y0155053D02*
X0157600Y0155053D01*
X0157600Y0153454D02*
X0156000Y0153454D01*
X0155375Y0151856D02*
X0158225Y0151856D01*
X0160344Y0150257D02*
X0153256Y0150257D01*
X0150344Y0150257D02*
X0143256Y0150257D01*
X0142635Y0150000D02*
X0144179Y0150639D01*
X0145361Y0151821D01*
X0146000Y0153365D01*
X0146000Y0160235D01*
X0145361Y0161779D01*
X0144179Y0162961D01*
X0142635Y0163600D01*
X0140965Y0163600D01*
X0139421Y0162961D01*
X0138239Y0161779D01*
X0137600Y0160235D01*
X0137600Y0153365D01*
X0138239Y0151821D01*
X0139421Y0150639D01*
X0140965Y0150000D01*
X0142635Y0150000D01*
X0140344Y0150257D02*
X0133256Y0150257D01*
X0135375Y0151856D02*
X0138225Y0151856D01*
X0137600Y0153454D02*
X0136000Y0153454D01*
X0136000Y0155053D02*
X0137600Y0155053D01*
X0137600Y0156651D02*
X0136000Y0156651D01*
X0136000Y0158250D02*
X0137600Y0158250D01*
X0137600Y0159848D02*
X0136000Y0159848D01*
X0135498Y0161447D02*
X0138102Y0161447D01*
X0139625Y0163045D02*
X0133975Y0163045D01*
X0129625Y0163045D02*
X0123975Y0163045D01*
X0125498Y0161447D02*
X0128102Y0161447D01*
X0127600Y0153454D02*
X0126000Y0153454D01*
X0125375Y0151856D02*
X0128225Y0151856D01*
X0130344Y0150257D02*
X0125000Y0150257D01*
X0125000Y0148659D02*
X0129133Y0148659D01*
X0127535Y0147060D02*
X0125000Y0147060D01*
X0124709Y0145462D02*
X0125936Y0145462D01*
X0124338Y0143863D02*
X0123389Y0143863D01*
X0122739Y0142265D02*
X0121790Y0142265D01*
X0121141Y0140666D02*
X0120191Y0140666D01*
X0119542Y0139068D02*
X0118565Y0139068D01*
X0118613Y0137469D02*
X0115000Y0137469D01*
X0115000Y0135870D02*
X0118600Y0135870D01*
X0118600Y0134272D02*
X0115000Y0134272D01*
X0115000Y0132673D02*
X0118600Y0132673D01*
X0117948Y0131075D02*
X0115652Y0131075D01*
X0116000Y0129476D02*
X0117600Y0129476D01*
X0117600Y0127878D02*
X0116000Y0127878D01*
X0116000Y0126279D02*
X0117600Y0126279D01*
X0117600Y0124681D02*
X0116000Y0124681D01*
X0115883Y0123082D02*
X0117717Y0123082D01*
X0118576Y0121484D02*
X0116642Y0121484D01*
X0118240Y0119885D02*
X0118600Y0119885D01*
X0113600Y0115090D02*
X0094555Y0115090D01*
X0095000Y0116688D02*
X0112386Y0116688D01*
X0110788Y0118287D02*
X0095000Y0118287D01*
X0095000Y0119885D02*
X0109189Y0119885D01*
X0108576Y0121484D02*
X0105024Y0121484D01*
X0105361Y0121821D02*
X0104179Y0120639D01*
X0102635Y0120000D01*
X0100965Y0120000D01*
X0099421Y0120639D01*
X0098239Y0121821D01*
X0097600Y0123365D01*
X0097600Y0130235D01*
X0098239Y0131779D01*
X0099421Y0132961D01*
X0100965Y0133600D01*
X0102635Y0133600D01*
X0104179Y0132961D01*
X0105361Y0131779D01*
X0106000Y0130235D01*
X0106000Y0123365D01*
X0105361Y0121821D01*
X0105883Y0123082D02*
X0107717Y0123082D01*
X0107600Y0124681D02*
X0106000Y0124681D01*
X0106000Y0126279D02*
X0107600Y0126279D01*
X0107600Y0127878D02*
X0106000Y0127878D01*
X0106000Y0129476D02*
X0107600Y0129476D01*
X0107948Y0131075D02*
X0105652Y0131075D01*
X0104466Y0132673D02*
X0108600Y0132673D01*
X0108600Y0134272D02*
X0025000Y0134272D01*
X0025000Y0132673D02*
X0049134Y0132673D01*
X0049421Y0132961D02*
X0048239Y0131779D01*
X0047600Y0130235D01*
X0047600Y0127125D01*
X0039987Y0119513D01*
X0039087Y0118613D01*
X0038600Y0117437D01*
X0038600Y0096163D01*
X0039087Y0094987D01*
X0044087Y0089987D01*
X0044987Y0089087D01*
X0046163Y0088600D01*
X0048300Y0088600D01*
X0048300Y0085685D01*
X0049000Y0083994D01*
X0049700Y0083295D01*
X0049700Y0070305D01*
X0049000Y0069606D01*
X0048300Y0067915D01*
X0048300Y0063925D01*
X0045375Y0061000D01*
X0045060Y0061000D01*
X0042600Y0058540D01*
X0042600Y0055060D01*
X0045060Y0052600D01*
X0048540Y0052600D01*
X0051000Y0055060D01*
X0051000Y0056808D01*
X0051985Y0056400D01*
X0053815Y0056400D01*
X0055506Y0057100D01*
X0056800Y0058394D01*
X0057500Y0060085D01*
X0057500Y0067915D01*
X0056800Y0069606D01*
X0056100Y0070305D01*
X0056100Y0083295D01*
X0056800Y0083994D01*
X0057500Y0085685D01*
X0057500Y0093515D01*
X0056800Y0095206D01*
X0055506Y0096500D01*
X0053815Y0097200D01*
X0051985Y0097200D01*
X0050294Y0096500D01*
X0049000Y0095206D01*
X0048915Y0095000D01*
X0048125Y0095000D01*
X0045000Y0098125D01*
X0045000Y0115475D01*
X0049947Y0120422D01*
X0050965Y0120000D01*
X0052635Y0120000D01*
X0054179Y0120639D01*
X0055361Y0121821D01*
X0056000Y0123365D01*
X0056000Y0130235D01*
X0055361Y0131779D01*
X0054179Y0132961D01*
X0052635Y0133600D01*
X0050965Y0133600D01*
X0049421Y0132961D01*
X0047948Y0131075D02*
X0025000Y0131075D01*
X0025000Y0129476D02*
X0047600Y0129476D01*
X0047600Y0127878D02*
X0025000Y0127878D01*
X0025000Y0126279D02*
X0046754Y0126279D01*
X0045155Y0124681D02*
X0025000Y0124681D01*
X0025000Y0123082D02*
X0043557Y0123082D01*
X0041958Y0121484D02*
X0025000Y0121484D01*
X0025000Y0119885D02*
X0040360Y0119885D01*
X0038952Y0118287D02*
X0025000Y0118287D01*
X0025000Y0116688D02*
X0038600Y0116688D01*
X0038600Y0115090D02*
X0025000Y0115090D01*
X0025000Y0113491D02*
X0038600Y0113491D01*
X0038600Y0111893D02*
X0025000Y0111893D01*
X0025000Y0110294D02*
X0038600Y0110294D01*
X0038600Y0108696D02*
X0025000Y0108696D01*
X0025000Y0107097D02*
X0038600Y0107097D01*
X0038600Y0105499D02*
X0025000Y0105499D01*
X0025000Y0103900D02*
X0038600Y0103900D01*
X0038600Y0102302D02*
X0025000Y0102302D01*
X0025000Y0100703D02*
X0038600Y0100703D01*
X0038600Y0099105D02*
X0025000Y0099105D01*
X0025000Y0097506D02*
X0038600Y0097506D01*
X0038706Y0095908D02*
X0025000Y0095908D01*
X0025000Y0094309D02*
X0039765Y0094309D01*
X0041364Y0092711D02*
X0025000Y0092711D01*
X0025000Y0091112D02*
X0042962Y0091112D01*
X0044561Y0089514D02*
X0025000Y0089514D01*
X0025000Y0087915D02*
X0048300Y0087915D01*
X0048300Y0086317D02*
X0025000Y0086317D01*
X0025000Y0084718D02*
X0048700Y0084718D01*
X0049700Y0083120D02*
X0025000Y0083120D01*
X0025000Y0081521D02*
X0049700Y0081521D01*
X0049700Y0079923D02*
X0025000Y0079923D01*
X0025000Y0078324D02*
X0049700Y0078324D01*
X0049700Y0076726D02*
X0025000Y0076726D01*
X0025190Y0075127D02*
X0049700Y0075127D01*
X0049700Y0073529D02*
X0026550Y0073529D01*
X0026550Y0071930D02*
X0049700Y0071930D01*
X0049700Y0070332D02*
X0026550Y0070332D01*
X0025451Y0068733D02*
X0048639Y0068733D01*
X0048300Y0067134D02*
X0025000Y0067134D01*
X0025000Y0065536D02*
X0048300Y0065536D01*
X0048300Y0063937D02*
X0025000Y0063937D01*
X0025000Y0062339D02*
X0046713Y0062339D01*
X0044801Y0060740D02*
X0025000Y0060740D01*
X0025000Y0059142D02*
X0043202Y0059142D01*
X0042600Y0057543D02*
X0025000Y0057543D01*
X0025000Y0055945D02*
X0042600Y0055945D01*
X0043314Y0054346D02*
X0025000Y0054346D01*
X0025378Y0052748D02*
X0044912Y0052748D01*
X0048688Y0052748D02*
X0094912Y0052748D01*
X0098688Y0052748D02*
X0118222Y0052748D01*
X0116624Y0051149D02*
X0026976Y0051149D01*
X0028575Y0049551D02*
X0115025Y0049551D01*
X0113427Y0047952D02*
X0030173Y0047952D01*
X0031772Y0046354D02*
X0111828Y0046354D01*
X0110230Y0044755D02*
X0033370Y0044755D01*
X0034969Y0043157D02*
X0108898Y0043157D01*
X0108600Y0041558D02*
X0036567Y0041558D01*
X0032312Y0036763D02*
X0021363Y0036763D01*
X0022961Y0035164D02*
X0033910Y0035164D01*
X0030713Y0038361D02*
X0019764Y0038361D01*
X0018166Y0039960D02*
X0029115Y0039960D01*
X0027516Y0041558D02*
X0016567Y0041558D01*
X0015000Y0043157D02*
X0025918Y0043157D01*
X0024319Y0044755D02*
X0015000Y0044755D01*
X0015000Y0046354D02*
X0022721Y0046354D01*
X0021122Y0047952D02*
X0015000Y0047952D01*
X0015000Y0049551D02*
X0019524Y0049551D01*
X0018606Y0051149D02*
X0015000Y0051149D01*
X0015000Y0052748D02*
X0018600Y0052748D01*
X0018600Y0054346D02*
X0015000Y0054346D01*
X0015000Y0055945D02*
X0018600Y0055945D01*
X0018600Y0057543D02*
X0015000Y0057543D01*
X0015000Y0059142D02*
X0018600Y0059142D01*
X0018600Y0060740D02*
X0015000Y0060740D01*
X0015000Y0062339D02*
X0018600Y0062339D01*
X0018600Y0063937D02*
X0015000Y0063937D01*
X0015000Y0065536D02*
X0018600Y0065536D01*
X0018600Y0067134D02*
X0015000Y0067134D01*
X0015451Y0068733D02*
X0018149Y0068733D01*
X0017050Y0070332D02*
X0016550Y0070332D01*
X0016550Y0071930D02*
X0017050Y0071930D01*
X0017050Y0073529D02*
X0016550Y0073529D01*
X0015190Y0075127D02*
X0018410Y0075127D01*
X0018600Y0076726D02*
X0001800Y0076726D01*
X0001800Y0078324D02*
X0018600Y0078324D01*
X0018600Y0079923D02*
X0001800Y0079923D01*
X0001800Y0081521D02*
X0018600Y0081521D01*
X0018600Y0083120D02*
X0001800Y0083120D01*
X0001800Y0084718D02*
X0018600Y0084718D01*
X0018600Y0086317D02*
X0001800Y0086317D01*
X0001800Y0087915D02*
X0018600Y0087915D01*
X0018600Y0089514D02*
X0001800Y0089514D01*
X0001800Y0091112D02*
X0018600Y0091112D01*
X0018600Y0092711D02*
X0001800Y0092711D01*
X0001800Y0094309D02*
X0018600Y0094309D01*
X0018600Y0095908D02*
X0001800Y0095908D01*
X0001800Y0097506D02*
X0018600Y0097506D01*
X0018600Y0099105D02*
X0001800Y0099105D01*
X0001800Y0100703D02*
X0018600Y0100703D01*
X0018600Y0102302D02*
X0001800Y0102302D01*
X0001800Y0103900D02*
X0018600Y0103900D01*
X0018600Y0105499D02*
X0001800Y0105499D01*
X0001800Y0107097D02*
X0018600Y0107097D01*
X0018600Y0108696D02*
X0001800Y0108696D01*
X0001800Y0110294D02*
X0018600Y0110294D01*
X0018600Y0111893D02*
X0001800Y0111893D01*
X0001800Y0113491D02*
X0018600Y0113491D01*
X0018600Y0115090D02*
X0001800Y0115090D01*
X0001800Y0116688D02*
X0018600Y0116688D01*
X0018600Y0118287D02*
X0001800Y0118287D01*
X0001800Y0119885D02*
X0018600Y0119885D01*
X0018600Y0121484D02*
X0001800Y0121484D01*
X0001800Y0123082D02*
X0018600Y0123082D01*
X0018600Y0124681D02*
X0001800Y0124681D01*
X0001800Y0126279D02*
X0018600Y0126279D01*
X0018600Y0127878D02*
X0001800Y0127878D01*
X0001800Y0129476D02*
X0018600Y0129476D01*
X0018600Y0131075D02*
X0001800Y0131075D01*
X0001800Y0132673D02*
X0018600Y0132673D01*
X0018600Y0134272D02*
X0001800Y0134272D01*
X0001800Y0135870D02*
X0018600Y0135870D01*
X0018613Y0137469D02*
X0001800Y0137469D01*
X0001800Y0139068D02*
X0019542Y0139068D01*
X0021141Y0140666D02*
X0001800Y0140666D01*
X0001800Y0142265D02*
X0022739Y0142265D01*
X0023600Y0143863D02*
X0001800Y0143863D01*
X0025396Y0135870D02*
X0108600Y0135870D01*
X0108600Y0137469D02*
X0026994Y0137469D01*
X0046214Y0116688D02*
X0052163Y0116688D01*
X0050564Y0115090D02*
X0045000Y0115090D01*
X0045000Y0113491D02*
X0048986Y0113491D01*
X0049073Y0113578D02*
X0047900Y0112406D01*
X0047200Y0110715D01*
X0047200Y0102885D01*
X0047900Y0101194D01*
X0049194Y0099900D01*
X0050885Y0099200D01*
X0052715Y0099200D01*
X0054406Y0099900D01*
X0055700Y0101194D01*
X0056400Y0102885D01*
X0056400Y0110715D01*
X0056060Y0111535D01*
X0064513Y0119987D01*
X0065000Y0121163D01*
X0065000Y0121460D01*
X0065361Y0121821D01*
X0066000Y0123365D01*
X0066000Y0130235D01*
X0065361Y0131779D01*
X0064179Y0132961D01*
X0062635Y0133600D01*
X0060965Y0133600D01*
X0059421Y0132961D01*
X0058239Y0131779D01*
X0057600Y0130235D01*
X0057600Y0123365D01*
X0057963Y0122488D01*
X0049987Y0114513D01*
X0049087Y0113613D01*
X0049073Y0113578D01*
X0047688Y0111893D02*
X0045000Y0111893D01*
X0045000Y0110294D02*
X0047200Y0110294D01*
X0047200Y0108696D02*
X0045000Y0108696D01*
X0045000Y0107097D02*
X0047200Y0107097D01*
X0047200Y0105499D02*
X0045000Y0105499D01*
X0045000Y0103900D02*
X0047200Y0103900D01*
X0047442Y0102302D02*
X0045000Y0102302D01*
X0045000Y0100703D02*
X0048391Y0100703D01*
X0045000Y0099105D02*
X0073600Y0099105D01*
X0073600Y0100703D02*
X0065209Y0100703D01*
X0065700Y0101194D02*
X0066400Y0102885D01*
X0066400Y0106875D01*
X0074513Y0114987D01*
X0075000Y0116163D01*
X0075000Y0121460D01*
X0075361Y0121821D01*
X0076000Y0123365D01*
X0076000Y0130235D01*
X0075361Y0131779D01*
X0074179Y0132961D01*
X0072635Y0133600D01*
X0070965Y0133600D01*
X0069421Y0132961D01*
X0068239Y0131779D01*
X0067600Y0130235D01*
X0067600Y0123365D01*
X0068239Y0121821D01*
X0068600Y0121460D01*
X0068600Y0118125D01*
X0064242Y0113767D01*
X0062715Y0114400D01*
X0060885Y0114400D01*
X0059194Y0113700D01*
X0057900Y0112406D01*
X0057200Y0110715D01*
X0057200Y0102885D01*
X0057900Y0101194D01*
X0059194Y0099900D01*
X0060885Y0099200D01*
X0062715Y0099200D01*
X0064406Y0099900D01*
X0065700Y0101194D01*
X0066158Y0102302D02*
X0073600Y0102302D01*
X0073600Y0103900D02*
X0066400Y0103900D01*
X0066400Y0105499D02*
X0073600Y0105499D01*
X0073600Y0107097D02*
X0066623Y0107097D01*
X0068221Y0108696D02*
X0073600Y0108696D01*
X0073600Y0110294D02*
X0069820Y0110294D01*
X0071418Y0111893D02*
X0073600Y0111893D01*
X0074037Y0113491D02*
X0073017Y0113491D01*
X0074555Y0115090D02*
X0075564Y0115090D01*
X0075000Y0116688D02*
X0077163Y0116688D01*
X0078761Y0118287D02*
X0075000Y0118287D01*
X0075000Y0119885D02*
X0080887Y0119885D01*
X0080965Y0120000D02*
X0082635Y0120000D01*
X0084179Y0120639D01*
X0085361Y0121821D01*
X0086000Y0123365D01*
X0086000Y0130235D01*
X0085361Y0131779D01*
X0084179Y0132961D01*
X0082635Y0133600D01*
X0080965Y0133600D01*
X0079421Y0132961D01*
X0078239Y0131779D01*
X0077600Y0130235D01*
X0077600Y0123365D01*
X0078239Y0121821D01*
X0079421Y0120639D01*
X0080965Y0120000D01*
X0078576Y0121484D02*
X0075024Y0121484D01*
X0075883Y0123082D02*
X0077717Y0123082D01*
X0077600Y0124681D02*
X0076000Y0124681D01*
X0076000Y0126279D02*
X0077600Y0126279D01*
X0077600Y0127878D02*
X0076000Y0127878D01*
X0076000Y0129476D02*
X0077600Y0129476D01*
X0077948Y0131075D02*
X0075652Y0131075D01*
X0074466Y0132673D02*
X0079134Y0132673D01*
X0084466Y0132673D02*
X0089134Y0132673D01*
X0087948Y0131075D02*
X0085652Y0131075D01*
X0086000Y0129476D02*
X0087600Y0129476D01*
X0087600Y0127878D02*
X0086000Y0127878D01*
X0086000Y0126279D02*
X0087600Y0126279D01*
X0087600Y0124681D02*
X0086000Y0124681D01*
X0085883Y0123082D02*
X0087717Y0123082D01*
X0088576Y0121484D02*
X0085024Y0121484D01*
X0083017Y0113491D02*
X0113600Y0113491D01*
X0113600Y0111893D02*
X0081418Y0111893D01*
X0080000Y0110294D02*
X0085071Y0110294D01*
X0082490Y0108696D02*
X0080000Y0108696D01*
X0080000Y0107097D02*
X0081600Y0107097D01*
X0081400Y0105499D02*
X0080000Y0105499D01*
X0080000Y0103900D02*
X0081766Y0103900D01*
X0082893Y0102302D02*
X0080000Y0102302D01*
X0080000Y0100703D02*
X0128371Y0100703D01*
X0126773Y0102302D02*
X0120707Y0102302D01*
X0121834Y0103900D02*
X0125174Y0103900D01*
X0123576Y0105499D02*
X0122200Y0105499D01*
X0127831Y0110294D02*
X0133780Y0110294D01*
X0135379Y0108696D02*
X0129430Y0108696D01*
X0131028Y0107097D02*
X0136977Y0107097D01*
X0137050Y0107025D02*
X0137050Y0104832D01*
X0139832Y0102050D01*
X0143768Y0102050D01*
X0144800Y0103082D01*
X0145965Y0102600D01*
X0147635Y0102600D01*
X0149179Y0103239D01*
X0150361Y0104421D01*
X0151000Y0105965D01*
X0151000Y0107635D01*
X0150689Y0108385D01*
X0152600Y0106475D01*
X0152600Y0105965D01*
X0153239Y0104421D01*
X0154421Y0103239D01*
X0155965Y0102600D01*
X0157635Y0102600D01*
X0159179Y0103239D01*
X0159540Y0103600D01*
X0163282Y0103600D01*
X0164832Y0102050D01*
X0168768Y0102050D01*
X0171550Y0104832D01*
X0171550Y0108768D01*
X0168768Y0111550D01*
X0164832Y0111550D01*
X0163282Y0110000D01*
X0159540Y0110000D01*
X0159179Y0110361D01*
X0157635Y0111000D01*
X0157125Y0111000D01*
X0145637Y0122488D01*
X0146000Y0123365D01*
X0146000Y0130235D01*
X0145361Y0131779D01*
X0144179Y0132961D01*
X0142635Y0133600D01*
X0140965Y0133600D01*
X0139421Y0132961D01*
X0138239Y0131779D01*
X0137600Y0130235D01*
X0137600Y0123365D01*
X0138239Y0121821D01*
X0138600Y0121460D01*
X0138600Y0121163D01*
X0139087Y0119987D01*
X0148385Y0110689D01*
X0147635Y0111000D01*
X0145965Y0111000D01*
X0144800Y0110518D01*
X0143768Y0111550D01*
X0141575Y0111550D01*
X0135000Y0118125D01*
X0135000Y0121460D01*
X0135361Y0121821D01*
X0136000Y0123365D01*
X0136000Y0130235D01*
X0135361Y0131779D01*
X0134179Y0132961D01*
X0132635Y0133600D01*
X0130965Y0133600D01*
X0129421Y0132961D01*
X0128239Y0131779D01*
X0127600Y0130235D01*
X0127600Y0123365D01*
X0128239Y0121821D01*
X0128600Y0121460D01*
X0128600Y0116163D01*
X0129087Y0114987D01*
X0137050Y0107025D01*
X0137050Y0105499D02*
X0132627Y0105499D01*
X0134225Y0103900D02*
X0137982Y0103900D01*
X0139581Y0102302D02*
X0135824Y0102302D01*
X0137422Y0100703D02*
X0138986Y0100703D01*
X0134087Y0094987D02*
X0134087Y0094987D01*
X0134765Y0094309D02*
X0083816Y0094309D01*
X0082218Y0095908D02*
X0133167Y0095908D01*
X0131568Y0097506D02*
X0080619Y0097506D01*
X0080000Y0099105D02*
X0129970Y0099105D01*
X0121911Y0089514D02*
X0138600Y0089514D01*
X0138600Y0091112D02*
X0120893Y0091112D01*
X0122200Y0087915D02*
X0138600Y0087915D01*
X0138600Y0086317D02*
X0121923Y0086317D01*
X0120923Y0084718D02*
X0138600Y0084718D01*
X0138600Y0083120D02*
X0091100Y0083120D01*
X0091604Y0081521D02*
X0138600Y0081521D01*
X0138600Y0079923D02*
X0099617Y0079923D01*
X0101000Y0078324D02*
X0138600Y0078324D01*
X0138600Y0076726D02*
X0101000Y0076726D01*
X0101000Y0075127D02*
X0138600Y0075127D01*
X0138600Y0073529D02*
X0099468Y0073529D01*
X0094132Y0073529D02*
X0073900Y0073529D01*
X0073900Y0075127D02*
X0088947Y0075127D01*
X0087349Y0076726D02*
X0073900Y0076726D01*
X0073900Y0078324D02*
X0085750Y0078324D01*
X0084758Y0079923D02*
X0073900Y0079923D01*
X0073900Y0081521D02*
X0084700Y0081521D01*
X0084700Y0083120D02*
X0073900Y0083120D01*
X0074899Y0084718D02*
X0082676Y0084718D01*
X0081677Y0086317D02*
X0075300Y0086317D01*
X0075300Y0087915D02*
X0081159Y0087915D01*
X0079561Y0089514D02*
X0075300Y0089514D01*
X0075300Y0091112D02*
X0077962Y0091112D01*
X0076364Y0092711D02*
X0075300Y0092711D01*
X0073600Y0097506D02*
X0045619Y0097506D01*
X0047218Y0095908D02*
X0049702Y0095908D01*
X0056098Y0095908D02*
X0067502Y0095908D01*
X0066429Y0094309D02*
X0057171Y0094309D01*
X0057500Y0092711D02*
X0066100Y0092711D01*
X0066100Y0091112D02*
X0057500Y0091112D01*
X0057500Y0089514D02*
X0066100Y0089514D01*
X0066100Y0087915D02*
X0057500Y0087915D01*
X0057500Y0086317D02*
X0066100Y0086317D01*
X0066500Y0084718D02*
X0057099Y0084718D01*
X0056100Y0083120D02*
X0067500Y0083120D01*
X0067500Y0081521D02*
X0056100Y0081521D01*
X0056100Y0079923D02*
X0067500Y0079923D01*
X0067500Y0078324D02*
X0056100Y0078324D01*
X0056100Y0076726D02*
X0067500Y0076726D01*
X0067500Y0075127D02*
X0056100Y0075127D01*
X0056100Y0073529D02*
X0067500Y0073529D01*
X0067500Y0071930D02*
X0056100Y0071930D01*
X0056100Y0070332D02*
X0067500Y0070332D01*
X0066439Y0068733D02*
X0057161Y0068733D01*
X0057500Y0067134D02*
X0066100Y0067134D01*
X0066100Y0065536D02*
X0057500Y0065536D01*
X0057500Y0063937D02*
X0066100Y0063937D01*
X0066100Y0062339D02*
X0057500Y0062339D01*
X0057500Y0060740D02*
X0066100Y0060740D01*
X0066491Y0059142D02*
X0057109Y0059142D01*
X0055949Y0057543D02*
X0067651Y0057543D01*
X0073130Y0055945D02*
X0051000Y0055945D01*
X0050286Y0054346D02*
X0074728Y0054346D01*
X0077385Y0060740D02*
X0094801Y0060740D01*
X0097813Y0062339D02*
X0075787Y0062339D01*
X0075300Y0063937D02*
X0099412Y0063937D01*
X0102069Y0057543D02*
X0168018Y0057543D01*
X0166419Y0055945D02*
X0101000Y0055945D01*
X0100286Y0054346D02*
X0119821Y0054346D01*
X0122478Y0047952D02*
X0128427Y0047952D01*
X0126828Y0046354D02*
X0120879Y0046354D01*
X0119281Y0044755D02*
X0125230Y0044755D01*
X0123631Y0043157D02*
X0117682Y0043157D01*
X0116084Y0041558D02*
X0122033Y0041558D01*
X0120434Y0039960D02*
X0115000Y0039960D01*
X0115000Y0038361D02*
X0118856Y0038361D01*
X0117634Y0036763D02*
X0115966Y0036763D01*
X0116400Y0035164D02*
X0117200Y0035164D01*
X0117200Y0033566D02*
X0116400Y0033566D01*
X0116400Y0031967D02*
X0117200Y0031967D01*
X0117200Y0030369D02*
X0116400Y0030369D01*
X0116400Y0028770D02*
X0117200Y0028770D01*
X0117495Y0027172D02*
X0116105Y0027172D01*
X0115079Y0025573D02*
X0118521Y0025573D01*
X0125079Y0025573D02*
X0128521Y0025573D01*
X0127900Y0026194D02*
X0129194Y0024900D01*
X0130885Y0024200D01*
X0132715Y0024200D01*
X0134406Y0024900D01*
X0135700Y0026194D01*
X0136400Y0027885D01*
X0136400Y0035715D01*
X0135700Y0037406D01*
X0134406Y0038700D01*
X0132715Y0039400D01*
X0130885Y0039400D01*
X0129194Y0038700D01*
X0127900Y0037406D01*
X0127200Y0035715D01*
X0127200Y0027885D01*
X0127900Y0026194D01*
X0127495Y0027172D02*
X0126105Y0027172D01*
X0126400Y0028770D02*
X0127200Y0028770D01*
X0127200Y0030369D02*
X0126400Y0030369D01*
X0126400Y0031967D02*
X0127200Y0031967D01*
X0127200Y0033566D02*
X0126400Y0033566D01*
X0126400Y0035164D02*
X0127200Y0035164D01*
X0127634Y0036763D02*
X0126288Y0036763D01*
X0127887Y0038361D02*
X0128856Y0038361D01*
X0129485Y0039960D02*
X0188600Y0039960D01*
X0188600Y0041558D02*
X0131084Y0041558D01*
X0132682Y0043157D02*
X0188600Y0043157D01*
X0188600Y0044755D02*
X0184281Y0044755D01*
X0185879Y0046354D02*
X0188600Y0046354D01*
X0188814Y0047952D02*
X0187478Y0047952D01*
X0189076Y0049551D02*
X0190025Y0049551D01*
X0190675Y0051149D02*
X0191624Y0051149D01*
X0192273Y0052748D02*
X0193222Y0052748D01*
X0193872Y0054346D02*
X0194821Y0054346D01*
X0195470Y0055945D02*
X0196419Y0055945D01*
X0197069Y0057543D02*
X0198018Y0057543D01*
X0192813Y0062339D02*
X0181864Y0062339D01*
X0180266Y0060740D02*
X0191215Y0060740D01*
X0189616Y0059142D02*
X0178667Y0059142D01*
X0177069Y0057543D02*
X0188018Y0057543D01*
X0186419Y0055945D02*
X0175470Y0055945D01*
X0173872Y0054346D02*
X0184821Y0054346D01*
X0183222Y0052748D02*
X0172273Y0052748D01*
X0170675Y0051149D02*
X0181624Y0051149D01*
X0183463Y0063937D02*
X0193600Y0063937D01*
X0193600Y0065536D02*
X0184740Y0065536D01*
X0185000Y0067134D02*
X0193600Y0067134D01*
X0193600Y0068733D02*
X0185000Y0068733D01*
X0185000Y0070332D02*
X0193600Y0070332D01*
X0193600Y0071930D02*
X0185000Y0071930D01*
X0185000Y0073529D02*
X0193600Y0073529D01*
X0193600Y0075127D02*
X0185000Y0075127D01*
X0185000Y0076726D02*
X0193600Y0076726D01*
X0193600Y0078324D02*
X0185000Y0078324D01*
X0185000Y0079923D02*
X0193600Y0079923D01*
X0193600Y0081521D02*
X0185000Y0081521D01*
X0185000Y0083120D02*
X0193600Y0083120D01*
X0193600Y0084718D02*
X0185000Y0084718D01*
X0185000Y0086317D02*
X0193600Y0086317D01*
X0193600Y0087915D02*
X0185000Y0087915D01*
X0185000Y0089514D02*
X0193600Y0089514D01*
X0193600Y0091112D02*
X0185000Y0091112D01*
X0185000Y0092711D02*
X0193600Y0092711D01*
X0193600Y0094309D02*
X0185000Y0094309D01*
X0185000Y0095908D02*
X0193600Y0095908D01*
X0193600Y0097506D02*
X0185000Y0097506D01*
X0185000Y0099105D02*
X0193600Y0099105D01*
X0193600Y0100703D02*
X0185000Y0100703D01*
X0185000Y0102302D02*
X0193600Y0102302D01*
X0193600Y0103900D02*
X0185000Y0103900D01*
X0185000Y0105499D02*
X0193600Y0105499D01*
X0193600Y0107097D02*
X0185000Y0107097D01*
X0185000Y0108696D02*
X0193600Y0108696D01*
X0193600Y0110294D02*
X0185000Y0110294D01*
X0185000Y0111893D02*
X0193600Y0111893D01*
X0193600Y0113491D02*
X0185000Y0113491D01*
X0185000Y0115090D02*
X0193600Y0115090D01*
X0193600Y0116688D02*
X0185000Y0116688D01*
X0185000Y0118287D02*
X0193600Y0118287D01*
X0193600Y0119885D02*
X0185000Y0119885D01*
X0185024Y0121484D02*
X0193600Y0121484D01*
X0193600Y0123082D02*
X0185883Y0123082D01*
X0186000Y0124681D02*
X0193600Y0124681D01*
X0193600Y0126279D02*
X0186000Y0126279D01*
X0186000Y0127878D02*
X0193600Y0127878D01*
X0193600Y0129476D02*
X0186000Y0129476D01*
X0185652Y0131075D02*
X0193000Y0131075D01*
X0191401Y0132673D02*
X0184466Y0132673D01*
X0179134Y0132673D02*
X0177199Y0132673D01*
X0177948Y0131075D02*
X0175652Y0131075D01*
X0176000Y0129476D02*
X0177600Y0129476D01*
X0177600Y0127878D02*
X0176000Y0127878D01*
X0176000Y0126279D02*
X0177600Y0126279D01*
X0177600Y0124681D02*
X0176000Y0124681D01*
X0175883Y0123082D02*
X0177717Y0123082D01*
X0178576Y0121484D02*
X0175024Y0121484D01*
X0178600Y0119885D02*
X0148240Y0119885D01*
X0149421Y0120639D02*
X0148239Y0121821D01*
X0147600Y0123365D01*
X0147600Y0130235D01*
X0148239Y0131779D01*
X0149421Y0132961D01*
X0150965Y0133600D01*
X0152635Y0133600D01*
X0154179Y0132961D01*
X0155361Y0131779D01*
X0156000Y0130235D01*
X0156000Y0123365D01*
X0155361Y0121821D01*
X0154179Y0120639D01*
X0152635Y0120000D01*
X0150965Y0120000D01*
X0149421Y0120639D01*
X0148576Y0121484D02*
X0146642Y0121484D01*
X0145883Y0123082D02*
X0147717Y0123082D01*
X0147600Y0124681D02*
X0146000Y0124681D01*
X0146000Y0126279D02*
X0147600Y0126279D01*
X0147600Y0127878D02*
X0146000Y0127878D01*
X0146000Y0129476D02*
X0147600Y0129476D01*
X0147948Y0131075D02*
X0145652Y0131075D01*
X0144466Y0132673D02*
X0149134Y0132673D01*
X0154466Y0132673D02*
X0159134Y0132673D01*
X0159421Y0132961D02*
X0158239Y0131779D01*
X0157600Y0130235D01*
X0157600Y0123365D01*
X0158239Y0121821D01*
X0159421Y0120639D01*
X0160965Y0120000D01*
X0162635Y0120000D01*
X0164179Y0120639D01*
X0165361Y0121821D01*
X0166000Y0123365D01*
X0166000Y0130235D01*
X0165361Y0131779D01*
X0164179Y0132961D01*
X0162635Y0133600D01*
X0160965Y0133600D01*
X0159421Y0132961D01*
X0157948Y0131075D02*
X0155652Y0131075D01*
X0156000Y0129476D02*
X0157600Y0129476D01*
X0157600Y0127878D02*
X0156000Y0127878D01*
X0156000Y0126279D02*
X0157600Y0126279D01*
X0157600Y0124681D02*
X0156000Y0124681D01*
X0155883Y0123082D02*
X0157717Y0123082D01*
X0158576Y0121484D02*
X0155024Y0121484D01*
X0151437Y0116688D02*
X0178600Y0116688D01*
X0178600Y0115090D02*
X0153036Y0115090D01*
X0154634Y0113491D02*
X0178600Y0113491D01*
X0178600Y0111893D02*
X0156233Y0111893D01*
X0159245Y0110294D02*
X0163577Y0110294D01*
X0170023Y0110294D02*
X0178600Y0110294D01*
X0178600Y0108696D02*
X0171550Y0108696D01*
X0171550Y0107097D02*
X0178600Y0107097D01*
X0178600Y0105499D02*
X0171550Y0105499D01*
X0170618Y0103900D02*
X0178600Y0103900D01*
X0178600Y0102302D02*
X0169019Y0102302D01*
X0169614Y0100703D02*
X0178600Y0100703D01*
X0178600Y0099105D02*
X0171213Y0099105D01*
X0171550Y0097506D02*
X0178600Y0097506D01*
X0178600Y0095908D02*
X0171550Y0095908D01*
X0171027Y0094309D02*
X0178600Y0094309D01*
X0178600Y0092711D02*
X0169428Y0092711D01*
X0164172Y0092711D02*
X0145000Y0092711D01*
X0145000Y0091112D02*
X0178600Y0091112D01*
X0178600Y0089514D02*
X0145000Y0089514D01*
X0145000Y0087915D02*
X0178600Y0087915D01*
X0178600Y0086317D02*
X0145000Y0086317D01*
X0145000Y0084718D02*
X0178600Y0084718D01*
X0178600Y0083120D02*
X0145000Y0083120D01*
X0145000Y0081521D02*
X0178600Y0081521D01*
X0178600Y0079923D02*
X0145000Y0079923D01*
X0145000Y0078324D02*
X0178600Y0078324D01*
X0178600Y0076726D02*
X0145000Y0076726D01*
X0145000Y0075127D02*
X0178600Y0075127D01*
X0178600Y0073529D02*
X0145000Y0073529D01*
X0145000Y0071930D02*
X0178600Y0071930D01*
X0178600Y0070332D02*
X0144655Y0070332D01*
X0143258Y0068733D02*
X0178600Y0068733D01*
X0177609Y0067134D02*
X0141660Y0067134D01*
X0140061Y0065536D02*
X0176011Y0065536D01*
X0174412Y0063937D02*
X0138463Y0063937D01*
X0136864Y0062339D02*
X0172813Y0062339D01*
X0171215Y0060740D02*
X0135266Y0060740D01*
X0133667Y0059142D02*
X0169616Y0059142D01*
X0183613Y0064087D02*
X0183613Y0064087D01*
X0182715Y0039400D02*
X0180885Y0039400D01*
X0179194Y0038700D01*
X0177900Y0037406D01*
X0177200Y0035715D01*
X0177200Y0027885D01*
X0177900Y0026194D01*
X0179194Y0024900D01*
X0180885Y0024200D01*
X0182715Y0024200D01*
X0184406Y0024900D01*
X0185700Y0026194D01*
X0186400Y0027885D01*
X0186400Y0035715D01*
X0185700Y0037406D01*
X0184406Y0038700D01*
X0182715Y0039400D01*
X0184744Y0038361D02*
X0188600Y0038361D01*
X0187634Y0036763D02*
X0185966Y0036763D01*
X0186400Y0035164D02*
X0187200Y0035164D01*
X0187200Y0033566D02*
X0186400Y0033566D01*
X0186400Y0031967D02*
X0187200Y0031967D01*
X0187200Y0030369D02*
X0186400Y0030369D01*
X0186400Y0028770D02*
X0187200Y0028770D01*
X0187495Y0027172D02*
X0186105Y0027172D01*
X0186048Y0025573D02*
X0185079Y0025573D01*
X0184449Y0023975D02*
X0145000Y0023975D01*
X0145000Y0022376D02*
X0182851Y0022376D01*
X0181252Y0020778D02*
X0145000Y0020778D01*
X0145079Y0025573D02*
X0148521Y0025573D01*
X0147900Y0026194D02*
X0149194Y0024900D01*
X0150885Y0024200D01*
X0152715Y0024200D01*
X0154406Y0024900D01*
X0155700Y0026194D01*
X0156400Y0027885D01*
X0156400Y0035715D01*
X0155700Y0037406D01*
X0154406Y0038700D01*
X0152715Y0039400D01*
X0150885Y0039400D01*
X0149194Y0038700D01*
X0147900Y0037406D01*
X0147200Y0035715D01*
X0147200Y0027885D01*
X0147900Y0026194D01*
X0147495Y0027172D02*
X0146105Y0027172D01*
X0146400Y0028770D02*
X0147200Y0028770D01*
X0147200Y0030369D02*
X0146400Y0030369D01*
X0146400Y0031967D02*
X0147200Y0031967D01*
X0147200Y0033566D02*
X0146400Y0033566D01*
X0146400Y0035164D02*
X0147200Y0035164D01*
X0147634Y0036763D02*
X0145966Y0036763D01*
X0144744Y0038361D02*
X0148856Y0038361D01*
X0154744Y0038361D02*
X0158856Y0038361D01*
X0159194Y0038700D02*
X0157900Y0037406D01*
X0157200Y0035715D01*
X0157200Y0027885D01*
X0157900Y0026194D01*
X0159194Y0024900D01*
X0160885Y0024200D01*
X0162715Y0024200D01*
X0164406Y0024900D01*
X0165700Y0026194D01*
X0166400Y0027885D01*
X0166400Y0035715D01*
X0165700Y0037406D01*
X0164406Y0038700D01*
X0162715Y0039400D01*
X0160885Y0039400D01*
X0159194Y0038700D01*
X0157634Y0036763D02*
X0155966Y0036763D01*
X0156400Y0035164D02*
X0157200Y0035164D01*
X0157200Y0033566D02*
X0156400Y0033566D01*
X0156400Y0031967D02*
X0157200Y0031967D01*
X0157200Y0030369D02*
X0156400Y0030369D01*
X0156400Y0028770D02*
X0157200Y0028770D01*
X0157495Y0027172D02*
X0156105Y0027172D01*
X0155079Y0025573D02*
X0158521Y0025573D01*
X0165079Y0025573D02*
X0168521Y0025573D01*
X0167900Y0026194D02*
X0169194Y0024900D01*
X0170885Y0024200D01*
X0172715Y0024200D01*
X0174406Y0024900D01*
X0175700Y0026194D01*
X0176400Y0027885D01*
X0176400Y0035715D01*
X0175700Y0037406D01*
X0174406Y0038700D01*
X0172715Y0039400D01*
X0170885Y0039400D01*
X0169194Y0038700D01*
X0167900Y0037406D01*
X0167200Y0035715D01*
X0167200Y0027885D01*
X0167900Y0026194D01*
X0167495Y0027172D02*
X0166105Y0027172D01*
X0166400Y0028770D02*
X0167200Y0028770D01*
X0167200Y0030369D02*
X0166400Y0030369D01*
X0166400Y0031967D02*
X0167200Y0031967D01*
X0167200Y0033566D02*
X0166400Y0033566D01*
X0166400Y0035164D02*
X0167200Y0035164D01*
X0167634Y0036763D02*
X0165966Y0036763D01*
X0164744Y0038361D02*
X0168856Y0038361D01*
X0174744Y0038361D02*
X0178856Y0038361D01*
X0177634Y0036763D02*
X0175966Y0036763D01*
X0176400Y0035164D02*
X0177200Y0035164D01*
X0177200Y0033566D02*
X0176400Y0033566D01*
X0176400Y0031967D02*
X0177200Y0031967D01*
X0177200Y0030369D02*
X0176400Y0030369D01*
X0176400Y0028770D02*
X0177200Y0028770D01*
X0177495Y0027172D02*
X0176105Y0027172D01*
X0175079Y0025573D02*
X0178521Y0025573D01*
X0205079Y0025573D02*
X0226800Y0025573D01*
X0226800Y0027172D02*
X0206105Y0027172D01*
X0206400Y0028770D02*
X0226800Y0028770D01*
X0226800Y0030369D02*
X0206400Y0030369D01*
X0206400Y0031967D02*
X0226800Y0031967D01*
X0226800Y0033566D02*
X0206400Y0033566D01*
X0206400Y0035164D02*
X0226800Y0035164D01*
X0226800Y0036763D02*
X0205966Y0036763D01*
X0204744Y0038361D02*
X0226800Y0038361D01*
X0163986Y0100703D02*
X0144614Y0100703D01*
X0144019Y0102302D02*
X0164581Y0102302D01*
X0153760Y0103900D02*
X0149840Y0103900D01*
X0150807Y0105499D02*
X0152793Y0105499D01*
X0151977Y0107097D02*
X0151000Y0107097D01*
X0147182Y0111893D02*
X0141233Y0111893D01*
X0139634Y0113491D02*
X0145583Y0113491D01*
X0143985Y0115090D02*
X0138036Y0115090D01*
X0136437Y0116688D02*
X0142386Y0116688D01*
X0140788Y0118287D02*
X0135000Y0118287D01*
X0135000Y0119885D02*
X0139189Y0119885D01*
X0138576Y0121484D02*
X0135024Y0121484D01*
X0135883Y0123082D02*
X0137717Y0123082D01*
X0137600Y0124681D02*
X0136000Y0124681D01*
X0136000Y0126279D02*
X0137600Y0126279D01*
X0137600Y0127878D02*
X0136000Y0127878D01*
X0136000Y0129476D02*
X0137600Y0129476D01*
X0137948Y0131075D02*
X0135652Y0131075D01*
X0134466Y0132673D02*
X0139134Y0132673D01*
X0131790Y0142265D02*
X0198600Y0142265D01*
X0198600Y0143863D02*
X0193072Y0143863D01*
X0194987Y0145462D02*
X0198600Y0145462D01*
X0197014Y0147060D02*
X0196586Y0147060D01*
X0192330Y0151856D02*
X0185375Y0151856D01*
X0185361Y0151821D02*
X0186000Y0153365D01*
X0186000Y0160235D01*
X0185361Y0161779D01*
X0184179Y0162961D01*
X0182635Y0163600D01*
X0180965Y0163600D01*
X0179421Y0162961D01*
X0178239Y0161779D01*
X0177600Y0160235D01*
X0177600Y0153365D01*
X0178239Y0151821D01*
X0179421Y0150639D01*
X0180965Y0150000D01*
X0182635Y0150000D01*
X0184179Y0150639D01*
X0185361Y0151821D01*
X0186000Y0153454D02*
X0193600Y0153454D01*
X0193600Y0155053D02*
X0186000Y0155053D01*
X0186000Y0156651D02*
X0193600Y0156651D01*
X0193600Y0158250D02*
X0186000Y0158250D01*
X0186000Y0159848D02*
X0193600Y0159848D01*
X0193600Y0161447D02*
X0185498Y0161447D01*
X0183975Y0163045D02*
X0193600Y0163045D01*
X0193600Y0164644D02*
X0115000Y0164644D01*
X0115000Y0163045D02*
X0119625Y0163045D01*
X0118102Y0161447D02*
X0115498Y0161447D01*
X0116000Y0159848D02*
X0117600Y0159848D01*
X0117600Y0158250D02*
X0116000Y0158250D01*
X0116000Y0156651D02*
X0117600Y0156651D01*
X0117600Y0155053D02*
X0116000Y0155053D01*
X0116000Y0153454D02*
X0117600Y0153454D01*
X0118225Y0151856D02*
X0115375Y0151856D01*
X0115768Y0166242D02*
X0193600Y0166242D01*
X0193600Y0167841D02*
X0117366Y0167841D01*
X0113600Y0177432D02*
X0075694Y0177432D01*
X0075000Y0179030D02*
X0113600Y0179030D01*
X0113600Y0180629D02*
X0075000Y0180629D01*
X0075000Y0182227D02*
X0113600Y0182227D01*
X0113600Y0183826D02*
X0075000Y0183826D01*
X0075000Y0185424D02*
X0113600Y0185424D01*
X0113600Y0187023D02*
X0075000Y0187023D01*
X0075000Y0188621D02*
X0113600Y0188621D01*
X0113600Y0190220D02*
X0108166Y0190220D01*
X0107635Y0190000D02*
X0109179Y0190639D01*
X0110361Y0191821D01*
X0111000Y0193365D01*
X0111000Y0200235D01*
X0110361Y0201779D01*
X0109179Y0202961D01*
X0107635Y0203600D01*
X0105965Y0203600D01*
X0104421Y0202961D01*
X0103239Y0201779D01*
X0102600Y0200235D01*
X0102600Y0193365D01*
X0103239Y0191821D01*
X0104421Y0190639D01*
X0105965Y0190000D01*
X0107635Y0190000D01*
X0105434Y0190220D02*
X0098166Y0190220D01*
X0097635Y0190000D02*
X0099179Y0190639D01*
X0100361Y0191821D01*
X0101000Y0193365D01*
X0101000Y0200235D01*
X0100361Y0201779D01*
X0099179Y0202961D01*
X0097635Y0203600D01*
X0095965Y0203600D01*
X0094421Y0202961D01*
X0093239Y0201779D01*
X0092600Y0200235D01*
X0092600Y0193365D01*
X0093239Y0191821D01*
X0094421Y0190639D01*
X0095965Y0190000D01*
X0097635Y0190000D01*
X0095434Y0190220D02*
X0088166Y0190220D01*
X0087635Y0190000D02*
X0089179Y0190639D01*
X0090361Y0191821D01*
X0091000Y0193365D01*
X0091000Y0200235D01*
X0090361Y0201779D01*
X0089179Y0202961D01*
X0087635Y0203600D01*
X0085965Y0203600D01*
X0084421Y0202961D01*
X0083239Y0201779D01*
X0082600Y0200235D01*
X0082600Y0193365D01*
X0083239Y0191821D01*
X0084421Y0190639D01*
X0085965Y0190000D01*
X0087635Y0190000D01*
X0085434Y0190220D02*
X0075000Y0190220D01*
X0075000Y0191818D02*
X0083242Y0191818D01*
X0082600Y0193417D02*
X0075000Y0193417D01*
X0075000Y0195015D02*
X0082600Y0195015D01*
X0082600Y0196614D02*
X0076139Y0196614D01*
X0077738Y0198212D02*
X0082600Y0198212D01*
X0082600Y0199811D02*
X0079336Y0199811D01*
X0080935Y0201409D02*
X0083086Y0201409D01*
X0082533Y0203008D02*
X0084535Y0203008D01*
X0089065Y0203008D02*
X0094535Y0203008D01*
X0093086Y0201409D02*
X0090514Y0201409D01*
X0091000Y0199811D02*
X0092600Y0199811D01*
X0092600Y0198212D02*
X0091000Y0198212D01*
X0091000Y0196614D02*
X0092600Y0196614D01*
X0092600Y0195015D02*
X0091000Y0195015D01*
X0091000Y0193417D02*
X0092600Y0193417D01*
X0093242Y0191818D02*
X0090358Y0191818D01*
X0100358Y0191818D02*
X0103242Y0191818D01*
X0102600Y0193417D02*
X0101000Y0193417D01*
X0101000Y0195015D02*
X0102600Y0195015D01*
X0102600Y0196614D02*
X0101000Y0196614D01*
X0101000Y0198212D02*
X0102600Y0198212D01*
X0102600Y0199811D02*
X0101000Y0199811D01*
X0100514Y0201409D02*
X0103086Y0201409D01*
X0104535Y0203008D02*
X0099065Y0203008D01*
X0109065Y0203008D02*
X0114535Y0203008D01*
X0113086Y0201409D02*
X0110514Y0201409D01*
X0111000Y0199811D02*
X0112600Y0199811D01*
X0112600Y0198212D02*
X0111000Y0198212D01*
X0111000Y0196614D02*
X0112600Y0196614D01*
X0112600Y0195015D02*
X0111000Y0195015D01*
X0111000Y0193417D02*
X0112600Y0193417D01*
X0113242Y0191818D02*
X0110358Y0191818D01*
X0089625Y0163045D02*
X0083975Y0163045D01*
X0085498Y0161447D02*
X0088102Y0161447D01*
X0087600Y0159848D02*
X0086000Y0159848D01*
X0086000Y0158250D02*
X0087600Y0158250D01*
X0087600Y0156651D02*
X0086000Y0156651D01*
X0086000Y0155053D02*
X0087600Y0155053D01*
X0087600Y0153454D02*
X0086000Y0153454D01*
X0085375Y0151856D02*
X0088225Y0151856D01*
X0078225Y0151856D02*
X0075375Y0151856D01*
X0076000Y0153454D02*
X0077600Y0153454D01*
X0077600Y0155053D02*
X0076000Y0155053D01*
X0076000Y0156651D02*
X0077600Y0156651D01*
X0077600Y0158250D02*
X0076000Y0158250D01*
X0076000Y0159848D02*
X0077600Y0159848D01*
X0078102Y0161447D02*
X0075498Y0161447D01*
X0073975Y0163045D02*
X0079625Y0163045D01*
X0069625Y0163045D02*
X0063975Y0163045D01*
X0065498Y0161447D02*
X0068102Y0161447D01*
X0067600Y0159848D02*
X0066000Y0159848D01*
X0066000Y0158250D02*
X0067600Y0158250D01*
X0067600Y0156651D02*
X0066000Y0156651D01*
X0066000Y0155053D02*
X0067600Y0155053D01*
X0067600Y0153454D02*
X0066000Y0153454D01*
X0065375Y0151856D02*
X0068225Y0151856D01*
X0058225Y0151856D02*
X0055375Y0151856D01*
X0056000Y0153454D02*
X0057600Y0153454D01*
X0057600Y0155053D02*
X0056000Y0155053D01*
X0056000Y0156651D02*
X0057600Y0156651D01*
X0057600Y0158250D02*
X0056000Y0158250D01*
X0056000Y0159848D02*
X0057600Y0159848D01*
X0058102Y0161447D02*
X0055498Y0161447D01*
X0053975Y0163045D02*
X0059625Y0163045D01*
X0059134Y0132673D02*
X0054466Y0132673D01*
X0055652Y0131075D02*
X0057948Y0131075D01*
X0057600Y0129476D02*
X0056000Y0129476D01*
X0056000Y0127878D02*
X0057600Y0127878D01*
X0057600Y0126279D02*
X0056000Y0126279D01*
X0056000Y0124681D02*
X0057600Y0124681D01*
X0057717Y0123082D02*
X0055883Y0123082D01*
X0055024Y0121484D02*
X0056958Y0121484D01*
X0055360Y0119885D02*
X0049411Y0119885D01*
X0047812Y0118287D02*
X0053761Y0118287D01*
X0058017Y0113491D02*
X0058986Y0113491D01*
X0059615Y0115090D02*
X0065564Y0115090D01*
X0067163Y0116688D02*
X0061214Y0116688D01*
X0062812Y0118287D02*
X0068600Y0118287D01*
X0068600Y0119885D02*
X0064411Y0119885D01*
X0065024Y0121484D02*
X0068576Y0121484D01*
X0067717Y0123082D02*
X0065883Y0123082D01*
X0066000Y0124681D02*
X0067600Y0124681D01*
X0067600Y0126279D02*
X0066000Y0126279D01*
X0066000Y0127878D02*
X0067600Y0127878D01*
X0067600Y0129476D02*
X0066000Y0129476D01*
X0065652Y0131075D02*
X0067948Y0131075D01*
X0069134Y0132673D02*
X0064466Y0132673D01*
X0057688Y0111893D02*
X0056418Y0111893D01*
X0056400Y0110294D02*
X0057200Y0110294D01*
X0057200Y0108696D02*
X0056400Y0108696D01*
X0056400Y0107097D02*
X0057200Y0107097D01*
X0057200Y0105499D02*
X0056400Y0105499D01*
X0056400Y0103900D02*
X0057200Y0103900D01*
X0057442Y0102302D02*
X0056158Y0102302D01*
X0055209Y0100703D02*
X0058391Y0100703D01*
X0073900Y0071930D02*
X0137405Y0071930D01*
X0135806Y0070332D02*
X0073900Y0070332D01*
X0074961Y0068733D02*
X0134208Y0068733D01*
X0132609Y0067134D02*
X0075300Y0067134D01*
X0075300Y0065536D02*
X0131011Y0065536D01*
X0134744Y0038361D02*
X0138856Y0038361D01*
X0137634Y0036763D02*
X0135966Y0036763D01*
X0136400Y0035164D02*
X0137200Y0035164D01*
X0137200Y0033566D02*
X0136400Y0033566D01*
X0136400Y0031967D02*
X0137200Y0031967D01*
X0137200Y0030369D02*
X0136400Y0030369D01*
X0136400Y0028770D02*
X0137200Y0028770D01*
X0137495Y0027172D02*
X0136105Y0027172D01*
X0135079Y0025573D02*
X0138521Y0025573D01*
X0138600Y0023975D02*
X0034151Y0023975D01*
X0032552Y0025573D02*
X0088521Y0025573D01*
X0087495Y0027172D02*
X0030954Y0027172D01*
X0029355Y0028770D02*
X0050752Y0028770D01*
X0048706Y0030369D02*
X0027757Y0030369D01*
X0026158Y0031967D02*
X0047107Y0031967D01*
X0044095Y0033566D02*
X0024560Y0033566D01*
X0020304Y0028770D02*
X0001800Y0028770D01*
X0001800Y0027172D02*
X0021903Y0027172D01*
X0023501Y0025573D02*
X0001800Y0025573D01*
X0001800Y0023975D02*
X0025100Y0023975D01*
X0026698Y0022376D02*
X0001800Y0022376D01*
X0001800Y0020778D02*
X0028297Y0020778D01*
X0029895Y0019179D02*
X0001800Y0019179D01*
X0001800Y0017581D02*
X0031494Y0017581D01*
X0033092Y0015982D02*
X0001800Y0015982D01*
X0001800Y0014384D02*
X0034691Y0014384D01*
X0037348Y0020778D02*
X0138600Y0020778D01*
X0138600Y0022376D02*
X0035749Y0022376D01*
X0049580Y0039960D02*
X0108600Y0039960D01*
X0108600Y0038361D02*
X0104744Y0038361D01*
X0104406Y0038700D02*
X0102715Y0039400D01*
X0100885Y0039400D01*
X0099194Y0038700D01*
X0097900Y0037406D01*
X0097200Y0035715D01*
X0097200Y0027885D01*
X0097900Y0026194D01*
X0099194Y0024900D01*
X0100885Y0024200D01*
X0102715Y0024200D01*
X0104406Y0024900D01*
X0105700Y0026194D01*
X0106400Y0027885D01*
X0106400Y0035715D01*
X0105700Y0037406D01*
X0104406Y0038700D01*
X0105966Y0036763D02*
X0107634Y0036763D01*
X0107200Y0035164D02*
X0106400Y0035164D01*
X0106400Y0033566D02*
X0107200Y0033566D01*
X0107200Y0031967D02*
X0106400Y0031967D01*
X0106400Y0030369D02*
X0107200Y0030369D01*
X0107200Y0028770D02*
X0106400Y0028770D01*
X0106105Y0027172D02*
X0107495Y0027172D01*
X0108521Y0025573D02*
X0105079Y0025573D01*
X0098521Y0025573D02*
X0095079Y0025573D01*
X0096105Y0027172D02*
X0097495Y0027172D01*
X0097200Y0028770D02*
X0096400Y0028770D01*
X0096400Y0030369D02*
X0097200Y0030369D01*
X0097200Y0031967D02*
X0096400Y0031967D01*
X0096400Y0033566D02*
X0097200Y0033566D01*
X0097200Y0035164D02*
X0096400Y0035164D01*
X0095966Y0036763D02*
X0097634Y0036763D01*
X0098856Y0038361D02*
X0094744Y0038361D01*
X0088856Y0038361D02*
X0051000Y0038361D01*
X0051363Y0036763D02*
X0087634Y0036763D01*
X0087200Y0035164D02*
X0052961Y0035164D01*
X0018706Y0030369D02*
X0001800Y0030369D01*
X0001800Y0031967D02*
X0017107Y0031967D01*
X0015509Y0033566D02*
X0001800Y0033566D01*
X0001800Y0035164D02*
X0013910Y0035164D01*
X0012312Y0036763D02*
X0001800Y0036763D01*
X0001800Y0038361D02*
X0010713Y0038361D01*
X0009115Y0039960D02*
X0001800Y0039960D01*
X0001800Y0041558D02*
X0008600Y0041558D01*
X0008600Y0043157D02*
X0001800Y0043157D01*
X0001800Y0044755D02*
X0008600Y0044755D01*
X0008600Y0046354D02*
X0001800Y0046354D01*
X0001800Y0047952D02*
X0008600Y0047952D01*
X0008600Y0049551D02*
X0001800Y0049551D01*
X0001800Y0051149D02*
X0008600Y0051149D01*
X0008600Y0052748D02*
X0001800Y0052748D01*
X0001800Y0054346D02*
X0008600Y0054346D01*
X0008600Y0055945D02*
X0001800Y0055945D01*
X0001800Y0057543D02*
X0008600Y0057543D01*
X0008600Y0059142D02*
X0001800Y0059142D01*
X0001800Y0060740D02*
X0008600Y0060740D01*
X0008600Y0062339D02*
X0001800Y0062339D01*
X0001800Y0063937D02*
X0008600Y0063937D01*
X0008600Y0065536D02*
X0001800Y0065536D01*
X0001800Y0067134D02*
X0008600Y0067134D01*
X0008149Y0068733D02*
X0001800Y0068733D01*
X0001800Y0070332D02*
X0007050Y0070332D01*
X0007050Y0071930D02*
X0001800Y0071930D01*
X0001800Y0073529D02*
X0007050Y0073529D01*
X0008410Y0075127D02*
X0001800Y0075127D01*
X0085415Y0092711D02*
X0138600Y0092711D01*
X0132182Y0111893D02*
X0126233Y0111893D01*
X0125000Y0113491D02*
X0130583Y0113491D01*
X0129045Y0115090D02*
X0125000Y0115090D01*
X0125000Y0116688D02*
X0128600Y0116688D01*
X0128600Y0118287D02*
X0125000Y0118287D01*
X0125000Y0119885D02*
X0128600Y0119885D01*
X0128576Y0121484D02*
X0125024Y0121484D01*
X0125883Y0123082D02*
X0127717Y0123082D01*
X0127600Y0124681D02*
X0126000Y0124681D01*
X0126000Y0126279D02*
X0127600Y0126279D01*
X0127600Y0127878D02*
X0126000Y0127878D01*
X0126000Y0129476D02*
X0127600Y0129476D01*
X0127948Y0131075D02*
X0125652Y0131075D01*
X0125000Y0132673D02*
X0129134Y0132673D01*
X0125000Y0134272D02*
X0169746Y0134272D01*
X0168698Y0132673D02*
X0164466Y0132673D01*
X0165652Y0131075D02*
X0167948Y0131075D01*
X0167600Y0129476D02*
X0166000Y0129476D01*
X0166000Y0127878D02*
X0167600Y0127878D01*
X0167600Y0126279D02*
X0166000Y0126279D01*
X0166000Y0124681D02*
X0167600Y0124681D01*
X0167717Y0123082D02*
X0165883Y0123082D01*
X0165024Y0121484D02*
X0168576Y0121484D01*
X0178600Y0118287D02*
X0149839Y0118287D01*
X0171345Y0135870D02*
X0125396Y0135870D01*
X0126994Y0137469D02*
X0172944Y0137469D01*
X0174542Y0139068D02*
X0128593Y0139068D01*
X0130191Y0140666D02*
X0198600Y0140666D01*
X0198600Y0139068D02*
X0194058Y0139068D01*
X0195656Y0137469D02*
X0198600Y0137469D01*
X0198600Y0135870D02*
X0197255Y0135870D01*
X0190732Y0150257D02*
X0183256Y0150257D01*
X0180344Y0150257D02*
X0173256Y0150257D01*
X0172635Y0150000D02*
X0174179Y0150639D01*
X0175361Y0151821D01*
X0176000Y0153365D01*
X0176000Y0160235D01*
X0175361Y0161779D01*
X0174179Y0162961D01*
X0172635Y0163600D01*
X0170965Y0163600D01*
X0169421Y0162961D01*
X0168239Y0161779D01*
X0167600Y0160235D01*
X0167600Y0153365D01*
X0168239Y0151821D01*
X0169421Y0150639D01*
X0170965Y0150000D01*
X0172635Y0150000D01*
X0170344Y0150257D02*
X0163256Y0150257D01*
X0165375Y0151856D02*
X0168225Y0151856D01*
X0167600Y0153454D02*
X0166000Y0153454D01*
X0166000Y0155053D02*
X0167600Y0155053D01*
X0167600Y0156651D02*
X0166000Y0156651D01*
X0166000Y0158250D02*
X0167600Y0158250D01*
X0167600Y0159848D02*
X0166000Y0159848D01*
X0165498Y0161447D02*
X0168102Y0161447D01*
X0169625Y0163045D02*
X0163975Y0163045D01*
X0173975Y0163045D02*
X0179625Y0163045D01*
X0178102Y0161447D02*
X0175498Y0161447D01*
X0176000Y0159848D02*
X0177600Y0159848D01*
X0177600Y0158250D02*
X0176000Y0158250D01*
X0176000Y0156651D02*
X0177600Y0156651D01*
X0177600Y0155053D02*
X0176000Y0155053D01*
X0176000Y0153454D02*
X0177600Y0153454D01*
X0178225Y0151856D02*
X0175375Y0151856D01*
X0149625Y0163045D02*
X0143975Y0163045D01*
X0145498Y0161447D02*
X0148102Y0161447D01*
X0147600Y0159848D02*
X0146000Y0159848D01*
X0146000Y0158250D02*
X0147600Y0158250D01*
X0147600Y0156651D02*
X0146000Y0156651D01*
X0146000Y0155053D02*
X0147600Y0155053D01*
X0147600Y0153454D02*
X0146000Y0153454D01*
X0145375Y0151856D02*
X0148225Y0151856D01*
X0180000Y0180629D02*
X0226800Y0180629D01*
X0226800Y0182227D02*
X0180000Y0182227D01*
X0180000Y0183826D02*
X0226800Y0183826D01*
X0226800Y0185424D02*
X0180000Y0185424D01*
X0180000Y0187023D02*
X0226800Y0187023D01*
X0226800Y0188621D02*
X0180000Y0188621D01*
X0180000Y0190220D02*
X0226800Y0190220D01*
X0226800Y0191818D02*
X0180000Y0191818D01*
X0180000Y0193417D02*
X0226800Y0193417D01*
X0226800Y0195015D02*
X0180000Y0195015D01*
X0180000Y0196614D02*
X0226800Y0196614D01*
X0226800Y0198212D02*
X0180000Y0198212D01*
X0180000Y0199811D02*
X0226800Y0199811D01*
X0226800Y0201409D02*
X0180000Y0201409D01*
X0180000Y0203008D02*
X0226800Y0203008D01*
X0226800Y0204606D02*
X0180000Y0204606D01*
X0180000Y0206205D02*
X0226800Y0206205D01*
X0226800Y0207803D02*
X0180000Y0207803D01*
X0180000Y0209402D02*
X0226800Y0209402D01*
X0226800Y0211001D02*
X0180000Y0211001D01*
X0180000Y0212599D02*
X0226800Y0212599D01*
X0226800Y0214198D02*
X0180000Y0214198D01*
X0180000Y0215796D02*
X0226800Y0215796D01*
X0226800Y0217395D02*
X0180000Y0217395D01*
X0180000Y0218993D02*
X0226800Y0218993D01*
X0226800Y0220592D02*
X0180000Y0220592D01*
X0180000Y0222190D02*
X0226800Y0222190D01*
X0226800Y0223789D02*
X0180000Y0223789D01*
X0180000Y0225387D02*
X0226800Y0225387D01*
X0226800Y0226986D02*
X0180000Y0226986D01*
X0180000Y0228584D02*
X0226800Y0228584D01*
X0226800Y0230183D02*
X0180000Y0230183D01*
X0180000Y0231781D02*
X0226800Y0231781D01*
X0226800Y0233380D02*
X0179609Y0233380D01*
X0178147Y0234978D02*
X0226800Y0234978D01*
X0226800Y0236577D02*
X0176549Y0236577D01*
X0174950Y0238175D02*
X0226800Y0238175D01*
X0226800Y0239774D02*
X0173352Y0239774D01*
X0171753Y0241372D02*
X0226800Y0241372D01*
X0226800Y0242971D02*
X0170155Y0242971D01*
X0168556Y0244569D02*
X0226800Y0244569D01*
X0226800Y0246168D02*
X0166958Y0246168D01*
X0165359Y0247766D02*
X0226800Y0247766D01*
X0226800Y0249365D02*
X0163761Y0249365D01*
X0155733Y0250963D02*
X0226800Y0250963D01*
X0226800Y0252562D02*
X0155733Y0252562D01*
X0155733Y0254160D02*
X0226800Y0254160D01*
X0226800Y0255759D02*
X0155733Y0255759D01*
X0155733Y0257357D02*
X0226800Y0257357D01*
X0226800Y0258956D02*
X0155733Y0258956D01*
X0155733Y0260554D02*
X0226800Y0260554D01*
X0226800Y0262153D02*
X0155368Y0262153D01*
X0226800Y0263751D02*
X0001800Y0263751D01*
X0001800Y0262153D02*
X0061609Y0262153D01*
X0061244Y0260554D02*
X0001800Y0260554D01*
X0001800Y0258956D02*
X0061244Y0258956D01*
X0061244Y0257357D02*
X0001800Y0257357D01*
X0001800Y0255759D02*
X0061244Y0255759D01*
X0061244Y0254160D02*
X0001800Y0254160D01*
X0001800Y0252562D02*
X0061244Y0252562D01*
X0061244Y0250963D02*
X0001800Y0250963D01*
X0001800Y0265350D02*
X0226800Y0265350D01*
X0099134Y0132673D02*
X0094466Y0132673D01*
X0095652Y0131075D02*
X0097948Y0131075D01*
X0097600Y0129476D02*
X0096000Y0129476D01*
X0096000Y0127878D02*
X0097600Y0127878D01*
X0097600Y0126279D02*
X0096000Y0126279D01*
X0096000Y0124681D02*
X0097600Y0124681D01*
X0097717Y0123082D02*
X0095883Y0123082D01*
X0095024Y0121484D02*
X0098576Y0121484D01*
X0092929Y0110294D02*
X0110671Y0110294D01*
X0108493Y0102302D02*
X0095107Y0102302D01*
X0095293Y0091112D02*
X0108307Y0091112D01*
M02*
