G75*
%MOIN*%
%OFA0B0*%
%FSLAX25Y25*%
%IPPOS*%
%LPD*%
%AMOC8*
5,1,8,0,0,1.08239X$1,22.5*
%
%ADD10C,0.00600*%
%ADD11C,0.01000*%
%ADD12C,0.00500*%
D10*
X0008300Y0065800D02*
X0025300Y0065800D01*
X0025360Y0065802D01*
X0025421Y0065807D01*
X0025480Y0065816D01*
X0025539Y0065829D01*
X0025598Y0065845D01*
X0025655Y0065865D01*
X0025710Y0065888D01*
X0025765Y0065915D01*
X0025817Y0065944D01*
X0025868Y0065977D01*
X0025917Y0066013D01*
X0025963Y0066051D01*
X0026007Y0066093D01*
X0026049Y0066137D01*
X0026087Y0066183D01*
X0026123Y0066232D01*
X0026156Y0066283D01*
X0026185Y0066335D01*
X0026212Y0066390D01*
X0026235Y0066445D01*
X0026255Y0066502D01*
X0026271Y0066561D01*
X0026284Y0066620D01*
X0026293Y0066679D01*
X0026298Y0066740D01*
X0026300Y0066800D01*
X0026300Y0076800D01*
X0026298Y0076860D01*
X0026293Y0076921D01*
X0026284Y0076980D01*
X0026271Y0077039D01*
X0026255Y0077098D01*
X0026235Y0077155D01*
X0026212Y0077210D01*
X0026185Y0077265D01*
X0026156Y0077317D01*
X0026123Y0077368D01*
X0026087Y0077417D01*
X0026049Y0077463D01*
X0026007Y0077507D01*
X0025963Y0077549D01*
X0025917Y0077587D01*
X0025868Y0077623D01*
X0025817Y0077656D01*
X0025765Y0077685D01*
X0025710Y0077712D01*
X0025655Y0077735D01*
X0025598Y0077755D01*
X0025539Y0077771D01*
X0025480Y0077784D01*
X0025421Y0077793D01*
X0025360Y0077798D01*
X0025300Y0077800D01*
X0008300Y0077800D01*
X0008240Y0077798D01*
X0008179Y0077793D01*
X0008120Y0077784D01*
X0008061Y0077771D01*
X0008002Y0077755D01*
X0007945Y0077735D01*
X0007890Y0077712D01*
X0007835Y0077685D01*
X0007783Y0077656D01*
X0007732Y0077623D01*
X0007683Y0077587D01*
X0007637Y0077549D01*
X0007593Y0077507D01*
X0007551Y0077463D01*
X0007513Y0077417D01*
X0007477Y0077368D01*
X0007444Y0077317D01*
X0007415Y0077265D01*
X0007388Y0077210D01*
X0007365Y0077155D01*
X0007345Y0077098D01*
X0007329Y0077039D01*
X0007316Y0076980D01*
X0007307Y0076921D01*
X0007302Y0076860D01*
X0007300Y0076800D01*
X0007300Y0066800D01*
X0007302Y0066740D01*
X0007307Y0066679D01*
X0007316Y0066620D01*
X0007329Y0066561D01*
X0007345Y0066502D01*
X0007365Y0066445D01*
X0007388Y0066390D01*
X0007415Y0066335D01*
X0007444Y0066283D01*
X0007477Y0066232D01*
X0007513Y0066183D01*
X0007551Y0066137D01*
X0007593Y0066093D01*
X0007637Y0066051D01*
X0007683Y0066013D01*
X0007732Y0065977D01*
X0007783Y0065944D01*
X0007835Y0065915D01*
X0007890Y0065888D01*
X0007945Y0065865D01*
X0008002Y0065845D01*
X0008061Y0065829D01*
X0008120Y0065816D01*
X0008179Y0065807D01*
X0008240Y0065802D01*
X0008300Y0065800D01*
X0015300Y0071800D02*
X0015800Y0071800D01*
X0017800Y0071800D02*
X0018300Y0071800D01*
D11*
X0017800Y0071800D02*
X0017800Y0068800D01*
X0015800Y0068800D02*
X0015800Y0071800D01*
X0015800Y0074800D01*
X0017800Y0074800D02*
X0017800Y0071800D01*
D12*
X0017695Y0079050D02*
X0018446Y0079801D01*
X0017695Y0079050D02*
X0016194Y0079050D01*
X0015444Y0079801D01*
X0015444Y0080551D01*
X0016194Y0081302D01*
X0016945Y0081302D01*
X0016194Y0081302D02*
X0015444Y0082053D01*
X0015444Y0082803D01*
X0016194Y0083554D01*
X0017695Y0083554D01*
X0018446Y0082803D01*
X0020047Y0082803D02*
X0020798Y0083554D01*
X0022299Y0083554D01*
X0023050Y0082803D01*
X0023050Y0079801D01*
X0022299Y0079050D01*
X0020798Y0079050D01*
X0020047Y0079801D01*
M02*
