%
M48
M72
T01C0.03200
T02C0.04000
%
T01
X166800Y96800
X166800Y106800
X141800Y96800
X141800Y106800
X21800Y71800
X11800Y71800
X51800Y126800
X61800Y126800
X71800Y126800
X81800Y126800
X91800Y126800
X101800Y126800
X111800Y126800
X121800Y126800
X131800Y126800
X141800Y126800
X151800Y126800
X161800Y126800
X171800Y126800
X181800Y126800
X181800Y156800
X171800Y156800
X161800Y156800
X151800Y156800
X141800Y156800
X131800Y156800
X121800Y156800
X111800Y156800
X101800Y156800
X91800Y156800
X81800Y156800
X71800Y156800
X61800Y156800
X51800Y156800
X146800Y226800
X136800Y226800
X86800Y226800
X86800Y196800
X126800Y226800
X116800Y226800
X96800Y226800
X106800Y226800
X96800Y196800
X106800Y196800
X116800Y196800
X126800Y196800
X136800Y196800
X146800Y196800
X156800Y106800
X146800Y106800
X46800Y36800
X46800Y56800
X61800Y231800
X41800Y231800
X96800Y56800
X96800Y76800
T02
X21800Y221800
X21800Y211800
X61800Y201800
X61800Y211800
X91800Y31800
X101800Y31800
X111800Y31800
X121800Y31800
X131800Y31800
X141800Y31800
X151800Y31800
X161800Y31800
X171800Y31800
X181800Y31800
X191800Y31800
X201800Y31800
X51800Y106800
X61800Y106800
X89000Y105700
X89000Y87900
X114600Y105700
X114600Y87900
X70700Y89600
X52900Y89600
X70700Y64000
X52900Y64000
M30
