G75*
%MOIN*%
%OFA0B0*%
%FSLAX25Y25*%
%IPPOS*%
%LPD*%
%AMOC8*
5,1,8,0,0,1.08239X$1,22.5*
%
%ADD10C,0.00000*%
%ADD11OC8,0.06800*%
%ADD12OC8,0.06000*%
%ADD13OC8,0.07100*%
%ADD14C,0.07100*%
%ADD15C,0.08600*%
%ADD16OC8,0.13200*%
%ADD17C,0.06800*%
%ADD18C,0.05950*%
%ADD19C,0.06000*%
%ADD20C,0.06000*%
%ADD21C,0.08300*%
%ADD22C,0.11300*%
%ADD23C,0.04800*%
%ADD24R,0.04762X0.04762*%
D10*
X0012516Y0011833D02*
X0012516Y0051833D01*
X0232516Y0486833D01*
X0342516Y0486833D01*
X0562516Y0051833D01*
X0562437Y0011833D01*
X0012516Y0011833D01*
D11*
X0154283Y0141492D03*
X0227516Y0071833D03*
X0247516Y0071833D03*
X0230036Y0034970D03*
X0327516Y0071833D03*
X0347516Y0071833D03*
X0379938Y0081301D03*
X0421136Y0090212D03*
X0367044Y0164995D03*
X0364603Y0219038D03*
X0304366Y0269629D03*
X0320114Y0354668D03*
X0153382Y0210967D03*
X0293369Y0140011D03*
D12*
X0212516Y0201833D03*
X0202516Y0201833D03*
X0177591Y0199446D03*
X0166765Y0199523D03*
X0166765Y0159523D03*
X0177591Y0159446D03*
X0202516Y0256833D03*
X0212516Y0256833D03*
X0207516Y0271833D03*
X0207516Y0311833D03*
X0403863Y0199840D03*
X0415817Y0199840D03*
X0415817Y0159840D03*
X0403863Y0159840D03*
X0497516Y0041833D03*
X0497516Y0031833D03*
D13*
X0472516Y0043833D03*
D14*
X0472516Y0029833D03*
D15*
X0518536Y0071242D02*
X0525485Y0074783D01*
X0516496Y0092425D02*
X0509547Y0088884D01*
X0500648Y0106347D02*
X0507598Y0109889D01*
X0494384Y0137319D02*
X0487434Y0133778D01*
X0478536Y0151242D02*
X0485485Y0154783D01*
X0476496Y0172425D02*
X0469547Y0168884D01*
X0460648Y0186347D02*
X0467598Y0189889D01*
X0454934Y0216051D02*
X0447985Y0212510D01*
X0439041Y0230063D02*
X0445991Y0233604D01*
X0437047Y0251157D02*
X0430097Y0247616D01*
X0417985Y0272510D02*
X0424934Y0276051D01*
X0415991Y0293604D02*
X0409041Y0290063D01*
X0400097Y0307616D02*
X0407047Y0311157D01*
X0394934Y0336051D02*
X0387985Y0332510D01*
X0379041Y0350063D02*
X0385991Y0353604D01*
X0377047Y0371157D02*
X0370097Y0367616D01*
X0214934Y0387616D02*
X0207985Y0391157D01*
X0199041Y0373604D02*
X0205991Y0370063D01*
X0197047Y0352510D02*
X0190097Y0356051D01*
X0172985Y0326157D02*
X0179934Y0322616D01*
X0170991Y0305063D02*
X0164041Y0308604D01*
X0155097Y0291051D02*
X0162047Y0287510D01*
X0149934Y0262616D02*
X0142985Y0266157D01*
X0134041Y0248604D02*
X0140991Y0245063D01*
X0132047Y0227510D02*
X0125097Y0231051D01*
X0112985Y0206157D02*
X0119934Y0202616D01*
X0110991Y0185063D02*
X0104041Y0188604D01*
X0095097Y0171051D02*
X0102047Y0167510D01*
X0089934Y0142616D02*
X0082985Y0146157D01*
X0074041Y0128604D02*
X0080991Y0125063D01*
X0072047Y0107510D02*
X0065097Y0111051D01*
X0052985Y0086157D02*
X0059934Y0082616D01*
X0050991Y0065063D02*
X0044041Y0068604D01*
X0035097Y0051051D02*
X0042047Y0047510D01*
X0302816Y0040733D02*
X0302816Y0032933D01*
X0322516Y0032933D02*
X0322516Y0040733D01*
X0342216Y0040733D02*
X0342216Y0032933D01*
X0527434Y0053778D02*
X0534384Y0057319D01*
D16*
X0387516Y0151833D03*
X0387516Y0191833D03*
X0387016Y0231833D03*
X0387016Y0106833D03*
X0188016Y0171833D03*
X0187516Y0211833D03*
X0187516Y0251833D03*
X0187516Y0126833D03*
X0187516Y0086833D03*
D17*
X0224516Y0081833D02*
X0230516Y0081833D01*
X0230516Y0091833D02*
X0224516Y0091833D01*
X0224516Y0101833D02*
X0230516Y0101833D01*
X0230516Y0111833D02*
X0224516Y0111833D01*
X0224516Y0121833D02*
X0230516Y0121833D01*
X0230516Y0131833D02*
X0224516Y0131833D01*
X0224516Y0141833D02*
X0230516Y0141833D01*
X0230516Y0151833D02*
X0224516Y0151833D01*
X0224516Y0161833D02*
X0230516Y0161833D01*
X0230516Y0171833D02*
X0224516Y0171833D01*
X0224516Y0181833D02*
X0230516Y0181833D01*
X0230516Y0191833D02*
X0224516Y0191833D01*
X0224516Y0201833D02*
X0230516Y0201833D01*
X0230516Y0211833D02*
X0224516Y0211833D01*
X0224516Y0221833D02*
X0230516Y0221833D01*
X0230516Y0231833D02*
X0224516Y0231833D01*
X0224516Y0241833D02*
X0230516Y0241833D01*
X0230516Y0251833D02*
X0224516Y0251833D01*
X0224516Y0261833D02*
X0230516Y0261833D01*
X0230516Y0271833D02*
X0224516Y0271833D01*
X0224516Y0281833D02*
X0230516Y0281833D01*
X0230516Y0291833D02*
X0224516Y0291833D01*
X0224516Y0301833D02*
X0230516Y0301833D01*
X0230516Y0311833D02*
X0224516Y0311833D01*
X0224516Y0321833D02*
X0230516Y0321833D01*
X0244516Y0321833D02*
X0250516Y0321833D01*
X0250516Y0311833D02*
X0244516Y0311833D01*
X0244516Y0301833D02*
X0250516Y0301833D01*
X0250516Y0291833D02*
X0244516Y0291833D01*
X0244516Y0281833D02*
X0250516Y0281833D01*
X0250516Y0271833D02*
X0244516Y0271833D01*
X0244516Y0261833D02*
X0250516Y0261833D01*
X0250516Y0251833D02*
X0244516Y0251833D01*
X0244516Y0241833D02*
X0250516Y0241833D01*
X0250516Y0231833D02*
X0244516Y0231833D01*
X0244516Y0221833D02*
X0250516Y0221833D01*
X0250516Y0211833D02*
X0244516Y0211833D01*
X0244516Y0201833D02*
X0250516Y0201833D01*
X0250516Y0191833D02*
X0244516Y0191833D01*
X0244516Y0181833D02*
X0250516Y0181833D01*
X0250516Y0171833D02*
X0244516Y0171833D01*
X0244516Y0161833D02*
X0250516Y0161833D01*
X0250516Y0151833D02*
X0244516Y0151833D01*
X0244516Y0141833D02*
X0250516Y0141833D01*
X0250516Y0131833D02*
X0244516Y0131833D01*
X0244516Y0121833D02*
X0250516Y0121833D01*
X0250516Y0111833D02*
X0244516Y0111833D01*
X0244516Y0101833D02*
X0250516Y0101833D01*
X0250516Y0091833D02*
X0244516Y0091833D01*
X0244516Y0081833D02*
X0250516Y0081833D01*
X0324516Y0081833D02*
X0330516Y0081833D01*
X0330516Y0091833D02*
X0324516Y0091833D01*
X0324516Y0101833D02*
X0330516Y0101833D01*
X0330516Y0111833D02*
X0324516Y0111833D01*
X0324516Y0121833D02*
X0330516Y0121833D01*
X0330516Y0131833D02*
X0324516Y0131833D01*
X0324516Y0141833D02*
X0330516Y0141833D01*
X0330516Y0151833D02*
X0324516Y0151833D01*
X0324516Y0161833D02*
X0330516Y0161833D01*
X0330516Y0171833D02*
X0324516Y0171833D01*
X0324516Y0181833D02*
X0330516Y0181833D01*
X0330516Y0191833D02*
X0324516Y0191833D01*
X0324516Y0201833D02*
X0330516Y0201833D01*
X0330516Y0211833D02*
X0324516Y0211833D01*
X0324516Y0221833D02*
X0330516Y0221833D01*
X0330516Y0231833D02*
X0324516Y0231833D01*
X0324516Y0241833D02*
X0330516Y0241833D01*
X0330516Y0251833D02*
X0324516Y0251833D01*
X0324516Y0261833D02*
X0330516Y0261833D01*
X0330516Y0271833D02*
X0324516Y0271833D01*
X0324516Y0281833D02*
X0330516Y0281833D01*
X0330516Y0291833D02*
X0324516Y0291833D01*
X0324516Y0301833D02*
X0330516Y0301833D01*
X0330516Y0311833D02*
X0324516Y0311833D01*
X0324516Y0321833D02*
X0330516Y0321833D01*
X0344516Y0321833D02*
X0350516Y0321833D01*
X0350516Y0311833D02*
X0344516Y0311833D01*
X0344516Y0301833D02*
X0350516Y0301833D01*
X0350516Y0291833D02*
X0344516Y0291833D01*
X0344516Y0281833D02*
X0350516Y0281833D01*
X0350516Y0271833D02*
X0344516Y0271833D01*
X0344516Y0261833D02*
X0350516Y0261833D01*
X0350516Y0251833D02*
X0344516Y0251833D01*
X0344516Y0241833D02*
X0350516Y0241833D01*
X0350516Y0231833D02*
X0344516Y0231833D01*
X0344516Y0221833D02*
X0350516Y0221833D01*
X0350516Y0211833D02*
X0344516Y0211833D01*
X0344516Y0201833D02*
X0350516Y0201833D01*
X0350516Y0191833D02*
X0344516Y0191833D01*
X0344516Y0181833D02*
X0350516Y0181833D01*
X0350516Y0171833D02*
X0344516Y0171833D01*
X0344516Y0161833D02*
X0350516Y0161833D01*
X0350516Y0151833D02*
X0344516Y0151833D01*
X0344516Y0141833D02*
X0350516Y0141833D01*
X0350516Y0131833D02*
X0344516Y0131833D01*
X0344516Y0121833D02*
X0350516Y0121833D01*
X0350516Y0111833D02*
X0344516Y0111833D01*
X0344516Y0101833D02*
X0350516Y0101833D01*
X0350516Y0091833D02*
X0344516Y0091833D01*
X0344516Y0081833D02*
X0350516Y0081833D01*
X0472516Y0064833D02*
X0472516Y0058833D01*
X0482516Y0058833D02*
X0482516Y0064833D01*
X0492516Y0064833D02*
X0492516Y0058833D01*
D18*
X0450823Y0059274D03*
X0450823Y0067148D03*
X0450823Y0075022D03*
X0450823Y0082896D03*
X0450823Y0090770D03*
X0450823Y0098644D03*
X0450823Y0106518D03*
X0450823Y0114392D03*
X0450823Y0122266D03*
X0450823Y0051400D03*
X0364209Y0051400D03*
X0364209Y0059274D03*
X0364209Y0067148D03*
X0364209Y0075022D03*
X0364209Y0082896D03*
X0364209Y0090770D03*
X0364209Y0098644D03*
X0364209Y0106518D03*
X0364209Y0114392D03*
X0364209Y0122266D03*
X0210823Y0122266D03*
X0210823Y0114392D03*
X0210823Y0106518D03*
X0210823Y0098644D03*
X0210823Y0090770D03*
X0210823Y0082896D03*
X0210823Y0075022D03*
X0210823Y0067148D03*
X0210823Y0059274D03*
X0210823Y0051400D03*
X0124209Y0051400D03*
X0124209Y0059274D03*
X0124209Y0067148D03*
X0124209Y0075022D03*
X0124209Y0082896D03*
X0124209Y0090770D03*
X0124209Y0098644D03*
X0124209Y0106518D03*
X0124209Y0114392D03*
X0124209Y0122266D03*
D19*
X0202516Y0216833D03*
X0212516Y0216833D03*
D20*
X0242516Y0054433D02*
X0242516Y0049233D01*
X0252516Y0049233D02*
X0252516Y0054433D01*
X0262516Y0054433D02*
X0262516Y0049233D01*
X0272516Y0049233D02*
X0272516Y0054433D01*
X0272516Y0024433D02*
X0272516Y0019233D01*
X0262516Y0019233D02*
X0262516Y0024433D01*
X0252516Y0024433D02*
X0252516Y0019233D01*
X0242516Y0019233D02*
X0242516Y0024433D01*
D21*
X0266185Y0414592D03*
X0309325Y0414468D03*
X0287636Y0461258D03*
D22*
X0297675Y0471297D03*
X0277597Y0471297D03*
X0277597Y0451219D03*
X0297675Y0451219D03*
X0299286Y0424507D03*
X0299286Y0404429D03*
X0319364Y0404429D03*
X0319364Y0424507D03*
X0276224Y0424631D03*
X0276224Y0404553D03*
X0256146Y0404553D03*
X0256146Y0424631D03*
D23*
X0409484Y0171794D03*
X0379366Y0115101D03*
D24*
X0290784Y0327699D03*
X0285272Y0327699D03*
X0275823Y0440888D03*
X0299445Y0440888D03*
M02*
