%
M48
M72
T01C0.02362
T02C0.02400
T03C0.03150
T04C0.03200
T05C0.04000
T06C0.05000
T07C0.05200
T08C0.07000
%
T01
X285272Y327699
X275823Y440888
X290784Y327699
X299445Y440888
T02
X409484Y171794
X379366Y115101
T03
X364209Y122266
X364209Y114392
X364209Y106518
X364209Y98644
X364209Y90770
X364209Y82896
X364209Y75022
X364209Y67148
X364209Y59274
X364209Y51400
X450823Y51400
X450823Y59274
X450823Y67148
X450823Y75022
X450823Y82896
X450823Y90770
X450823Y98644
X450823Y106518
X450823Y114392
X450823Y122266
X124209Y122266
X124209Y114392
X124209Y106518
X124209Y98644
X124209Y90770
X124209Y82896
X124209Y75022
X124209Y67148
X124209Y59274
X124209Y51400
X210823Y51400
X210823Y59274
X210823Y67148
X210823Y75022
X210823Y82896
X210823Y90770
X210823Y98644
X210823Y106518
X210823Y114392
X210823Y122266
T04
X212516Y256833
X202516Y256833
X202516Y201833
X212516Y201833
X497516Y31833
X497516Y41833
X472516Y43833
X472516Y29833
X207516Y271833
X207516Y311833
X202516Y216833
X212516Y216833
X242516Y21833
X252516Y21833
X252516Y51833
X242516Y51833
X262516Y21833
X272516Y21833
X262516Y51833
X272516Y51833
X177591Y159446
X177591Y199446
X166765Y199523
X166765Y159523
X403863Y159840
X403863Y199840
X415817Y159840
X415817Y199840
T05
X247516Y71833
X247516Y321833
X247516Y311833
X247516Y301833
X247516Y291833
X247516Y281833
X247516Y271833
X247516Y261833
X247516Y251833
X247516Y241833
X247516Y231833
X247516Y221833
X247516Y211833
X247516Y201833
X247516Y191833
X247516Y181833
X247516Y171833
X247516Y161833
X247516Y151833
X247516Y141833
X247516Y131833
X247516Y121833
X247516Y111833
X247516Y101833
X247516Y91833
X247516Y81833
X227516Y71833
X327516Y81833
X327516Y91833
X327516Y101833
X327516Y111833
X327516Y121833
X327516Y131833
X327516Y141833
X327516Y151833
X327516Y161833
X327516Y171833
X327516Y181833
X327516Y191833
X327516Y201833
X327516Y211833
X327516Y221833
X327516Y231833
X327516Y241833
X327516Y251833
X327516Y261833
X327516Y271833
X327516Y281833
X327516Y291833
X327516Y301833
X327516Y311833
X327516Y321833
X327516Y71833
X472516Y61833
X482516Y61833
X492516Y61833
X227516Y81833
X227516Y91833
X227516Y101833
X227516Y111833
X227516Y121833
X227516Y131833
X227516Y141833
X227516Y151833
X227516Y161833
X227516Y171833
X227516Y181833
X227516Y191833
X227516Y201833
X227516Y211833
X227516Y221833
X227516Y231833
X227516Y241833
X227516Y251833
X227516Y261833
X227516Y271833
X227516Y281833
X227516Y291833
X227516Y301833
X227516Y311833
X227516Y321833
X347516Y321833
X347516Y311833
X347516Y301833
X347516Y291833
X347516Y281833
X347516Y271833
X347516Y261833
X347516Y251833
X347516Y241833
X347516Y231833
X347516Y221833
X347516Y211833
X347516Y201833
X347516Y191833
X347516Y181833
X347516Y171833
X347516Y161833
X347516Y151833
X347516Y141833
X347516Y131833
X347516Y121833
X347516Y111833
X347516Y101833
X347516Y91833
X347516Y81833
X347516Y71833
X421136Y90212
X154283Y141492
X293369Y140011
X379938Y81301
X230036Y34970
X367044Y164995
X153382Y210967
X320114Y354668
X304366Y269629
X364603Y219038
T06
X309325Y414468
X266185Y414592
X287636Y461258
T07
X504123Y108118
X513021Y90654
X522010Y73012
X530909Y55549
X373572Y369386
X382516Y351833
X391460Y334280
X193572Y354280
X202516Y371833
X211460Y389386
X187516Y86833
X187516Y126833
X387016Y106833
X387516Y191833
X387516Y151833
X188016Y171833
X187516Y211833
X187516Y251833
X387016Y231833
X158572Y289280
X167516Y306833
X176460Y324386
X433572Y249386
X442516Y231833
X451460Y214280
X464123Y188118
X473021Y170654
X482010Y153012
X490909Y135549
X128572Y229280
X137516Y246833
X146460Y264386
X98572Y169280
X107516Y186833
X116460Y204386
X68572Y109280
X77516Y126833
X86460Y144386
X38572Y49280
X47516Y66833
X56460Y84386
X403572Y309386
X412516Y291833
X421460Y274280
X342216Y36833
X322516Y36833
X302816Y36833
T08
X299286Y424507
X319364Y424507
X319364Y404429
X299286Y404429
X256146Y424631
X276224Y424631
X276224Y404553
X256146Y404553
X277597Y471297
X297675Y471297
X297675Y451219
X277597Y451219
M30
