%
M48
M72
T01C0.03200
T02C0.04000
%
T01
X161000Y156000
X161000Y166000
X116000Y156000
X116000Y166000
X206000Y266000
X206000Y256000
X51000Y181000
X61000Y181000
X71000Y181000
X81000Y181000
X91000Y181000
X101000Y181000
X111000Y181000
X121000Y181000
X131000Y181000
X141000Y181000
X151000Y181000
X161000Y181000
X171000Y181000
X181000Y181000
X181000Y211000
X171000Y211000
X161000Y211000
X151000Y211000
X141000Y211000
X131000Y211000
X121000Y211000
X111000Y211000
X101000Y211000
X91000Y211000
X81000Y211000
X71000Y211000
X61000Y211000
X51000Y211000
X96000Y271000
X106000Y271000
X156000Y271000
X156000Y241000
X116000Y271000
X126000Y271000
X146000Y271000
X136000Y271000
X146000Y241000
X136000Y241000
X126000Y241000
X116000Y241000
X106000Y241000
X96000Y241000
X141000Y161000
X131000Y161000
X81000Y106000
X81000Y126000
X81000Y256000
X81000Y236000
X96000Y151000
X76000Y151000
X41000Y156000
X51000Y156000
T02
X31000Y191000
X31000Y201000
X68800Y117100
X68800Y134900
X43200Y117100
X43200Y134900
X123800Y117100
X123800Y134900
X98200Y117100
X98200Y134900
X131000Y91000
X141000Y91000
X151000Y91000
X161000Y91000
X171000Y91000
X181000Y91000
X191000Y91000
X186000Y296000
X186000Y286000
X186000Y276000
X186000Y266000
X186000Y256000
X186000Y246000
X186000Y236000
X186000Y226000
X51000Y166000
X61000Y166000
X71000Y166000
M30
