G75*
%MOIN*%
%OFA0B0*%
%FSLAX25Y25*%
%IPPOS*%
%LPD*%
%AMOC8*
5,1,8,0,0,1.08239X$1,22.5*
%
%ADD10C,0.00000*%
%ADD11C,0.00600*%
%ADD12C,0.00500*%
%ADD13C,0.00400*%
D10*
X0001000Y0001000D02*
X0001000Y0315961D01*
X0394701Y0315961D01*
X0394701Y0001000D01*
X0001000Y0001000D01*
D11*
X0077500Y0110000D02*
X0077500Y0111000D01*
X0078000Y0111500D01*
X0078000Y0120500D01*
X0077500Y0121000D01*
X0077500Y0122000D01*
X0077502Y0122060D01*
X0077507Y0122121D01*
X0077516Y0122180D01*
X0077529Y0122239D01*
X0077545Y0122298D01*
X0077565Y0122355D01*
X0077588Y0122410D01*
X0077615Y0122465D01*
X0077644Y0122517D01*
X0077677Y0122568D01*
X0077713Y0122617D01*
X0077751Y0122663D01*
X0077793Y0122707D01*
X0077837Y0122749D01*
X0077883Y0122787D01*
X0077932Y0122823D01*
X0077983Y0122856D01*
X0078035Y0122885D01*
X0078090Y0122912D01*
X0078145Y0122935D01*
X0078202Y0122955D01*
X0078261Y0122971D01*
X0078320Y0122984D01*
X0078379Y0122993D01*
X0078440Y0122998D01*
X0078500Y0123000D01*
X0083500Y0123000D02*
X0083560Y0122998D01*
X0083621Y0122993D01*
X0083680Y0122984D01*
X0083739Y0122971D01*
X0083798Y0122955D01*
X0083855Y0122935D01*
X0083910Y0122912D01*
X0083965Y0122885D01*
X0084017Y0122856D01*
X0084068Y0122823D01*
X0084117Y0122787D01*
X0084163Y0122749D01*
X0084207Y0122707D01*
X0084249Y0122663D01*
X0084287Y0122617D01*
X0084323Y0122568D01*
X0084356Y0122517D01*
X0084385Y0122465D01*
X0084412Y0122410D01*
X0084435Y0122355D01*
X0084455Y0122298D01*
X0084471Y0122239D01*
X0084484Y0122180D01*
X0084493Y0122121D01*
X0084498Y0122060D01*
X0084500Y0122000D01*
X0084500Y0121000D01*
X0084000Y0120500D01*
X0084000Y0111500D01*
X0084500Y0111000D01*
X0084500Y0110000D01*
X0084498Y0109940D01*
X0084493Y0109879D01*
X0084484Y0109820D01*
X0084471Y0109761D01*
X0084455Y0109702D01*
X0084435Y0109645D01*
X0084412Y0109590D01*
X0084385Y0109535D01*
X0084356Y0109483D01*
X0084323Y0109432D01*
X0084287Y0109383D01*
X0084249Y0109337D01*
X0084207Y0109293D01*
X0084163Y0109251D01*
X0084117Y0109213D01*
X0084068Y0109177D01*
X0084017Y0109144D01*
X0083965Y0109115D01*
X0083910Y0109088D01*
X0083855Y0109065D01*
X0083798Y0109045D01*
X0083739Y0109029D01*
X0083680Y0109016D01*
X0083621Y0109007D01*
X0083560Y0109002D01*
X0083500Y0109000D01*
X0078500Y0109000D02*
X0078440Y0109002D01*
X0078379Y0109007D01*
X0078320Y0109016D01*
X0078261Y0109029D01*
X0078202Y0109045D01*
X0078145Y0109065D01*
X0078090Y0109088D01*
X0078035Y0109115D01*
X0077983Y0109144D01*
X0077932Y0109177D01*
X0077883Y0109213D01*
X0077837Y0109251D01*
X0077793Y0109293D01*
X0077751Y0109337D01*
X0077713Y0109383D01*
X0077677Y0109432D01*
X0077644Y0109483D01*
X0077615Y0109535D01*
X0077588Y0109590D01*
X0077565Y0109645D01*
X0077545Y0109702D01*
X0077529Y0109761D01*
X0077516Y0109820D01*
X0077507Y0109879D01*
X0077502Y0109940D01*
X0077500Y0110000D01*
X0033500Y0186000D02*
X0028500Y0186000D01*
X0026000Y0188500D01*
X0026000Y0193500D01*
X0028500Y0196000D01*
X0026000Y0198500D01*
X0026000Y0203500D01*
X0028500Y0206000D01*
X0033500Y0206000D01*
X0036000Y0203500D01*
X0036000Y0198500D01*
X0033500Y0196000D01*
X0028500Y0196000D01*
X0033500Y0196000D02*
X0036000Y0193500D01*
X0036000Y0188500D01*
X0033500Y0186000D01*
X0091000Y0244500D02*
X0091000Y0252000D01*
X0091126Y0252002D01*
X0091251Y0252008D01*
X0091376Y0252018D01*
X0091501Y0252032D01*
X0091626Y0252049D01*
X0091750Y0252071D01*
X0091873Y0252096D01*
X0091995Y0252126D01*
X0092116Y0252159D01*
X0092236Y0252196D01*
X0092355Y0252236D01*
X0092472Y0252281D01*
X0092589Y0252329D01*
X0092703Y0252381D01*
X0092816Y0252436D01*
X0092927Y0252495D01*
X0093036Y0252557D01*
X0093143Y0252623D01*
X0093248Y0252692D01*
X0093351Y0252764D01*
X0093452Y0252839D01*
X0093550Y0252918D01*
X0093645Y0253000D01*
X0093738Y0253084D01*
X0093828Y0253172D01*
X0093916Y0253262D01*
X0094000Y0253355D01*
X0094082Y0253450D01*
X0094161Y0253548D01*
X0094236Y0253649D01*
X0094308Y0253752D01*
X0094377Y0253857D01*
X0094443Y0253964D01*
X0094505Y0254073D01*
X0094564Y0254184D01*
X0094619Y0254297D01*
X0094671Y0254411D01*
X0094719Y0254528D01*
X0094764Y0254645D01*
X0094804Y0254764D01*
X0094841Y0254884D01*
X0094874Y0255005D01*
X0094904Y0255127D01*
X0094929Y0255250D01*
X0094951Y0255374D01*
X0094968Y0255499D01*
X0094982Y0255624D01*
X0094992Y0255749D01*
X0094998Y0255874D01*
X0095000Y0256000D01*
X0094998Y0256126D01*
X0094992Y0256251D01*
X0094982Y0256376D01*
X0094968Y0256501D01*
X0094951Y0256626D01*
X0094929Y0256750D01*
X0094904Y0256873D01*
X0094874Y0256995D01*
X0094841Y0257116D01*
X0094804Y0257236D01*
X0094764Y0257355D01*
X0094719Y0257472D01*
X0094671Y0257589D01*
X0094619Y0257703D01*
X0094564Y0257816D01*
X0094505Y0257927D01*
X0094443Y0258036D01*
X0094377Y0258143D01*
X0094308Y0258248D01*
X0094236Y0258351D01*
X0094161Y0258452D01*
X0094082Y0258550D01*
X0094000Y0258645D01*
X0093916Y0258738D01*
X0093828Y0258828D01*
X0093738Y0258916D01*
X0093645Y0259000D01*
X0093550Y0259082D01*
X0093452Y0259161D01*
X0093351Y0259236D01*
X0093248Y0259308D01*
X0093143Y0259377D01*
X0093036Y0259443D01*
X0092927Y0259505D01*
X0092816Y0259564D01*
X0092703Y0259619D01*
X0092589Y0259671D01*
X0092472Y0259719D01*
X0092355Y0259764D01*
X0092236Y0259804D01*
X0092116Y0259841D01*
X0091995Y0259874D01*
X0091873Y0259904D01*
X0091750Y0259929D01*
X0091626Y0259951D01*
X0091501Y0259968D01*
X0091376Y0259982D01*
X0091251Y0259992D01*
X0091126Y0259998D01*
X0091000Y0260000D01*
X0091000Y0267500D01*
X0161000Y0267500D01*
X0161000Y0244500D01*
X0091000Y0244500D01*
D12*
X0089254Y0255973D02*
X0089254Y0257474D01*
X0089254Y0256723D02*
X0084750Y0256723D01*
X0084750Y0255973D02*
X0084750Y0257474D01*
X0085501Y0259042D02*
X0084750Y0259793D01*
X0084750Y0261294D01*
X0085501Y0262045D01*
X0084750Y0263646D02*
X0087753Y0266649D01*
X0088503Y0266649D01*
X0089254Y0265898D01*
X0089254Y0264397D01*
X0088503Y0263646D01*
X0088503Y0262045D02*
X0089254Y0261294D01*
X0089254Y0259793D01*
X0088503Y0259042D01*
X0085501Y0259042D01*
X0084750Y0263646D02*
X0084750Y0266649D01*
X0042203Y0198160D02*
X0042954Y0197410D01*
X0042954Y0195908D01*
X0042203Y0195158D01*
X0042203Y0193556D02*
X0040702Y0193556D01*
X0039951Y0192806D01*
X0039951Y0190554D01*
X0038450Y0190554D02*
X0042954Y0190554D01*
X0042954Y0192806D01*
X0042203Y0193556D01*
X0038450Y0195158D02*
X0038450Y0198160D01*
X0038450Y0195158D02*
X0041453Y0198160D01*
X0042203Y0198160D01*
X0042954Y0188953D02*
X0042954Y0187451D01*
X0042954Y0188202D02*
X0039201Y0188202D01*
X0038450Y0187451D01*
X0038450Y0186701D01*
X0039201Y0185950D01*
D13*
X0085800Y0114226D02*
X0085800Y0111891D01*
X0085800Y0113059D02*
X0089303Y0113059D01*
X0088135Y0111891D01*
X0087551Y0110635D02*
X0086968Y0110051D01*
X0086968Y0108300D01*
X0086968Y0109468D02*
X0085800Y0110635D01*
X0087551Y0110635D02*
X0088719Y0110635D01*
X0089303Y0110051D01*
X0089303Y0108300D01*
X0085800Y0108300D01*
M02*
