%
M48
M72
T01C0.03150
T02C0.03200
T03C0.03600
T04C0.04331
T05C0.07000
%
T01
X49167Y187600
X49167Y177600
X49167Y167600
X49167Y157600
X49167Y147600
X49167Y137600
X49167Y127600
X49167Y117600
X49167Y107600
X49167Y97600
X49167Y87600
X49167Y77600
X49167Y67600
X49167Y57600
X49167Y47600
X109167Y187600
X109167Y177600
X109167Y167600
X109167Y157600
X109167Y147600
X109167Y137600
X109167Y127600
X109167Y117600
X109167Y107600
X109167Y97600
X109167Y87600
X109167Y77600
X109167Y67600
X109167Y57600
X109167Y47600
T02
X209167Y157600
X199167Y157600
X149167Y157600
X139167Y157600
X189167Y157600
X179167Y157600
X159167Y157600
X169167Y157600
X139167Y127600
X149167Y127600
X159167Y127600
X169167Y127600
X179167Y127600
X189167Y127600
X199167Y127600
X209167Y127600
T03
X64167Y237600
X74167Y237600
X84167Y237600
X94167Y237600
X14167Y127600
X14167Y137600
X14167Y147600
X14167Y157600
X169167Y92600
X179167Y92600
X169167Y197600
X179167Y197600
X129167Y217600
X119167Y217600
T04
X149167Y92600
X149167Y52600
X199167Y47600
X199167Y87600
X129167Y197600
X169167Y177600
X119167Y197600
X139167Y177600
T05
X49167Y197600
X49167Y37600
X109167Y37600
X109167Y197600
M30
