G75*
%MOIN*%
%OFA0B0*%
%FSLAX25Y25*%
%IPPOS*%
%LPD*%
%AMOC8*
5,1,8,0,0,1.08239X$1,22.5*
%
%ADD10C,0.00500*%
%ADD11C,0.00400*%
%ADD12C,0.00000*%
%ADD13C,0.00600*%
D10*
X0043167Y0031600D02*
X0043167Y0203600D01*
X0115167Y0203600D01*
X0115167Y0031600D01*
X0043167Y0031600D01*
X0006666Y0122850D02*
X0002913Y0122850D01*
X0002913Y0125853D02*
X0006666Y0125853D01*
X0007417Y0125102D01*
X0007417Y0123601D01*
X0006666Y0122850D01*
X0007417Y0127454D02*
X0002913Y0127454D01*
X0007417Y0127454D02*
X0007417Y0130456D01*
X0007417Y0133559D02*
X0002913Y0133559D01*
X0002913Y0132058D02*
X0002913Y0135060D01*
X0002913Y0136662D02*
X0002913Y0138914D01*
X0003663Y0139664D01*
X0005165Y0139664D01*
X0005915Y0138914D01*
X0005915Y0136662D01*
X0005915Y0138163D02*
X0007417Y0139664D01*
X0007417Y0141266D02*
X0004414Y0141266D01*
X0002913Y0142767D01*
X0004414Y0144268D01*
X0007417Y0144268D01*
X0005165Y0144268D02*
X0005165Y0141266D01*
X0007417Y0136662D02*
X0002913Y0136662D01*
X0021014Y0138417D02*
X0021581Y0137850D01*
X0021014Y0138417D02*
X0021014Y0139551D01*
X0021581Y0140119D01*
X0022148Y0140119D01*
X0024417Y0137850D01*
X0024417Y0140119D01*
X0023850Y0147850D02*
X0024417Y0148417D01*
X0024417Y0149551D01*
X0023850Y0150119D01*
X0023282Y0150119D01*
X0022715Y0149551D01*
X0022715Y0148984D01*
X0022715Y0149551D02*
X0022148Y0150119D01*
X0021581Y0150119D01*
X0021014Y0149551D01*
X0021014Y0148417D01*
X0021581Y0147850D01*
X0022715Y0157850D02*
X0022715Y0160119D01*
X0021014Y0159551D02*
X0022715Y0157850D01*
X0021014Y0159551D02*
X0024417Y0159551D01*
X0024417Y0130119D02*
X0024417Y0127850D01*
X0024417Y0128984D02*
X0021014Y0128984D01*
X0022148Y0127850D01*
X0117536Y0206350D02*
X0117536Y0210854D01*
X0119787Y0210854D01*
X0120538Y0210103D01*
X0120538Y0208602D01*
X0119787Y0207851D01*
X0117536Y0207851D01*
X0122139Y0206350D02*
X0123641Y0206350D01*
X0122890Y0206350D02*
X0122890Y0210854D01*
X0122139Y0210854D02*
X0123641Y0210854D01*
X0125209Y0210854D02*
X0125209Y0206350D01*
X0128211Y0206350D01*
X0129813Y0206350D02*
X0129813Y0209353D01*
X0131314Y0210854D01*
X0132815Y0209353D01*
X0132815Y0206350D01*
X0132815Y0208602D02*
X0129813Y0208602D01*
X0096118Y0227350D02*
X0096118Y0230753D01*
X0094417Y0229051D01*
X0096685Y0229051D01*
X0086685Y0228484D02*
X0086685Y0227917D01*
X0086118Y0227350D01*
X0084984Y0227350D01*
X0084417Y0227917D01*
X0085551Y0229051D02*
X0086118Y0229051D01*
X0086685Y0228484D01*
X0086118Y0229051D02*
X0086685Y0229619D01*
X0086685Y0230186D01*
X0086118Y0230753D01*
X0084984Y0230753D01*
X0084417Y0230186D01*
X0076685Y0230186D02*
X0076118Y0230753D01*
X0074984Y0230753D01*
X0074417Y0230186D01*
X0076685Y0230186D02*
X0076685Y0229619D01*
X0074417Y0227350D01*
X0076685Y0227350D01*
X0066685Y0227350D02*
X0064417Y0227350D01*
X0065551Y0227350D02*
X0065551Y0230753D01*
X0064417Y0229619D01*
X0064021Y0244350D02*
X0067023Y0244350D01*
X0068625Y0245101D02*
X0068625Y0248854D01*
X0071627Y0248854D02*
X0071627Y0245101D01*
X0070876Y0244350D01*
X0069375Y0244350D01*
X0068625Y0245101D01*
X0073228Y0244350D02*
X0076231Y0244350D01*
X0074730Y0246602D02*
X0073228Y0246602D01*
X0073228Y0248854D02*
X0073228Y0244350D01*
X0073228Y0248854D02*
X0076231Y0248854D01*
X0064021Y0248854D02*
X0064021Y0244350D01*
X0062419Y0245101D02*
X0061669Y0244350D01*
X0059417Y0244350D01*
X0059417Y0248854D01*
X0061669Y0248854D01*
X0062419Y0248103D01*
X0062419Y0247353D01*
X0061669Y0246602D01*
X0059417Y0246602D01*
X0061669Y0246602D02*
X0062419Y0245851D01*
X0062419Y0245101D01*
X0164417Y0208854D02*
X0164417Y0204350D01*
X0167419Y0204350D02*
X0167419Y0208854D01*
X0165918Y0207353D01*
X0164417Y0208854D01*
X0169021Y0208103D02*
X0169021Y0205101D01*
X0169771Y0204350D01*
X0171273Y0204350D01*
X0172023Y0205101D01*
X0172023Y0208103D01*
X0171273Y0208854D01*
X0169771Y0208854D01*
X0169021Y0208103D01*
X0173625Y0208854D02*
X0176627Y0208854D01*
X0175126Y0208854D02*
X0175126Y0204350D01*
X0178228Y0205101D02*
X0178228Y0208103D01*
X0178979Y0208854D01*
X0180480Y0208854D01*
X0181231Y0208103D01*
X0181231Y0205101D01*
X0180480Y0204350D01*
X0178979Y0204350D01*
X0178228Y0205101D01*
X0182832Y0205851D02*
X0185084Y0205851D01*
X0185835Y0206602D01*
X0185835Y0208103D01*
X0185084Y0208854D01*
X0182832Y0208854D01*
X0182832Y0204350D01*
X0184334Y0205851D02*
X0185835Y0204350D01*
X0187436Y0204350D02*
X0190439Y0204350D01*
X0188938Y0204350D02*
X0188938Y0208854D01*
X0187436Y0207353D01*
X0215913Y0151247D02*
X0220417Y0151247D01*
X0220417Y0149746D02*
X0220417Y0152749D01*
X0217414Y0149746D02*
X0215913Y0151247D01*
X0216663Y0148145D02*
X0215913Y0147394D01*
X0215913Y0145893D01*
X0216663Y0145142D01*
X0219666Y0145142D01*
X0220417Y0145893D01*
X0220417Y0147394D01*
X0219666Y0148145D01*
X0220417Y0143574D02*
X0220417Y0142073D01*
X0220417Y0142823D02*
X0215913Y0142823D01*
X0215913Y0142073D02*
X0215913Y0143574D01*
X0189688Y0103854D02*
X0188187Y0103854D01*
X0187436Y0103103D01*
X0185835Y0103103D02*
X0185084Y0103854D01*
X0182832Y0103854D01*
X0182832Y0099350D01*
X0182832Y0100851D02*
X0185084Y0100851D01*
X0185835Y0101602D01*
X0185835Y0103103D01*
X0184334Y0100851D02*
X0185835Y0099350D01*
X0187436Y0099350D02*
X0190439Y0102353D01*
X0190439Y0103103D01*
X0189688Y0103854D01*
X0190439Y0099350D02*
X0187436Y0099350D01*
X0181231Y0100101D02*
X0181231Y0103103D01*
X0180480Y0103854D01*
X0178979Y0103854D01*
X0178228Y0103103D01*
X0178228Y0100101D01*
X0178979Y0099350D01*
X0180480Y0099350D01*
X0181231Y0100101D01*
X0176627Y0103854D02*
X0173625Y0103854D01*
X0175126Y0103854D02*
X0175126Y0099350D01*
X0172023Y0100101D02*
X0172023Y0103103D01*
X0171273Y0103854D01*
X0169771Y0103854D01*
X0169021Y0103103D01*
X0169021Y0100101D01*
X0169771Y0099350D01*
X0171273Y0099350D01*
X0172023Y0100101D01*
X0167419Y0099350D02*
X0167419Y0103854D01*
X0165918Y0102353D01*
X0164417Y0103854D01*
X0164417Y0099350D01*
D11*
X0064317Y0024102D02*
X0064317Y0023335D01*
X0061248Y0023335D01*
X0061248Y0024102D02*
X0062015Y0024869D01*
X0063550Y0024869D01*
X0064317Y0024102D01*
X0063550Y0021800D02*
X0062015Y0021800D01*
X0061248Y0022567D01*
X0061248Y0024102D01*
X0059713Y0024869D02*
X0059713Y0021800D01*
X0057411Y0021800D01*
X0056644Y0022567D01*
X0056644Y0024869D01*
X0054342Y0026404D02*
X0054342Y0021800D01*
X0053575Y0021800D02*
X0055109Y0021800D01*
X0052040Y0021800D02*
X0052040Y0024102D01*
X0051273Y0024869D01*
X0049738Y0024869D01*
X0049738Y0023335D02*
X0052040Y0023335D01*
X0052040Y0021800D02*
X0049738Y0021800D01*
X0048971Y0022567D01*
X0049738Y0023335D01*
X0047436Y0023335D02*
X0047436Y0026404D01*
X0044367Y0026404D02*
X0044367Y0023335D01*
X0045901Y0021800D01*
X0047436Y0023335D01*
X0053575Y0026404D02*
X0054342Y0026404D01*
X0054040Y0206800D02*
X0051738Y0206800D01*
X0050971Y0207567D01*
X0051738Y0208335D01*
X0054040Y0208335D01*
X0054040Y0209102D02*
X0054040Y0206800D01*
X0055575Y0206800D02*
X0055575Y0209869D01*
X0056342Y0209869D01*
X0057109Y0209102D01*
X0057876Y0209869D01*
X0058644Y0209102D01*
X0058644Y0206800D01*
X0057109Y0206800D02*
X0057109Y0209102D01*
X0054040Y0209102D02*
X0053273Y0209869D01*
X0051738Y0209869D01*
X0049436Y0211404D02*
X0049436Y0206800D01*
X0046367Y0211404D01*
X0046367Y0206800D01*
X0060178Y0207567D02*
X0060178Y0209102D01*
X0060946Y0209869D01*
X0062480Y0209869D01*
X0063248Y0209102D01*
X0063248Y0208335D01*
X0060178Y0208335D01*
X0060178Y0207567D02*
X0060946Y0206800D01*
X0062480Y0206800D01*
D12*
X0045667Y0197600D02*
X0045669Y0197718D01*
X0045675Y0197836D01*
X0045685Y0197954D01*
X0045699Y0198071D01*
X0045717Y0198188D01*
X0045739Y0198305D01*
X0045764Y0198420D01*
X0045794Y0198534D01*
X0045828Y0198648D01*
X0045865Y0198760D01*
X0045906Y0198871D01*
X0045951Y0198980D01*
X0045999Y0199088D01*
X0046051Y0199194D01*
X0046107Y0199299D01*
X0046166Y0199401D01*
X0046228Y0199501D01*
X0046294Y0199599D01*
X0046363Y0199695D01*
X0046436Y0199789D01*
X0046511Y0199880D01*
X0046590Y0199968D01*
X0046671Y0200054D01*
X0046756Y0200137D01*
X0046843Y0200217D01*
X0046932Y0200294D01*
X0047025Y0200368D01*
X0047119Y0200438D01*
X0047216Y0200506D01*
X0047316Y0200570D01*
X0047417Y0200631D01*
X0047520Y0200688D01*
X0047626Y0200742D01*
X0047733Y0200793D01*
X0047841Y0200839D01*
X0047951Y0200882D01*
X0048063Y0200921D01*
X0048176Y0200957D01*
X0048290Y0200988D01*
X0048405Y0201016D01*
X0048520Y0201040D01*
X0048637Y0201060D01*
X0048754Y0201076D01*
X0048872Y0201088D01*
X0048990Y0201096D01*
X0049108Y0201100D01*
X0049226Y0201100D01*
X0049344Y0201096D01*
X0049462Y0201088D01*
X0049580Y0201076D01*
X0049697Y0201060D01*
X0049814Y0201040D01*
X0049929Y0201016D01*
X0050044Y0200988D01*
X0050158Y0200957D01*
X0050271Y0200921D01*
X0050383Y0200882D01*
X0050493Y0200839D01*
X0050601Y0200793D01*
X0050708Y0200742D01*
X0050814Y0200688D01*
X0050917Y0200631D01*
X0051018Y0200570D01*
X0051118Y0200506D01*
X0051215Y0200438D01*
X0051309Y0200368D01*
X0051402Y0200294D01*
X0051491Y0200217D01*
X0051578Y0200137D01*
X0051663Y0200054D01*
X0051744Y0199968D01*
X0051823Y0199880D01*
X0051898Y0199789D01*
X0051971Y0199695D01*
X0052040Y0199599D01*
X0052106Y0199501D01*
X0052168Y0199401D01*
X0052227Y0199299D01*
X0052283Y0199194D01*
X0052335Y0199088D01*
X0052383Y0198980D01*
X0052428Y0198871D01*
X0052469Y0198760D01*
X0052506Y0198648D01*
X0052540Y0198534D01*
X0052570Y0198420D01*
X0052595Y0198305D01*
X0052617Y0198188D01*
X0052635Y0198071D01*
X0052649Y0197954D01*
X0052659Y0197836D01*
X0052665Y0197718D01*
X0052667Y0197600D01*
X0052665Y0197482D01*
X0052659Y0197364D01*
X0052649Y0197246D01*
X0052635Y0197129D01*
X0052617Y0197012D01*
X0052595Y0196895D01*
X0052570Y0196780D01*
X0052540Y0196666D01*
X0052506Y0196552D01*
X0052469Y0196440D01*
X0052428Y0196329D01*
X0052383Y0196220D01*
X0052335Y0196112D01*
X0052283Y0196006D01*
X0052227Y0195901D01*
X0052168Y0195799D01*
X0052106Y0195699D01*
X0052040Y0195601D01*
X0051971Y0195505D01*
X0051898Y0195411D01*
X0051823Y0195320D01*
X0051744Y0195232D01*
X0051663Y0195146D01*
X0051578Y0195063D01*
X0051491Y0194983D01*
X0051402Y0194906D01*
X0051309Y0194832D01*
X0051215Y0194762D01*
X0051118Y0194694D01*
X0051018Y0194630D01*
X0050917Y0194569D01*
X0050814Y0194512D01*
X0050708Y0194458D01*
X0050601Y0194407D01*
X0050493Y0194361D01*
X0050383Y0194318D01*
X0050271Y0194279D01*
X0050158Y0194243D01*
X0050044Y0194212D01*
X0049929Y0194184D01*
X0049814Y0194160D01*
X0049697Y0194140D01*
X0049580Y0194124D01*
X0049462Y0194112D01*
X0049344Y0194104D01*
X0049226Y0194100D01*
X0049108Y0194100D01*
X0048990Y0194104D01*
X0048872Y0194112D01*
X0048754Y0194124D01*
X0048637Y0194140D01*
X0048520Y0194160D01*
X0048405Y0194184D01*
X0048290Y0194212D01*
X0048176Y0194243D01*
X0048063Y0194279D01*
X0047951Y0194318D01*
X0047841Y0194361D01*
X0047733Y0194407D01*
X0047626Y0194458D01*
X0047520Y0194512D01*
X0047417Y0194569D01*
X0047316Y0194630D01*
X0047216Y0194694D01*
X0047119Y0194762D01*
X0047025Y0194832D01*
X0046932Y0194906D01*
X0046843Y0194983D01*
X0046756Y0195063D01*
X0046671Y0195146D01*
X0046590Y0195232D01*
X0046511Y0195320D01*
X0046436Y0195411D01*
X0046363Y0195505D01*
X0046294Y0195601D01*
X0046228Y0195699D01*
X0046166Y0195799D01*
X0046107Y0195901D01*
X0046051Y0196006D01*
X0045999Y0196112D01*
X0045951Y0196220D01*
X0045906Y0196329D01*
X0045865Y0196440D01*
X0045828Y0196552D01*
X0045794Y0196666D01*
X0045764Y0196780D01*
X0045739Y0196895D01*
X0045717Y0197012D01*
X0045699Y0197129D01*
X0045685Y0197246D01*
X0045675Y0197364D01*
X0045669Y0197482D01*
X0045667Y0197600D01*
X0105667Y0197600D02*
X0105669Y0197718D01*
X0105675Y0197836D01*
X0105685Y0197954D01*
X0105699Y0198071D01*
X0105717Y0198188D01*
X0105739Y0198305D01*
X0105764Y0198420D01*
X0105794Y0198534D01*
X0105828Y0198648D01*
X0105865Y0198760D01*
X0105906Y0198871D01*
X0105951Y0198980D01*
X0105999Y0199088D01*
X0106051Y0199194D01*
X0106107Y0199299D01*
X0106166Y0199401D01*
X0106228Y0199501D01*
X0106294Y0199599D01*
X0106363Y0199695D01*
X0106436Y0199789D01*
X0106511Y0199880D01*
X0106590Y0199968D01*
X0106671Y0200054D01*
X0106756Y0200137D01*
X0106843Y0200217D01*
X0106932Y0200294D01*
X0107025Y0200368D01*
X0107119Y0200438D01*
X0107216Y0200506D01*
X0107316Y0200570D01*
X0107417Y0200631D01*
X0107520Y0200688D01*
X0107626Y0200742D01*
X0107733Y0200793D01*
X0107841Y0200839D01*
X0107951Y0200882D01*
X0108063Y0200921D01*
X0108176Y0200957D01*
X0108290Y0200988D01*
X0108405Y0201016D01*
X0108520Y0201040D01*
X0108637Y0201060D01*
X0108754Y0201076D01*
X0108872Y0201088D01*
X0108990Y0201096D01*
X0109108Y0201100D01*
X0109226Y0201100D01*
X0109344Y0201096D01*
X0109462Y0201088D01*
X0109580Y0201076D01*
X0109697Y0201060D01*
X0109814Y0201040D01*
X0109929Y0201016D01*
X0110044Y0200988D01*
X0110158Y0200957D01*
X0110271Y0200921D01*
X0110383Y0200882D01*
X0110493Y0200839D01*
X0110601Y0200793D01*
X0110708Y0200742D01*
X0110814Y0200688D01*
X0110917Y0200631D01*
X0111018Y0200570D01*
X0111118Y0200506D01*
X0111215Y0200438D01*
X0111309Y0200368D01*
X0111402Y0200294D01*
X0111491Y0200217D01*
X0111578Y0200137D01*
X0111663Y0200054D01*
X0111744Y0199968D01*
X0111823Y0199880D01*
X0111898Y0199789D01*
X0111971Y0199695D01*
X0112040Y0199599D01*
X0112106Y0199501D01*
X0112168Y0199401D01*
X0112227Y0199299D01*
X0112283Y0199194D01*
X0112335Y0199088D01*
X0112383Y0198980D01*
X0112428Y0198871D01*
X0112469Y0198760D01*
X0112506Y0198648D01*
X0112540Y0198534D01*
X0112570Y0198420D01*
X0112595Y0198305D01*
X0112617Y0198188D01*
X0112635Y0198071D01*
X0112649Y0197954D01*
X0112659Y0197836D01*
X0112665Y0197718D01*
X0112667Y0197600D01*
X0112665Y0197482D01*
X0112659Y0197364D01*
X0112649Y0197246D01*
X0112635Y0197129D01*
X0112617Y0197012D01*
X0112595Y0196895D01*
X0112570Y0196780D01*
X0112540Y0196666D01*
X0112506Y0196552D01*
X0112469Y0196440D01*
X0112428Y0196329D01*
X0112383Y0196220D01*
X0112335Y0196112D01*
X0112283Y0196006D01*
X0112227Y0195901D01*
X0112168Y0195799D01*
X0112106Y0195699D01*
X0112040Y0195601D01*
X0111971Y0195505D01*
X0111898Y0195411D01*
X0111823Y0195320D01*
X0111744Y0195232D01*
X0111663Y0195146D01*
X0111578Y0195063D01*
X0111491Y0194983D01*
X0111402Y0194906D01*
X0111309Y0194832D01*
X0111215Y0194762D01*
X0111118Y0194694D01*
X0111018Y0194630D01*
X0110917Y0194569D01*
X0110814Y0194512D01*
X0110708Y0194458D01*
X0110601Y0194407D01*
X0110493Y0194361D01*
X0110383Y0194318D01*
X0110271Y0194279D01*
X0110158Y0194243D01*
X0110044Y0194212D01*
X0109929Y0194184D01*
X0109814Y0194160D01*
X0109697Y0194140D01*
X0109580Y0194124D01*
X0109462Y0194112D01*
X0109344Y0194104D01*
X0109226Y0194100D01*
X0109108Y0194100D01*
X0108990Y0194104D01*
X0108872Y0194112D01*
X0108754Y0194124D01*
X0108637Y0194140D01*
X0108520Y0194160D01*
X0108405Y0194184D01*
X0108290Y0194212D01*
X0108176Y0194243D01*
X0108063Y0194279D01*
X0107951Y0194318D01*
X0107841Y0194361D01*
X0107733Y0194407D01*
X0107626Y0194458D01*
X0107520Y0194512D01*
X0107417Y0194569D01*
X0107316Y0194630D01*
X0107216Y0194694D01*
X0107119Y0194762D01*
X0107025Y0194832D01*
X0106932Y0194906D01*
X0106843Y0194983D01*
X0106756Y0195063D01*
X0106671Y0195146D01*
X0106590Y0195232D01*
X0106511Y0195320D01*
X0106436Y0195411D01*
X0106363Y0195505D01*
X0106294Y0195601D01*
X0106228Y0195699D01*
X0106166Y0195799D01*
X0106107Y0195901D01*
X0106051Y0196006D01*
X0105999Y0196112D01*
X0105951Y0196220D01*
X0105906Y0196329D01*
X0105865Y0196440D01*
X0105828Y0196552D01*
X0105794Y0196666D01*
X0105764Y0196780D01*
X0105739Y0196895D01*
X0105717Y0197012D01*
X0105699Y0197129D01*
X0105685Y0197246D01*
X0105675Y0197364D01*
X0105669Y0197482D01*
X0105667Y0197600D01*
X0105667Y0037600D02*
X0105669Y0037718D01*
X0105675Y0037836D01*
X0105685Y0037954D01*
X0105699Y0038071D01*
X0105717Y0038188D01*
X0105739Y0038305D01*
X0105764Y0038420D01*
X0105794Y0038534D01*
X0105828Y0038648D01*
X0105865Y0038760D01*
X0105906Y0038871D01*
X0105951Y0038980D01*
X0105999Y0039088D01*
X0106051Y0039194D01*
X0106107Y0039299D01*
X0106166Y0039401D01*
X0106228Y0039501D01*
X0106294Y0039599D01*
X0106363Y0039695D01*
X0106436Y0039789D01*
X0106511Y0039880D01*
X0106590Y0039968D01*
X0106671Y0040054D01*
X0106756Y0040137D01*
X0106843Y0040217D01*
X0106932Y0040294D01*
X0107025Y0040368D01*
X0107119Y0040438D01*
X0107216Y0040506D01*
X0107316Y0040570D01*
X0107417Y0040631D01*
X0107520Y0040688D01*
X0107626Y0040742D01*
X0107733Y0040793D01*
X0107841Y0040839D01*
X0107951Y0040882D01*
X0108063Y0040921D01*
X0108176Y0040957D01*
X0108290Y0040988D01*
X0108405Y0041016D01*
X0108520Y0041040D01*
X0108637Y0041060D01*
X0108754Y0041076D01*
X0108872Y0041088D01*
X0108990Y0041096D01*
X0109108Y0041100D01*
X0109226Y0041100D01*
X0109344Y0041096D01*
X0109462Y0041088D01*
X0109580Y0041076D01*
X0109697Y0041060D01*
X0109814Y0041040D01*
X0109929Y0041016D01*
X0110044Y0040988D01*
X0110158Y0040957D01*
X0110271Y0040921D01*
X0110383Y0040882D01*
X0110493Y0040839D01*
X0110601Y0040793D01*
X0110708Y0040742D01*
X0110814Y0040688D01*
X0110917Y0040631D01*
X0111018Y0040570D01*
X0111118Y0040506D01*
X0111215Y0040438D01*
X0111309Y0040368D01*
X0111402Y0040294D01*
X0111491Y0040217D01*
X0111578Y0040137D01*
X0111663Y0040054D01*
X0111744Y0039968D01*
X0111823Y0039880D01*
X0111898Y0039789D01*
X0111971Y0039695D01*
X0112040Y0039599D01*
X0112106Y0039501D01*
X0112168Y0039401D01*
X0112227Y0039299D01*
X0112283Y0039194D01*
X0112335Y0039088D01*
X0112383Y0038980D01*
X0112428Y0038871D01*
X0112469Y0038760D01*
X0112506Y0038648D01*
X0112540Y0038534D01*
X0112570Y0038420D01*
X0112595Y0038305D01*
X0112617Y0038188D01*
X0112635Y0038071D01*
X0112649Y0037954D01*
X0112659Y0037836D01*
X0112665Y0037718D01*
X0112667Y0037600D01*
X0112665Y0037482D01*
X0112659Y0037364D01*
X0112649Y0037246D01*
X0112635Y0037129D01*
X0112617Y0037012D01*
X0112595Y0036895D01*
X0112570Y0036780D01*
X0112540Y0036666D01*
X0112506Y0036552D01*
X0112469Y0036440D01*
X0112428Y0036329D01*
X0112383Y0036220D01*
X0112335Y0036112D01*
X0112283Y0036006D01*
X0112227Y0035901D01*
X0112168Y0035799D01*
X0112106Y0035699D01*
X0112040Y0035601D01*
X0111971Y0035505D01*
X0111898Y0035411D01*
X0111823Y0035320D01*
X0111744Y0035232D01*
X0111663Y0035146D01*
X0111578Y0035063D01*
X0111491Y0034983D01*
X0111402Y0034906D01*
X0111309Y0034832D01*
X0111215Y0034762D01*
X0111118Y0034694D01*
X0111018Y0034630D01*
X0110917Y0034569D01*
X0110814Y0034512D01*
X0110708Y0034458D01*
X0110601Y0034407D01*
X0110493Y0034361D01*
X0110383Y0034318D01*
X0110271Y0034279D01*
X0110158Y0034243D01*
X0110044Y0034212D01*
X0109929Y0034184D01*
X0109814Y0034160D01*
X0109697Y0034140D01*
X0109580Y0034124D01*
X0109462Y0034112D01*
X0109344Y0034104D01*
X0109226Y0034100D01*
X0109108Y0034100D01*
X0108990Y0034104D01*
X0108872Y0034112D01*
X0108754Y0034124D01*
X0108637Y0034140D01*
X0108520Y0034160D01*
X0108405Y0034184D01*
X0108290Y0034212D01*
X0108176Y0034243D01*
X0108063Y0034279D01*
X0107951Y0034318D01*
X0107841Y0034361D01*
X0107733Y0034407D01*
X0107626Y0034458D01*
X0107520Y0034512D01*
X0107417Y0034569D01*
X0107316Y0034630D01*
X0107216Y0034694D01*
X0107119Y0034762D01*
X0107025Y0034832D01*
X0106932Y0034906D01*
X0106843Y0034983D01*
X0106756Y0035063D01*
X0106671Y0035146D01*
X0106590Y0035232D01*
X0106511Y0035320D01*
X0106436Y0035411D01*
X0106363Y0035505D01*
X0106294Y0035601D01*
X0106228Y0035699D01*
X0106166Y0035799D01*
X0106107Y0035901D01*
X0106051Y0036006D01*
X0105999Y0036112D01*
X0105951Y0036220D01*
X0105906Y0036329D01*
X0105865Y0036440D01*
X0105828Y0036552D01*
X0105794Y0036666D01*
X0105764Y0036780D01*
X0105739Y0036895D01*
X0105717Y0037012D01*
X0105699Y0037129D01*
X0105685Y0037246D01*
X0105675Y0037364D01*
X0105669Y0037482D01*
X0105667Y0037600D01*
X0045667Y0037600D02*
X0045669Y0037718D01*
X0045675Y0037836D01*
X0045685Y0037954D01*
X0045699Y0038071D01*
X0045717Y0038188D01*
X0045739Y0038305D01*
X0045764Y0038420D01*
X0045794Y0038534D01*
X0045828Y0038648D01*
X0045865Y0038760D01*
X0045906Y0038871D01*
X0045951Y0038980D01*
X0045999Y0039088D01*
X0046051Y0039194D01*
X0046107Y0039299D01*
X0046166Y0039401D01*
X0046228Y0039501D01*
X0046294Y0039599D01*
X0046363Y0039695D01*
X0046436Y0039789D01*
X0046511Y0039880D01*
X0046590Y0039968D01*
X0046671Y0040054D01*
X0046756Y0040137D01*
X0046843Y0040217D01*
X0046932Y0040294D01*
X0047025Y0040368D01*
X0047119Y0040438D01*
X0047216Y0040506D01*
X0047316Y0040570D01*
X0047417Y0040631D01*
X0047520Y0040688D01*
X0047626Y0040742D01*
X0047733Y0040793D01*
X0047841Y0040839D01*
X0047951Y0040882D01*
X0048063Y0040921D01*
X0048176Y0040957D01*
X0048290Y0040988D01*
X0048405Y0041016D01*
X0048520Y0041040D01*
X0048637Y0041060D01*
X0048754Y0041076D01*
X0048872Y0041088D01*
X0048990Y0041096D01*
X0049108Y0041100D01*
X0049226Y0041100D01*
X0049344Y0041096D01*
X0049462Y0041088D01*
X0049580Y0041076D01*
X0049697Y0041060D01*
X0049814Y0041040D01*
X0049929Y0041016D01*
X0050044Y0040988D01*
X0050158Y0040957D01*
X0050271Y0040921D01*
X0050383Y0040882D01*
X0050493Y0040839D01*
X0050601Y0040793D01*
X0050708Y0040742D01*
X0050814Y0040688D01*
X0050917Y0040631D01*
X0051018Y0040570D01*
X0051118Y0040506D01*
X0051215Y0040438D01*
X0051309Y0040368D01*
X0051402Y0040294D01*
X0051491Y0040217D01*
X0051578Y0040137D01*
X0051663Y0040054D01*
X0051744Y0039968D01*
X0051823Y0039880D01*
X0051898Y0039789D01*
X0051971Y0039695D01*
X0052040Y0039599D01*
X0052106Y0039501D01*
X0052168Y0039401D01*
X0052227Y0039299D01*
X0052283Y0039194D01*
X0052335Y0039088D01*
X0052383Y0038980D01*
X0052428Y0038871D01*
X0052469Y0038760D01*
X0052506Y0038648D01*
X0052540Y0038534D01*
X0052570Y0038420D01*
X0052595Y0038305D01*
X0052617Y0038188D01*
X0052635Y0038071D01*
X0052649Y0037954D01*
X0052659Y0037836D01*
X0052665Y0037718D01*
X0052667Y0037600D01*
X0052665Y0037482D01*
X0052659Y0037364D01*
X0052649Y0037246D01*
X0052635Y0037129D01*
X0052617Y0037012D01*
X0052595Y0036895D01*
X0052570Y0036780D01*
X0052540Y0036666D01*
X0052506Y0036552D01*
X0052469Y0036440D01*
X0052428Y0036329D01*
X0052383Y0036220D01*
X0052335Y0036112D01*
X0052283Y0036006D01*
X0052227Y0035901D01*
X0052168Y0035799D01*
X0052106Y0035699D01*
X0052040Y0035601D01*
X0051971Y0035505D01*
X0051898Y0035411D01*
X0051823Y0035320D01*
X0051744Y0035232D01*
X0051663Y0035146D01*
X0051578Y0035063D01*
X0051491Y0034983D01*
X0051402Y0034906D01*
X0051309Y0034832D01*
X0051215Y0034762D01*
X0051118Y0034694D01*
X0051018Y0034630D01*
X0050917Y0034569D01*
X0050814Y0034512D01*
X0050708Y0034458D01*
X0050601Y0034407D01*
X0050493Y0034361D01*
X0050383Y0034318D01*
X0050271Y0034279D01*
X0050158Y0034243D01*
X0050044Y0034212D01*
X0049929Y0034184D01*
X0049814Y0034160D01*
X0049697Y0034140D01*
X0049580Y0034124D01*
X0049462Y0034112D01*
X0049344Y0034104D01*
X0049226Y0034100D01*
X0049108Y0034100D01*
X0048990Y0034104D01*
X0048872Y0034112D01*
X0048754Y0034124D01*
X0048637Y0034140D01*
X0048520Y0034160D01*
X0048405Y0034184D01*
X0048290Y0034212D01*
X0048176Y0034243D01*
X0048063Y0034279D01*
X0047951Y0034318D01*
X0047841Y0034361D01*
X0047733Y0034407D01*
X0047626Y0034458D01*
X0047520Y0034512D01*
X0047417Y0034569D01*
X0047316Y0034630D01*
X0047216Y0034694D01*
X0047119Y0034762D01*
X0047025Y0034832D01*
X0046932Y0034906D01*
X0046843Y0034983D01*
X0046756Y0035063D01*
X0046671Y0035146D01*
X0046590Y0035232D01*
X0046511Y0035320D01*
X0046436Y0035411D01*
X0046363Y0035505D01*
X0046294Y0035601D01*
X0046228Y0035699D01*
X0046166Y0035799D01*
X0046107Y0035901D01*
X0046051Y0036006D01*
X0045999Y0036112D01*
X0045951Y0036220D01*
X0045906Y0036329D01*
X0045865Y0036440D01*
X0045828Y0036552D01*
X0045794Y0036666D01*
X0045764Y0036780D01*
X0045739Y0036895D01*
X0045717Y0037012D01*
X0045699Y0037129D01*
X0045685Y0037246D01*
X0045675Y0037364D01*
X0045669Y0037482D01*
X0045667Y0037600D01*
D13*
X0018167Y0122600D02*
X0010167Y0122600D01*
X0009167Y0123600D01*
X0009167Y0131600D01*
X0010167Y0132600D01*
X0009167Y0133600D01*
X0009167Y0141600D01*
X0010167Y0142600D01*
X0009167Y0143600D01*
X0009167Y0151600D01*
X0010167Y0152600D01*
X0009167Y0153600D01*
X0009167Y0161600D01*
X0010167Y0162600D01*
X0018167Y0162600D01*
X0019167Y0161600D01*
X0019167Y0153600D01*
X0018167Y0152600D01*
X0019167Y0151600D01*
X0019167Y0143600D01*
X0018167Y0142600D01*
X0019167Y0141600D01*
X0019167Y0133600D01*
X0018167Y0132600D01*
X0019167Y0131600D01*
X0019167Y0123600D01*
X0018167Y0122600D01*
X0114167Y0213600D02*
X0114167Y0221600D01*
X0115167Y0222600D01*
X0123167Y0222600D01*
X0124167Y0221600D01*
X0125167Y0222600D01*
X0133167Y0222600D01*
X0134167Y0221600D01*
X0134167Y0213600D01*
X0133167Y0212600D01*
X0125167Y0212600D01*
X0124167Y0213600D01*
X0123167Y0212600D01*
X0115167Y0212600D01*
X0114167Y0213600D01*
X0098167Y0232600D02*
X0090167Y0232600D01*
X0089167Y0233600D01*
X0088167Y0232600D01*
X0080167Y0232600D01*
X0079167Y0233600D01*
X0078167Y0232600D01*
X0070167Y0232600D01*
X0069167Y0233600D01*
X0068167Y0232600D01*
X0060167Y0232600D01*
X0059167Y0233600D01*
X0059167Y0241600D01*
X0060167Y0242600D01*
X0068167Y0242600D01*
X0069167Y0241600D01*
X0070167Y0242600D01*
X0078167Y0242600D01*
X0079167Y0241600D01*
X0080167Y0242600D01*
X0088167Y0242600D01*
X0089167Y0241600D01*
X0090167Y0242600D01*
X0098167Y0242600D01*
X0099167Y0241600D01*
X0099167Y0233600D01*
X0098167Y0232600D01*
X0164167Y0201600D02*
X0164167Y0193600D01*
X0165167Y0192600D01*
X0173167Y0192600D01*
X0174167Y0193600D01*
X0175167Y0192600D01*
X0183167Y0192600D01*
X0184167Y0193600D01*
X0184167Y0201600D01*
X0183167Y0202600D01*
X0175167Y0202600D01*
X0174167Y0201600D01*
X0173167Y0202600D01*
X0165167Y0202600D01*
X0164167Y0201600D01*
X0134167Y0154100D02*
X0134167Y0131100D01*
X0214167Y0131100D01*
X0214167Y0138600D01*
X0214041Y0138602D01*
X0213916Y0138608D01*
X0213791Y0138618D01*
X0213666Y0138632D01*
X0213541Y0138649D01*
X0213417Y0138671D01*
X0213294Y0138696D01*
X0213172Y0138726D01*
X0213051Y0138759D01*
X0212931Y0138796D01*
X0212812Y0138836D01*
X0212695Y0138881D01*
X0212578Y0138929D01*
X0212464Y0138981D01*
X0212351Y0139036D01*
X0212240Y0139095D01*
X0212131Y0139157D01*
X0212024Y0139223D01*
X0211919Y0139292D01*
X0211816Y0139364D01*
X0211715Y0139439D01*
X0211617Y0139518D01*
X0211522Y0139600D01*
X0211429Y0139684D01*
X0211339Y0139772D01*
X0211251Y0139862D01*
X0211167Y0139955D01*
X0211085Y0140050D01*
X0211006Y0140148D01*
X0210931Y0140249D01*
X0210859Y0140352D01*
X0210790Y0140457D01*
X0210724Y0140564D01*
X0210662Y0140673D01*
X0210603Y0140784D01*
X0210548Y0140897D01*
X0210496Y0141011D01*
X0210448Y0141128D01*
X0210403Y0141245D01*
X0210363Y0141364D01*
X0210326Y0141484D01*
X0210293Y0141605D01*
X0210263Y0141727D01*
X0210238Y0141850D01*
X0210216Y0141974D01*
X0210199Y0142099D01*
X0210185Y0142224D01*
X0210175Y0142349D01*
X0210169Y0142474D01*
X0210167Y0142600D01*
X0210169Y0142726D01*
X0210175Y0142851D01*
X0210185Y0142976D01*
X0210199Y0143101D01*
X0210216Y0143226D01*
X0210238Y0143350D01*
X0210263Y0143473D01*
X0210293Y0143595D01*
X0210326Y0143716D01*
X0210363Y0143836D01*
X0210403Y0143955D01*
X0210448Y0144072D01*
X0210496Y0144189D01*
X0210548Y0144303D01*
X0210603Y0144416D01*
X0210662Y0144527D01*
X0210724Y0144636D01*
X0210790Y0144743D01*
X0210859Y0144848D01*
X0210931Y0144951D01*
X0211006Y0145052D01*
X0211085Y0145150D01*
X0211167Y0145245D01*
X0211251Y0145338D01*
X0211339Y0145428D01*
X0211429Y0145516D01*
X0211522Y0145600D01*
X0211617Y0145682D01*
X0211715Y0145761D01*
X0211816Y0145836D01*
X0211919Y0145908D01*
X0212024Y0145977D01*
X0212131Y0146043D01*
X0212240Y0146105D01*
X0212351Y0146164D01*
X0212464Y0146219D01*
X0212578Y0146271D01*
X0212695Y0146319D01*
X0212812Y0146364D01*
X0212931Y0146404D01*
X0213051Y0146441D01*
X0213172Y0146474D01*
X0213294Y0146504D01*
X0213417Y0146529D01*
X0213541Y0146551D01*
X0213666Y0146568D01*
X0213791Y0146582D01*
X0213916Y0146592D01*
X0214041Y0146598D01*
X0214167Y0146600D01*
X0214167Y0154100D01*
X0134167Y0154100D01*
X0165167Y0097600D02*
X0164167Y0096600D01*
X0164167Y0088600D01*
X0165167Y0087600D01*
X0173167Y0087600D01*
X0174167Y0088600D01*
X0175167Y0087600D01*
X0183167Y0087600D01*
X0184167Y0088600D01*
X0184167Y0096600D01*
X0183167Y0097600D01*
X0175167Y0097600D01*
X0174167Y0096600D01*
X0173167Y0097600D01*
X0165167Y0097600D01*
M02*
