%
M48
M72
T01C0.02362
T02C0.03150
T03C0.03200
T04C0.04400
T05C0.04700
%
T01
X196689Y27437
X167083Y114740
X50488Y146138
X12043Y146157
X253087Y124209
X165921Y115311
X10882Y146768
X266945Y12299
X251846Y125213
T02
X280035Y60370
X313165Y59366
T03
X127476Y200114
X127476Y210114
X127693Y142713
X127693Y132713
X164228Y223441
X174228Y223441
X174228Y253441
X164228Y253441
X184228Y223441
X194228Y223441
X184228Y253441
X194228Y253441
X196689Y99287
X186689Y99287
X186689Y69287
X196689Y69287
X176689Y99287
X166689Y99287
X176689Y69287
X166689Y69287
X279169Y235272
X289169Y235272
X289169Y265272
X279169Y265272
X299169Y235272
X309169Y235272
X299169Y265272
X309169Y265272
X301768Y110646
X291768Y110646
X291768Y80646
X301768Y80646
X281768Y110646
X271768Y110646
X281768Y80646
X271768Y80646
X128264Y242299
X135764Y247299
X128264Y252299
X126591Y97358
X119091Y92358
X126591Y87358
X128047Y271138
X128047Y301138
X83972Y212594
X83972Y242594
X126591Y57024
X126591Y27024
X78087Y125587
X78087Y95587
X298323Y204425
X298323Y174425
X339484Y81906
X339484Y51906
X339051Y168933
X339051Y198933
X282732Y150134
X312732Y150134
T04
X224169Y213382
X184169Y213382
X153402Y51709
X153402Y91709
X340114Y110252
X340114Y150252
X338283Y216177
X298283Y216177
X84563Y300567
X84563Y260567
X77516Y26866
X77516Y66866
T05
X385587Y187575
X364110Y255921
X263638Y48815
X73736Y184858
X73736Y165173
X73736Y145488
M30
