%
M48
M72
T01C0.02362
T02C0.02400
T03C0.03200
T04C0.03600
T05C0.04000
T06C0.04331
T07C0.05200
%
T01
X411000Y300882
X166000Y235882
T02
X98126Y168874
X108126Y168874
X118126Y168874
X149307Y166197
X159307Y166197
X169307Y166197
X204425Y166827
X214425Y166827
X224425Y166827
X255606Y167457
X265606Y167457
X275606Y167457
X253362Y140803
X263362Y140803
X273362Y140803
X151000Y141433
X161000Y141433
X171000Y141433
X98126Y141945
X108126Y141945
X118126Y141945
X234100Y55682
X348400Y287882
X226000Y255482
X348400Y115982
X307000Y72782
X482500Y53882
T03
X259819Y35843
X269819Y35843
X209150Y63402
X219150Y63402
X269425Y60646
X259425Y60646
X304307Y57921
X304307Y43921
X347614Y56228
X347614Y42228
X215488Y37024
X205488Y37024
X247575Y61276
X237575Y61276
X244425Y37024
X234425Y37024
X271709Y295685
X261709Y295685
X123717Y221827
X123717Y231827
X93717Y251827
X93717Y241827
X123717Y241827
X123717Y251827
X93717Y231827
X93717Y221827
X285134Y221433
X285134Y231433
X255134Y251433
X255134Y241433
X285134Y241433
X285134Y251433
X255134Y231433
X255134Y221433
X444071Y105252
X444071Y95252
X444071Y45252
X474071Y45252
X444071Y85252
X444071Y75252
X444071Y55252
X444071Y65252
X474071Y55252
X474071Y65252
X474071Y75252
X474071Y85252
X474071Y95252
X474071Y105252
X416197Y45094
X416197Y55094
X416197Y105094
X386197Y105094
X416197Y65094
X416197Y75094
X416197Y95094
X416197Y85094
X386197Y95094
X386197Y85094
X386197Y75094
X386197Y65094
X386197Y55094
X386197Y45094
X386787Y287850
X386787Y277850
X416787Y277850
X416787Y287850
X386787Y267850
X386787Y257850
X416787Y267850
X416787Y257850
X174898Y219071
X174898Y229071
X144898Y249071
X144898Y239071
X174898Y239071
X174898Y249071
X144898Y229071
X144898Y219071
X230016Y220252
X230016Y230252
X200016Y250252
X200016Y240252
X230016Y240252
X230016Y250252
X200016Y230252
X200016Y220252
X386787Y227614
X386787Y217614
X416787Y217614
X416787Y227614
X386787Y207614
X386787Y197614
X416787Y207614
X416787Y197614
X386787Y167378
X386787Y157378
X416787Y157378
X416787Y167378
X386787Y147378
X386787Y137378
X416787Y147378
X416787Y137378
X447417Y228008
X447417Y218008
X477417Y218008
X477417Y228008
X447417Y208008
X447417Y198008
X477417Y208008
X477417Y198008
X445843Y168953
X445843Y158953
X475843Y158953
X475843Y168953
X445843Y148953
X445843Y138953
X475843Y148953
X475843Y138953
T04
X317063Y169071
X347063Y169071
X319307Y208441
X349307Y208441
X317614Y243874
X347614Y243874
X315921Y279307
X345921Y279307
T05
X221827Y146394
X211827Y146394
X201827Y146394
T06
X234189Y272378
X194189Y272378
X195370Y296000
X235370Y296000
X138283Y273756
X178283Y273756
X344819Y132024
X304819Y132024
X235370Y110134
X195370Y110134
X131827Y86512
X91827Y86512
X181827Y86512
X141827Y86512
X91709Y108520
X131709Y108520
X93008Y57220
X133008Y57220
X233795Y85134
X193795Y85134
X247732Y85134
X287732Y85134
X144189Y108756
X184189Y108756
X245370Y108756
X285370Y108756
X305488Y108520
X345488Y108520
X285882Y271433
X245882Y271433
X87102Y276315
X127102Y276315
X181433Y296551
X141433Y296551
X129071Y296551
X89071Y296551
X303244Y83402
X343244Y83402
T07
X47063Y165552
X47063Y185252
X47063Y204952
X42063Y252678
X42063Y272378
X42063Y292078
X47063Y75552
X47063Y95252
X47063Y114952
X569858Y218305
X569858Y238105
X569858Y157557
X569858Y177357
X569858Y49565
X569858Y69365
X569858Y106927
X569858Y126727
X510803Y215470
X510803Y235270
X509110Y105076
X509110Y124876
X502911Y268717
X522711Y268717
X471530Y272654
X451730Y272654
X508874Y54092
X508874Y73892
X508874Y164328
X508874Y184128
M30
