%
M48
M72
T01C0.02362
T02C0.03200
T03C0.03346
T04C0.03740
T05C0.03937
T06C0.04000
T07C0.04724
T08C0.09843
%
T01
X11600Y288800
X45100Y288300
X99600Y381800
X151100Y206300
X349600Y495300
X347600Y455300
X386600Y493800
X386600Y390800
X43600Y189800
X61100Y188300
X109100Y275300
X438600Y498300
X437100Y488300
X74100Y267800
X321600Y442800
X74100Y280300
X303100Y368300
X319100Y367800
X350100Y213800
X20100Y213800
X359100Y223300
X20100Y223300
X368600Y229800
X19600Y232300
X117100Y333800
X129600Y346300
X114600Y340800
X131100Y356800
X123100Y458300
X123100Y418800
T02
X319100Y264300
X319100Y294300
X516600Y84800
X516600Y54800
X505600Y84800
X505600Y54800
X495600Y84800
X495600Y54800
X316100Y343300
X316100Y313300
X363100Y350300
X363100Y340300
X84100Y304800
X84100Y324800
X84100Y314800
X485100Y84800
X485100Y54800
T03
X332100Y306800
X332100Y316800
X332100Y326800
X332100Y336800
X332100Y346800
X332100Y356800
X332100Y366800
X332100Y376800
X142100Y356800
X142100Y346800
X142100Y336800
X142100Y326800
X142100Y316800
X142100Y306800
X142100Y296800
X142100Y286800
X332100Y216800
X332100Y226800
X332100Y236800
X332100Y246800
X332100Y256800
X332100Y266800
X332100Y276800
X332100Y286800
X142100Y266800
X142100Y256800
X142100Y246800
X142100Y236800
X142100Y226800
X142100Y216800
X142100Y206800
X142100Y196800
X332100Y482800
X332100Y472800
X332100Y462800
X332100Y452800
X332100Y442800
X332100Y432800
X332100Y422800
X332100Y412800
X332100Y402800
X332100Y392800
X142100Y446800
X142100Y436800
X142100Y426800
X142100Y416800
X142100Y406800
X142100Y396800
X142100Y386800
X142100Y376800
T04
X332100Y186800
X332100Y176800
X322100Y186800
X322100Y176800
X312100Y186800
X312100Y176800
X302100Y186800
X302100Y176800
X292100Y186800
X292100Y176800
X282100Y186800
X282100Y176800
X272100Y186800
X272100Y176800
X262100Y186800
X262100Y176800
X252100Y186800
X252100Y176800
X242100Y186800
X242100Y176800
X232100Y186800
X232100Y176800
X222100Y186800
X222100Y176800
X212100Y186800
X212100Y176800
X202100Y186800
X202100Y176800
X192100Y186800
X192100Y176800
X182100Y186800
X182100Y176800
X172100Y186800
X172100Y176800
X162100Y186800
X162100Y176800
T05
X396616Y482824
X406616Y482824
X416616Y482824
X426616Y482824
X436616Y482824
X446616Y482824
X456616Y482824
X466616Y482824
X476616Y482824
X486616Y482824
X496616Y482824
X506616Y482824
X516616Y482824
X526616Y482824
X536616Y482824
X546616Y482824
T06
X57600Y288300
X57600Y278300
X57600Y268300
X57600Y258300
X85100Y402300
X85100Y392300
X85100Y382300
X85100Y372300
X85100Y446800
X85100Y436800
X85100Y426800
X31600Y232800
X31600Y222800
X31600Y212800
X31600Y202800
X31600Y192800
X26100Y359800
X36100Y359800
X26100Y349800
X36100Y349800
X26100Y339800
X36100Y339800
X26100Y329800
X36100Y329800
X26100Y319800
X36100Y319800
X372900Y310900
X372900Y328700
X347300Y310900
X347300Y328700
X173100Y147300
X163100Y147300
X153100Y147300
X143100Y147300
X133100Y147300
X123100Y147300
X113100Y147300
X103100Y147300
X93100Y147300
X83100Y147300
X73100Y147300
X63100Y147300
X436600Y99800
X446600Y99800
X456600Y99800
X466600Y99800
X476600Y99800
X486600Y99800
X496600Y99800
X506600Y99800
X516600Y99800
X526600Y99800
X241600Y89800
X241600Y99800
X403600Y88800
X403600Y98800
X403100Y19300
X241100Y8300
X241100Y18300
T07
X319285Y513209
X299600Y513209
X279915Y513209
T08
X374962Y360776
X670238Y360776
X374962Y482824
X670238Y482824
M30
