G75*
%MOIN*%
%OFA0B0*%
%FSLAX24Y24*%
%IPPOS*%
%LPD*%
%AMOC8*
5,1,8,0,0,1.08239X$1,22.5*
%
%ADD10C,0.0070*%
%ADD11C,0.0000*%
D10*
X023577Y021047D02*
X023495Y021128D01*
X023577Y021047D02*
X023904Y021047D01*
X023822Y020965D02*
X023822Y021128D01*
X023822Y021309D02*
X023822Y021390D01*
X023495Y021390D01*
X023495Y021309D02*
X023495Y021472D01*
X023495Y021653D02*
X023822Y021653D01*
X023822Y021898D01*
X023740Y021979D01*
X023495Y021979D01*
X023495Y022168D02*
X023985Y022168D01*
X024082Y022269D02*
X024082Y022351D01*
X024163Y022433D01*
X024572Y022433D01*
X024572Y022187D01*
X024490Y022106D01*
X024327Y022106D01*
X024245Y022187D01*
X024245Y022433D01*
X024245Y022621D02*
X024572Y022621D01*
X024572Y022867D01*
X024490Y022948D01*
X024245Y022948D01*
X024327Y023137D02*
X024490Y023137D01*
X024572Y023219D01*
X024572Y023382D01*
X024490Y023464D01*
X024408Y023464D01*
X024408Y023137D01*
X024327Y023137D02*
X024245Y023219D01*
X024245Y023382D01*
X024327Y023653D02*
X024490Y023653D01*
X024572Y023734D01*
X024572Y023980D01*
X024735Y023980D02*
X024245Y023980D01*
X024245Y023734D01*
X024327Y023653D01*
X024067Y024141D02*
X023985Y024141D01*
X023822Y024141D02*
X023495Y024141D01*
X023495Y024222D02*
X023495Y024059D01*
X023822Y024059D02*
X023822Y024141D01*
X023822Y024403D02*
X023822Y024566D01*
X023904Y024484D02*
X023577Y024484D01*
X023495Y024566D01*
X024245Y024684D02*
X024245Y024929D01*
X024327Y025011D01*
X024490Y025011D01*
X024572Y024929D01*
X024572Y024684D01*
X024735Y024684D02*
X024245Y024684D01*
X024327Y025200D02*
X024245Y025281D01*
X024245Y025526D01*
X024163Y025526D02*
X024082Y025445D01*
X024082Y025363D01*
X024163Y025526D02*
X024572Y025526D01*
X024572Y025200D02*
X024327Y025200D01*
X023822Y023359D02*
X023822Y023277D01*
X023658Y023113D01*
X023495Y023113D02*
X023822Y023113D01*
X023740Y022925D02*
X023658Y022925D01*
X023658Y022598D01*
X023577Y022598D02*
X023740Y022598D01*
X023822Y022680D01*
X023822Y022843D01*
X023740Y022925D01*
X023495Y022843D02*
X023495Y022680D01*
X023577Y022598D01*
X023495Y022413D02*
X023658Y022168D01*
X023822Y022413D01*
X024245Y021925D02*
X024245Y021762D01*
X024245Y021844D02*
X024572Y021844D01*
X024572Y021762D01*
X024735Y021844D02*
X024817Y021844D01*
X024572Y021573D02*
X024572Y021328D01*
X024490Y021246D01*
X024408Y021328D01*
X024408Y021491D01*
X024327Y021573D01*
X024245Y021491D01*
X024245Y021246D01*
X024067Y021390D02*
X023985Y021390D01*
X024245Y020976D02*
X024245Y020812D01*
X024327Y020731D01*
X024490Y020731D01*
X024572Y020812D01*
X024572Y020976D01*
X024490Y021058D01*
X024408Y021058D01*
X024408Y020731D01*
X024245Y020542D02*
X024245Y020297D01*
X024327Y020215D01*
X024490Y020215D01*
X024572Y020297D01*
X024572Y020542D01*
X024735Y020542D02*
X024245Y020542D01*
X024495Y034215D02*
X024985Y034215D01*
X024822Y034378D01*
X024985Y034542D01*
X024495Y034542D01*
X024495Y034731D02*
X024822Y034731D01*
X024985Y034894D01*
X024822Y035058D01*
X024495Y035058D01*
X024495Y035246D02*
X024495Y035491D01*
X024577Y035573D01*
X024904Y035573D01*
X024985Y035491D01*
X024985Y035246D01*
X024495Y035246D01*
X024235Y035222D02*
X023745Y035222D01*
X023745Y034878D02*
X023745Y034715D01*
X023745Y034797D02*
X024235Y034797D01*
X024235Y034878D02*
X024235Y034715D01*
X024235Y035059D02*
X024235Y035386D01*
X024072Y035574D02*
X024235Y035738D01*
X024072Y035901D01*
X023745Y035901D01*
X023745Y036090D02*
X023745Y036417D01*
X023745Y036090D02*
X024235Y036090D01*
X024495Y036089D02*
X024495Y035762D01*
X024985Y035762D01*
X024985Y036089D01*
X024740Y035925D02*
X024740Y035762D01*
X024072Y035574D02*
X023745Y035574D01*
X023990Y035574D02*
X023990Y035901D01*
X024154Y036606D02*
X023990Y036769D01*
X023745Y036769D01*
X023990Y036769D02*
X024154Y036933D01*
X024235Y036933D01*
X024495Y036957D02*
X024495Y036793D01*
X024495Y036875D02*
X024985Y036875D01*
X024985Y036793D02*
X024985Y036957D01*
X024985Y037137D02*
X024495Y037464D01*
X024985Y037464D01*
X024985Y037137D02*
X024495Y037137D01*
X024235Y036606D02*
X024154Y036606D01*
X024740Y035058D02*
X024740Y034731D01*
D11*
X036004Y036078D02*
X036006Y036122D01*
X036012Y036166D01*
X036022Y036209D01*
X036035Y036251D01*
X036053Y036291D01*
X036074Y036330D01*
X036098Y036367D01*
X036125Y036402D01*
X036156Y036434D01*
X036189Y036463D01*
X036225Y036489D01*
X036263Y036511D01*
X036303Y036530D01*
X036344Y036546D01*
X036387Y036558D01*
X036430Y036566D01*
X036474Y036570D01*
X036518Y036570D01*
X036562Y036566D01*
X036605Y036558D01*
X036648Y036546D01*
X036689Y036530D01*
X036729Y036511D01*
X036767Y036489D01*
X036803Y036463D01*
X036836Y036434D01*
X036867Y036402D01*
X036894Y036367D01*
X036918Y036330D01*
X036939Y036291D01*
X036957Y036251D01*
X036970Y036209D01*
X036980Y036166D01*
X036986Y036122D01*
X036988Y036078D01*
X036986Y036034D01*
X036980Y035990D01*
X036970Y035947D01*
X036957Y035905D01*
X036939Y035865D01*
X036918Y035826D01*
X036894Y035789D01*
X036867Y035754D01*
X036836Y035722D01*
X036803Y035693D01*
X036767Y035667D01*
X036729Y035645D01*
X036689Y035626D01*
X036648Y035610D01*
X036605Y035598D01*
X036562Y035590D01*
X036518Y035586D01*
X036474Y035586D01*
X036430Y035590D01*
X036387Y035598D01*
X036344Y035610D01*
X036303Y035626D01*
X036263Y035645D01*
X036225Y035667D01*
X036189Y035693D01*
X036156Y035722D01*
X036125Y035754D01*
X036098Y035789D01*
X036074Y035826D01*
X036053Y035865D01*
X036035Y035905D01*
X036022Y035947D01*
X036012Y035990D01*
X036006Y036034D01*
X036004Y036078D01*
X036004Y048282D02*
X036006Y048326D01*
X036012Y048370D01*
X036022Y048413D01*
X036035Y048455D01*
X036053Y048495D01*
X036074Y048534D01*
X036098Y048571D01*
X036125Y048606D01*
X036156Y048638D01*
X036189Y048667D01*
X036225Y048693D01*
X036263Y048715D01*
X036303Y048734D01*
X036344Y048750D01*
X036387Y048762D01*
X036430Y048770D01*
X036474Y048774D01*
X036518Y048774D01*
X036562Y048770D01*
X036605Y048762D01*
X036648Y048750D01*
X036689Y048734D01*
X036729Y048715D01*
X036767Y048693D01*
X036803Y048667D01*
X036836Y048638D01*
X036867Y048606D01*
X036894Y048571D01*
X036918Y048534D01*
X036939Y048495D01*
X036957Y048455D01*
X036970Y048413D01*
X036980Y048370D01*
X036986Y048326D01*
X036988Y048282D01*
X036986Y048238D01*
X036980Y048194D01*
X036970Y048151D01*
X036957Y048109D01*
X036939Y048069D01*
X036918Y048030D01*
X036894Y047993D01*
X036867Y047958D01*
X036836Y047926D01*
X036803Y047897D01*
X036767Y047871D01*
X036729Y047849D01*
X036689Y047830D01*
X036648Y047814D01*
X036605Y047802D01*
X036562Y047794D01*
X036518Y047790D01*
X036474Y047790D01*
X036430Y047794D01*
X036387Y047802D01*
X036344Y047814D01*
X036303Y047830D01*
X036263Y047849D01*
X036225Y047871D01*
X036189Y047897D01*
X036156Y047926D01*
X036125Y047958D01*
X036098Y047993D01*
X036074Y048030D01*
X036053Y048069D01*
X036035Y048109D01*
X036022Y048151D01*
X036012Y048194D01*
X036006Y048238D01*
X036004Y048282D01*
X065532Y048282D02*
X065534Y048326D01*
X065540Y048370D01*
X065550Y048413D01*
X065563Y048455D01*
X065581Y048495D01*
X065602Y048534D01*
X065626Y048571D01*
X065653Y048606D01*
X065684Y048638D01*
X065717Y048667D01*
X065753Y048693D01*
X065791Y048715D01*
X065831Y048734D01*
X065872Y048750D01*
X065915Y048762D01*
X065958Y048770D01*
X066002Y048774D01*
X066046Y048774D01*
X066090Y048770D01*
X066133Y048762D01*
X066176Y048750D01*
X066217Y048734D01*
X066257Y048715D01*
X066295Y048693D01*
X066331Y048667D01*
X066364Y048638D01*
X066395Y048606D01*
X066422Y048571D01*
X066446Y048534D01*
X066467Y048495D01*
X066485Y048455D01*
X066498Y048413D01*
X066508Y048370D01*
X066514Y048326D01*
X066516Y048282D01*
X066514Y048238D01*
X066508Y048194D01*
X066498Y048151D01*
X066485Y048109D01*
X066467Y048069D01*
X066446Y048030D01*
X066422Y047993D01*
X066395Y047958D01*
X066364Y047926D01*
X066331Y047897D01*
X066295Y047871D01*
X066257Y047849D01*
X066217Y047830D01*
X066176Y047814D01*
X066133Y047802D01*
X066090Y047794D01*
X066046Y047790D01*
X066002Y047790D01*
X065958Y047794D01*
X065915Y047802D01*
X065872Y047814D01*
X065831Y047830D01*
X065791Y047849D01*
X065753Y047871D01*
X065717Y047897D01*
X065684Y047926D01*
X065653Y047958D01*
X065626Y047993D01*
X065602Y048030D01*
X065581Y048069D01*
X065563Y048109D01*
X065550Y048151D01*
X065540Y048194D01*
X065534Y048238D01*
X065532Y048282D01*
X065532Y036078D02*
X065534Y036122D01*
X065540Y036166D01*
X065550Y036209D01*
X065563Y036251D01*
X065581Y036291D01*
X065602Y036330D01*
X065626Y036367D01*
X065653Y036402D01*
X065684Y036434D01*
X065717Y036463D01*
X065753Y036489D01*
X065791Y036511D01*
X065831Y036530D01*
X065872Y036546D01*
X065915Y036558D01*
X065958Y036566D01*
X066002Y036570D01*
X066046Y036570D01*
X066090Y036566D01*
X066133Y036558D01*
X066176Y036546D01*
X066217Y036530D01*
X066257Y036511D01*
X066295Y036489D01*
X066331Y036463D01*
X066364Y036434D01*
X066395Y036402D01*
X066422Y036367D01*
X066446Y036330D01*
X066467Y036291D01*
X066485Y036251D01*
X066498Y036209D01*
X066508Y036166D01*
X066514Y036122D01*
X066516Y036078D01*
X066514Y036034D01*
X066508Y035990D01*
X066498Y035947D01*
X066485Y035905D01*
X066467Y035865D01*
X066446Y035826D01*
X066422Y035789D01*
X066395Y035754D01*
X066364Y035722D01*
X066331Y035693D01*
X066295Y035667D01*
X066257Y035645D01*
X066217Y035626D01*
X066176Y035610D01*
X066133Y035598D01*
X066090Y035590D01*
X066046Y035586D01*
X066002Y035586D01*
X065958Y035590D01*
X065915Y035598D01*
X065872Y035610D01*
X065831Y035626D01*
X065791Y035645D01*
X065753Y035667D01*
X065717Y035693D01*
X065684Y035722D01*
X065653Y035754D01*
X065626Y035789D01*
X065602Y035826D01*
X065581Y035865D01*
X065563Y035905D01*
X065550Y035947D01*
X065540Y035990D01*
X065534Y036034D01*
X065532Y036078D01*
M02*
