G75*
%MOIN*%
%OFA0B0*%
%FSLAX25Y25*%
%IPPOS*%
%LPD*%
%AMOC8*
5,1,8,0,0,1.08239X$1,22.5*
%
%ADD10C,0.01000*%
%ADD11C,0.05600*%
%ADD12OC8,0.06600*%
%ADD13C,0.07087*%
%ADD14OC8,0.05200*%
%ADD15C,0.05200*%
%ADD16C,0.06600*%
%ADD17C,0.00000*%
%ADD18C,0.06000*%
%ADD19OC8,0.06000*%
%ADD20R,0.04362X0.04362*%
%ADD21C,0.03200*%
D10*
X0132100Y0552863D02*
X0132102Y0552987D01*
X0132108Y0553110D01*
X0132117Y0553234D01*
X0132131Y0553356D01*
X0132148Y0553479D01*
X0132170Y0553601D01*
X0132195Y0553722D01*
X0132224Y0553842D01*
X0132256Y0553961D01*
X0132293Y0554080D01*
X0132333Y0554197D01*
X0132376Y0554312D01*
X0132424Y0554427D01*
X0132475Y0554539D01*
X0132529Y0554650D01*
X0132587Y0554760D01*
X0132648Y0554867D01*
X0132713Y0554973D01*
X0132781Y0555076D01*
X0132852Y0555177D01*
X0132926Y0555276D01*
X0133003Y0555373D01*
X0133084Y0555467D01*
X0133167Y0555558D01*
X0133253Y0555647D01*
X0133342Y0555733D01*
X0133433Y0555816D01*
X0133527Y0555897D01*
X0133624Y0555974D01*
X0133723Y0556048D01*
X0133824Y0556119D01*
X0133927Y0556187D01*
X0134033Y0556252D01*
X0134140Y0556313D01*
X0134250Y0556371D01*
X0134361Y0556425D01*
X0134473Y0556476D01*
X0134588Y0556524D01*
X0134703Y0556567D01*
X0134820Y0556607D01*
X0134939Y0556644D01*
X0135058Y0556676D01*
X0135178Y0556705D01*
X0135299Y0556730D01*
X0135421Y0556752D01*
X0135544Y0556769D01*
X0135666Y0556783D01*
X0135790Y0556792D01*
X0135913Y0556798D01*
X0136037Y0556800D01*
D11*
X0140420Y0446800D02*
X0143780Y0446800D01*
X0143780Y0436800D02*
X0140420Y0436800D01*
X0140420Y0426800D02*
X0143780Y0426800D01*
X0143780Y0416800D02*
X0140420Y0416800D01*
X0140420Y0406800D02*
X0143780Y0406800D01*
X0143780Y0396800D02*
X0140420Y0396800D01*
X0140420Y0386800D02*
X0143780Y0386800D01*
X0143780Y0376800D02*
X0140420Y0376800D01*
X0140420Y0356800D02*
X0143780Y0356800D01*
X0143780Y0346800D02*
X0140420Y0346800D01*
X0140420Y0336800D02*
X0143780Y0336800D01*
X0143780Y0326800D02*
X0140420Y0326800D01*
X0140420Y0316800D02*
X0143780Y0316800D01*
X0143780Y0306800D02*
X0140420Y0306800D01*
X0140420Y0296800D02*
X0143780Y0296800D01*
X0143780Y0286800D02*
X0140420Y0286800D01*
X0140420Y0266800D02*
X0143780Y0266800D01*
X0143780Y0256800D02*
X0140420Y0256800D01*
X0140420Y0246800D02*
X0143780Y0246800D01*
X0143780Y0236800D02*
X0140420Y0236800D01*
X0140420Y0226800D02*
X0143780Y0226800D01*
X0143780Y0216800D02*
X0140420Y0216800D01*
X0140420Y0206800D02*
X0143780Y0206800D01*
X0143780Y0196800D02*
X0140420Y0196800D01*
X0330420Y0216800D02*
X0333780Y0216800D01*
X0333780Y0226800D02*
X0330420Y0226800D01*
X0330420Y0236800D02*
X0333780Y0236800D01*
X0333780Y0246800D02*
X0330420Y0246800D01*
X0330420Y0256800D02*
X0333780Y0256800D01*
X0333780Y0266800D02*
X0330420Y0266800D01*
X0330420Y0276800D02*
X0333780Y0276800D01*
X0333780Y0286800D02*
X0330420Y0286800D01*
X0330420Y0306800D02*
X0333780Y0306800D01*
X0333780Y0316800D02*
X0330420Y0316800D01*
X0330420Y0326800D02*
X0333780Y0326800D01*
X0333780Y0336800D02*
X0330420Y0336800D01*
X0330420Y0346800D02*
X0333780Y0346800D01*
X0333780Y0356800D02*
X0330420Y0356800D01*
X0330420Y0366800D02*
X0333780Y0366800D01*
X0333780Y0376800D02*
X0330420Y0376800D01*
X0330420Y0392800D02*
X0333780Y0392800D01*
X0333780Y0402800D02*
X0330420Y0402800D01*
X0330420Y0412800D02*
X0333780Y0412800D01*
X0333780Y0422800D02*
X0330420Y0422800D01*
X0330420Y0432800D02*
X0333780Y0432800D01*
X0333780Y0442800D02*
X0330420Y0442800D01*
X0330420Y0452800D02*
X0333780Y0452800D01*
X0333780Y0462800D02*
X0330420Y0462800D01*
X0330420Y0472800D02*
X0333780Y0472800D01*
X0333780Y0482800D02*
X0330420Y0482800D01*
D12*
X0332100Y0186800D03*
X0322100Y0186800D03*
X0322100Y0176800D03*
X0332100Y0176800D03*
X0312100Y0176800D03*
X0302100Y0176800D03*
X0302100Y0186800D03*
X0312100Y0186800D03*
X0292100Y0186800D03*
X0282100Y0186800D03*
X0282100Y0176800D03*
X0292100Y0176800D03*
X0272100Y0176800D03*
X0262100Y0176800D03*
X0252100Y0176800D03*
X0252100Y0186800D03*
X0262100Y0186800D03*
X0272100Y0186800D03*
X0242100Y0186800D03*
X0232100Y0186800D03*
X0232100Y0176800D03*
X0242100Y0176800D03*
X0222100Y0176800D03*
X0212100Y0176800D03*
X0212100Y0186800D03*
X0222100Y0186800D03*
X0202100Y0186800D03*
X0192100Y0186800D03*
X0192100Y0176800D03*
X0202100Y0176800D03*
X0182100Y0176800D03*
X0172100Y0176800D03*
X0172100Y0186800D03*
X0182100Y0186800D03*
X0162100Y0186800D03*
X0162100Y0176800D03*
D13*
X0279915Y0511083D02*
X0279915Y0515335D01*
X0299600Y0515335D02*
X0299600Y0511083D01*
X0319285Y0511083D02*
X0319285Y0515335D01*
D14*
X0316100Y0343300D03*
X0316100Y0313300D03*
X0319100Y0294300D03*
X0319100Y0264300D03*
X0485100Y0084800D03*
X0495600Y0084800D03*
X0505600Y0084800D03*
X0516600Y0084800D03*
X0516600Y0054800D03*
X0505600Y0054800D03*
X0495600Y0054800D03*
X0485100Y0054800D03*
D15*
X0364660Y0340300D02*
X0361540Y0340300D01*
X0361540Y0350300D02*
X0364660Y0350300D01*
X0085660Y0324800D02*
X0082540Y0324800D01*
X0082540Y0314800D02*
X0085660Y0314800D01*
X0085660Y0304800D02*
X0082540Y0304800D01*
D16*
X0396616Y0482824D03*
X0406616Y0482824D03*
X0416616Y0482824D03*
X0426616Y0482824D03*
X0436616Y0482824D03*
X0446616Y0482824D03*
X0456616Y0482824D03*
X0466616Y0482824D03*
X0476616Y0482824D03*
X0486616Y0482824D03*
X0496616Y0482824D03*
X0506616Y0482824D03*
X0516616Y0482824D03*
X0526616Y0482824D03*
X0536616Y0482824D03*
X0546616Y0482824D03*
D17*
X0665317Y0482824D02*
X0665319Y0482964D01*
X0665325Y0483104D01*
X0665335Y0483243D01*
X0665349Y0483382D01*
X0665367Y0483521D01*
X0665388Y0483659D01*
X0665414Y0483797D01*
X0665444Y0483934D01*
X0665477Y0484069D01*
X0665515Y0484204D01*
X0665556Y0484338D01*
X0665601Y0484471D01*
X0665649Y0484602D01*
X0665702Y0484731D01*
X0665758Y0484860D01*
X0665817Y0484986D01*
X0665881Y0485111D01*
X0665947Y0485234D01*
X0666018Y0485355D01*
X0666091Y0485474D01*
X0666168Y0485591D01*
X0666249Y0485705D01*
X0666332Y0485817D01*
X0666419Y0485927D01*
X0666509Y0486035D01*
X0666601Y0486139D01*
X0666697Y0486241D01*
X0666796Y0486341D01*
X0666897Y0486437D01*
X0667001Y0486531D01*
X0667108Y0486621D01*
X0667217Y0486708D01*
X0667329Y0486793D01*
X0667443Y0486874D01*
X0667559Y0486952D01*
X0667677Y0487026D01*
X0667798Y0487097D01*
X0667920Y0487165D01*
X0668045Y0487229D01*
X0668171Y0487290D01*
X0668298Y0487347D01*
X0668428Y0487400D01*
X0668559Y0487450D01*
X0668691Y0487495D01*
X0668824Y0487538D01*
X0668959Y0487576D01*
X0669094Y0487610D01*
X0669231Y0487641D01*
X0669368Y0487668D01*
X0669506Y0487690D01*
X0669645Y0487709D01*
X0669784Y0487724D01*
X0669923Y0487735D01*
X0670063Y0487742D01*
X0670203Y0487745D01*
X0670343Y0487744D01*
X0670483Y0487739D01*
X0670622Y0487730D01*
X0670762Y0487717D01*
X0670901Y0487700D01*
X0671039Y0487679D01*
X0671177Y0487655D01*
X0671314Y0487626D01*
X0671450Y0487594D01*
X0671585Y0487557D01*
X0671719Y0487517D01*
X0671852Y0487473D01*
X0671983Y0487425D01*
X0672113Y0487374D01*
X0672242Y0487319D01*
X0672369Y0487260D01*
X0672494Y0487197D01*
X0672617Y0487132D01*
X0672739Y0487062D01*
X0672858Y0486989D01*
X0672976Y0486913D01*
X0673091Y0486834D01*
X0673204Y0486751D01*
X0673314Y0486665D01*
X0673422Y0486576D01*
X0673527Y0486484D01*
X0673630Y0486389D01*
X0673730Y0486291D01*
X0673827Y0486191D01*
X0673921Y0486087D01*
X0674013Y0485981D01*
X0674101Y0485873D01*
X0674186Y0485762D01*
X0674268Y0485648D01*
X0674347Y0485532D01*
X0674422Y0485415D01*
X0674494Y0485295D01*
X0674562Y0485173D01*
X0674627Y0485049D01*
X0674689Y0484923D01*
X0674747Y0484796D01*
X0674801Y0484667D01*
X0674852Y0484536D01*
X0674898Y0484404D01*
X0674941Y0484271D01*
X0674981Y0484137D01*
X0675016Y0484002D01*
X0675048Y0483865D01*
X0675075Y0483728D01*
X0675099Y0483590D01*
X0675119Y0483452D01*
X0675135Y0483313D01*
X0675147Y0483173D01*
X0675155Y0483034D01*
X0675159Y0482894D01*
X0675159Y0482754D01*
X0675155Y0482614D01*
X0675147Y0482475D01*
X0675135Y0482335D01*
X0675119Y0482196D01*
X0675099Y0482058D01*
X0675075Y0481920D01*
X0675048Y0481783D01*
X0675016Y0481646D01*
X0674981Y0481511D01*
X0674941Y0481377D01*
X0674898Y0481244D01*
X0674852Y0481112D01*
X0674801Y0480981D01*
X0674747Y0480852D01*
X0674689Y0480725D01*
X0674627Y0480599D01*
X0674562Y0480475D01*
X0674494Y0480353D01*
X0674422Y0480233D01*
X0674347Y0480116D01*
X0674268Y0480000D01*
X0674186Y0479886D01*
X0674101Y0479775D01*
X0674013Y0479667D01*
X0673921Y0479561D01*
X0673827Y0479457D01*
X0673730Y0479357D01*
X0673630Y0479259D01*
X0673527Y0479164D01*
X0673422Y0479072D01*
X0673314Y0478983D01*
X0673204Y0478897D01*
X0673091Y0478814D01*
X0672976Y0478735D01*
X0672858Y0478659D01*
X0672739Y0478586D01*
X0672617Y0478516D01*
X0672494Y0478451D01*
X0672369Y0478388D01*
X0672242Y0478329D01*
X0672113Y0478274D01*
X0671983Y0478223D01*
X0671852Y0478175D01*
X0671719Y0478131D01*
X0671585Y0478091D01*
X0671450Y0478054D01*
X0671314Y0478022D01*
X0671177Y0477993D01*
X0671039Y0477969D01*
X0670901Y0477948D01*
X0670762Y0477931D01*
X0670622Y0477918D01*
X0670483Y0477909D01*
X0670343Y0477904D01*
X0670203Y0477903D01*
X0670063Y0477906D01*
X0669923Y0477913D01*
X0669784Y0477924D01*
X0669645Y0477939D01*
X0669506Y0477958D01*
X0669368Y0477980D01*
X0669231Y0478007D01*
X0669094Y0478038D01*
X0668959Y0478072D01*
X0668824Y0478110D01*
X0668691Y0478153D01*
X0668559Y0478198D01*
X0668428Y0478248D01*
X0668298Y0478301D01*
X0668171Y0478358D01*
X0668045Y0478419D01*
X0667920Y0478483D01*
X0667798Y0478551D01*
X0667677Y0478622D01*
X0667559Y0478696D01*
X0667443Y0478774D01*
X0667329Y0478855D01*
X0667217Y0478940D01*
X0667108Y0479027D01*
X0667001Y0479117D01*
X0666897Y0479211D01*
X0666796Y0479307D01*
X0666697Y0479407D01*
X0666601Y0479509D01*
X0666509Y0479613D01*
X0666419Y0479721D01*
X0666332Y0479831D01*
X0666249Y0479943D01*
X0666168Y0480057D01*
X0666091Y0480174D01*
X0666018Y0480293D01*
X0665947Y0480414D01*
X0665881Y0480537D01*
X0665817Y0480662D01*
X0665758Y0480788D01*
X0665702Y0480917D01*
X0665649Y0481046D01*
X0665601Y0481177D01*
X0665556Y0481310D01*
X0665515Y0481444D01*
X0665477Y0481579D01*
X0665444Y0481714D01*
X0665414Y0481851D01*
X0665388Y0481989D01*
X0665367Y0482127D01*
X0665349Y0482266D01*
X0665335Y0482405D01*
X0665325Y0482544D01*
X0665319Y0482684D01*
X0665317Y0482824D01*
X0665317Y0360776D02*
X0665319Y0360916D01*
X0665325Y0361056D01*
X0665335Y0361195D01*
X0665349Y0361334D01*
X0665367Y0361473D01*
X0665388Y0361611D01*
X0665414Y0361749D01*
X0665444Y0361886D01*
X0665477Y0362021D01*
X0665515Y0362156D01*
X0665556Y0362290D01*
X0665601Y0362423D01*
X0665649Y0362554D01*
X0665702Y0362683D01*
X0665758Y0362812D01*
X0665817Y0362938D01*
X0665881Y0363063D01*
X0665947Y0363186D01*
X0666018Y0363307D01*
X0666091Y0363426D01*
X0666168Y0363543D01*
X0666249Y0363657D01*
X0666332Y0363769D01*
X0666419Y0363879D01*
X0666509Y0363987D01*
X0666601Y0364091D01*
X0666697Y0364193D01*
X0666796Y0364293D01*
X0666897Y0364389D01*
X0667001Y0364483D01*
X0667108Y0364573D01*
X0667217Y0364660D01*
X0667329Y0364745D01*
X0667443Y0364826D01*
X0667559Y0364904D01*
X0667677Y0364978D01*
X0667798Y0365049D01*
X0667920Y0365117D01*
X0668045Y0365181D01*
X0668171Y0365242D01*
X0668298Y0365299D01*
X0668428Y0365352D01*
X0668559Y0365402D01*
X0668691Y0365447D01*
X0668824Y0365490D01*
X0668959Y0365528D01*
X0669094Y0365562D01*
X0669231Y0365593D01*
X0669368Y0365620D01*
X0669506Y0365642D01*
X0669645Y0365661D01*
X0669784Y0365676D01*
X0669923Y0365687D01*
X0670063Y0365694D01*
X0670203Y0365697D01*
X0670343Y0365696D01*
X0670483Y0365691D01*
X0670622Y0365682D01*
X0670762Y0365669D01*
X0670901Y0365652D01*
X0671039Y0365631D01*
X0671177Y0365607D01*
X0671314Y0365578D01*
X0671450Y0365546D01*
X0671585Y0365509D01*
X0671719Y0365469D01*
X0671852Y0365425D01*
X0671983Y0365377D01*
X0672113Y0365326D01*
X0672242Y0365271D01*
X0672369Y0365212D01*
X0672494Y0365149D01*
X0672617Y0365084D01*
X0672739Y0365014D01*
X0672858Y0364941D01*
X0672976Y0364865D01*
X0673091Y0364786D01*
X0673204Y0364703D01*
X0673314Y0364617D01*
X0673422Y0364528D01*
X0673527Y0364436D01*
X0673630Y0364341D01*
X0673730Y0364243D01*
X0673827Y0364143D01*
X0673921Y0364039D01*
X0674013Y0363933D01*
X0674101Y0363825D01*
X0674186Y0363714D01*
X0674268Y0363600D01*
X0674347Y0363484D01*
X0674422Y0363367D01*
X0674494Y0363247D01*
X0674562Y0363125D01*
X0674627Y0363001D01*
X0674689Y0362875D01*
X0674747Y0362748D01*
X0674801Y0362619D01*
X0674852Y0362488D01*
X0674898Y0362356D01*
X0674941Y0362223D01*
X0674981Y0362089D01*
X0675016Y0361954D01*
X0675048Y0361817D01*
X0675075Y0361680D01*
X0675099Y0361542D01*
X0675119Y0361404D01*
X0675135Y0361265D01*
X0675147Y0361125D01*
X0675155Y0360986D01*
X0675159Y0360846D01*
X0675159Y0360706D01*
X0675155Y0360566D01*
X0675147Y0360427D01*
X0675135Y0360287D01*
X0675119Y0360148D01*
X0675099Y0360010D01*
X0675075Y0359872D01*
X0675048Y0359735D01*
X0675016Y0359598D01*
X0674981Y0359463D01*
X0674941Y0359329D01*
X0674898Y0359196D01*
X0674852Y0359064D01*
X0674801Y0358933D01*
X0674747Y0358804D01*
X0674689Y0358677D01*
X0674627Y0358551D01*
X0674562Y0358427D01*
X0674494Y0358305D01*
X0674422Y0358185D01*
X0674347Y0358068D01*
X0674268Y0357952D01*
X0674186Y0357838D01*
X0674101Y0357727D01*
X0674013Y0357619D01*
X0673921Y0357513D01*
X0673827Y0357409D01*
X0673730Y0357309D01*
X0673630Y0357211D01*
X0673527Y0357116D01*
X0673422Y0357024D01*
X0673314Y0356935D01*
X0673204Y0356849D01*
X0673091Y0356766D01*
X0672976Y0356687D01*
X0672858Y0356611D01*
X0672739Y0356538D01*
X0672617Y0356468D01*
X0672494Y0356403D01*
X0672369Y0356340D01*
X0672242Y0356281D01*
X0672113Y0356226D01*
X0671983Y0356175D01*
X0671852Y0356127D01*
X0671719Y0356083D01*
X0671585Y0356043D01*
X0671450Y0356006D01*
X0671314Y0355974D01*
X0671177Y0355945D01*
X0671039Y0355921D01*
X0670901Y0355900D01*
X0670762Y0355883D01*
X0670622Y0355870D01*
X0670483Y0355861D01*
X0670343Y0355856D01*
X0670203Y0355855D01*
X0670063Y0355858D01*
X0669923Y0355865D01*
X0669784Y0355876D01*
X0669645Y0355891D01*
X0669506Y0355910D01*
X0669368Y0355932D01*
X0669231Y0355959D01*
X0669094Y0355990D01*
X0668959Y0356024D01*
X0668824Y0356062D01*
X0668691Y0356105D01*
X0668559Y0356150D01*
X0668428Y0356200D01*
X0668298Y0356253D01*
X0668171Y0356310D01*
X0668045Y0356371D01*
X0667920Y0356435D01*
X0667798Y0356503D01*
X0667677Y0356574D01*
X0667559Y0356648D01*
X0667443Y0356726D01*
X0667329Y0356807D01*
X0667217Y0356892D01*
X0667108Y0356979D01*
X0667001Y0357069D01*
X0666897Y0357163D01*
X0666796Y0357259D01*
X0666697Y0357359D01*
X0666601Y0357461D01*
X0666509Y0357565D01*
X0666419Y0357673D01*
X0666332Y0357783D01*
X0666249Y0357895D01*
X0666168Y0358009D01*
X0666091Y0358126D01*
X0666018Y0358245D01*
X0665947Y0358366D01*
X0665881Y0358489D01*
X0665817Y0358614D01*
X0665758Y0358740D01*
X0665702Y0358869D01*
X0665649Y0358998D01*
X0665601Y0359129D01*
X0665556Y0359262D01*
X0665515Y0359396D01*
X0665477Y0359531D01*
X0665444Y0359666D01*
X0665414Y0359803D01*
X0665388Y0359941D01*
X0665367Y0360079D01*
X0665349Y0360218D01*
X0665335Y0360357D01*
X0665325Y0360496D01*
X0665319Y0360636D01*
X0665317Y0360776D01*
X0370041Y0360776D02*
X0370043Y0360916D01*
X0370049Y0361056D01*
X0370059Y0361195D01*
X0370073Y0361334D01*
X0370091Y0361473D01*
X0370112Y0361611D01*
X0370138Y0361749D01*
X0370168Y0361886D01*
X0370201Y0362021D01*
X0370239Y0362156D01*
X0370280Y0362290D01*
X0370325Y0362423D01*
X0370373Y0362554D01*
X0370426Y0362683D01*
X0370482Y0362812D01*
X0370541Y0362938D01*
X0370605Y0363063D01*
X0370671Y0363186D01*
X0370742Y0363307D01*
X0370815Y0363426D01*
X0370892Y0363543D01*
X0370973Y0363657D01*
X0371056Y0363769D01*
X0371143Y0363879D01*
X0371233Y0363987D01*
X0371325Y0364091D01*
X0371421Y0364193D01*
X0371520Y0364293D01*
X0371621Y0364389D01*
X0371725Y0364483D01*
X0371832Y0364573D01*
X0371941Y0364660D01*
X0372053Y0364745D01*
X0372167Y0364826D01*
X0372283Y0364904D01*
X0372401Y0364978D01*
X0372522Y0365049D01*
X0372644Y0365117D01*
X0372769Y0365181D01*
X0372895Y0365242D01*
X0373022Y0365299D01*
X0373152Y0365352D01*
X0373283Y0365402D01*
X0373415Y0365447D01*
X0373548Y0365490D01*
X0373683Y0365528D01*
X0373818Y0365562D01*
X0373955Y0365593D01*
X0374092Y0365620D01*
X0374230Y0365642D01*
X0374369Y0365661D01*
X0374508Y0365676D01*
X0374647Y0365687D01*
X0374787Y0365694D01*
X0374927Y0365697D01*
X0375067Y0365696D01*
X0375207Y0365691D01*
X0375346Y0365682D01*
X0375486Y0365669D01*
X0375625Y0365652D01*
X0375763Y0365631D01*
X0375901Y0365607D01*
X0376038Y0365578D01*
X0376174Y0365546D01*
X0376309Y0365509D01*
X0376443Y0365469D01*
X0376576Y0365425D01*
X0376707Y0365377D01*
X0376837Y0365326D01*
X0376966Y0365271D01*
X0377093Y0365212D01*
X0377218Y0365149D01*
X0377341Y0365084D01*
X0377463Y0365014D01*
X0377582Y0364941D01*
X0377700Y0364865D01*
X0377815Y0364786D01*
X0377928Y0364703D01*
X0378038Y0364617D01*
X0378146Y0364528D01*
X0378251Y0364436D01*
X0378354Y0364341D01*
X0378454Y0364243D01*
X0378551Y0364143D01*
X0378645Y0364039D01*
X0378737Y0363933D01*
X0378825Y0363825D01*
X0378910Y0363714D01*
X0378992Y0363600D01*
X0379071Y0363484D01*
X0379146Y0363367D01*
X0379218Y0363247D01*
X0379286Y0363125D01*
X0379351Y0363001D01*
X0379413Y0362875D01*
X0379471Y0362748D01*
X0379525Y0362619D01*
X0379576Y0362488D01*
X0379622Y0362356D01*
X0379665Y0362223D01*
X0379705Y0362089D01*
X0379740Y0361954D01*
X0379772Y0361817D01*
X0379799Y0361680D01*
X0379823Y0361542D01*
X0379843Y0361404D01*
X0379859Y0361265D01*
X0379871Y0361125D01*
X0379879Y0360986D01*
X0379883Y0360846D01*
X0379883Y0360706D01*
X0379879Y0360566D01*
X0379871Y0360427D01*
X0379859Y0360287D01*
X0379843Y0360148D01*
X0379823Y0360010D01*
X0379799Y0359872D01*
X0379772Y0359735D01*
X0379740Y0359598D01*
X0379705Y0359463D01*
X0379665Y0359329D01*
X0379622Y0359196D01*
X0379576Y0359064D01*
X0379525Y0358933D01*
X0379471Y0358804D01*
X0379413Y0358677D01*
X0379351Y0358551D01*
X0379286Y0358427D01*
X0379218Y0358305D01*
X0379146Y0358185D01*
X0379071Y0358068D01*
X0378992Y0357952D01*
X0378910Y0357838D01*
X0378825Y0357727D01*
X0378737Y0357619D01*
X0378645Y0357513D01*
X0378551Y0357409D01*
X0378454Y0357309D01*
X0378354Y0357211D01*
X0378251Y0357116D01*
X0378146Y0357024D01*
X0378038Y0356935D01*
X0377928Y0356849D01*
X0377815Y0356766D01*
X0377700Y0356687D01*
X0377582Y0356611D01*
X0377463Y0356538D01*
X0377341Y0356468D01*
X0377218Y0356403D01*
X0377093Y0356340D01*
X0376966Y0356281D01*
X0376837Y0356226D01*
X0376707Y0356175D01*
X0376576Y0356127D01*
X0376443Y0356083D01*
X0376309Y0356043D01*
X0376174Y0356006D01*
X0376038Y0355974D01*
X0375901Y0355945D01*
X0375763Y0355921D01*
X0375625Y0355900D01*
X0375486Y0355883D01*
X0375346Y0355870D01*
X0375207Y0355861D01*
X0375067Y0355856D01*
X0374927Y0355855D01*
X0374787Y0355858D01*
X0374647Y0355865D01*
X0374508Y0355876D01*
X0374369Y0355891D01*
X0374230Y0355910D01*
X0374092Y0355932D01*
X0373955Y0355959D01*
X0373818Y0355990D01*
X0373683Y0356024D01*
X0373548Y0356062D01*
X0373415Y0356105D01*
X0373283Y0356150D01*
X0373152Y0356200D01*
X0373022Y0356253D01*
X0372895Y0356310D01*
X0372769Y0356371D01*
X0372644Y0356435D01*
X0372522Y0356503D01*
X0372401Y0356574D01*
X0372283Y0356648D01*
X0372167Y0356726D01*
X0372053Y0356807D01*
X0371941Y0356892D01*
X0371832Y0356979D01*
X0371725Y0357069D01*
X0371621Y0357163D01*
X0371520Y0357259D01*
X0371421Y0357359D01*
X0371325Y0357461D01*
X0371233Y0357565D01*
X0371143Y0357673D01*
X0371056Y0357783D01*
X0370973Y0357895D01*
X0370892Y0358009D01*
X0370815Y0358126D01*
X0370742Y0358245D01*
X0370671Y0358366D01*
X0370605Y0358489D01*
X0370541Y0358614D01*
X0370482Y0358740D01*
X0370426Y0358869D01*
X0370373Y0358998D01*
X0370325Y0359129D01*
X0370280Y0359262D01*
X0370239Y0359396D01*
X0370201Y0359531D01*
X0370168Y0359666D01*
X0370138Y0359803D01*
X0370112Y0359941D01*
X0370091Y0360079D01*
X0370073Y0360218D01*
X0370059Y0360357D01*
X0370049Y0360496D01*
X0370043Y0360636D01*
X0370041Y0360776D01*
X0370041Y0482824D02*
X0370043Y0482964D01*
X0370049Y0483104D01*
X0370059Y0483243D01*
X0370073Y0483382D01*
X0370091Y0483521D01*
X0370112Y0483659D01*
X0370138Y0483797D01*
X0370168Y0483934D01*
X0370201Y0484069D01*
X0370239Y0484204D01*
X0370280Y0484338D01*
X0370325Y0484471D01*
X0370373Y0484602D01*
X0370426Y0484731D01*
X0370482Y0484860D01*
X0370541Y0484986D01*
X0370605Y0485111D01*
X0370671Y0485234D01*
X0370742Y0485355D01*
X0370815Y0485474D01*
X0370892Y0485591D01*
X0370973Y0485705D01*
X0371056Y0485817D01*
X0371143Y0485927D01*
X0371233Y0486035D01*
X0371325Y0486139D01*
X0371421Y0486241D01*
X0371520Y0486341D01*
X0371621Y0486437D01*
X0371725Y0486531D01*
X0371832Y0486621D01*
X0371941Y0486708D01*
X0372053Y0486793D01*
X0372167Y0486874D01*
X0372283Y0486952D01*
X0372401Y0487026D01*
X0372522Y0487097D01*
X0372644Y0487165D01*
X0372769Y0487229D01*
X0372895Y0487290D01*
X0373022Y0487347D01*
X0373152Y0487400D01*
X0373283Y0487450D01*
X0373415Y0487495D01*
X0373548Y0487538D01*
X0373683Y0487576D01*
X0373818Y0487610D01*
X0373955Y0487641D01*
X0374092Y0487668D01*
X0374230Y0487690D01*
X0374369Y0487709D01*
X0374508Y0487724D01*
X0374647Y0487735D01*
X0374787Y0487742D01*
X0374927Y0487745D01*
X0375067Y0487744D01*
X0375207Y0487739D01*
X0375346Y0487730D01*
X0375486Y0487717D01*
X0375625Y0487700D01*
X0375763Y0487679D01*
X0375901Y0487655D01*
X0376038Y0487626D01*
X0376174Y0487594D01*
X0376309Y0487557D01*
X0376443Y0487517D01*
X0376576Y0487473D01*
X0376707Y0487425D01*
X0376837Y0487374D01*
X0376966Y0487319D01*
X0377093Y0487260D01*
X0377218Y0487197D01*
X0377341Y0487132D01*
X0377463Y0487062D01*
X0377582Y0486989D01*
X0377700Y0486913D01*
X0377815Y0486834D01*
X0377928Y0486751D01*
X0378038Y0486665D01*
X0378146Y0486576D01*
X0378251Y0486484D01*
X0378354Y0486389D01*
X0378454Y0486291D01*
X0378551Y0486191D01*
X0378645Y0486087D01*
X0378737Y0485981D01*
X0378825Y0485873D01*
X0378910Y0485762D01*
X0378992Y0485648D01*
X0379071Y0485532D01*
X0379146Y0485415D01*
X0379218Y0485295D01*
X0379286Y0485173D01*
X0379351Y0485049D01*
X0379413Y0484923D01*
X0379471Y0484796D01*
X0379525Y0484667D01*
X0379576Y0484536D01*
X0379622Y0484404D01*
X0379665Y0484271D01*
X0379705Y0484137D01*
X0379740Y0484002D01*
X0379772Y0483865D01*
X0379799Y0483728D01*
X0379823Y0483590D01*
X0379843Y0483452D01*
X0379859Y0483313D01*
X0379871Y0483173D01*
X0379879Y0483034D01*
X0379883Y0482894D01*
X0379883Y0482754D01*
X0379879Y0482614D01*
X0379871Y0482475D01*
X0379859Y0482335D01*
X0379843Y0482196D01*
X0379823Y0482058D01*
X0379799Y0481920D01*
X0379772Y0481783D01*
X0379740Y0481646D01*
X0379705Y0481511D01*
X0379665Y0481377D01*
X0379622Y0481244D01*
X0379576Y0481112D01*
X0379525Y0480981D01*
X0379471Y0480852D01*
X0379413Y0480725D01*
X0379351Y0480599D01*
X0379286Y0480475D01*
X0379218Y0480353D01*
X0379146Y0480233D01*
X0379071Y0480116D01*
X0378992Y0480000D01*
X0378910Y0479886D01*
X0378825Y0479775D01*
X0378737Y0479667D01*
X0378645Y0479561D01*
X0378551Y0479457D01*
X0378454Y0479357D01*
X0378354Y0479259D01*
X0378251Y0479164D01*
X0378146Y0479072D01*
X0378038Y0478983D01*
X0377928Y0478897D01*
X0377815Y0478814D01*
X0377700Y0478735D01*
X0377582Y0478659D01*
X0377463Y0478586D01*
X0377341Y0478516D01*
X0377218Y0478451D01*
X0377093Y0478388D01*
X0376966Y0478329D01*
X0376837Y0478274D01*
X0376707Y0478223D01*
X0376576Y0478175D01*
X0376443Y0478131D01*
X0376309Y0478091D01*
X0376174Y0478054D01*
X0376038Y0478022D01*
X0375901Y0477993D01*
X0375763Y0477969D01*
X0375625Y0477948D01*
X0375486Y0477931D01*
X0375346Y0477918D01*
X0375207Y0477909D01*
X0375067Y0477904D01*
X0374927Y0477903D01*
X0374787Y0477906D01*
X0374647Y0477913D01*
X0374508Y0477924D01*
X0374369Y0477939D01*
X0374230Y0477958D01*
X0374092Y0477980D01*
X0373955Y0478007D01*
X0373818Y0478038D01*
X0373683Y0478072D01*
X0373548Y0478110D01*
X0373415Y0478153D01*
X0373283Y0478198D01*
X0373152Y0478248D01*
X0373022Y0478301D01*
X0372895Y0478358D01*
X0372769Y0478419D01*
X0372644Y0478483D01*
X0372522Y0478551D01*
X0372401Y0478622D01*
X0372283Y0478696D01*
X0372167Y0478774D01*
X0372053Y0478855D01*
X0371941Y0478940D01*
X0371832Y0479027D01*
X0371725Y0479117D01*
X0371621Y0479211D01*
X0371520Y0479307D01*
X0371421Y0479407D01*
X0371325Y0479509D01*
X0371233Y0479613D01*
X0371143Y0479721D01*
X0371056Y0479831D01*
X0370973Y0479943D01*
X0370892Y0480057D01*
X0370815Y0480174D01*
X0370742Y0480293D01*
X0370671Y0480414D01*
X0370605Y0480537D01*
X0370541Y0480662D01*
X0370482Y0480788D01*
X0370426Y0480917D01*
X0370373Y0481046D01*
X0370325Y0481177D01*
X0370280Y0481310D01*
X0370239Y0481444D01*
X0370201Y0481579D01*
X0370168Y0481714D01*
X0370138Y0481851D01*
X0370112Y0481989D01*
X0370091Y0482127D01*
X0370073Y0482266D01*
X0370059Y0482405D01*
X0370049Y0482544D01*
X0370043Y0482684D01*
X0370041Y0482824D01*
D18*
X0371100Y0328700D02*
X0374700Y0328700D01*
X0374700Y0310900D02*
X0371100Y0310900D01*
X0349100Y0310900D02*
X0345500Y0310900D01*
X0345500Y0328700D02*
X0349100Y0328700D01*
X0173100Y0149100D02*
X0173100Y0145500D01*
X0163100Y0145500D02*
X0163100Y0149100D01*
X0153100Y0149100D02*
X0153100Y0145500D01*
X0143100Y0145500D02*
X0143100Y0149100D01*
X0133100Y0149100D02*
X0133100Y0145500D01*
X0123100Y0145500D02*
X0123100Y0149100D01*
X0113100Y0149100D02*
X0113100Y0145500D01*
X0103100Y0145500D02*
X0103100Y0149100D01*
X0093100Y0149100D02*
X0093100Y0145500D01*
X0083100Y0145500D02*
X0083100Y0149100D01*
X0073100Y0149100D02*
X0073100Y0145500D01*
X0063100Y0145500D02*
X0063100Y0149100D01*
X0033400Y0192800D02*
X0029800Y0192800D01*
X0029800Y0202800D02*
X0033400Y0202800D01*
X0033400Y0212800D02*
X0029800Y0212800D01*
X0029800Y0222800D02*
X0033400Y0222800D01*
X0033400Y0232800D02*
X0029800Y0232800D01*
X0055800Y0258300D02*
X0059400Y0258300D01*
X0059400Y0268300D02*
X0055800Y0268300D01*
X0055800Y0278300D02*
X0059400Y0278300D01*
X0059400Y0288300D02*
X0055800Y0288300D01*
X0083300Y0372300D02*
X0086900Y0372300D01*
X0086900Y0382300D02*
X0083300Y0382300D01*
X0083300Y0392300D02*
X0086900Y0392300D01*
X0086900Y0402300D02*
X0083300Y0402300D01*
X0083300Y0426800D02*
X0086900Y0426800D01*
X0086900Y0436800D02*
X0083300Y0436800D01*
X0083300Y0446800D02*
X0086900Y0446800D01*
X0239800Y0099800D02*
X0243400Y0099800D01*
X0243400Y0089800D02*
X0239800Y0089800D01*
X0239300Y0018300D02*
X0242900Y0018300D01*
X0242900Y0008300D02*
X0239300Y0008300D01*
X0401800Y0088800D02*
X0405400Y0088800D01*
X0405400Y0098800D02*
X0401800Y0098800D01*
X0436600Y0098000D02*
X0436600Y0101600D01*
X0446600Y0101600D02*
X0446600Y0098000D01*
X0456600Y0098000D02*
X0456600Y0101600D01*
X0466600Y0101600D02*
X0466600Y0098000D01*
X0476600Y0098000D02*
X0476600Y0101600D01*
X0486600Y0101600D02*
X0486600Y0098000D01*
X0496600Y0098000D02*
X0496600Y0101600D01*
X0506600Y0101600D02*
X0506600Y0098000D01*
X0516600Y0098000D02*
X0516600Y0101600D01*
X0526600Y0101600D02*
X0526600Y0098000D01*
D19*
X0403100Y0019300D03*
X0036100Y0319800D03*
X0036100Y0329800D03*
X0036100Y0339800D03*
X0036100Y0349800D03*
X0036100Y0359800D03*
X0026100Y0359800D03*
X0026100Y0349800D03*
X0026100Y0339800D03*
X0026100Y0329800D03*
X0026100Y0319800D03*
D20*
X0011600Y0288800D03*
X0045100Y0288300D03*
X0074100Y0280300D03*
X0074100Y0267800D03*
X0109100Y0275300D03*
X0117100Y0333800D03*
X0114600Y0340800D03*
X0129600Y0346300D03*
X0131100Y0356800D03*
X0099600Y0381800D03*
X0123100Y0418800D03*
X0123100Y0458300D03*
X0303100Y0368300D03*
X0319100Y0367800D03*
X0386600Y0390800D03*
X0347600Y0455300D03*
X0321600Y0442800D03*
X0349600Y0495300D03*
X0386600Y0493800D03*
X0437100Y0488300D03*
X0438600Y0498300D03*
X0368600Y0229800D03*
X0359100Y0223300D03*
X0350100Y0213800D03*
X0151100Y0206300D03*
X0061100Y0188300D03*
X0043600Y0189800D03*
X0020100Y0213800D03*
X0020100Y0223300D03*
X0019600Y0232300D03*
D21*
X0002600Y0124800D02*
X0013100Y0114300D01*
X0337600Y0114300D01*
X0368600Y0145300D01*
X0368600Y0229800D01*
X0359100Y0223300D02*
X0359100Y0145300D01*
X0333600Y0119800D01*
X0019100Y0119800D01*
X0009100Y0129800D01*
X0009100Y0215300D01*
X0017100Y0223300D01*
X0020100Y0223300D01*
X0019100Y0231800D02*
X0012100Y0231800D01*
X0002600Y0222300D01*
X0002600Y0124800D01*
X0016100Y0134800D02*
X0016100Y0207300D01*
X0021100Y0212300D01*
X0018600Y0212300D01*
X0020100Y0213800D01*
X0019100Y0231800D02*
X0019600Y0232300D01*
X0043600Y0189800D02*
X0059600Y0189800D01*
X0061100Y0188300D01*
X0108100Y0187300D02*
X0134100Y0161300D01*
X0277600Y0161300D01*
X0282600Y0166300D01*
X0282600Y0176300D01*
X0282100Y0176800D01*
X0327100Y0196800D02*
X0332100Y0191800D01*
X0332100Y0186800D01*
X0327100Y0196800D02*
X0166100Y0196800D01*
X0158100Y0204800D01*
X0158100Y0278800D01*
X0155100Y0281800D01*
X0148600Y0275300D01*
X0109100Y0275300D01*
X0094100Y0279800D02*
X0108600Y0294300D01*
X0108600Y0452800D01*
X0140600Y0484800D01*
X0264600Y0484800D01*
X0274600Y0474800D01*
X0275100Y0474800D01*
X0302100Y0447800D01*
X0302600Y0447800D01*
X0307600Y0442800D01*
X0321600Y0442800D01*
X0347600Y0455300D02*
X0349600Y0460800D01*
X0349600Y0495300D01*
X0386600Y0493800D02*
X0386100Y0391300D01*
X0386600Y0390800D01*
X0319100Y0367800D02*
X0318600Y0368300D01*
X0303100Y0368300D01*
X0437100Y0488300D02*
X0438600Y0489800D01*
X0438600Y0498300D01*
X0350100Y0213800D02*
X0350100Y0147300D01*
X0328600Y0125800D01*
X0025100Y0125800D01*
X0016100Y0134800D01*
X0108100Y0187300D02*
X0108100Y0254300D01*
X0094600Y0267800D01*
X0074100Y0267800D01*
X0074600Y0279800D02*
X0074100Y0280300D01*
X0074600Y0279800D02*
X0094100Y0279800D01*
X0088100Y0324800D02*
X0084100Y0324800D01*
X0088100Y0324800D02*
X0094100Y0330800D01*
X0094100Y0376300D01*
X0099600Y0381800D01*
X0126600Y0352800D02*
X0131100Y0356800D01*
X0126600Y0352800D02*
X0114600Y0340800D01*
X0117100Y0333800D02*
X0129600Y0346300D01*
X0155100Y0393800D02*
X0155100Y0281800D01*
X0151100Y0206300D02*
X0151100Y0196300D01*
X0162100Y0186800D01*
X0045100Y0288300D02*
X0044600Y0288800D01*
X0011600Y0288800D01*
X0011600Y0325300D01*
X0026100Y0339800D01*
X0123100Y0418800D02*
X0123100Y0458300D01*
X0142100Y0406800D02*
X0155100Y0393800D01*
M02*
