G75*
%MOIN*%
%OFA0B0*%
%FSLAX24Y24*%
%IPPOS*%
%LPD*%
%AMOC8*
5,1,8,0,0,1.08239X$1,22.5*
%
%ADD10C,0.0560*%
%ADD11OC8,0.0660*%
%ADD12C,0.0709*%
%ADD13OC8,0.0520*%
%ADD14C,0.0520*%
%ADD15C,0.0660*%
%ADD16C,0.0600*%
%ADD17OC8,0.0600*%
%ADD18C,0.0320*%
%ADD19R,0.0436X0.0436*%
%ADD20C,0.0160*%
%ADD21C,0.0240*%
D10*
X013042Y019680D02*
X013378Y019680D01*
X013378Y020680D02*
X013042Y020680D01*
X013042Y021680D02*
X013378Y021680D01*
X013378Y022680D02*
X013042Y022680D01*
X013042Y023680D02*
X013378Y023680D01*
X013378Y024680D02*
X013042Y024680D01*
X013042Y025680D02*
X013378Y025680D01*
X013378Y026680D02*
X013042Y026680D01*
X013042Y028680D02*
X013378Y028680D01*
X013378Y029680D02*
X013042Y029680D01*
X013042Y030680D02*
X013378Y030680D01*
X013378Y031680D02*
X013042Y031680D01*
X013042Y032680D02*
X013378Y032680D01*
X013378Y033680D02*
X013042Y033680D01*
X013042Y034680D02*
X013378Y034680D01*
X013378Y035680D02*
X013042Y035680D01*
X013042Y037680D02*
X013378Y037680D01*
X013378Y038680D02*
X013042Y038680D01*
X013042Y039680D02*
X013378Y039680D01*
X013378Y040680D02*
X013042Y040680D01*
X013042Y041680D02*
X013378Y041680D01*
X013378Y042680D02*
X013042Y042680D01*
X013042Y043680D02*
X013378Y043680D01*
X013378Y044680D02*
X013042Y044680D01*
X032042Y044280D02*
X032378Y044280D01*
X032378Y043280D02*
X032042Y043280D01*
X032042Y042280D02*
X032378Y042280D01*
X032378Y041280D02*
X032042Y041280D01*
X032042Y040280D02*
X032378Y040280D01*
X032378Y039280D02*
X032042Y039280D01*
X032042Y037680D02*
X032378Y037680D01*
X032378Y036680D02*
X032042Y036680D01*
X032042Y035680D02*
X032378Y035680D01*
X032378Y034680D02*
X032042Y034680D01*
X032042Y033680D02*
X032378Y033680D01*
X032378Y032680D02*
X032042Y032680D01*
X032042Y031680D02*
X032378Y031680D01*
X032378Y030680D02*
X032042Y030680D01*
X032042Y028680D02*
X032378Y028680D01*
X032378Y027680D02*
X032042Y027680D01*
X032042Y026680D02*
X032378Y026680D01*
X032378Y025680D02*
X032042Y025680D01*
X032042Y024680D02*
X032378Y024680D01*
X032378Y023680D02*
X032042Y023680D01*
X032042Y022680D02*
X032378Y022680D01*
X032378Y021680D02*
X032042Y021680D01*
X032042Y045280D02*
X032378Y045280D01*
X032378Y046280D02*
X032042Y046280D01*
X032042Y047280D02*
X032378Y047280D01*
X032378Y048280D02*
X032042Y048280D01*
D11*
X032210Y018680D03*
X031210Y018680D03*
X030210Y018680D03*
X030210Y017680D03*
X031210Y017680D03*
X032210Y017680D03*
X029210Y017680D03*
X028210Y017680D03*
X028210Y018680D03*
X029210Y018680D03*
X027210Y018680D03*
X026210Y018680D03*
X026210Y017680D03*
X027210Y017680D03*
X025210Y017680D03*
X024210Y017680D03*
X024210Y018680D03*
X025210Y018680D03*
X023210Y018680D03*
X022210Y018680D03*
X022210Y017680D03*
X023210Y017680D03*
X021210Y017680D03*
X020210Y017680D03*
X020210Y018680D03*
X021210Y018680D03*
X019210Y018680D03*
X018210Y018680D03*
X018210Y017680D03*
X019210Y017680D03*
X017210Y017680D03*
X016210Y017680D03*
X016210Y018680D03*
X017210Y018680D03*
X015210Y018680D03*
X015210Y017680D03*
D12*
X026991Y051108D02*
X026991Y051534D01*
X028960Y051534D02*
X028960Y051108D01*
X030929Y051108D02*
X030929Y051534D01*
D13*
X035260Y032330D03*
X035260Y029330D03*
X047510Y008480D03*
X048560Y008480D03*
X049560Y008480D03*
X050660Y008480D03*
X050660Y005480D03*
X049560Y005480D03*
X048560Y005480D03*
X047510Y005480D03*
D14*
X035466Y034030D02*
X035154Y034030D01*
X035154Y035030D02*
X035466Y035030D01*
X009816Y030880D02*
X009504Y030880D01*
X009504Y029880D02*
X009816Y029880D01*
X009816Y028880D02*
X009504Y028880D01*
D15*
X038662Y048282D03*
X039662Y048282D03*
X040662Y048282D03*
X041662Y048282D03*
X042662Y048282D03*
X043662Y048282D03*
X044662Y048282D03*
X045662Y048282D03*
X046662Y048282D03*
X047662Y048282D03*
X048662Y048282D03*
X049662Y048282D03*
X050662Y048282D03*
X051662Y048282D03*
X052662Y048282D03*
X053662Y048282D03*
D16*
X051660Y010160D02*
X051660Y009800D01*
X050660Y009800D02*
X050660Y010160D01*
X049660Y010160D02*
X049660Y009800D01*
X048660Y009800D02*
X048660Y010160D01*
X047660Y010160D02*
X047660Y009800D01*
X046660Y009800D02*
X046660Y010160D01*
X045660Y010160D02*
X045660Y009800D01*
X044660Y009800D02*
X044660Y010160D01*
X043660Y010160D02*
X043660Y009800D01*
X042660Y009800D02*
X042660Y010160D01*
X039540Y009880D02*
X039180Y009880D01*
X039180Y008880D02*
X039540Y008880D01*
X023340Y008980D02*
X022980Y008980D01*
X022980Y009980D02*
X023340Y009980D01*
X016310Y014550D02*
X016310Y014910D01*
X015310Y014910D02*
X015310Y014550D01*
X014310Y014550D02*
X014310Y014910D01*
X013310Y014910D02*
X013310Y014550D01*
X012310Y014550D02*
X012310Y014910D01*
X011310Y014910D02*
X011310Y014550D01*
X010310Y014550D02*
X010310Y014910D01*
X009310Y014910D02*
X009310Y014550D01*
X008310Y014550D02*
X008310Y014910D01*
X007310Y014910D02*
X007310Y014550D01*
X006310Y014550D02*
X006310Y014910D01*
X005310Y014910D02*
X005310Y014550D01*
X002190Y016380D02*
X001830Y016380D01*
X001830Y017380D02*
X002190Y017380D01*
X002190Y018380D02*
X001830Y018380D01*
X001830Y019380D02*
X002190Y019380D01*
X002190Y020380D02*
X001830Y020380D01*
X003530Y025980D02*
X003890Y025980D01*
X003890Y026980D02*
X003530Y026980D01*
X003530Y027980D02*
X003890Y027980D01*
X003890Y028980D02*
X003530Y028980D01*
X009780Y036330D02*
X010140Y036330D01*
X010140Y037330D02*
X009780Y037330D01*
X009780Y038330D02*
X010140Y038330D01*
X010140Y039330D02*
X009780Y039330D01*
X007690Y042680D02*
X007330Y042680D01*
X007330Y043680D02*
X007690Y043680D01*
X007690Y044680D02*
X007330Y044680D01*
X022930Y001830D02*
X023290Y001830D01*
X023290Y000830D02*
X022930Y000830D01*
D17*
X039310Y001930D03*
X002610Y031980D03*
X002610Y032980D03*
X001610Y032980D03*
X001610Y031980D03*
X001610Y033980D03*
X001610Y034980D03*
X002610Y034980D03*
X002610Y033980D03*
X002610Y035980D03*
X001610Y035980D03*
D18*
X004910Y010980D02*
X018460Y010980D01*
X018410Y012680D02*
X018360Y012730D01*
X004760Y012730D01*
X003560Y013930D01*
X003560Y019830D01*
X003010Y020380D01*
X002010Y020380D01*
X002010Y019380D02*
X003010Y019380D01*
X002960Y018380D02*
X002010Y018380D01*
X002010Y017380D02*
X001610Y017380D01*
X001010Y017980D01*
X001010Y021080D01*
X001260Y021330D01*
X004510Y021330D01*
X004460Y021280D01*
X004460Y014030D01*
X004760Y013730D01*
X009710Y013730D01*
X010260Y014280D01*
X010260Y014780D01*
X010310Y014730D01*
X010260Y014780D02*
X010260Y015280D01*
X010710Y015730D01*
X014660Y015730D01*
X015310Y015080D01*
X015310Y014730D01*
X015310Y017580D01*
X015210Y017680D01*
X015210Y018680D01*
X014810Y019480D02*
X030210Y019480D01*
X031010Y020280D01*
X031010Y024880D01*
X031560Y025430D01*
X032160Y025630D01*
X032210Y025680D01*
X031960Y026630D02*
X032160Y026730D01*
X032210Y026680D01*
X031960Y026630D02*
X030660Y025330D01*
X030460Y025330D01*
X030460Y020630D01*
X029810Y019980D01*
X014610Y019980D01*
X013410Y018780D01*
X012410Y018780D01*
X010860Y017230D01*
X007960Y017230D01*
X007310Y016580D01*
X007310Y014730D01*
X008310Y014730D02*
X008310Y016280D01*
X008660Y016630D01*
X011160Y016630D01*
X012710Y018180D01*
X013510Y018180D01*
X014810Y019480D01*
X016210Y017680D02*
X016160Y017630D01*
X016160Y016480D01*
X016460Y016180D01*
X016510Y016180D01*
X021710Y010980D01*
X043560Y010980D01*
X043560Y010080D01*
X043660Y009980D01*
X044660Y009980D02*
X044660Y011280D01*
X044560Y011380D01*
X044560Y011430D01*
X044260Y011730D01*
X022060Y011730D01*
X017260Y016530D01*
X017260Y017630D01*
X017210Y017680D01*
X018160Y017630D02*
X018160Y016680D01*
X022410Y012430D01*
X044960Y012430D01*
X045710Y011680D01*
X045710Y010030D01*
X045660Y009980D01*
X046660Y009980D02*
X046660Y012280D01*
X046560Y012380D01*
X046560Y012430D01*
X045760Y013230D01*
X022610Y013230D01*
X019310Y016530D01*
X019310Y017580D01*
X019210Y017680D01*
X018210Y017680D02*
X018160Y017630D01*
X020210Y017630D02*
X020210Y016630D01*
X022810Y014030D01*
X046210Y014030D01*
X047510Y012730D01*
X047510Y012680D01*
X047610Y012580D01*
X047610Y010030D01*
X047660Y009980D01*
X047660Y008630D01*
X047510Y008480D01*
X048560Y008480D02*
X048660Y008580D01*
X048660Y009980D01*
X048660Y013280D01*
X048560Y013380D01*
X048560Y013430D01*
X047060Y014930D01*
X023010Y014930D01*
X021260Y016680D01*
X021260Y017630D01*
X021210Y017680D01*
X020410Y017830D02*
X020360Y017830D01*
X020210Y017680D01*
X020210Y017630D02*
X020410Y017830D01*
X022160Y017630D02*
X022160Y016930D01*
X023310Y015780D01*
X047710Y015780D01*
X049560Y013930D01*
X049560Y013730D01*
X049760Y013530D01*
X049760Y010080D01*
X049660Y009980D01*
X049660Y008580D01*
X049560Y008480D01*
X050660Y008480D02*
X050660Y009980D01*
X050660Y014030D01*
X050610Y014080D01*
X050560Y014080D01*
X048010Y016630D01*
X023710Y016630D01*
X023310Y017030D01*
X023310Y017580D01*
X023210Y017680D01*
X022210Y017680D02*
X022160Y017630D01*
X032210Y017680D02*
X037310Y017680D01*
X037110Y017880D01*
X037110Y018730D01*
X037310Y017680D02*
X048110Y017680D01*
X052260Y013530D01*
X052260Y006730D01*
X050710Y005180D01*
X050710Y005430D01*
X050660Y005480D01*
X034360Y022580D02*
X032310Y022580D01*
X032210Y022680D01*
X032210Y021680D02*
X033410Y021680D01*
X032210Y023680D02*
X035410Y023680D01*
X036360Y024580D02*
X033810Y024580D01*
X037660Y023580D02*
X033010Y018930D01*
X032460Y018930D01*
X032210Y018680D01*
X032210Y017680D01*
X037660Y023580D02*
X037660Y039080D01*
X036160Y039780D02*
X034060Y037680D01*
X032210Y037680D01*
X032210Y036680D02*
X031260Y036680D01*
X030810Y037130D01*
X030810Y042480D01*
X026560Y046730D01*
X013410Y046730D01*
X012260Y045580D01*
X012260Y043680D01*
X011310Y042730D01*
X010460Y042730D01*
X009510Y043680D01*
X007510Y043680D01*
X007510Y042680D02*
X007560Y042630D01*
X007560Y039930D01*
X008160Y039330D01*
X009960Y039330D01*
X009960Y039380D01*
X011210Y040630D01*
X013160Y040630D01*
X013210Y040680D01*
X013210Y041680D02*
X011510Y041680D01*
X011310Y041880D01*
X011710Y038730D02*
X013360Y038730D01*
X013410Y038680D01*
X014010Y038680D01*
X014610Y039280D01*
X014610Y046030D01*
X015910Y047480D02*
X025810Y047480D01*
X027435Y049105D01*
X031260Y045280D01*
X032210Y045280D01*
X033960Y045280D01*
X032210Y044280D02*
X032110Y044380D01*
X030860Y044380D01*
X032210Y043280D02*
X032560Y043280D01*
X032710Y043430D01*
X039960Y043430D01*
X041662Y045132D01*
X041662Y048282D01*
X042660Y048281D02*
X042662Y048282D01*
X042662Y046932D01*
X042260Y046530D01*
X040662Y045282D02*
X039760Y044380D01*
X037110Y044380D01*
X036110Y045380D01*
X036110Y047480D01*
X035210Y048380D01*
X033810Y048380D01*
X032160Y050030D01*
X030060Y050030D01*
X029060Y051030D01*
X029060Y051221D01*
X028960Y051321D01*
X026991Y051321D02*
X026991Y049549D01*
X027435Y049105D01*
X030929Y051261D02*
X030960Y051230D01*
X032810Y051230D01*
X033210Y050830D01*
X033960Y049530D02*
X034710Y050930D01*
X052460Y050930D01*
X053662Y049278D01*
X053662Y048282D01*
X052662Y048282D02*
X052662Y049028D01*
X052360Y049330D01*
X040310Y049330D01*
X039760Y048780D01*
X039760Y048381D01*
X039662Y048282D01*
X039662Y049878D01*
X039210Y050330D01*
X036810Y050330D01*
X036310Y049830D01*
X036060Y050080D01*
X035410Y050080D01*
X036210Y049730D02*
X036210Y048480D01*
X036310Y048380D01*
X037610Y048380D01*
X038662Y048282D02*
X038810Y048134D01*
X038810Y046980D01*
X039662Y048232D02*
X039662Y048282D01*
X040662Y048282D02*
X040662Y045282D01*
X042110Y042780D02*
X032710Y042780D01*
X032210Y042280D01*
X032210Y041280D02*
X032660Y041280D01*
X033560Y042180D01*
X046210Y042180D01*
X048660Y044630D01*
X048660Y048281D01*
X048662Y048282D01*
X049662Y048282D02*
X049710Y048234D01*
X049710Y044180D01*
X047010Y041480D01*
X033810Y041480D01*
X032610Y040280D01*
X032210Y040280D01*
X032210Y039280D02*
X032860Y039280D01*
X034160Y040580D01*
X047560Y040580D01*
X050660Y043680D01*
X050660Y048281D01*
X050662Y048282D01*
X051662Y048282D02*
X051662Y043482D01*
X047960Y039780D01*
X036160Y039780D01*
X033210Y035630D02*
X032260Y035630D01*
X032210Y035680D01*
X033210Y035630D02*
X033860Y034980D01*
X035260Y034980D01*
X035310Y035030D01*
X035310Y034030D02*
X035310Y032380D01*
X035260Y032330D01*
X034010Y031830D02*
X035260Y030580D01*
X035260Y029330D01*
X042110Y042780D02*
X043662Y044332D01*
X043662Y048282D01*
X036310Y049830D02*
X036210Y049730D01*
X030929Y051261D02*
X030929Y051321D01*
X013410Y038680D02*
X013210Y038680D01*
X011710Y038730D02*
X011310Y038330D01*
X009960Y038330D01*
X009910Y038280D01*
X007560Y038280D01*
X007560Y036230D01*
X005960Y036130D02*
X005960Y038530D01*
X005310Y039630D01*
X005310Y044830D01*
X005910Y046080D01*
X006410Y044680D02*
X006410Y040230D01*
X007560Y038280D01*
X010710Y034430D02*
X011960Y035680D01*
X013210Y035680D01*
X013210Y034680D02*
X013010Y034480D01*
X012110Y034480D01*
X012110Y034430D01*
X011160Y033480D01*
X002110Y033480D01*
X001610Y032980D01*
X001610Y031980D02*
X001610Y031080D01*
X003710Y028980D01*
X003710Y027980D02*
X002610Y027980D01*
X001710Y027080D01*
X000260Y026930D02*
X000260Y028980D01*
X000360Y029080D01*
X001710Y029080D01*
X000260Y028980D02*
X000260Y033330D01*
X000960Y034030D01*
X001560Y034030D01*
X001610Y033980D01*
X002360Y034430D02*
X001810Y034980D01*
X001610Y034980D01*
X002360Y034430D02*
X010710Y034430D01*
X013160Y034630D02*
X013210Y034680D01*
X009660Y030880D02*
X008910Y030880D01*
X007560Y032230D01*
X006060Y032830D02*
X006060Y028480D01*
X004560Y026980D01*
X003710Y026980D01*
X003710Y025980D02*
X002549Y024819D01*
X002348Y024819D01*
X000260Y026930D01*
X002348Y024819D02*
X004810Y022330D01*
X004843Y021187D01*
X004699Y021330D01*
X004510Y021330D01*
X002960Y018380D02*
X002910Y018230D01*
X002010Y016380D02*
X002010Y013880D01*
X004910Y010980D01*
X005310Y014730D02*
X005310Y015980D01*
X007460Y018130D01*
X007460Y027380D01*
X007410Y027430D01*
X008560Y027430D01*
X009660Y028530D01*
X009660Y028880D01*
X009660Y029880D02*
X010260Y029880D01*
X011510Y028630D01*
X013160Y028630D01*
X013210Y028680D01*
X009910Y027530D02*
X009810Y027430D01*
X008560Y027430D01*
X001610Y035980D02*
X003610Y041380D01*
X003610Y047280D01*
X010510Y047280D01*
X011310Y046480D01*
X011310Y045830D01*
X007510Y044680D02*
X006410Y044680D01*
D19*
X005910Y046080D03*
X011310Y045830D03*
X014610Y046030D03*
X015910Y047480D03*
X011310Y041880D03*
X007560Y036230D03*
X005960Y036130D03*
X006060Y032830D03*
X007560Y032230D03*
X009910Y027530D03*
X003010Y019380D03*
X002910Y018230D03*
X001710Y027080D03*
X001710Y029080D03*
X018410Y012680D03*
X018460Y010980D03*
X033410Y021680D03*
X034360Y022580D03*
X035410Y023680D03*
X036360Y024580D03*
X033810Y024580D03*
X037110Y018730D03*
X034010Y031830D03*
X037660Y039080D03*
X033960Y045280D03*
X030860Y044380D03*
X033960Y049530D03*
X033210Y050830D03*
X035410Y050080D03*
X037610Y048380D03*
X038810Y046980D03*
X042260Y046530D03*
D20*
X047510Y005480D02*
X048560Y005480D01*
X049560Y005480D01*
X050660Y005480D01*
D21*
X013260Y034630D02*
X013210Y034680D01*
M02*
