G75*
%MOIN*%
%OFA0B0*%
%FSLAX24Y24*%
%IPPOS*%
%LPD*%
%AMOC8*
5,1,8,0,0,1.08239X$1,22.5*
%
%ADD10C,0.0560*%
%ADD11OC8,0.0660*%
%ADD12C,0.0709*%
%ADD13OC8,0.0520*%
%ADD14C,0.0520*%
%ADD15C,0.0660*%
%ADD16C,0.0600*%
%ADD17OC8,0.0600*%
%ADD18R,0.0436X0.0436*%
D10*
X013042Y019680D02*
X013378Y019680D01*
X013378Y020680D02*
X013042Y020680D01*
X013042Y021680D02*
X013378Y021680D01*
X013378Y022680D02*
X013042Y022680D01*
X013042Y023680D02*
X013378Y023680D01*
X013378Y024680D02*
X013042Y024680D01*
X013042Y025680D02*
X013378Y025680D01*
X013378Y026680D02*
X013042Y026680D01*
X013042Y028680D02*
X013378Y028680D01*
X013378Y029680D02*
X013042Y029680D01*
X013042Y030680D02*
X013378Y030680D01*
X013378Y031680D02*
X013042Y031680D01*
X013042Y032680D02*
X013378Y032680D01*
X013378Y033680D02*
X013042Y033680D01*
X013042Y034680D02*
X013378Y034680D01*
X013378Y035680D02*
X013042Y035680D01*
X013042Y037680D02*
X013378Y037680D01*
X013378Y038680D02*
X013042Y038680D01*
X013042Y039680D02*
X013378Y039680D01*
X013378Y040680D02*
X013042Y040680D01*
X013042Y041680D02*
X013378Y041680D01*
X013378Y042680D02*
X013042Y042680D01*
X013042Y043680D02*
X013378Y043680D01*
X013378Y044680D02*
X013042Y044680D01*
X032042Y044280D02*
X032378Y044280D01*
X032378Y043280D02*
X032042Y043280D01*
X032042Y042280D02*
X032378Y042280D01*
X032378Y041280D02*
X032042Y041280D01*
X032042Y040280D02*
X032378Y040280D01*
X032378Y039280D02*
X032042Y039280D01*
X032042Y037680D02*
X032378Y037680D01*
X032378Y036680D02*
X032042Y036680D01*
X032042Y035680D02*
X032378Y035680D01*
X032378Y034680D02*
X032042Y034680D01*
X032042Y033680D02*
X032378Y033680D01*
X032378Y032680D02*
X032042Y032680D01*
X032042Y031680D02*
X032378Y031680D01*
X032378Y030680D02*
X032042Y030680D01*
X032042Y028680D02*
X032378Y028680D01*
X032378Y027680D02*
X032042Y027680D01*
X032042Y026680D02*
X032378Y026680D01*
X032378Y025680D02*
X032042Y025680D01*
X032042Y024680D02*
X032378Y024680D01*
X032378Y023680D02*
X032042Y023680D01*
X032042Y022680D02*
X032378Y022680D01*
X032378Y021680D02*
X032042Y021680D01*
X032042Y045280D02*
X032378Y045280D01*
X032378Y046280D02*
X032042Y046280D01*
X032042Y047280D02*
X032378Y047280D01*
X032378Y048280D02*
X032042Y048280D01*
D11*
X032210Y018680D03*
X031210Y018680D03*
X030210Y018680D03*
X030210Y017680D03*
X031210Y017680D03*
X032210Y017680D03*
X029210Y017680D03*
X028210Y017680D03*
X028210Y018680D03*
X029210Y018680D03*
X027210Y018680D03*
X026210Y018680D03*
X026210Y017680D03*
X027210Y017680D03*
X025210Y017680D03*
X024210Y017680D03*
X024210Y018680D03*
X025210Y018680D03*
X023210Y018680D03*
X022210Y018680D03*
X022210Y017680D03*
X023210Y017680D03*
X021210Y017680D03*
X020210Y017680D03*
X020210Y018680D03*
X021210Y018680D03*
X019210Y018680D03*
X018210Y018680D03*
X018210Y017680D03*
X019210Y017680D03*
X017210Y017680D03*
X016210Y017680D03*
X016210Y018680D03*
X017210Y018680D03*
X015210Y018680D03*
X015210Y017680D03*
D12*
X026991Y051108D02*
X026991Y051534D01*
X028960Y051534D02*
X028960Y051108D01*
X030929Y051108D02*
X030929Y051534D01*
D13*
X035260Y032330D03*
X035260Y029330D03*
X047510Y008480D03*
X048560Y008480D03*
X049560Y008480D03*
X050660Y008480D03*
X050660Y005480D03*
X049560Y005480D03*
X048560Y005480D03*
X047510Y005480D03*
D14*
X035466Y034030D02*
X035154Y034030D01*
X035154Y035030D02*
X035466Y035030D01*
X009816Y030880D02*
X009504Y030880D01*
X009504Y029880D02*
X009816Y029880D01*
X009816Y028880D02*
X009504Y028880D01*
D15*
X038662Y048282D03*
X039662Y048282D03*
X040662Y048282D03*
X041662Y048282D03*
X042662Y048282D03*
X043662Y048282D03*
X044662Y048282D03*
X045662Y048282D03*
X046662Y048282D03*
X047662Y048282D03*
X048662Y048282D03*
X049662Y048282D03*
X050662Y048282D03*
X051662Y048282D03*
X052662Y048282D03*
X053662Y048282D03*
D16*
X005310Y014910D02*
X005310Y014550D01*
X006310Y014550D02*
X006310Y014910D01*
X007310Y014910D02*
X007310Y014550D01*
X008310Y014550D02*
X008310Y014910D01*
X009310Y014910D02*
X009310Y014550D01*
X010310Y014550D02*
X010310Y014910D01*
X011310Y014910D02*
X011310Y014550D01*
X012310Y014550D02*
X012310Y014910D01*
X013310Y014910D02*
X013310Y014550D01*
X014310Y014550D02*
X014310Y014910D01*
X015310Y014910D02*
X015310Y014550D01*
X016310Y014550D02*
X016310Y014910D01*
X022980Y009980D02*
X023340Y009980D01*
X023340Y008980D02*
X022980Y008980D01*
X022930Y001830D02*
X023290Y001830D01*
X023290Y000830D02*
X022930Y000830D01*
X039180Y008880D02*
X039540Y008880D01*
X039540Y009880D02*
X039180Y009880D01*
X042660Y009800D02*
X042660Y010160D01*
X043660Y010160D02*
X043660Y009800D01*
X044660Y009800D02*
X044660Y010160D01*
X045660Y010160D02*
X045660Y009800D01*
X046660Y009800D02*
X046660Y010160D01*
X047660Y010160D02*
X047660Y009800D01*
X048660Y009800D02*
X048660Y010160D01*
X049660Y010160D02*
X049660Y009800D01*
X050660Y009800D02*
X050660Y010160D01*
X051660Y010160D02*
X051660Y009800D01*
X010140Y036330D02*
X009780Y036330D01*
X009780Y037330D02*
X010140Y037330D01*
X010140Y038330D02*
X009780Y038330D01*
X009780Y039330D02*
X010140Y039330D01*
X007690Y042680D02*
X007330Y042680D01*
X007330Y043680D02*
X007690Y043680D01*
X007690Y044680D02*
X007330Y044680D01*
X003890Y028980D02*
X003530Y028980D01*
X003530Y027980D02*
X003890Y027980D01*
X003890Y026980D02*
X003530Y026980D01*
X003530Y025980D02*
X003890Y025980D01*
X002190Y020380D02*
X001830Y020380D01*
X001830Y019380D02*
X002190Y019380D01*
X002190Y018380D02*
X001830Y018380D01*
X001830Y017380D02*
X002190Y017380D01*
X002190Y016380D02*
X001830Y016380D01*
D17*
X001610Y031980D03*
X001610Y032980D03*
X002610Y032980D03*
X002610Y031980D03*
X002610Y033980D03*
X002610Y034980D03*
X001610Y034980D03*
X001610Y033980D03*
X001610Y035980D03*
X002610Y035980D03*
X039310Y001930D03*
D18*
X037110Y018730D03*
X034360Y022580D03*
X033410Y021680D03*
X035410Y023680D03*
X036360Y024580D03*
X033810Y024580D03*
X034010Y031830D03*
X037660Y039080D03*
X033960Y045280D03*
X030860Y044380D03*
X033960Y049530D03*
X033210Y050830D03*
X035410Y050080D03*
X037610Y048380D03*
X038810Y046980D03*
X042260Y046530D03*
X015910Y047480D03*
X014610Y046030D03*
X011310Y045830D03*
X011310Y041880D03*
X007560Y036230D03*
X005960Y036130D03*
X006060Y032830D03*
X007560Y032230D03*
X009910Y027530D03*
X003010Y019380D03*
X002910Y018230D03*
X001710Y027080D03*
X001710Y029080D03*
X005910Y046080D03*
X018410Y012680D03*
X018460Y010980D03*
M02*
