G75*
%MOIN*%
%OFA0B0*%
%FSLAX25Y25*%
%IPPOS*%
%LPD*%
%AMOC8*
5,1,8,0,0,1.08239X$1,22.5*
%
%ADD10C,0.01000*%
%ADD11C,0.01200*%
%ADD12C,0.01600*%
%ADD13C,0.00700*%
%ADD14C,0.01300*%
%ADD15C,0.00800*%
%ADD16C,0.00600*%
%ADD17C,0.01100*%
%ADD18C,0.00900*%
%ADD19C,0.00500*%
%ADD20C,0.01500*%
%ADD21C,0.00400*%
%ADD22R,0.02000X0.01500*%
%ADD23R,0.11614X0.17126*%
%ADD24C,0.00000*%
%ADD25C,0.00200*%
%ADD26C,0.03000*%
%ADD27R,0.03000X0.02000*%
%ADD28R,0.03000X0.04000*%
D10*
X0215129Y0216315D02*
X0218932Y0216315D01*
X0220200Y0217583D01*
X0218932Y0218851D01*
X0220200Y0220119D01*
X0218932Y0221386D01*
X0215129Y0221386D01*
X0215129Y0224234D02*
X0218932Y0224234D01*
X0220200Y0225502D01*
X0218932Y0226770D01*
X0220200Y0228037D01*
X0218932Y0229305D01*
X0215129Y0229305D01*
X0215129Y0232153D02*
X0218932Y0232153D01*
X0220200Y0233421D01*
X0218932Y0234688D01*
X0220200Y0235956D01*
X0218932Y0237224D01*
X0215129Y0237224D01*
X0218932Y0240072D02*
X0218932Y0241339D01*
X0220200Y0241339D01*
X0220200Y0240072D01*
X0218932Y0240072D01*
X0218932Y0244031D02*
X0217665Y0245299D01*
X0217665Y0249102D01*
X0216397Y0249102D02*
X0220200Y0249102D01*
X0220200Y0245299D01*
X0218932Y0244031D01*
X0215129Y0245299D02*
X0215129Y0247834D01*
X0216397Y0249102D01*
X0217665Y0251950D02*
X0215129Y0254485D01*
X0215129Y0255753D01*
X0216397Y0258549D02*
X0215129Y0259817D01*
X0215129Y0263620D01*
X0212594Y0263620D02*
X0220200Y0263620D01*
X0220200Y0259817D01*
X0218932Y0258549D01*
X0216397Y0258549D01*
X0215129Y0251950D02*
X0220200Y0251950D01*
X0218932Y0266468D02*
X0215129Y0266468D01*
X0218932Y0266468D02*
X0220200Y0267735D01*
X0220200Y0271539D01*
X0215129Y0271539D01*
X0215129Y0274386D02*
X0215129Y0275654D01*
X0220200Y0275654D01*
X0220200Y0274386D02*
X0220200Y0276922D01*
X0220200Y0279665D02*
X0215129Y0279665D01*
X0215129Y0283469D01*
X0216397Y0284736D01*
X0220200Y0284736D01*
X0218932Y0287584D02*
X0216397Y0287584D01*
X0215129Y0288852D01*
X0215129Y0291388D01*
X0216397Y0292655D01*
X0218932Y0292655D01*
X0220200Y0291388D01*
X0220200Y0288852D01*
X0218932Y0287584D01*
X0218932Y0295503D02*
X0218932Y0296771D01*
X0220200Y0296771D01*
X0220200Y0295503D01*
X0218932Y0295503D01*
X0218932Y0299462D02*
X0220200Y0300730D01*
X0220200Y0304533D01*
X0218932Y0307381D02*
X0220200Y0308649D01*
X0220200Y0312452D01*
X0215129Y0312452D02*
X0215129Y0308649D01*
X0216397Y0307381D01*
X0218932Y0307381D01*
X0215129Y0304533D02*
X0215129Y0300730D01*
X0216397Y0299462D01*
X0218932Y0299462D01*
X0212594Y0275654D02*
X0211326Y0275654D01*
X0167200Y0274977D02*
X0163463Y0274977D01*
X0161595Y0276845D01*
X0163463Y0278713D01*
X0167200Y0278713D01*
X0167200Y0281054D02*
X0161595Y0281054D01*
X0167200Y0284790D01*
X0161595Y0284790D01*
X0163463Y0287131D02*
X0161595Y0288999D01*
X0163463Y0290867D01*
X0167200Y0290867D01*
X0167200Y0293208D02*
X0167200Y0296945D01*
X0166266Y0299285D02*
X0167200Y0300219D01*
X0167200Y0302088D01*
X0166266Y0303022D01*
X0162529Y0303022D01*
X0161595Y0302088D01*
X0161595Y0300219D01*
X0162529Y0299285D01*
X0166266Y0299285D01*
X0166266Y0305363D02*
X0162529Y0305363D01*
X0161595Y0306297D01*
X0161595Y0308165D01*
X0162529Y0309099D01*
X0164398Y0309099D02*
X0164398Y0307231D01*
X0164398Y0309099D02*
X0166266Y0309099D01*
X0167200Y0308165D01*
X0167200Y0306297D01*
X0166266Y0305363D01*
X0167200Y0293208D02*
X0161595Y0293208D01*
X0164398Y0290867D02*
X0164398Y0287131D01*
X0163463Y0287131D02*
X0167200Y0287131D01*
X0164398Y0278713D02*
X0164398Y0274977D01*
X0167200Y0329671D02*
X0167200Y0331540D01*
X0167200Y0330605D02*
X0161595Y0330605D01*
X0161595Y0329671D02*
X0161595Y0331540D01*
X0161595Y0333723D02*
X0167200Y0337459D01*
X0161595Y0337459D01*
X0161595Y0333723D02*
X0167200Y0333723D01*
X0225100Y0210405D02*
X0227902Y0210405D01*
X0228837Y0209471D01*
X0228837Y0205734D01*
X0227902Y0204800D01*
X0225100Y0204800D01*
X0225100Y0210405D01*
X0231177Y0210405D02*
X0233045Y0210405D01*
X0232111Y0210405D02*
X0232111Y0204800D01*
X0231177Y0204800D02*
X0233045Y0204800D01*
X0235229Y0205734D02*
X0236163Y0204800D01*
X0238031Y0204800D01*
X0238965Y0205734D01*
X0238965Y0207602D01*
X0237097Y0207602D01*
X0235229Y0205734D02*
X0235229Y0209471D01*
X0236163Y0210405D01*
X0238031Y0210405D01*
X0238965Y0209471D01*
X0241306Y0210405D02*
X0243174Y0210405D01*
X0242240Y0210405D02*
X0242240Y0204800D01*
X0241306Y0204800D02*
X0243174Y0204800D01*
X0247226Y0204800D02*
X0247226Y0210405D01*
X0249094Y0210405D02*
X0245357Y0210405D01*
X0251434Y0208537D02*
X0253303Y0210405D01*
X0255171Y0208537D01*
X0255171Y0204800D01*
X0257512Y0204800D02*
X0261248Y0204800D01*
X0257512Y0204800D02*
X0257512Y0210405D01*
X0255171Y0207602D02*
X0251434Y0207602D01*
X0251434Y0208537D02*
X0251434Y0204800D01*
X0290595Y0230782D02*
X0291529Y0229848D01*
X0295266Y0229848D01*
X0296200Y0230782D01*
X0296200Y0232650D01*
X0295266Y0233584D01*
X0295266Y0235925D02*
X0296200Y0236859D01*
X0296200Y0238728D01*
X0295266Y0239662D01*
X0291529Y0239662D01*
X0290595Y0238728D01*
X0290595Y0236859D01*
X0291529Y0235925D01*
X0295266Y0235925D01*
X0291529Y0233584D02*
X0290595Y0232650D01*
X0290595Y0230782D01*
X0290595Y0242002D02*
X0292463Y0243871D01*
X0290595Y0245739D01*
X0296200Y0245739D01*
X0296200Y0248080D02*
X0290595Y0248080D01*
X0292463Y0249948D01*
X0290595Y0251816D01*
X0296200Y0251816D01*
X0295266Y0254157D02*
X0296200Y0255091D01*
X0296200Y0256959D01*
X0295266Y0257893D01*
X0290595Y0257893D01*
X0290595Y0260234D02*
X0296200Y0263970D01*
X0290595Y0263970D01*
X0290595Y0266311D02*
X0290595Y0268179D01*
X0290595Y0267245D02*
X0296200Y0267245D01*
X0296200Y0266311D02*
X0296200Y0268179D01*
X0295266Y0270363D02*
X0296200Y0271297D01*
X0296200Y0273165D01*
X0295266Y0274099D01*
X0296200Y0276440D02*
X0292463Y0276440D01*
X0290595Y0278308D01*
X0292463Y0280176D01*
X0296200Y0280176D01*
X0293398Y0280176D02*
X0293398Y0276440D01*
X0291529Y0274099D02*
X0290595Y0273165D01*
X0290595Y0271297D01*
X0291529Y0270363D01*
X0295266Y0270363D01*
X0296200Y0260234D02*
X0290595Y0260234D01*
X0290595Y0254157D02*
X0295266Y0254157D01*
X0296200Y0242002D02*
X0290595Y0242002D01*
X0290595Y0282517D02*
X0290595Y0286253D01*
X0290595Y0284385D02*
X0296200Y0284385D01*
X0296200Y0288594D02*
X0296200Y0290462D01*
X0296200Y0289528D02*
X0290595Y0289528D01*
X0290595Y0288594D02*
X0290595Y0290462D01*
X0291529Y0292646D02*
X0295266Y0292646D01*
X0296200Y0293580D01*
X0296200Y0295448D01*
X0295266Y0296382D01*
X0291529Y0296382D01*
X0290595Y0295448D01*
X0290595Y0293580D01*
X0291529Y0292646D01*
X0290595Y0298723D02*
X0296200Y0302459D01*
X0290595Y0302459D01*
X0290595Y0298723D02*
X0296200Y0298723D01*
X0353600Y0345300D02*
X0353603Y0345533D01*
X0353611Y0345766D01*
X0353626Y0345999D01*
X0353646Y0346231D01*
X0353671Y0346463D01*
X0353703Y0346694D01*
X0353740Y0346924D01*
X0353783Y0347153D01*
X0353831Y0347381D01*
X0353885Y0347608D01*
X0353944Y0347834D01*
X0354009Y0348058D01*
X0354079Y0348280D01*
X0354155Y0348500D01*
X0354237Y0348719D01*
X0354323Y0348935D01*
X0354415Y0349150D01*
X0354512Y0349362D01*
X0354614Y0349571D01*
X0354722Y0349778D01*
X0354834Y0349983D01*
X0354952Y0350184D01*
X0355074Y0350382D01*
X0355201Y0350578D01*
X0355333Y0350770D01*
X0355470Y0350959D01*
X0355611Y0351145D01*
X0355756Y0351327D01*
X0355907Y0351505D01*
X0356061Y0351680D01*
X0356220Y0351851D01*
X0356382Y0352018D01*
X0356549Y0352180D01*
X0356720Y0352339D01*
X0356895Y0352493D01*
X0357073Y0352644D01*
X0357255Y0352789D01*
X0357441Y0352930D01*
X0357630Y0353067D01*
X0357822Y0353199D01*
X0358018Y0353326D01*
X0358216Y0353448D01*
X0358417Y0353566D01*
X0358622Y0353678D01*
X0358829Y0353786D01*
X0359038Y0353888D01*
X0359250Y0353985D01*
X0359465Y0354077D01*
X0359681Y0354163D01*
X0359900Y0354245D01*
X0360120Y0354321D01*
X0360342Y0354391D01*
X0360566Y0354456D01*
X0360792Y0354515D01*
X0361019Y0354569D01*
X0361247Y0354617D01*
X0361476Y0354660D01*
X0361706Y0354697D01*
X0361937Y0354729D01*
X0362169Y0354754D01*
X0362401Y0354774D01*
X0362634Y0354789D01*
X0362867Y0354797D01*
X0363100Y0354800D01*
X0363333Y0354797D01*
X0363566Y0354789D01*
X0363799Y0354774D01*
X0364031Y0354754D01*
X0364263Y0354729D01*
X0364494Y0354697D01*
X0364724Y0354660D01*
X0364953Y0354617D01*
X0365181Y0354569D01*
X0365408Y0354515D01*
X0365634Y0354456D01*
X0365858Y0354391D01*
X0366080Y0354321D01*
X0366300Y0354245D01*
X0366519Y0354163D01*
X0366735Y0354077D01*
X0366950Y0353985D01*
X0367162Y0353888D01*
X0367371Y0353786D01*
X0367578Y0353678D01*
X0367783Y0353566D01*
X0367984Y0353448D01*
X0368182Y0353326D01*
X0368378Y0353199D01*
X0368570Y0353067D01*
X0368759Y0352930D01*
X0368945Y0352789D01*
X0369127Y0352644D01*
X0369305Y0352493D01*
X0369480Y0352339D01*
X0369651Y0352180D01*
X0369818Y0352018D01*
X0369980Y0351851D01*
X0370139Y0351680D01*
X0370293Y0351505D01*
X0370444Y0351327D01*
X0370589Y0351145D01*
X0370730Y0350959D01*
X0370867Y0350770D01*
X0370999Y0350578D01*
X0371126Y0350382D01*
X0371248Y0350184D01*
X0371366Y0349983D01*
X0371478Y0349778D01*
X0371586Y0349571D01*
X0371688Y0349362D01*
X0371785Y0349150D01*
X0371877Y0348935D01*
X0371963Y0348719D01*
X0372045Y0348500D01*
X0372121Y0348280D01*
X0372191Y0348058D01*
X0372256Y0347834D01*
X0372315Y0347608D01*
X0372369Y0347381D01*
X0372417Y0347153D01*
X0372460Y0346924D01*
X0372497Y0346694D01*
X0372529Y0346463D01*
X0372554Y0346231D01*
X0372574Y0345999D01*
X0372589Y0345766D01*
X0372597Y0345533D01*
X0372600Y0345300D01*
X0372597Y0345067D01*
X0372589Y0344834D01*
X0372574Y0344601D01*
X0372554Y0344369D01*
X0372529Y0344137D01*
X0372497Y0343906D01*
X0372460Y0343676D01*
X0372417Y0343447D01*
X0372369Y0343219D01*
X0372315Y0342992D01*
X0372256Y0342766D01*
X0372191Y0342542D01*
X0372121Y0342320D01*
X0372045Y0342100D01*
X0371963Y0341881D01*
X0371877Y0341665D01*
X0371785Y0341450D01*
X0371688Y0341238D01*
X0371586Y0341029D01*
X0371478Y0340822D01*
X0371366Y0340617D01*
X0371248Y0340416D01*
X0371126Y0340218D01*
X0370999Y0340022D01*
X0370867Y0339830D01*
X0370730Y0339641D01*
X0370589Y0339455D01*
X0370444Y0339273D01*
X0370293Y0339095D01*
X0370139Y0338920D01*
X0369980Y0338749D01*
X0369818Y0338582D01*
X0369651Y0338420D01*
X0369480Y0338261D01*
X0369305Y0338107D01*
X0369127Y0337956D01*
X0368945Y0337811D01*
X0368759Y0337670D01*
X0368570Y0337533D01*
X0368378Y0337401D01*
X0368182Y0337274D01*
X0367984Y0337152D01*
X0367783Y0337034D01*
X0367578Y0336922D01*
X0367371Y0336814D01*
X0367162Y0336712D01*
X0366950Y0336615D01*
X0366735Y0336523D01*
X0366519Y0336437D01*
X0366300Y0336355D01*
X0366080Y0336279D01*
X0365858Y0336209D01*
X0365634Y0336144D01*
X0365408Y0336085D01*
X0365181Y0336031D01*
X0364953Y0335983D01*
X0364724Y0335940D01*
X0364494Y0335903D01*
X0364263Y0335871D01*
X0364031Y0335846D01*
X0363799Y0335826D01*
X0363566Y0335811D01*
X0363333Y0335803D01*
X0363100Y0335800D01*
X0362867Y0335803D01*
X0362634Y0335811D01*
X0362401Y0335826D01*
X0362169Y0335846D01*
X0361937Y0335871D01*
X0361706Y0335903D01*
X0361476Y0335940D01*
X0361247Y0335983D01*
X0361019Y0336031D01*
X0360792Y0336085D01*
X0360566Y0336144D01*
X0360342Y0336209D01*
X0360120Y0336279D01*
X0359900Y0336355D01*
X0359681Y0336437D01*
X0359465Y0336523D01*
X0359250Y0336615D01*
X0359038Y0336712D01*
X0358829Y0336814D01*
X0358622Y0336922D01*
X0358417Y0337034D01*
X0358216Y0337152D01*
X0358018Y0337274D01*
X0357822Y0337401D01*
X0357630Y0337533D01*
X0357441Y0337670D01*
X0357255Y0337811D01*
X0357073Y0337956D01*
X0356895Y0338107D01*
X0356720Y0338261D01*
X0356549Y0338420D01*
X0356382Y0338582D01*
X0356220Y0338749D01*
X0356061Y0338920D01*
X0355907Y0339095D01*
X0355756Y0339273D01*
X0355611Y0339455D01*
X0355470Y0339641D01*
X0355333Y0339830D01*
X0355201Y0340022D01*
X0355074Y0340218D01*
X0354952Y0340416D01*
X0354834Y0340617D01*
X0354722Y0340822D01*
X0354614Y0341029D01*
X0354512Y0341238D01*
X0354415Y0341450D01*
X0354323Y0341665D01*
X0354237Y0341881D01*
X0354155Y0342100D01*
X0354079Y0342320D01*
X0354009Y0342542D01*
X0353944Y0342766D01*
X0353885Y0342992D01*
X0353831Y0343219D01*
X0353783Y0343447D01*
X0353740Y0343676D01*
X0353703Y0343906D01*
X0353671Y0344137D01*
X0353646Y0344369D01*
X0353626Y0344601D01*
X0353611Y0344834D01*
X0353603Y0345067D01*
X0353600Y0345300D01*
X0312200Y0376568D02*
X0306595Y0376568D01*
X0306595Y0379371D01*
X0307529Y0380305D01*
X0309398Y0380305D01*
X0310332Y0379371D01*
X0310332Y0376568D01*
X0312200Y0382646D02*
X0310332Y0384514D01*
X0312200Y0386382D01*
X0306595Y0386382D01*
X0306595Y0388723D02*
X0308463Y0390591D01*
X0306595Y0392459D01*
X0312200Y0392459D01*
X0312200Y0388723D02*
X0306595Y0388723D01*
X0306595Y0382646D02*
X0312200Y0382646D01*
X0136037Y0556800D02*
X0135913Y0556798D01*
X0135790Y0556792D01*
X0135666Y0556783D01*
X0135544Y0556769D01*
X0135421Y0556752D01*
X0135299Y0556730D01*
X0135178Y0556705D01*
X0135058Y0556676D01*
X0134939Y0556644D01*
X0134820Y0556607D01*
X0134703Y0556567D01*
X0134588Y0556524D01*
X0134473Y0556476D01*
X0134361Y0556425D01*
X0134250Y0556371D01*
X0134140Y0556313D01*
X0134033Y0556252D01*
X0133927Y0556187D01*
X0133824Y0556119D01*
X0133723Y0556048D01*
X0133624Y0555974D01*
X0133527Y0555897D01*
X0133433Y0555816D01*
X0133342Y0555733D01*
X0133253Y0555647D01*
X0133167Y0555558D01*
X0133084Y0555467D01*
X0133003Y0555373D01*
X0132926Y0555276D01*
X0132852Y0555177D01*
X0132781Y0555076D01*
X0132713Y0554973D01*
X0132648Y0554867D01*
X0132587Y0554760D01*
X0132529Y0554650D01*
X0132475Y0554539D01*
X0132424Y0554427D01*
X0132376Y0554312D01*
X0132333Y0554197D01*
X0132293Y0554080D01*
X0132256Y0553961D01*
X0132224Y0553842D01*
X0132195Y0553722D01*
X0132170Y0553601D01*
X0132148Y0553479D01*
X0132131Y0553356D01*
X0132117Y0553234D01*
X0132108Y0553110D01*
X0132102Y0552987D01*
X0132100Y0552863D01*
D11*
X0309600Y0437800D02*
X0309600Y0396800D01*
X0309600Y0374800D02*
X0309600Y0330800D01*
X0313600Y0326800D01*
X0298100Y0316300D02*
X0293600Y0311800D01*
X0293600Y0306800D01*
X0293600Y0228300D02*
X0293600Y0221300D01*
X0298100Y0216800D01*
X0318100Y0207300D02*
X0322100Y0203300D01*
X0318100Y0207300D02*
X0264100Y0207300D01*
X0222600Y0207300D02*
X0176600Y0207300D01*
X0172600Y0203300D01*
X0164100Y0202300D02*
X0160600Y0198800D01*
X0164100Y0202300D02*
X0164100Y0270800D01*
X0164100Y0344300D02*
X0164100Y0352300D01*
X0160100Y0356300D01*
X0309600Y0437800D02*
X0313100Y0441300D01*
X0322393Y0469300D02*
X0322395Y0469353D01*
X0322401Y0469405D01*
X0322411Y0469457D01*
X0322424Y0469508D01*
X0322442Y0469558D01*
X0322463Y0469607D01*
X0322488Y0469654D01*
X0322516Y0469698D01*
X0322547Y0469741D01*
X0322582Y0469781D01*
X0322619Y0469818D01*
X0322659Y0469853D01*
X0322702Y0469884D01*
X0322747Y0469912D01*
X0322793Y0469937D01*
X0322842Y0469958D01*
X0322892Y0469976D01*
X0322943Y0469989D01*
X0322995Y0469999D01*
X0323047Y0470005D01*
X0323100Y0470007D01*
X0323153Y0470005D01*
X0323205Y0469999D01*
X0323257Y0469989D01*
X0323308Y0469976D01*
X0323358Y0469958D01*
X0323407Y0469937D01*
X0323454Y0469912D01*
X0323498Y0469884D01*
X0323541Y0469853D01*
X0323581Y0469818D01*
X0323618Y0469781D01*
X0323653Y0469741D01*
X0323684Y0469698D01*
X0323712Y0469653D01*
X0323737Y0469607D01*
X0323758Y0469558D01*
X0323776Y0469508D01*
X0323789Y0469457D01*
X0323799Y0469405D01*
X0323805Y0469353D01*
X0323807Y0469300D01*
X0323805Y0469247D01*
X0323799Y0469195D01*
X0323789Y0469143D01*
X0323776Y0469092D01*
X0323758Y0469042D01*
X0323737Y0468993D01*
X0323712Y0468946D01*
X0323684Y0468902D01*
X0323653Y0468859D01*
X0323618Y0468819D01*
X0323581Y0468782D01*
X0323541Y0468747D01*
X0323498Y0468716D01*
X0323453Y0468688D01*
X0323407Y0468663D01*
X0323358Y0468642D01*
X0323308Y0468624D01*
X0323257Y0468611D01*
X0323205Y0468601D01*
X0323153Y0468595D01*
X0323100Y0468593D01*
X0323047Y0468595D01*
X0322995Y0468601D01*
X0322943Y0468611D01*
X0322892Y0468624D01*
X0322842Y0468642D01*
X0322793Y0468663D01*
X0322746Y0468688D01*
X0322702Y0468716D01*
X0322659Y0468747D01*
X0322619Y0468782D01*
X0322582Y0468819D01*
X0322547Y0468859D01*
X0322516Y0468902D01*
X0322488Y0468947D01*
X0322463Y0468993D01*
X0322442Y0469042D01*
X0322424Y0469092D01*
X0322411Y0469143D01*
X0322401Y0469195D01*
X0322395Y0469247D01*
X0322393Y0469300D01*
X0337100Y0186800D02*
X0339600Y0186800D01*
X0339600Y0176800D01*
X0337100Y0176800D01*
X0154600Y0176800D02*
X0152600Y0176800D01*
X0152600Y0186800D01*
X0154600Y0186800D01*
D12*
X0312100Y0306800D02*
X0317100Y0309300D01*
X0314600Y0306800D01*
X0317100Y0306800D01*
X0317100Y0304300D01*
X0314600Y0306800D01*
X0312100Y0306800D02*
X0317100Y0304300D01*
X0317100Y0306800D02*
X0317100Y0309300D01*
X0312100Y0314300D02*
X0312100Y0316800D01*
X0314600Y0316800D01*
X0312100Y0314300D01*
X0317100Y0316800D01*
X0312100Y0319300D01*
X0314600Y0316800D01*
X0312100Y0316800D02*
X0312100Y0319300D01*
D13*
X0307876Y0319554D02*
X0304606Y0314650D01*
X0307876Y0314650D02*
X0304606Y0319554D01*
X0302719Y0319554D02*
X0299450Y0319554D01*
X0301085Y0319554D02*
X0301085Y0314650D01*
X0301902Y0309554D02*
X0302719Y0308737D01*
X0302719Y0307102D01*
X0301902Y0306285D01*
X0299450Y0306285D01*
X0301085Y0306285D02*
X0302719Y0304650D01*
X0304606Y0304650D02*
X0307876Y0309554D01*
X0304606Y0309554D02*
X0307876Y0304650D01*
X0301902Y0309554D02*
X0299450Y0309554D01*
X0299450Y0304650D01*
X0299450Y0289554D02*
X0302719Y0289554D01*
X0301085Y0289554D02*
X0301085Y0284650D01*
X0304606Y0284650D02*
X0307876Y0289554D01*
X0309763Y0288737D02*
X0310580Y0289554D01*
X0312215Y0289554D01*
X0313032Y0288737D01*
X0313032Y0287919D01*
X0312215Y0287102D01*
X0313032Y0286285D01*
X0313032Y0285467D01*
X0312215Y0284650D01*
X0310580Y0284650D01*
X0309763Y0285467D01*
X0307876Y0284650D02*
X0304606Y0289554D01*
X0311398Y0287102D02*
X0312215Y0287102D01*
X0316450Y0287919D02*
X0318085Y0289554D01*
X0318085Y0284650D01*
X0319719Y0284650D02*
X0316450Y0284650D01*
X0318085Y0279554D02*
X0318085Y0274650D01*
X0319719Y0274650D02*
X0316450Y0274650D01*
X0316450Y0277919D02*
X0318085Y0279554D01*
X0321606Y0279554D02*
X0321606Y0277102D01*
X0323241Y0277919D01*
X0324058Y0277919D01*
X0324876Y0277102D01*
X0324876Y0275467D01*
X0324058Y0274650D01*
X0322424Y0274650D01*
X0321606Y0275467D01*
X0321606Y0279554D02*
X0324876Y0279554D01*
X0324058Y0284650D02*
X0324058Y0289554D01*
X0321606Y0287102D01*
X0324876Y0287102D01*
X0313032Y0278737D02*
X0313032Y0277919D01*
X0312215Y0277102D01*
X0313032Y0276285D01*
X0313032Y0275467D01*
X0312215Y0274650D01*
X0310580Y0274650D01*
X0309763Y0275467D01*
X0307876Y0274650D02*
X0304606Y0279554D01*
X0302719Y0278737D02*
X0302719Y0277102D01*
X0301902Y0276285D01*
X0299450Y0276285D01*
X0301085Y0276285D02*
X0302719Y0274650D01*
X0304606Y0274650D02*
X0307876Y0279554D01*
X0309763Y0278737D02*
X0310580Y0279554D01*
X0312215Y0279554D01*
X0313032Y0278737D01*
X0312215Y0277102D02*
X0311398Y0277102D01*
X0312215Y0269554D02*
X0310580Y0269554D01*
X0309763Y0268737D01*
X0307876Y0269554D02*
X0304606Y0264650D01*
X0307876Y0264650D02*
X0304606Y0269554D01*
X0302719Y0269554D02*
X0299450Y0269554D01*
X0301085Y0269554D02*
X0301085Y0264650D01*
X0301902Y0259554D02*
X0302719Y0258737D01*
X0302719Y0257102D01*
X0301902Y0256285D01*
X0299450Y0256285D01*
X0301085Y0256285D02*
X0302719Y0254650D01*
X0304606Y0254650D02*
X0307876Y0259554D01*
X0309763Y0258737D02*
X0310580Y0259554D01*
X0312215Y0259554D01*
X0313032Y0258737D01*
X0313032Y0257919D01*
X0309763Y0254650D01*
X0313032Y0254650D01*
X0316450Y0254650D02*
X0319719Y0254650D01*
X0318085Y0254650D02*
X0318085Y0259554D01*
X0316450Y0257919D01*
X0321606Y0259554D02*
X0324876Y0259554D01*
X0324876Y0258737D01*
X0321606Y0255467D01*
X0321606Y0254650D01*
X0322424Y0249554D02*
X0324058Y0249554D01*
X0324876Y0248737D01*
X0324876Y0247919D01*
X0324058Y0247102D01*
X0322424Y0247102D01*
X0321606Y0247919D01*
X0321606Y0248737D01*
X0322424Y0249554D01*
X0322424Y0247102D02*
X0321606Y0246285D01*
X0321606Y0245467D01*
X0322424Y0244650D01*
X0324058Y0244650D01*
X0324876Y0245467D01*
X0324876Y0246285D01*
X0324058Y0247102D01*
X0319719Y0244650D02*
X0316450Y0244650D01*
X0318085Y0244650D02*
X0318085Y0249554D01*
X0316450Y0247919D01*
X0313032Y0244650D02*
X0309763Y0244650D01*
X0311398Y0244650D02*
X0311398Y0249554D01*
X0309763Y0247919D01*
X0307876Y0249554D02*
X0304606Y0244650D01*
X0307876Y0244650D02*
X0304606Y0249554D01*
X0302719Y0249554D02*
X0299450Y0249554D01*
X0301085Y0249554D02*
X0301085Y0244650D01*
X0301902Y0239554D02*
X0299450Y0239554D01*
X0299450Y0234650D01*
X0299450Y0236285D02*
X0301902Y0236285D01*
X0302719Y0237102D01*
X0302719Y0238737D01*
X0301902Y0239554D01*
X0304606Y0239554D02*
X0307876Y0234650D01*
X0309763Y0234650D02*
X0313032Y0234650D01*
X0311398Y0234650D02*
X0311398Y0239554D01*
X0309763Y0237919D01*
X0307876Y0239554D02*
X0304606Y0234650D01*
X0302719Y0234650D02*
X0301085Y0236285D01*
X0301902Y0229554D02*
X0300267Y0229554D01*
X0299450Y0228737D01*
X0299450Y0227919D01*
X0300267Y0227102D01*
X0301902Y0227102D01*
X0302719Y0226285D01*
X0302719Y0225467D01*
X0301902Y0224650D01*
X0300267Y0224650D01*
X0299450Y0225467D01*
X0302719Y0228737D02*
X0301902Y0229554D01*
X0304606Y0229554D02*
X0307058Y0229554D01*
X0307876Y0228737D01*
X0307876Y0225467D01*
X0307058Y0224650D01*
X0304606Y0224650D01*
X0304606Y0229554D01*
X0309763Y0227919D02*
X0311398Y0229554D01*
X0313032Y0227919D01*
X0313032Y0224650D01*
X0313032Y0227102D02*
X0309763Y0227102D01*
X0309763Y0227919D02*
X0309763Y0224650D01*
X0309763Y0219554D02*
X0309763Y0214650D01*
X0313032Y0214650D01*
X0316450Y0214650D02*
X0319719Y0217919D01*
X0319719Y0218737D01*
X0318902Y0219554D01*
X0317267Y0219554D01*
X0316450Y0218737D01*
X0316450Y0214650D02*
X0319719Y0214650D01*
X0321606Y0214650D02*
X0324876Y0214650D01*
X0323241Y0214650D02*
X0323241Y0219554D01*
X0321606Y0217919D01*
X0322424Y0224650D02*
X0321606Y0225467D01*
X0324876Y0228737D01*
X0324876Y0225467D01*
X0324058Y0224650D01*
X0322424Y0224650D01*
X0321606Y0225467D02*
X0321606Y0228737D01*
X0322424Y0229554D01*
X0324058Y0229554D01*
X0324876Y0228737D01*
X0319719Y0228737D02*
X0318902Y0229554D01*
X0317267Y0229554D01*
X0316450Y0228737D01*
X0319719Y0228737D02*
X0319719Y0227919D01*
X0316450Y0224650D01*
X0319719Y0224650D01*
X0319719Y0234650D02*
X0316450Y0234650D01*
X0318085Y0234650D02*
X0318085Y0239554D01*
X0316450Y0237919D01*
X0321606Y0237919D02*
X0322424Y0237102D01*
X0324876Y0237102D01*
X0324876Y0235467D02*
X0324876Y0238737D01*
X0324058Y0239554D01*
X0322424Y0239554D01*
X0321606Y0238737D01*
X0321606Y0237919D01*
X0321606Y0235467D02*
X0322424Y0234650D01*
X0324058Y0234650D01*
X0324876Y0235467D01*
X0307876Y0218737D02*
X0307058Y0219554D01*
X0305424Y0219554D01*
X0304606Y0218737D01*
X0304606Y0215467D01*
X0305424Y0214650D01*
X0307058Y0214650D01*
X0307876Y0215467D01*
X0302719Y0215467D02*
X0301902Y0214650D01*
X0300267Y0214650D01*
X0299450Y0215467D01*
X0300267Y0217102D02*
X0299450Y0217919D01*
X0299450Y0218737D01*
X0300267Y0219554D01*
X0301902Y0219554D01*
X0302719Y0218737D01*
X0301902Y0217102D02*
X0302719Y0216285D01*
X0302719Y0215467D01*
X0301902Y0217102D02*
X0300267Y0217102D01*
X0299946Y0200263D02*
X0300763Y0198628D01*
X0302398Y0196994D01*
X0302398Y0199446D01*
X0303215Y0200263D01*
X0304033Y0200263D01*
X0304850Y0199446D01*
X0304850Y0197811D01*
X0304033Y0196994D01*
X0302398Y0196994D01*
X0301581Y0195107D02*
X0300763Y0195107D01*
X0299946Y0194289D01*
X0299946Y0192655D01*
X0300763Y0191837D01*
X0301581Y0195107D02*
X0304850Y0191837D01*
X0304850Y0195107D01*
X0309946Y0194289D02*
X0309946Y0192655D01*
X0310763Y0191837D01*
X0309946Y0194289D02*
X0310763Y0195107D01*
X0311581Y0195107D01*
X0314850Y0191837D01*
X0314850Y0195107D01*
X0312398Y0196994D02*
X0312398Y0200263D01*
X0314850Y0199446D02*
X0309946Y0199446D01*
X0312398Y0196994D01*
X0319946Y0197811D02*
X0320763Y0196994D01*
X0319946Y0197811D02*
X0319946Y0199446D01*
X0320763Y0200263D01*
X0321581Y0200263D01*
X0324850Y0196994D01*
X0324850Y0200263D01*
X0324850Y0195107D02*
X0324850Y0191837D01*
X0321581Y0195107D01*
X0320763Y0195107D01*
X0319946Y0194289D01*
X0319946Y0192655D01*
X0320763Y0191837D01*
X0294850Y0191837D02*
X0291581Y0195107D01*
X0290763Y0195107D01*
X0289946Y0194289D01*
X0289946Y0192655D01*
X0290763Y0191837D01*
X0294850Y0191837D02*
X0294850Y0195107D01*
X0294033Y0196994D02*
X0293215Y0196994D01*
X0292398Y0197811D01*
X0292398Y0199446D01*
X0293215Y0200263D01*
X0294033Y0200263D01*
X0294850Y0199446D01*
X0294850Y0197811D01*
X0294033Y0196994D01*
X0292398Y0197811D02*
X0291581Y0196994D01*
X0290763Y0196994D01*
X0289946Y0197811D01*
X0289946Y0199446D01*
X0290763Y0200263D01*
X0291581Y0200263D01*
X0292398Y0199446D01*
X0284850Y0199446D02*
X0284850Y0197811D01*
X0284033Y0196994D01*
X0280763Y0200263D01*
X0284033Y0200263D01*
X0284850Y0199446D01*
X0284033Y0196994D02*
X0280763Y0196994D01*
X0279946Y0197811D01*
X0279946Y0199446D01*
X0280763Y0200263D01*
X0280763Y0195107D02*
X0281581Y0195107D01*
X0282398Y0194289D01*
X0283215Y0195107D01*
X0284033Y0195107D01*
X0284850Y0194289D01*
X0284850Y0192655D01*
X0284033Y0191837D01*
X0282398Y0193472D02*
X0282398Y0194289D01*
X0280763Y0195107D02*
X0279946Y0194289D01*
X0279946Y0192655D01*
X0280763Y0191837D01*
X0274850Y0192655D02*
X0274850Y0194289D01*
X0274033Y0195107D01*
X0273215Y0195107D01*
X0272398Y0194289D01*
X0272398Y0193472D01*
X0272398Y0194289D02*
X0271581Y0195107D01*
X0270763Y0195107D01*
X0269946Y0194289D01*
X0269946Y0192655D01*
X0270763Y0191837D01*
X0274033Y0191837D02*
X0274850Y0192655D01*
X0274850Y0196994D02*
X0271581Y0200263D01*
X0270763Y0200263D01*
X0269946Y0199446D01*
X0269946Y0197811D01*
X0270763Y0196994D01*
X0274850Y0196994D02*
X0274850Y0200263D01*
X0264850Y0199446D02*
X0259946Y0199446D01*
X0262398Y0196994D01*
X0262398Y0200263D01*
X0263215Y0195107D02*
X0264033Y0195107D01*
X0264850Y0194289D01*
X0264850Y0192655D01*
X0264033Y0191837D01*
X0262398Y0193472D02*
X0262398Y0194289D01*
X0263215Y0195107D01*
X0262398Y0194289D02*
X0261581Y0195107D01*
X0260763Y0195107D01*
X0259946Y0194289D01*
X0259946Y0192655D01*
X0260763Y0191837D01*
X0254850Y0192655D02*
X0254850Y0194289D01*
X0254033Y0195107D01*
X0253215Y0195107D01*
X0252398Y0194289D01*
X0252398Y0193472D01*
X0252398Y0194289D02*
X0251581Y0195107D01*
X0250763Y0195107D01*
X0249946Y0194289D01*
X0249946Y0192655D01*
X0250763Y0191837D01*
X0254033Y0191837D02*
X0254850Y0192655D01*
X0254033Y0196994D02*
X0254850Y0197811D01*
X0254850Y0199446D01*
X0254033Y0200263D01*
X0253215Y0200263D01*
X0252398Y0199446D01*
X0252398Y0196994D01*
X0254033Y0196994D01*
X0252398Y0196994D02*
X0250763Y0198628D01*
X0249946Y0200263D01*
X0244850Y0199446D02*
X0244850Y0197811D01*
X0244033Y0196994D01*
X0243215Y0196994D01*
X0242398Y0197811D01*
X0242398Y0199446D01*
X0243215Y0200263D01*
X0244033Y0200263D01*
X0244850Y0199446D01*
X0242398Y0199446D02*
X0241581Y0200263D01*
X0240763Y0200263D01*
X0239946Y0199446D01*
X0239946Y0197811D01*
X0240763Y0196994D01*
X0241581Y0196994D01*
X0242398Y0197811D01*
X0243215Y0195107D02*
X0244033Y0195107D01*
X0244850Y0194289D01*
X0244850Y0192655D01*
X0244033Y0191837D01*
X0242398Y0193472D02*
X0242398Y0194289D01*
X0243215Y0195107D01*
X0242398Y0194289D02*
X0241581Y0195107D01*
X0240763Y0195107D01*
X0239946Y0194289D01*
X0239946Y0192655D01*
X0240763Y0191837D01*
X0234850Y0194289D02*
X0229946Y0194289D01*
X0232398Y0191837D01*
X0232398Y0195107D01*
X0234033Y0196994D02*
X0230763Y0200263D01*
X0234033Y0200263D01*
X0234850Y0199446D01*
X0234850Y0197811D01*
X0234033Y0196994D01*
X0230763Y0196994D01*
X0229946Y0197811D01*
X0229946Y0199446D01*
X0230763Y0200263D01*
X0224850Y0200263D02*
X0224850Y0196994D01*
X0221581Y0200263D01*
X0220763Y0200263D01*
X0219946Y0199446D01*
X0219946Y0197811D01*
X0220763Y0196994D01*
X0222398Y0195107D02*
X0222398Y0191837D01*
X0219946Y0194289D01*
X0224850Y0194289D01*
X0214850Y0194289D02*
X0209946Y0194289D01*
X0212398Y0191837D01*
X0212398Y0195107D01*
X0212398Y0196994D02*
X0212398Y0200263D01*
X0214850Y0199446D02*
X0209946Y0199446D01*
X0212398Y0196994D01*
X0204850Y0197811D02*
X0204850Y0199446D01*
X0204033Y0200263D01*
X0203215Y0200263D01*
X0202398Y0199446D01*
X0202398Y0196994D01*
X0204033Y0196994D01*
X0204850Y0197811D01*
X0202398Y0196994D02*
X0200763Y0198628D01*
X0199946Y0200263D01*
X0194850Y0199446D02*
X0194850Y0197811D01*
X0194033Y0196994D01*
X0193215Y0196994D01*
X0192398Y0197811D01*
X0192398Y0199446D01*
X0193215Y0200263D01*
X0194033Y0200263D01*
X0194850Y0199446D01*
X0192398Y0199446D02*
X0191581Y0200263D01*
X0190763Y0200263D01*
X0189946Y0199446D01*
X0189946Y0197811D01*
X0190763Y0196994D01*
X0191581Y0196994D01*
X0192398Y0197811D01*
X0192398Y0195107D02*
X0192398Y0191837D01*
X0189946Y0194289D01*
X0194850Y0194289D01*
X0199946Y0194289D02*
X0202398Y0191837D01*
X0202398Y0195107D01*
X0204850Y0194289D02*
X0199946Y0194289D01*
X0199946Y0167763D02*
X0200763Y0167763D01*
X0204033Y0164494D01*
X0204850Y0164494D01*
X0204850Y0161789D02*
X0199946Y0161789D01*
X0202398Y0159337D01*
X0202398Y0162607D01*
X0199946Y0164494D02*
X0199946Y0167763D01*
X0194850Y0166946D02*
X0194033Y0167763D01*
X0190763Y0167763D01*
X0189946Y0166946D01*
X0189946Y0165311D01*
X0190763Y0164494D01*
X0191581Y0164494D01*
X0192398Y0165311D01*
X0192398Y0167763D01*
X0194850Y0166946D02*
X0194850Y0165311D01*
X0194033Y0164494D01*
X0192398Y0162607D02*
X0192398Y0159337D01*
X0189946Y0161789D01*
X0194850Y0161789D01*
X0209946Y0161789D02*
X0212398Y0159337D01*
X0212398Y0162607D01*
X0212398Y0164494D02*
X0211581Y0166128D01*
X0211581Y0166946D01*
X0212398Y0167763D01*
X0214033Y0167763D01*
X0214850Y0166946D01*
X0214850Y0165311D01*
X0214033Y0164494D01*
X0212398Y0164494D02*
X0209946Y0164494D01*
X0209946Y0167763D01*
X0209946Y0161789D02*
X0214850Y0161789D01*
X0219946Y0161789D02*
X0222398Y0159337D01*
X0222398Y0162607D01*
X0224033Y0164494D02*
X0224850Y0165311D01*
X0224850Y0166946D01*
X0224033Y0167763D01*
X0223215Y0167763D01*
X0222398Y0166946D01*
X0222398Y0166128D01*
X0222398Y0166946D02*
X0221581Y0167763D01*
X0220763Y0167763D01*
X0219946Y0166946D01*
X0219946Y0165311D01*
X0220763Y0164494D01*
X0219946Y0161789D02*
X0224850Y0161789D01*
X0229946Y0161789D02*
X0232398Y0159337D01*
X0232398Y0162607D01*
X0231581Y0164494D02*
X0229946Y0166128D01*
X0234850Y0166128D01*
X0234850Y0164494D02*
X0234850Y0167763D01*
X0239946Y0166946D02*
X0239946Y0165311D01*
X0240763Y0164494D01*
X0241581Y0164494D01*
X0242398Y0165311D01*
X0242398Y0167763D01*
X0244033Y0167763D02*
X0240763Y0167763D01*
X0239946Y0166946D01*
X0244033Y0167763D02*
X0244850Y0166946D01*
X0244850Y0165311D01*
X0244033Y0164494D01*
X0244033Y0162607D02*
X0244850Y0161789D01*
X0244850Y0160155D01*
X0244033Y0159337D01*
X0242398Y0160972D02*
X0242398Y0161789D01*
X0243215Y0162607D01*
X0244033Y0162607D01*
X0242398Y0161789D02*
X0241581Y0162607D01*
X0240763Y0162607D01*
X0239946Y0161789D01*
X0239946Y0160155D01*
X0240763Y0159337D01*
X0234850Y0161789D02*
X0229946Y0161789D01*
X0249946Y0161789D02*
X0250763Y0162607D01*
X0251581Y0162607D01*
X0252398Y0161789D01*
X0253215Y0162607D01*
X0254033Y0162607D01*
X0254850Y0161789D01*
X0254850Y0160155D01*
X0254033Y0159337D01*
X0252398Y0160972D02*
X0252398Y0161789D01*
X0249946Y0161789D02*
X0249946Y0160155D01*
X0250763Y0159337D01*
X0249946Y0164494D02*
X0249946Y0167763D01*
X0250763Y0167763D01*
X0254033Y0164494D01*
X0254850Y0164494D01*
X0259946Y0164494D02*
X0259946Y0167763D01*
X0261581Y0166946D02*
X0262398Y0167763D01*
X0264033Y0167763D01*
X0264850Y0166946D01*
X0264850Y0165311D01*
X0264033Y0164494D01*
X0262398Y0164494D02*
X0261581Y0166128D01*
X0261581Y0166946D01*
X0262398Y0164494D02*
X0259946Y0164494D01*
X0260763Y0162607D02*
X0261581Y0162607D01*
X0262398Y0161789D01*
X0263215Y0162607D01*
X0264033Y0162607D01*
X0264850Y0161789D01*
X0264850Y0160155D01*
X0264033Y0159337D01*
X0262398Y0160972D02*
X0262398Y0161789D01*
X0260763Y0162607D02*
X0259946Y0161789D01*
X0259946Y0160155D01*
X0260763Y0159337D01*
X0269946Y0160155D02*
X0269946Y0161789D01*
X0270763Y0162607D01*
X0271581Y0162607D01*
X0272398Y0161789D01*
X0273215Y0162607D01*
X0274033Y0162607D01*
X0274850Y0161789D01*
X0274850Y0160155D01*
X0274033Y0159337D01*
X0272398Y0160972D02*
X0272398Y0161789D01*
X0269946Y0160155D02*
X0270763Y0159337D01*
X0270763Y0164494D02*
X0269946Y0165311D01*
X0269946Y0166946D01*
X0270763Y0167763D01*
X0271581Y0167763D01*
X0272398Y0166946D01*
X0273215Y0167763D01*
X0274033Y0167763D01*
X0274850Y0166946D01*
X0274850Y0165311D01*
X0274033Y0164494D01*
X0272398Y0166128D02*
X0272398Y0166946D01*
X0279946Y0166128D02*
X0281581Y0164494D01*
X0281581Y0162607D02*
X0282398Y0161789D01*
X0283215Y0162607D01*
X0284033Y0162607D01*
X0284850Y0161789D01*
X0284850Y0160155D01*
X0284033Y0159337D01*
X0282398Y0160972D02*
X0282398Y0161789D01*
X0281581Y0162607D02*
X0280763Y0162607D01*
X0279946Y0161789D01*
X0279946Y0160155D01*
X0280763Y0159337D01*
X0284850Y0164494D02*
X0284850Y0167763D01*
X0284850Y0166128D02*
X0279946Y0166128D01*
X0299450Y0254650D02*
X0299450Y0259554D01*
X0301902Y0259554D01*
X0304606Y0259554D02*
X0307876Y0254650D01*
X0309763Y0264650D02*
X0313032Y0267919D01*
X0313032Y0268737D01*
X0312215Y0269554D01*
X0316450Y0267919D02*
X0318085Y0269554D01*
X0318085Y0264650D01*
X0319719Y0264650D02*
X0316450Y0264650D01*
X0313032Y0264650D02*
X0309763Y0264650D01*
X0321606Y0265467D02*
X0322424Y0264650D01*
X0324058Y0264650D01*
X0324876Y0265467D01*
X0324876Y0266285D01*
X0324058Y0267102D01*
X0321606Y0267102D01*
X0321606Y0265467D01*
X0321606Y0267102D02*
X0323241Y0268737D01*
X0324876Y0269554D01*
X0302719Y0278737D02*
X0301902Y0279554D01*
X0299450Y0279554D01*
X0299450Y0274650D01*
X0320767Y0304650D02*
X0319950Y0305467D01*
X0323219Y0308737D01*
X0323219Y0305467D01*
X0322402Y0304650D01*
X0320767Y0304650D01*
X0319950Y0305467D02*
X0319950Y0308737D01*
X0320767Y0309554D01*
X0322402Y0309554D01*
X0323219Y0308737D01*
X0323219Y0314650D02*
X0319950Y0314650D01*
X0321585Y0314650D02*
X0321585Y0319554D01*
X0319950Y0317919D01*
X0319950Y0324650D02*
X0323219Y0327919D01*
X0323219Y0328737D01*
X0322402Y0329554D01*
X0320767Y0329554D01*
X0319950Y0328737D01*
X0319950Y0324650D02*
X0323219Y0324650D01*
X0322402Y0334650D02*
X0320767Y0334650D01*
X0319950Y0335467D01*
X0321585Y0337102D02*
X0322402Y0337102D01*
X0323219Y0336285D01*
X0323219Y0335467D01*
X0322402Y0334650D01*
X0322402Y0337102D02*
X0323219Y0337919D01*
X0323219Y0338737D01*
X0322402Y0339554D01*
X0320767Y0339554D01*
X0319950Y0338737D01*
X0322402Y0344650D02*
X0322402Y0349554D01*
X0319950Y0347102D01*
X0323219Y0347102D01*
X0322402Y0354650D02*
X0320767Y0354650D01*
X0319950Y0355467D01*
X0319950Y0357102D02*
X0321585Y0357919D01*
X0322402Y0357919D01*
X0323219Y0357102D01*
X0323219Y0355467D01*
X0322402Y0354650D01*
X0319950Y0357102D02*
X0319950Y0359554D01*
X0323219Y0359554D01*
X0322402Y0364650D02*
X0323219Y0365467D01*
X0323219Y0366285D01*
X0322402Y0367102D01*
X0319950Y0367102D01*
X0319950Y0365467D01*
X0320767Y0364650D01*
X0322402Y0364650D01*
X0319950Y0367102D02*
X0321585Y0368737D01*
X0323219Y0369554D01*
X0319950Y0374650D02*
X0319950Y0375467D01*
X0323219Y0378737D01*
X0323219Y0379554D01*
X0319950Y0379554D01*
X0320767Y0389650D02*
X0319950Y0390467D01*
X0319950Y0391285D01*
X0320767Y0392102D01*
X0322402Y0392102D01*
X0323219Y0391285D01*
X0323219Y0390467D01*
X0322402Y0389650D01*
X0320767Y0389650D01*
X0320767Y0392102D02*
X0319950Y0392919D01*
X0319950Y0393737D01*
X0320767Y0394554D01*
X0322402Y0394554D01*
X0323219Y0393737D01*
X0323219Y0392919D01*
X0322402Y0392102D01*
X0322402Y0399650D02*
X0323219Y0400467D01*
X0323219Y0403737D01*
X0322402Y0404554D01*
X0320767Y0404554D01*
X0319950Y0403737D01*
X0319950Y0402919D01*
X0320767Y0402102D01*
X0323219Y0402102D01*
X0322402Y0399650D02*
X0320767Y0399650D01*
X0319950Y0400467D01*
X0320924Y0409650D02*
X0320106Y0410467D01*
X0323376Y0413737D01*
X0323376Y0410467D01*
X0322558Y0409650D01*
X0320924Y0409650D01*
X0320106Y0410467D02*
X0320106Y0413737D01*
X0320924Y0414554D01*
X0322558Y0414554D01*
X0323376Y0413737D01*
X0323376Y0419650D02*
X0320106Y0419650D01*
X0321741Y0419650D02*
X0321741Y0424554D01*
X0320106Y0422919D01*
X0318219Y0419650D02*
X0314950Y0419650D01*
X0316585Y0419650D02*
X0316585Y0424554D01*
X0314950Y0422919D01*
X0314950Y0429650D02*
X0318219Y0429650D01*
X0316585Y0429650D02*
X0316585Y0434554D01*
X0314950Y0432919D01*
X0320106Y0433737D02*
X0320924Y0434554D01*
X0322558Y0434554D01*
X0323376Y0433737D01*
X0323376Y0432919D01*
X0320106Y0429650D01*
X0323376Y0429650D01*
X0322558Y0439650D02*
X0320924Y0439650D01*
X0320106Y0440467D01*
X0318219Y0439650D02*
X0314950Y0439650D01*
X0316585Y0439650D02*
X0316585Y0444554D01*
X0314950Y0442919D01*
X0320106Y0443737D02*
X0320924Y0444554D01*
X0322558Y0444554D01*
X0323376Y0443737D01*
X0323376Y0442919D01*
X0322558Y0442102D01*
X0323376Y0441285D01*
X0323376Y0440467D01*
X0322558Y0439650D01*
X0322558Y0442102D02*
X0321741Y0442102D01*
X0321811Y0449225D02*
X0324263Y0449225D01*
X0325080Y0450042D01*
X0325080Y0453312D01*
X0324263Y0454129D01*
X0321811Y0454129D01*
X0321811Y0449225D01*
X0319924Y0449225D02*
X0319924Y0454129D01*
X0316654Y0454129D02*
X0319924Y0449225D01*
X0316654Y0449225D02*
X0316654Y0454129D01*
X0314767Y0453312D02*
X0313950Y0454129D01*
X0312315Y0454129D01*
X0311498Y0453312D01*
X0311498Y0450042D01*
X0312315Y0449225D01*
X0313950Y0449225D01*
X0314767Y0450042D01*
X0314767Y0451677D01*
X0313133Y0451677D01*
X0311554Y0459767D02*
X0311554Y0464672D01*
X0314007Y0464672D01*
X0314824Y0463854D01*
X0314824Y0462219D01*
X0314007Y0461402D01*
X0311554Y0461402D01*
X0313189Y0461402D02*
X0314824Y0459767D01*
X0316711Y0459767D02*
X0319980Y0459767D01*
X0321867Y0459767D02*
X0321867Y0464672D01*
X0325137Y0464672D01*
X0323502Y0462219D02*
X0321867Y0462219D01*
X0319980Y0464672D02*
X0316711Y0464672D01*
X0316711Y0459767D01*
X0316711Y0462219D02*
X0318346Y0462219D01*
X0309667Y0462219D02*
X0306398Y0462219D01*
X0306398Y0463037D02*
X0308033Y0464672D01*
X0309667Y0463037D01*
X0309667Y0459767D01*
X0306398Y0459767D02*
X0306398Y0463037D01*
X0316585Y0414554D02*
X0316585Y0409650D01*
X0318219Y0409650D02*
X0314950Y0409650D01*
X0314950Y0412919D02*
X0316585Y0414554D01*
X0173093Y0429172D02*
X0169824Y0429172D01*
X0171458Y0429172D02*
X0171458Y0424267D01*
X0167937Y0424267D02*
X0164667Y0424267D01*
X0164667Y0429172D01*
X0167937Y0429172D01*
X0166302Y0426719D02*
X0164667Y0426719D01*
X0162780Y0425902D02*
X0162780Y0425085D01*
X0161963Y0424267D01*
X0160328Y0424267D01*
X0159511Y0425085D01*
X0160328Y0426719D02*
X0161963Y0426719D01*
X0162780Y0425902D01*
X0162780Y0428354D02*
X0161963Y0429172D01*
X0160328Y0429172D01*
X0159511Y0428354D01*
X0159511Y0427537D01*
X0160328Y0426719D01*
X0157624Y0424267D02*
X0154354Y0424267D01*
X0154354Y0429172D01*
X0157624Y0429172D01*
X0155989Y0426719D02*
X0154354Y0426719D01*
X0152467Y0426719D02*
X0151650Y0425902D01*
X0149198Y0425902D01*
X0149198Y0424267D02*
X0149198Y0429172D01*
X0151650Y0429172D01*
X0152467Y0428354D01*
X0152467Y0426719D01*
X0150833Y0425902D02*
X0152467Y0424267D01*
X0151650Y0419172D02*
X0152467Y0418354D01*
X0152467Y0417537D01*
X0151650Y0416719D01*
X0152467Y0415902D01*
X0152467Y0415085D01*
X0151650Y0414267D01*
X0150015Y0414267D01*
X0149198Y0415085D01*
X0150833Y0416719D02*
X0151650Y0416719D01*
X0151650Y0419172D02*
X0150015Y0419172D01*
X0149198Y0418354D01*
X0154354Y0419172D02*
X0154354Y0415902D01*
X0155989Y0414267D01*
X0157624Y0415902D01*
X0157624Y0419172D01*
X0159511Y0418354D02*
X0160328Y0419172D01*
X0161963Y0419172D01*
X0162780Y0418354D01*
X0162780Y0417537D01*
X0161963Y0416719D01*
X0162780Y0415902D01*
X0162780Y0415085D01*
X0161963Y0414267D01*
X0160328Y0414267D01*
X0159511Y0415085D01*
X0161146Y0416719D02*
X0161963Y0416719D01*
X0157824Y0409372D02*
X0157824Y0406102D01*
X0156189Y0404467D01*
X0154554Y0406102D01*
X0154554Y0409372D01*
X0152667Y0409372D02*
X0149398Y0409372D01*
X0149398Y0406919D01*
X0151033Y0407737D01*
X0151850Y0407737D01*
X0152667Y0406919D01*
X0152667Y0405285D01*
X0151850Y0404467D01*
X0150215Y0404467D01*
X0149398Y0405285D01*
X0150215Y0398872D02*
X0149398Y0398054D01*
X0149398Y0394785D01*
X0150215Y0393967D01*
X0151850Y0393967D01*
X0152667Y0394785D01*
X0152667Y0396419D01*
X0151033Y0396419D01*
X0152667Y0398054D02*
X0151850Y0398872D01*
X0150215Y0398872D01*
X0154554Y0398872D02*
X0157824Y0393967D01*
X0157824Y0398872D01*
X0159711Y0398872D02*
X0162163Y0398872D01*
X0162980Y0398054D01*
X0162980Y0394785D01*
X0162163Y0393967D01*
X0159711Y0393967D01*
X0159711Y0398872D01*
X0154554Y0398872D02*
X0154554Y0393967D01*
X0154054Y0389372D02*
X0157324Y0384467D01*
X0157324Y0389372D01*
X0159211Y0389372D02*
X0161663Y0389372D01*
X0162480Y0388554D01*
X0162480Y0385285D01*
X0161663Y0384467D01*
X0159211Y0384467D01*
X0159211Y0389372D01*
X0154054Y0389372D02*
X0154054Y0384467D01*
X0152167Y0385285D02*
X0152167Y0386919D01*
X0150533Y0386919D01*
X0152167Y0385285D02*
X0151350Y0384467D01*
X0149715Y0384467D01*
X0148898Y0385285D01*
X0148898Y0388554D01*
X0149715Y0389372D01*
X0151350Y0389372D01*
X0152167Y0388554D01*
X0152367Y0378872D02*
X0152367Y0375602D01*
X0150733Y0373967D01*
X0149098Y0375602D01*
X0149098Y0378872D01*
X0154254Y0378872D02*
X0155889Y0378872D01*
X0155072Y0378872D02*
X0155072Y0373967D01*
X0155889Y0373967D02*
X0154254Y0373967D01*
X0157692Y0373967D02*
X0157692Y0378872D01*
X0160961Y0373967D01*
X0160961Y0378872D01*
X0153402Y0359054D02*
X0154219Y0358237D01*
X0150950Y0354967D01*
X0151767Y0354150D01*
X0153402Y0354150D01*
X0154219Y0354967D01*
X0154219Y0358237D01*
X0153402Y0359054D02*
X0151767Y0359054D01*
X0150950Y0358237D01*
X0150950Y0354967D01*
X0152585Y0350054D02*
X0152585Y0345150D01*
X0154219Y0345150D02*
X0150950Y0345150D01*
X0150950Y0348419D02*
X0152585Y0350054D01*
X0153402Y0339054D02*
X0151767Y0339054D01*
X0150950Y0338237D01*
X0153402Y0339054D02*
X0154219Y0338237D01*
X0154219Y0337419D01*
X0150950Y0334150D01*
X0154219Y0334150D01*
X0153402Y0329054D02*
X0154219Y0328237D01*
X0154219Y0327419D01*
X0153402Y0326602D01*
X0154219Y0325785D01*
X0154219Y0324967D01*
X0153402Y0324150D01*
X0151767Y0324150D01*
X0150950Y0324967D01*
X0152585Y0326602D02*
X0153402Y0326602D01*
X0153402Y0329054D02*
X0151767Y0329054D01*
X0150950Y0328237D01*
X0153402Y0319054D02*
X0150950Y0316602D01*
X0154219Y0316602D01*
X0153402Y0314150D02*
X0153402Y0319054D01*
X0154219Y0309554D02*
X0150950Y0309554D01*
X0150950Y0307102D01*
X0152585Y0307919D01*
X0153402Y0307919D01*
X0154219Y0307102D01*
X0154219Y0305467D01*
X0153402Y0304650D01*
X0151767Y0304650D01*
X0150950Y0305467D01*
X0154219Y0299554D02*
X0152585Y0298737D01*
X0150950Y0297102D01*
X0153402Y0297102D01*
X0154219Y0296285D01*
X0154219Y0295467D01*
X0153402Y0294650D01*
X0151767Y0294650D01*
X0150950Y0295467D01*
X0150950Y0297102D01*
X0150950Y0289054D02*
X0154219Y0289054D01*
X0154219Y0288237D01*
X0150950Y0284967D01*
X0150950Y0284150D01*
X0151767Y0269054D02*
X0153402Y0269054D01*
X0154219Y0268237D01*
X0154219Y0267419D01*
X0153402Y0266602D01*
X0151767Y0266602D01*
X0150950Y0267419D01*
X0150950Y0268237D01*
X0151767Y0269054D01*
X0151767Y0266602D02*
X0150950Y0265785D01*
X0150950Y0264967D01*
X0151767Y0264150D01*
X0153402Y0264150D01*
X0154219Y0264967D01*
X0154219Y0265785D01*
X0153402Y0266602D01*
X0153402Y0259054D02*
X0151767Y0259054D01*
X0150950Y0258237D01*
X0150950Y0257419D01*
X0151767Y0256602D01*
X0154219Y0256602D01*
X0154219Y0254967D02*
X0154219Y0258237D01*
X0153402Y0259054D01*
X0154219Y0254967D02*
X0153402Y0254150D01*
X0151767Y0254150D01*
X0150950Y0254967D01*
X0152585Y0239054D02*
X0152585Y0234150D01*
X0154219Y0234150D02*
X0150950Y0234150D01*
X0150950Y0237419D02*
X0152585Y0239054D01*
X0156106Y0237419D02*
X0157741Y0239054D01*
X0157741Y0234150D01*
X0156106Y0234150D02*
X0159376Y0234150D01*
X0158558Y0229054D02*
X0156924Y0229054D01*
X0156106Y0228237D01*
X0158558Y0229054D02*
X0159376Y0228237D01*
X0159376Y0227419D01*
X0156106Y0224150D01*
X0159376Y0224150D01*
X0154219Y0224150D02*
X0150950Y0224150D01*
X0152585Y0224150D02*
X0152585Y0229054D01*
X0150950Y0227419D01*
X0152585Y0219054D02*
X0152585Y0214150D01*
X0154219Y0214150D02*
X0150950Y0214150D01*
X0150950Y0217419D02*
X0152585Y0219054D01*
X0156106Y0218237D02*
X0156924Y0219054D01*
X0158558Y0219054D01*
X0159376Y0218237D01*
X0159376Y0217419D01*
X0158558Y0216602D01*
X0159376Y0215785D01*
X0159376Y0214967D01*
X0158558Y0214150D01*
X0156924Y0214150D01*
X0156106Y0214967D01*
X0157741Y0216602D02*
X0158558Y0216602D01*
X0158558Y0209054D02*
X0156106Y0206602D01*
X0159376Y0206602D01*
X0158558Y0204150D02*
X0158558Y0209054D01*
X0152585Y0209054D02*
X0152585Y0204150D01*
X0154219Y0204150D02*
X0150950Y0204150D01*
X0150950Y0207419D02*
X0152585Y0209054D01*
X0152585Y0199554D02*
X0152585Y0194650D01*
X0154219Y0194650D02*
X0150950Y0194650D01*
X0150950Y0197919D02*
X0152585Y0199554D01*
X0156106Y0199554D02*
X0156106Y0197102D01*
X0157741Y0197919D01*
X0158558Y0197919D01*
X0159376Y0197102D01*
X0159376Y0195467D01*
X0158558Y0194650D01*
X0156924Y0194650D01*
X0156106Y0195467D01*
X0156106Y0199554D02*
X0159376Y0199554D01*
X0156533Y0171263D02*
X0153263Y0171263D01*
X0152446Y0170446D01*
X0152446Y0167994D01*
X0157350Y0167994D01*
X0157350Y0170446D01*
X0156533Y0171263D01*
X0157350Y0166107D02*
X0152446Y0166107D01*
X0152446Y0162837D02*
X0157350Y0166107D01*
X0157350Y0162837D02*
X0152446Y0162837D01*
X0153263Y0160950D02*
X0152446Y0160133D01*
X0152446Y0158498D01*
X0153263Y0157681D01*
X0156533Y0157681D01*
X0157350Y0158498D01*
X0157350Y0160133D01*
X0156533Y0160950D01*
X0154898Y0160950D01*
X0154898Y0159316D01*
X0155088Y0433767D02*
X0155905Y0434585D01*
X0155905Y0437854D01*
X0155088Y0438672D01*
X0153453Y0438672D01*
X0152636Y0437854D01*
X0152636Y0434585D01*
X0153453Y0433767D01*
X0155088Y0433767D01*
X0157792Y0433767D02*
X0157792Y0438672D01*
X0160244Y0438672D01*
X0161061Y0437854D01*
X0161061Y0436219D01*
X0160244Y0435402D01*
X0157792Y0435402D01*
X0159427Y0435402D02*
X0161061Y0433767D01*
X0162948Y0433767D02*
X0166218Y0433767D01*
X0168105Y0433767D02*
X0168105Y0438672D01*
X0171374Y0438672D01*
X0169740Y0436219D02*
X0168105Y0436219D01*
X0166218Y0438672D02*
X0162948Y0438672D01*
X0162948Y0433767D01*
X0162948Y0436219D02*
X0164583Y0436219D01*
X0150833Y0433767D02*
X0149198Y0433767D01*
X0150015Y0433767D02*
X0150015Y0438672D01*
X0149198Y0438672D02*
X0150833Y0438672D01*
D14*
X0192096Y0346294D02*
X0190478Y0344675D01*
X0190478Y0341439D01*
X0192096Y0339821D01*
X0195332Y0339821D01*
X0196950Y0341439D01*
X0196950Y0344675D01*
X0195332Y0346294D01*
X0192096Y0346294D01*
X0192096Y0336165D02*
X0190478Y0334547D01*
X0190478Y0329693D01*
X0196950Y0329693D01*
X0196950Y0326176D02*
X0196950Y0322940D01*
X0196950Y0324558D02*
X0190478Y0324558D01*
X0190478Y0322940D01*
X0187242Y0324558D02*
X0185624Y0324558D01*
X0190478Y0319284D02*
X0196950Y0319284D01*
X0196950Y0314430D01*
X0195332Y0312812D01*
X0190478Y0312812D01*
X0190478Y0309155D02*
X0190478Y0304301D01*
X0192096Y0302683D01*
X0195332Y0302683D01*
X0196950Y0304301D01*
X0196950Y0309155D01*
X0187242Y0309155D01*
X0190478Y0299097D02*
X0190478Y0297478D01*
X0193714Y0294242D01*
X0196950Y0294242D02*
X0190478Y0294242D01*
X0190478Y0290586D02*
X0196950Y0290586D01*
X0192096Y0290586D02*
X0192096Y0284114D01*
X0190478Y0284114D02*
X0196950Y0284114D01*
X0190478Y0284114D02*
X0187242Y0287350D01*
X0190478Y0290586D01*
X0192096Y0336165D02*
X0196950Y0336165D01*
D15*
X0197200Y0284152D02*
X0193997Y0284152D01*
X0195065Y0283084D01*
X0193997Y0282017D01*
X0197200Y0282017D01*
X0197200Y0279401D02*
X0193997Y0279401D01*
X0193997Y0278334D02*
X0193997Y0280469D01*
X0173200Y0261398D02*
X0173200Y0259297D01*
X0172499Y0258596D01*
X0171098Y0258596D01*
X0170398Y0259297D01*
X0170398Y0261398D01*
X0168996Y0261398D02*
X0173200Y0261398D01*
X0173200Y0256928D02*
X0173200Y0255527D01*
X0173200Y0256227D02*
X0170398Y0256227D01*
X0170398Y0255527D01*
X0168996Y0256227D02*
X0168296Y0256227D01*
X0171098Y0253725D02*
X0170398Y0253025D01*
X0170398Y0251623D01*
X0171098Y0250923D01*
X0172499Y0250923D01*
X0173200Y0251623D01*
X0173200Y0253025D01*
X0172499Y0253725D01*
X0171098Y0253725D01*
X0170398Y0249188D02*
X0170398Y0248487D01*
X0171799Y0247086D01*
X0173200Y0247086D02*
X0170398Y0247086D01*
X0170398Y0245285D02*
X0170398Y0243183D01*
X0171098Y0242482D01*
X0172499Y0242482D01*
X0173200Y0243183D01*
X0173200Y0245285D01*
X0168996Y0245285D01*
X0171098Y0240681D02*
X0173200Y0240681D01*
X0171098Y0240681D02*
X0170398Y0239980D01*
X0170398Y0237878D01*
X0173200Y0237878D01*
X0173200Y0236077D02*
X0170398Y0236077D01*
X0168996Y0234676D01*
X0170398Y0233274D01*
X0173200Y0233274D01*
X0171098Y0233274D02*
X0171098Y0236077D01*
X0170398Y0226936D02*
X0170398Y0226235D01*
X0171799Y0224834D01*
X0173200Y0224834D02*
X0170398Y0224834D01*
X0171098Y0223032D02*
X0170398Y0222332D01*
X0170398Y0220931D01*
X0171098Y0220230D01*
X0172499Y0220230D01*
X0173200Y0220931D01*
X0173200Y0222332D01*
X0172499Y0223032D01*
X0171098Y0223032D01*
X0171098Y0218562D02*
X0171098Y0217161D01*
X0169697Y0217861D02*
X0173200Y0217861D01*
X0169697Y0217861D02*
X0168996Y0218562D01*
X0251850Y0311233D02*
X0250448Y0312634D01*
X0254652Y0312634D01*
X0254652Y0311233D02*
X0254652Y0314035D01*
X0365513Y0351328D02*
X0365513Y0492272D01*
X0679687Y0492272D01*
X0679687Y0351328D01*
X0365513Y0351328D01*
X0377915Y0372194D02*
X0377915Y0469044D01*
X0667285Y0469044D01*
X0667285Y0372194D01*
X0377915Y0372194D01*
X0396025Y0393847D02*
X0396025Y0447391D01*
X0649175Y0447391D01*
X0649175Y0393847D01*
X0396025Y0393847D01*
X0330702Y0507304D02*
X0330702Y0538406D01*
X0318891Y0538406D01*
X0318891Y0546280D01*
X0280309Y0546280D01*
X0277159Y0546280D01*
X0274403Y0546674D01*
X0273222Y0547068D01*
X0273222Y0552580D01*
X0274403Y0552973D01*
X0277159Y0553367D01*
X0280309Y0553367D01*
X0318891Y0553367D01*
X0322041Y0553367D01*
X0324797Y0552973D01*
X0325978Y0552580D01*
X0325978Y0547068D01*
X0324797Y0546674D01*
X0322041Y0546280D01*
X0318891Y0546280D01*
X0317710Y0546674D02*
X0320860Y0546280D01*
X0317710Y0546674D02*
X0314561Y0547461D01*
X0312986Y0548249D01*
X0312986Y0551398D01*
X0314561Y0552186D01*
X0317710Y0552973D01*
X0320860Y0553367D01*
X0318891Y0553367D02*
X0318891Y0571871D01*
X0317317Y0573446D01*
X0281883Y0573446D01*
X0280309Y0571871D01*
X0280309Y0553367D01*
X0281490Y0552973D02*
X0278340Y0553367D01*
X0281490Y0552973D02*
X0284639Y0552186D01*
X0286214Y0551398D01*
X0286214Y0548249D01*
X0284639Y0547461D01*
X0281490Y0546674D01*
X0278340Y0546280D01*
X0280309Y0546280D02*
X0280309Y0538406D01*
X0268498Y0538406D01*
X0268498Y0507304D01*
X0330702Y0507304D01*
X0318891Y0538406D02*
X0280309Y0538406D01*
X0286214Y0548249D02*
X0287789Y0547461D01*
X0290939Y0546674D01*
X0294088Y0546280D01*
X0294088Y0553367D02*
X0290939Y0552973D01*
X0287789Y0552186D01*
X0286214Y0551398D01*
X0305112Y0553367D02*
X0308261Y0552973D01*
X0311411Y0552186D01*
X0311439Y0552186D02*
X0313014Y0551398D01*
X0312986Y0548249D02*
X0311411Y0547461D01*
X0308261Y0546674D01*
X0305112Y0546280D01*
X0311017Y0573839D02*
X0311017Y0715572D01*
X0288183Y0715572D01*
X0288183Y0573839D01*
D16*
X0058100Y0144800D02*
X0060600Y0142300D01*
X0065600Y0142300D01*
X0068100Y0144800D01*
X0068100Y0149800D01*
X0065600Y0152300D01*
X0060600Y0152300D01*
X0058100Y0149800D01*
X0058100Y0144800D01*
X0068100Y0144800D02*
X0070600Y0142300D01*
X0075600Y0142300D01*
X0078100Y0144800D01*
X0078100Y0149800D01*
X0075600Y0152300D01*
X0070600Y0152300D01*
X0068100Y0149800D01*
X0078100Y0149800D02*
X0080600Y0152300D01*
X0085600Y0152300D01*
X0088100Y0149800D01*
X0090600Y0152300D01*
X0095600Y0152300D01*
X0098100Y0149800D01*
X0100600Y0152300D01*
X0105600Y0152300D01*
X0108100Y0149800D01*
X0110600Y0152300D01*
X0115600Y0152300D01*
X0118100Y0149800D01*
X0120600Y0152300D01*
X0125600Y0152300D01*
X0128100Y0149800D01*
X0130600Y0152300D01*
X0135600Y0152300D01*
X0138100Y0149800D01*
X0140600Y0152300D01*
X0145600Y0152300D01*
X0148100Y0149800D01*
X0150600Y0152300D01*
X0155600Y0152300D01*
X0158100Y0149800D01*
X0160600Y0152300D01*
X0165600Y0152300D01*
X0168100Y0149800D01*
X0170600Y0152300D01*
X0175600Y0152300D01*
X0178100Y0149800D01*
X0178100Y0144800D01*
X0175600Y0142300D01*
X0170600Y0142300D01*
X0168100Y0144800D01*
X0165600Y0142300D01*
X0160600Y0142300D01*
X0158100Y0144800D01*
X0158100Y0149800D01*
X0158100Y0144800D02*
X0155600Y0142300D01*
X0150600Y0142300D01*
X0148100Y0144800D01*
X0145600Y0142300D01*
X0140600Y0142300D01*
X0138100Y0144800D01*
X0135600Y0142300D01*
X0130600Y0142300D01*
X0128100Y0144800D01*
X0128100Y0149800D01*
X0128100Y0144800D02*
X0125600Y0142300D01*
X0120600Y0142300D01*
X0118100Y0144800D01*
X0115600Y0142300D01*
X0110600Y0142300D01*
X0108100Y0144800D01*
X0105600Y0142300D01*
X0100600Y0142300D01*
X0098100Y0144800D01*
X0098100Y0149800D01*
X0098100Y0144800D02*
X0095600Y0142300D01*
X0090600Y0142300D01*
X0088100Y0144800D01*
X0085600Y0142300D01*
X0080600Y0142300D01*
X0078100Y0144800D01*
X0088100Y0144800D02*
X0088100Y0149800D01*
X0108100Y0149800D02*
X0108100Y0144800D01*
X0118100Y0144800D02*
X0118100Y0149800D01*
X0138100Y0149800D02*
X0138100Y0144800D01*
X0148100Y0144800D02*
X0148100Y0149800D01*
X0168100Y0149800D02*
X0168100Y0144800D01*
X0169600Y0171800D02*
X0167100Y0174300D01*
X0167100Y0189300D01*
X0169600Y0191800D01*
X0174600Y0191800D01*
X0177100Y0189300D01*
X0177100Y0174300D01*
X0174600Y0171800D01*
X0169600Y0171800D01*
X0167100Y0174300D02*
X0164600Y0171800D01*
X0159600Y0171800D01*
X0157100Y0174300D01*
X0157100Y0189300D01*
X0159600Y0191800D01*
X0164600Y0191800D01*
X0167100Y0189300D01*
X0177100Y0189300D02*
X0179600Y0191800D01*
X0184600Y0191800D01*
X0187100Y0189300D01*
X0187100Y0174300D01*
X0184600Y0171800D01*
X0179600Y0171800D01*
X0177100Y0174300D01*
X0187100Y0174300D02*
X0189600Y0171800D01*
X0194600Y0171800D01*
X0197100Y0174300D01*
X0197100Y0189300D01*
X0199600Y0191800D01*
X0204600Y0191800D01*
X0207100Y0189300D01*
X0207100Y0174300D01*
X0204600Y0171800D01*
X0199600Y0171800D01*
X0197100Y0174300D01*
X0207100Y0174300D02*
X0209600Y0171800D01*
X0214600Y0171800D01*
X0217100Y0174300D01*
X0217100Y0189300D01*
X0219600Y0191800D01*
X0224600Y0191800D01*
X0227100Y0189300D01*
X0227100Y0174300D01*
X0224600Y0171800D01*
X0219600Y0171800D01*
X0217100Y0174300D01*
X0227100Y0174300D02*
X0229600Y0171800D01*
X0234600Y0171800D01*
X0237100Y0174300D01*
X0237100Y0189300D01*
X0239600Y0191800D01*
X0244600Y0191800D01*
X0247100Y0189300D01*
X0247100Y0174300D01*
X0244600Y0171800D01*
X0239600Y0171800D01*
X0237100Y0174300D01*
X0247100Y0174300D02*
X0249600Y0171800D01*
X0254600Y0171800D01*
X0257100Y0174300D01*
X0257100Y0189300D01*
X0259600Y0191800D01*
X0264600Y0191800D01*
X0267100Y0189300D01*
X0267100Y0174300D01*
X0264600Y0171800D01*
X0259600Y0171800D01*
X0257100Y0174300D01*
X0267100Y0174300D02*
X0269600Y0171800D01*
X0274600Y0171800D01*
X0277100Y0174300D01*
X0277100Y0189300D01*
X0274600Y0191800D01*
X0269600Y0191800D01*
X0267100Y0189300D01*
X0277100Y0189300D02*
X0279600Y0191800D01*
X0284600Y0191800D01*
X0287100Y0189300D01*
X0287100Y0174300D01*
X0284600Y0171800D01*
X0279600Y0171800D01*
X0277100Y0174300D01*
X0287100Y0174300D02*
X0289600Y0171800D01*
X0294600Y0171800D01*
X0297100Y0174300D01*
X0297100Y0189300D01*
X0294600Y0191800D01*
X0289600Y0191800D01*
X0287100Y0189300D01*
X0297100Y0189300D02*
X0299600Y0191800D01*
X0304600Y0191800D01*
X0307100Y0189300D01*
X0307100Y0174300D01*
X0304600Y0171800D01*
X0299600Y0171800D01*
X0297100Y0174300D01*
X0307100Y0174300D02*
X0309600Y0171800D01*
X0314600Y0171800D01*
X0317100Y0174300D01*
X0317100Y0189300D01*
X0314600Y0191800D01*
X0309600Y0191800D01*
X0307100Y0189300D01*
X0317100Y0189300D02*
X0319600Y0191800D01*
X0324600Y0191800D01*
X0327100Y0189300D01*
X0327100Y0174300D01*
X0324600Y0171800D01*
X0319600Y0171800D01*
X0317100Y0174300D01*
X0327100Y0174300D02*
X0329600Y0171800D01*
X0334600Y0171800D01*
X0337100Y0174300D01*
X0337100Y0189300D01*
X0334600Y0191800D01*
X0329600Y0191800D01*
X0327100Y0189300D01*
X0329600Y0211800D02*
X0327100Y0214300D01*
X0327100Y0219300D01*
X0329600Y0221800D01*
X0327100Y0224300D01*
X0327100Y0229300D01*
X0329600Y0231800D01*
X0334600Y0231800D01*
X0337100Y0229300D01*
X0337100Y0224300D01*
X0334600Y0221800D01*
X0337100Y0219300D01*
X0337100Y0214300D01*
X0334600Y0211800D01*
X0329600Y0211800D01*
X0329600Y0221800D02*
X0334600Y0221800D01*
X0334600Y0231800D02*
X0337100Y0234300D01*
X0337100Y0239300D01*
X0334600Y0241800D01*
X0337100Y0244300D01*
X0337100Y0249300D01*
X0334600Y0251800D01*
X0337100Y0254300D01*
X0337100Y0259300D01*
X0334600Y0261800D01*
X0329600Y0261800D01*
X0327100Y0259300D01*
X0327100Y0254300D01*
X0329600Y0251800D01*
X0334600Y0251800D01*
X0329600Y0251800D02*
X0327100Y0249300D01*
X0327100Y0244300D01*
X0329600Y0241800D01*
X0334600Y0241800D01*
X0329600Y0241800D02*
X0327100Y0239300D01*
X0327100Y0234300D01*
X0329600Y0231800D01*
X0329600Y0261800D02*
X0327100Y0264300D01*
X0327100Y0269300D01*
X0329600Y0271800D01*
X0327100Y0274300D01*
X0327100Y0279300D01*
X0329600Y0281800D01*
X0327100Y0284300D01*
X0327100Y0289300D01*
X0329600Y0291800D01*
X0334600Y0291800D01*
X0337100Y0289300D01*
X0337100Y0284300D01*
X0334600Y0281800D01*
X0337100Y0279300D01*
X0337100Y0274300D01*
X0334600Y0271800D01*
X0337100Y0269300D01*
X0337100Y0264300D01*
X0334600Y0261800D01*
X0334600Y0271800D02*
X0329600Y0271800D01*
X0323100Y0271800D02*
X0322600Y0272300D01*
X0322600Y0286300D01*
X0323100Y0286800D01*
X0323100Y0288300D01*
X0323098Y0288360D01*
X0323093Y0288421D01*
X0323084Y0288480D01*
X0323071Y0288539D01*
X0323055Y0288598D01*
X0323035Y0288655D01*
X0323012Y0288710D01*
X0322985Y0288765D01*
X0322956Y0288817D01*
X0322923Y0288868D01*
X0322887Y0288917D01*
X0322849Y0288963D01*
X0322807Y0289007D01*
X0322763Y0289049D01*
X0322717Y0289087D01*
X0322668Y0289123D01*
X0322617Y0289156D01*
X0322565Y0289185D01*
X0322510Y0289212D01*
X0322455Y0289235D01*
X0322398Y0289255D01*
X0322339Y0289271D01*
X0322280Y0289284D01*
X0322221Y0289293D01*
X0322160Y0289298D01*
X0322100Y0289300D01*
X0316100Y0289300D01*
X0316040Y0289298D01*
X0315979Y0289293D01*
X0315920Y0289284D01*
X0315861Y0289271D01*
X0315802Y0289255D01*
X0315745Y0289235D01*
X0315690Y0289212D01*
X0315635Y0289185D01*
X0315583Y0289156D01*
X0315532Y0289123D01*
X0315483Y0289087D01*
X0315437Y0289049D01*
X0315393Y0289007D01*
X0315351Y0288963D01*
X0315313Y0288917D01*
X0315277Y0288868D01*
X0315244Y0288817D01*
X0315215Y0288765D01*
X0315188Y0288710D01*
X0315165Y0288655D01*
X0315145Y0288598D01*
X0315129Y0288539D01*
X0315116Y0288480D01*
X0315107Y0288421D01*
X0315102Y0288360D01*
X0315100Y0288300D01*
X0315100Y0286800D01*
X0315600Y0286300D01*
X0315600Y0272300D01*
X0315100Y0271800D01*
X0315100Y0270300D01*
X0315102Y0270240D01*
X0315107Y0270179D01*
X0315116Y0270120D01*
X0315129Y0270061D01*
X0315145Y0270002D01*
X0315165Y0269945D01*
X0315188Y0269890D01*
X0315215Y0269835D01*
X0315244Y0269783D01*
X0315277Y0269732D01*
X0315313Y0269683D01*
X0315351Y0269637D01*
X0315393Y0269593D01*
X0315437Y0269551D01*
X0315483Y0269513D01*
X0315532Y0269477D01*
X0315583Y0269444D01*
X0315635Y0269415D01*
X0315690Y0269388D01*
X0315745Y0269365D01*
X0315802Y0269345D01*
X0315861Y0269329D01*
X0315920Y0269316D01*
X0315979Y0269307D01*
X0316040Y0269302D01*
X0316100Y0269300D01*
X0322100Y0269300D01*
X0322160Y0269302D01*
X0322221Y0269307D01*
X0322280Y0269316D01*
X0322339Y0269329D01*
X0322398Y0269345D01*
X0322455Y0269365D01*
X0322510Y0269388D01*
X0322565Y0269415D01*
X0322617Y0269444D01*
X0322668Y0269477D01*
X0322717Y0269513D01*
X0322763Y0269551D01*
X0322807Y0269593D01*
X0322849Y0269637D01*
X0322887Y0269683D01*
X0322923Y0269732D01*
X0322956Y0269783D01*
X0322985Y0269835D01*
X0323012Y0269890D01*
X0323035Y0269945D01*
X0323055Y0270002D01*
X0323071Y0270061D01*
X0323084Y0270120D01*
X0323093Y0270179D01*
X0323098Y0270240D01*
X0323100Y0270300D01*
X0323100Y0271800D01*
X0329600Y0281800D02*
X0334600Y0281800D01*
X0334600Y0301800D02*
X0329600Y0301800D01*
X0327100Y0304300D01*
X0327100Y0309300D01*
X0329600Y0311800D01*
X0327100Y0314300D01*
X0327100Y0319300D01*
X0329600Y0321800D01*
X0334600Y0321800D01*
X0337100Y0319300D01*
X0337100Y0314300D01*
X0334600Y0311800D01*
X0337100Y0309300D01*
X0337100Y0304300D01*
X0334600Y0301800D01*
X0334600Y0311800D02*
X0329600Y0311800D01*
X0329600Y0321800D02*
X0327100Y0324300D01*
X0327100Y0329300D01*
X0329600Y0331800D01*
X0327100Y0334300D01*
X0327100Y0339300D01*
X0329600Y0341800D01*
X0327100Y0344300D01*
X0327100Y0349300D01*
X0329600Y0351800D01*
X0334600Y0351800D01*
X0337100Y0349300D01*
X0337100Y0344300D01*
X0334600Y0341800D01*
X0337100Y0339300D01*
X0337100Y0334300D01*
X0334600Y0331800D01*
X0337100Y0329300D01*
X0337100Y0324300D01*
X0334600Y0321800D01*
X0347100Y0322800D02*
X0347100Y0316800D01*
X0348100Y0316800D01*
X0348100Y0315800D01*
X0348100Y0322800D02*
X0347100Y0322800D01*
X0348100Y0322800D02*
X0348100Y0323800D01*
X0351600Y0331800D02*
X0355600Y0331800D01*
X0365100Y0331800D01*
X0368600Y0331800D01*
X0372100Y0323800D02*
X0372100Y0322800D01*
X0373100Y0322800D01*
X0373100Y0316800D01*
X0372100Y0316800D01*
X0372100Y0315800D01*
X0368600Y0307800D02*
X0365100Y0307800D01*
X0355100Y0307800D01*
X0351600Y0307800D01*
X0359100Y0319800D02*
X0359102Y0319863D01*
X0359108Y0319925D01*
X0359118Y0319987D01*
X0359131Y0320049D01*
X0359149Y0320109D01*
X0359170Y0320168D01*
X0359195Y0320226D01*
X0359224Y0320282D01*
X0359256Y0320336D01*
X0359291Y0320388D01*
X0359329Y0320437D01*
X0359371Y0320485D01*
X0359415Y0320529D01*
X0359463Y0320571D01*
X0359512Y0320609D01*
X0359564Y0320644D01*
X0359618Y0320676D01*
X0359674Y0320705D01*
X0359732Y0320730D01*
X0359791Y0320751D01*
X0359851Y0320769D01*
X0359913Y0320782D01*
X0359975Y0320792D01*
X0360037Y0320798D01*
X0360100Y0320800D01*
X0360163Y0320798D01*
X0360225Y0320792D01*
X0360287Y0320782D01*
X0360349Y0320769D01*
X0360409Y0320751D01*
X0360468Y0320730D01*
X0360526Y0320705D01*
X0360582Y0320676D01*
X0360636Y0320644D01*
X0360688Y0320609D01*
X0360737Y0320571D01*
X0360785Y0320529D01*
X0360829Y0320485D01*
X0360871Y0320437D01*
X0360909Y0320388D01*
X0360944Y0320336D01*
X0360976Y0320282D01*
X0361005Y0320226D01*
X0361030Y0320168D01*
X0361051Y0320109D01*
X0361069Y0320049D01*
X0361082Y0319987D01*
X0361092Y0319925D01*
X0361098Y0319863D01*
X0361100Y0319800D01*
X0361098Y0319737D01*
X0361092Y0319675D01*
X0361082Y0319613D01*
X0361069Y0319551D01*
X0361051Y0319491D01*
X0361030Y0319432D01*
X0361005Y0319374D01*
X0360976Y0319318D01*
X0360944Y0319264D01*
X0360909Y0319212D01*
X0360871Y0319163D01*
X0360829Y0319115D01*
X0360785Y0319071D01*
X0360737Y0319029D01*
X0360688Y0318991D01*
X0360636Y0318956D01*
X0360582Y0318924D01*
X0360526Y0318895D01*
X0360468Y0318870D01*
X0360409Y0318849D01*
X0360349Y0318831D01*
X0360287Y0318818D01*
X0360225Y0318808D01*
X0360163Y0318802D01*
X0360100Y0318800D01*
X0360037Y0318802D01*
X0359975Y0318808D01*
X0359913Y0318818D01*
X0359851Y0318831D01*
X0359791Y0318849D01*
X0359732Y0318870D01*
X0359674Y0318895D01*
X0359618Y0318924D01*
X0359564Y0318956D01*
X0359512Y0318991D01*
X0359463Y0319029D01*
X0359415Y0319071D01*
X0359371Y0319115D01*
X0359329Y0319163D01*
X0359291Y0319212D01*
X0359256Y0319264D01*
X0359224Y0319318D01*
X0359195Y0319374D01*
X0359170Y0319432D01*
X0359149Y0319491D01*
X0359131Y0319551D01*
X0359118Y0319613D01*
X0359108Y0319675D01*
X0359102Y0319737D01*
X0359100Y0319800D01*
X0353100Y0319800D02*
X0353102Y0319972D01*
X0353108Y0320143D01*
X0353119Y0320315D01*
X0353134Y0320486D01*
X0353153Y0320657D01*
X0353176Y0320827D01*
X0353203Y0320997D01*
X0353235Y0321166D01*
X0353270Y0321334D01*
X0353310Y0321501D01*
X0353354Y0321667D01*
X0353401Y0321832D01*
X0353453Y0321996D01*
X0353509Y0322158D01*
X0353569Y0322319D01*
X0353633Y0322479D01*
X0353701Y0322637D01*
X0353772Y0322793D01*
X0353847Y0322947D01*
X0353927Y0323100D01*
X0354009Y0323250D01*
X0354096Y0323399D01*
X0354186Y0323545D01*
X0354280Y0323689D01*
X0354377Y0323831D01*
X0354478Y0323970D01*
X0354582Y0324107D01*
X0354689Y0324241D01*
X0354800Y0324372D01*
X0354913Y0324501D01*
X0355030Y0324627D01*
X0355150Y0324750D01*
X0355273Y0324870D01*
X0355399Y0324987D01*
X0355528Y0325100D01*
X0355659Y0325211D01*
X0355793Y0325318D01*
X0355930Y0325422D01*
X0356069Y0325523D01*
X0356211Y0325620D01*
X0356355Y0325714D01*
X0356501Y0325804D01*
X0356650Y0325891D01*
X0356800Y0325973D01*
X0356953Y0326053D01*
X0357107Y0326128D01*
X0357263Y0326199D01*
X0357421Y0326267D01*
X0357581Y0326331D01*
X0357742Y0326391D01*
X0357904Y0326447D01*
X0358068Y0326499D01*
X0358233Y0326546D01*
X0358399Y0326590D01*
X0358566Y0326630D01*
X0358734Y0326665D01*
X0358903Y0326697D01*
X0359073Y0326724D01*
X0359243Y0326747D01*
X0359414Y0326766D01*
X0359585Y0326781D01*
X0359757Y0326792D01*
X0359928Y0326798D01*
X0360100Y0326800D01*
X0360272Y0326798D01*
X0360443Y0326792D01*
X0360615Y0326781D01*
X0360786Y0326766D01*
X0360957Y0326747D01*
X0361127Y0326724D01*
X0361297Y0326697D01*
X0361466Y0326665D01*
X0361634Y0326630D01*
X0361801Y0326590D01*
X0361967Y0326546D01*
X0362132Y0326499D01*
X0362296Y0326447D01*
X0362458Y0326391D01*
X0362619Y0326331D01*
X0362779Y0326267D01*
X0362937Y0326199D01*
X0363093Y0326128D01*
X0363247Y0326053D01*
X0363400Y0325973D01*
X0363550Y0325891D01*
X0363699Y0325804D01*
X0363845Y0325714D01*
X0363989Y0325620D01*
X0364131Y0325523D01*
X0364270Y0325422D01*
X0364407Y0325318D01*
X0364541Y0325211D01*
X0364672Y0325100D01*
X0364801Y0324987D01*
X0364927Y0324870D01*
X0365050Y0324750D01*
X0365170Y0324627D01*
X0365287Y0324501D01*
X0365400Y0324372D01*
X0365511Y0324241D01*
X0365618Y0324107D01*
X0365722Y0323970D01*
X0365823Y0323831D01*
X0365920Y0323689D01*
X0366014Y0323545D01*
X0366104Y0323399D01*
X0366191Y0323250D01*
X0366273Y0323100D01*
X0366353Y0322947D01*
X0366428Y0322793D01*
X0366499Y0322637D01*
X0366567Y0322479D01*
X0366631Y0322319D01*
X0366691Y0322158D01*
X0366747Y0321996D01*
X0366799Y0321832D01*
X0366846Y0321667D01*
X0366890Y0321501D01*
X0366930Y0321334D01*
X0366965Y0321166D01*
X0366997Y0320997D01*
X0367024Y0320827D01*
X0367047Y0320657D01*
X0367066Y0320486D01*
X0367081Y0320315D01*
X0367092Y0320143D01*
X0367098Y0319972D01*
X0367100Y0319800D01*
X0367098Y0319628D01*
X0367092Y0319457D01*
X0367081Y0319285D01*
X0367066Y0319114D01*
X0367047Y0318943D01*
X0367024Y0318773D01*
X0366997Y0318603D01*
X0366965Y0318434D01*
X0366930Y0318266D01*
X0366890Y0318099D01*
X0366846Y0317933D01*
X0366799Y0317768D01*
X0366747Y0317604D01*
X0366691Y0317442D01*
X0366631Y0317281D01*
X0366567Y0317121D01*
X0366499Y0316963D01*
X0366428Y0316807D01*
X0366353Y0316653D01*
X0366273Y0316500D01*
X0366191Y0316350D01*
X0366104Y0316201D01*
X0366014Y0316055D01*
X0365920Y0315911D01*
X0365823Y0315769D01*
X0365722Y0315630D01*
X0365618Y0315493D01*
X0365511Y0315359D01*
X0365400Y0315228D01*
X0365287Y0315099D01*
X0365170Y0314973D01*
X0365050Y0314850D01*
X0364927Y0314730D01*
X0364801Y0314613D01*
X0364672Y0314500D01*
X0364541Y0314389D01*
X0364407Y0314282D01*
X0364270Y0314178D01*
X0364131Y0314077D01*
X0363989Y0313980D01*
X0363845Y0313886D01*
X0363699Y0313796D01*
X0363550Y0313709D01*
X0363400Y0313627D01*
X0363247Y0313547D01*
X0363093Y0313472D01*
X0362937Y0313401D01*
X0362779Y0313333D01*
X0362619Y0313269D01*
X0362458Y0313209D01*
X0362296Y0313153D01*
X0362132Y0313101D01*
X0361967Y0313054D01*
X0361801Y0313010D01*
X0361634Y0312970D01*
X0361466Y0312935D01*
X0361297Y0312903D01*
X0361127Y0312876D01*
X0360957Y0312853D01*
X0360786Y0312834D01*
X0360615Y0312819D01*
X0360443Y0312808D01*
X0360272Y0312802D01*
X0360100Y0312800D01*
X0359928Y0312802D01*
X0359757Y0312808D01*
X0359585Y0312819D01*
X0359414Y0312834D01*
X0359243Y0312853D01*
X0359073Y0312876D01*
X0358903Y0312903D01*
X0358734Y0312935D01*
X0358566Y0312970D01*
X0358399Y0313010D01*
X0358233Y0313054D01*
X0358068Y0313101D01*
X0357904Y0313153D01*
X0357742Y0313209D01*
X0357581Y0313269D01*
X0357421Y0313333D01*
X0357263Y0313401D01*
X0357107Y0313472D01*
X0356953Y0313547D01*
X0356800Y0313627D01*
X0356650Y0313709D01*
X0356501Y0313796D01*
X0356355Y0313886D01*
X0356211Y0313980D01*
X0356069Y0314077D01*
X0355930Y0314178D01*
X0355793Y0314282D01*
X0355659Y0314389D01*
X0355528Y0314500D01*
X0355399Y0314613D01*
X0355273Y0314730D01*
X0355150Y0314850D01*
X0355030Y0314973D01*
X0354913Y0315099D01*
X0354800Y0315228D01*
X0354689Y0315359D01*
X0354582Y0315493D01*
X0354478Y0315630D01*
X0354377Y0315769D01*
X0354280Y0315911D01*
X0354186Y0316055D01*
X0354096Y0316201D01*
X0354009Y0316350D01*
X0353927Y0316500D01*
X0353847Y0316653D01*
X0353772Y0316807D01*
X0353701Y0316963D01*
X0353633Y0317121D01*
X0353569Y0317281D01*
X0353509Y0317442D01*
X0353453Y0317604D01*
X0353401Y0317768D01*
X0353354Y0317933D01*
X0353310Y0318099D01*
X0353270Y0318266D01*
X0353235Y0318434D01*
X0353203Y0318603D01*
X0353176Y0318773D01*
X0353153Y0318943D01*
X0353134Y0319114D01*
X0353119Y0319285D01*
X0353108Y0319457D01*
X0353102Y0319628D01*
X0353100Y0319800D01*
X0354600Y0334300D02*
X0352100Y0336800D01*
X0354600Y0339300D01*
X0357100Y0336800D02*
X0354600Y0334300D01*
X0366627Y0339254D02*
X0366773Y0339341D01*
X0366916Y0339432D01*
X0367057Y0339526D01*
X0367196Y0339624D01*
X0367333Y0339725D01*
X0367467Y0339829D01*
X0367598Y0339936D01*
X0367727Y0340047D01*
X0367853Y0340161D01*
X0367976Y0340277D01*
X0368096Y0340397D01*
X0368214Y0340520D01*
X0368328Y0340645D01*
X0368439Y0340773D01*
X0368548Y0340904D01*
X0368653Y0341037D01*
X0368754Y0341173D01*
X0368853Y0341312D01*
X0368948Y0341452D01*
X0369039Y0341595D01*
X0369127Y0341740D01*
X0369212Y0341887D01*
X0369293Y0342037D01*
X0369370Y0342188D01*
X0369444Y0342341D01*
X0369514Y0342495D01*
X0369580Y0342652D01*
X0369642Y0342810D01*
X0369700Y0342969D01*
X0369755Y0343130D01*
X0369806Y0343292D01*
X0369852Y0343455D01*
X0369895Y0343619D01*
X0369934Y0343784D01*
X0369969Y0343951D01*
X0369999Y0344118D01*
X0370026Y0344285D01*
X0370049Y0344453D01*
X0370067Y0344622D01*
X0370081Y0344791D01*
X0370092Y0344961D01*
X0370098Y0345130D01*
X0370100Y0345300D01*
X0352600Y0345300D02*
X0352603Y0345558D01*
X0352613Y0345815D01*
X0352628Y0346072D01*
X0352651Y0346329D01*
X0352679Y0346585D01*
X0352714Y0346841D01*
X0352755Y0347095D01*
X0352802Y0347348D01*
X0352855Y0347601D01*
X0352915Y0347851D01*
X0352980Y0348100D01*
X0353052Y0348348D01*
X0353130Y0348594D01*
X0353214Y0348837D01*
X0353304Y0349079D01*
X0353399Y0349318D01*
X0353501Y0349555D01*
X0353608Y0349789D01*
X0353721Y0350021D01*
X0353840Y0350250D01*
X0353964Y0350475D01*
X0354094Y0350698D01*
X0354229Y0350917D01*
X0354370Y0351133D01*
X0354515Y0351346D01*
X0354666Y0351555D01*
X0354822Y0351760D01*
X0354983Y0351961D01*
X0355149Y0352158D01*
X0355320Y0352351D01*
X0355495Y0352540D01*
X0355675Y0352725D01*
X0355860Y0352905D01*
X0356049Y0353080D01*
X0356242Y0353251D01*
X0356439Y0353417D01*
X0356640Y0353578D01*
X0356845Y0353734D01*
X0357054Y0353885D01*
X0357267Y0354030D01*
X0357483Y0354171D01*
X0357702Y0354306D01*
X0357925Y0354436D01*
X0358150Y0354560D01*
X0358379Y0354679D01*
X0358611Y0354792D01*
X0358845Y0354899D01*
X0359082Y0355001D01*
X0359321Y0355096D01*
X0359563Y0355186D01*
X0359806Y0355270D01*
X0360052Y0355348D01*
X0360300Y0355420D01*
X0360549Y0355485D01*
X0360799Y0355545D01*
X0361052Y0355598D01*
X0361305Y0355645D01*
X0361559Y0355686D01*
X0361815Y0355721D01*
X0362071Y0355749D01*
X0362328Y0355772D01*
X0362585Y0355787D01*
X0362842Y0355797D01*
X0363100Y0355800D01*
X0363358Y0355797D01*
X0363615Y0355787D01*
X0363872Y0355772D01*
X0364129Y0355749D01*
X0364385Y0355721D01*
X0364641Y0355686D01*
X0364895Y0355645D01*
X0365148Y0355598D01*
X0365401Y0355545D01*
X0365651Y0355485D01*
X0365900Y0355420D01*
X0366148Y0355348D01*
X0366394Y0355270D01*
X0366637Y0355186D01*
X0366879Y0355096D01*
X0367118Y0355001D01*
X0367355Y0354899D01*
X0367589Y0354792D01*
X0367821Y0354679D01*
X0368050Y0354560D01*
X0368275Y0354436D01*
X0368498Y0354306D01*
X0368717Y0354171D01*
X0368933Y0354030D01*
X0369146Y0353885D01*
X0369355Y0353734D01*
X0369560Y0353578D01*
X0369761Y0353417D01*
X0369958Y0353251D01*
X0370151Y0353080D01*
X0370340Y0352905D01*
X0370525Y0352725D01*
X0370705Y0352540D01*
X0370880Y0352351D01*
X0371051Y0352158D01*
X0371217Y0351961D01*
X0371378Y0351760D01*
X0371534Y0351555D01*
X0371685Y0351346D01*
X0371830Y0351133D01*
X0371971Y0350917D01*
X0372106Y0350698D01*
X0372236Y0350475D01*
X0372360Y0350250D01*
X0372479Y0350021D01*
X0372592Y0349789D01*
X0372699Y0349555D01*
X0372801Y0349318D01*
X0372896Y0349079D01*
X0372986Y0348837D01*
X0373070Y0348594D01*
X0373148Y0348348D01*
X0373220Y0348100D01*
X0373285Y0347851D01*
X0373345Y0347601D01*
X0373398Y0347348D01*
X0373445Y0347095D01*
X0373486Y0346841D01*
X0373521Y0346585D01*
X0373549Y0346329D01*
X0373572Y0346072D01*
X0373587Y0345815D01*
X0373597Y0345558D01*
X0373600Y0345300D01*
X0373597Y0345042D01*
X0373587Y0344785D01*
X0373572Y0344528D01*
X0373549Y0344271D01*
X0373521Y0344015D01*
X0373486Y0343759D01*
X0373445Y0343505D01*
X0373398Y0343252D01*
X0373345Y0342999D01*
X0373285Y0342749D01*
X0373220Y0342500D01*
X0373148Y0342252D01*
X0373070Y0342006D01*
X0372986Y0341763D01*
X0372896Y0341521D01*
X0372801Y0341282D01*
X0372699Y0341045D01*
X0372592Y0340811D01*
X0372479Y0340579D01*
X0372360Y0340350D01*
X0372236Y0340125D01*
X0372106Y0339902D01*
X0371971Y0339683D01*
X0371830Y0339467D01*
X0371685Y0339254D01*
X0371534Y0339045D01*
X0371378Y0338840D01*
X0371217Y0338639D01*
X0371051Y0338442D01*
X0370880Y0338249D01*
X0370705Y0338060D01*
X0370525Y0337875D01*
X0370340Y0337695D01*
X0370151Y0337520D01*
X0369958Y0337349D01*
X0369761Y0337183D01*
X0369560Y0337022D01*
X0369355Y0336866D01*
X0369146Y0336715D01*
X0368933Y0336570D01*
X0368717Y0336429D01*
X0368498Y0336294D01*
X0368275Y0336164D01*
X0368050Y0336040D01*
X0367821Y0335921D01*
X0367589Y0335808D01*
X0367355Y0335701D01*
X0367118Y0335599D01*
X0366879Y0335504D01*
X0366637Y0335414D01*
X0366394Y0335330D01*
X0366148Y0335252D01*
X0365900Y0335180D01*
X0365651Y0335115D01*
X0365401Y0335055D01*
X0365148Y0335002D01*
X0364895Y0334955D01*
X0364641Y0334914D01*
X0364385Y0334879D01*
X0364129Y0334851D01*
X0363872Y0334828D01*
X0363615Y0334813D01*
X0363358Y0334803D01*
X0363100Y0334800D01*
X0362842Y0334803D01*
X0362585Y0334813D01*
X0362328Y0334828D01*
X0362071Y0334851D01*
X0361815Y0334879D01*
X0361559Y0334914D01*
X0361305Y0334955D01*
X0361052Y0335002D01*
X0360799Y0335055D01*
X0360549Y0335115D01*
X0360300Y0335180D01*
X0360052Y0335252D01*
X0359806Y0335330D01*
X0359563Y0335414D01*
X0359321Y0335504D01*
X0359082Y0335599D01*
X0358845Y0335701D01*
X0358611Y0335808D01*
X0358379Y0335921D01*
X0358150Y0336040D01*
X0357925Y0336164D01*
X0357702Y0336294D01*
X0357483Y0336429D01*
X0357267Y0336570D01*
X0357054Y0336715D01*
X0356845Y0336866D01*
X0356640Y0337022D01*
X0356439Y0337183D01*
X0356242Y0337349D01*
X0356049Y0337520D01*
X0355860Y0337695D01*
X0355675Y0337875D01*
X0355495Y0338060D01*
X0355320Y0338249D01*
X0355149Y0338442D01*
X0354983Y0338639D01*
X0354822Y0338840D01*
X0354666Y0339045D01*
X0354515Y0339254D01*
X0354370Y0339467D01*
X0354229Y0339683D01*
X0354094Y0339902D01*
X0353964Y0340125D01*
X0353840Y0340350D01*
X0353721Y0340579D01*
X0353608Y0340811D01*
X0353501Y0341045D01*
X0353399Y0341282D01*
X0353304Y0341521D01*
X0353214Y0341763D01*
X0353130Y0342006D01*
X0353052Y0342252D01*
X0352980Y0342500D01*
X0352915Y0342749D01*
X0352855Y0342999D01*
X0352802Y0343252D01*
X0352755Y0343505D01*
X0352714Y0343759D01*
X0352679Y0344015D01*
X0352651Y0344271D01*
X0352628Y0344528D01*
X0352613Y0344785D01*
X0352603Y0345042D01*
X0352600Y0345300D01*
X0366627Y0351346D02*
X0366773Y0351259D01*
X0366916Y0351168D01*
X0367057Y0351074D01*
X0367196Y0350976D01*
X0367333Y0350875D01*
X0367467Y0350771D01*
X0367598Y0350664D01*
X0367727Y0350553D01*
X0367853Y0350439D01*
X0367976Y0350323D01*
X0368096Y0350203D01*
X0368214Y0350080D01*
X0368328Y0349955D01*
X0368439Y0349827D01*
X0368548Y0349696D01*
X0368653Y0349563D01*
X0368754Y0349427D01*
X0368853Y0349288D01*
X0368948Y0349148D01*
X0369039Y0349005D01*
X0369127Y0348860D01*
X0369212Y0348713D01*
X0369293Y0348563D01*
X0369370Y0348412D01*
X0369444Y0348259D01*
X0369514Y0348105D01*
X0369580Y0347948D01*
X0369642Y0347790D01*
X0369700Y0347631D01*
X0369755Y0347470D01*
X0369806Y0347308D01*
X0369852Y0347145D01*
X0369895Y0346981D01*
X0369934Y0346816D01*
X0369969Y0346649D01*
X0369999Y0346482D01*
X0370026Y0346315D01*
X0370049Y0346147D01*
X0370067Y0345978D01*
X0370081Y0345809D01*
X0370092Y0345639D01*
X0370098Y0345470D01*
X0370100Y0345300D01*
X0359573Y0339254D02*
X0359427Y0339341D01*
X0359284Y0339432D01*
X0359143Y0339526D01*
X0359004Y0339624D01*
X0358867Y0339725D01*
X0358733Y0339829D01*
X0358602Y0339936D01*
X0358473Y0340047D01*
X0358347Y0340161D01*
X0358224Y0340277D01*
X0358104Y0340397D01*
X0357986Y0340520D01*
X0357872Y0340645D01*
X0357761Y0340773D01*
X0357652Y0340904D01*
X0357547Y0341037D01*
X0357446Y0341173D01*
X0357347Y0341312D01*
X0357252Y0341452D01*
X0357161Y0341595D01*
X0357073Y0341740D01*
X0356988Y0341887D01*
X0356907Y0342037D01*
X0356830Y0342188D01*
X0356756Y0342341D01*
X0356686Y0342495D01*
X0356620Y0342652D01*
X0356558Y0342810D01*
X0356500Y0342969D01*
X0356445Y0343130D01*
X0356394Y0343292D01*
X0356348Y0343455D01*
X0356305Y0343619D01*
X0356266Y0343784D01*
X0356231Y0343951D01*
X0356201Y0344118D01*
X0356174Y0344285D01*
X0356151Y0344453D01*
X0356133Y0344622D01*
X0356119Y0344791D01*
X0356108Y0344961D01*
X0356102Y0345130D01*
X0356100Y0345300D01*
X0356102Y0345470D01*
X0356108Y0345639D01*
X0356119Y0345809D01*
X0356133Y0345978D01*
X0356151Y0346147D01*
X0356174Y0346315D01*
X0356201Y0346482D01*
X0356231Y0346649D01*
X0356266Y0346816D01*
X0356305Y0346981D01*
X0356348Y0347145D01*
X0356394Y0347308D01*
X0356445Y0347470D01*
X0356500Y0347631D01*
X0356558Y0347790D01*
X0356620Y0347948D01*
X0356686Y0348105D01*
X0356756Y0348259D01*
X0356830Y0348412D01*
X0356907Y0348563D01*
X0356988Y0348713D01*
X0357073Y0348860D01*
X0357161Y0349005D01*
X0357252Y0349148D01*
X0357347Y0349288D01*
X0357446Y0349427D01*
X0357547Y0349563D01*
X0357652Y0349696D01*
X0357761Y0349827D01*
X0357872Y0349955D01*
X0357986Y0350080D01*
X0358104Y0350203D01*
X0358224Y0350323D01*
X0358347Y0350439D01*
X0358473Y0350553D01*
X0358602Y0350664D01*
X0358733Y0350771D01*
X0358867Y0350875D01*
X0359004Y0350976D01*
X0359143Y0351074D01*
X0359284Y0351168D01*
X0359427Y0351259D01*
X0359573Y0351346D01*
X0337100Y0354300D02*
X0334600Y0351800D01*
X0337100Y0354300D02*
X0337100Y0359300D01*
X0334600Y0361800D01*
X0337100Y0364300D01*
X0337100Y0369300D01*
X0334600Y0371800D01*
X0337100Y0374300D01*
X0337100Y0379300D01*
X0334600Y0381800D01*
X0329600Y0381800D01*
X0327100Y0379300D01*
X0327100Y0374300D01*
X0329600Y0371800D01*
X0334600Y0371800D01*
X0329600Y0371800D02*
X0327100Y0369300D01*
X0327100Y0364300D01*
X0329600Y0361800D01*
X0334600Y0361800D01*
X0329600Y0361800D02*
X0327100Y0359300D01*
X0327100Y0354300D01*
X0329600Y0351800D01*
X0329600Y0341800D02*
X0334600Y0341800D01*
X0334600Y0331800D02*
X0329600Y0331800D01*
X0320100Y0335800D02*
X0319600Y0335300D01*
X0319600Y0321300D01*
X0320100Y0320800D01*
X0320100Y0319300D01*
X0320098Y0319240D01*
X0320093Y0319179D01*
X0320084Y0319120D01*
X0320071Y0319061D01*
X0320055Y0319002D01*
X0320035Y0318945D01*
X0320012Y0318890D01*
X0319985Y0318835D01*
X0319956Y0318783D01*
X0319923Y0318732D01*
X0319887Y0318683D01*
X0319849Y0318637D01*
X0319807Y0318593D01*
X0319763Y0318551D01*
X0319717Y0318513D01*
X0319668Y0318477D01*
X0319617Y0318444D01*
X0319565Y0318415D01*
X0319510Y0318388D01*
X0319455Y0318365D01*
X0319398Y0318345D01*
X0319339Y0318329D01*
X0319280Y0318316D01*
X0319221Y0318307D01*
X0319160Y0318302D01*
X0319100Y0318300D01*
X0313100Y0318300D01*
X0313040Y0318302D01*
X0312979Y0318307D01*
X0312920Y0318316D01*
X0312861Y0318329D01*
X0312802Y0318345D01*
X0312745Y0318365D01*
X0312690Y0318388D01*
X0312635Y0318415D01*
X0312583Y0318444D01*
X0312532Y0318477D01*
X0312483Y0318513D01*
X0312437Y0318551D01*
X0312393Y0318593D01*
X0312351Y0318637D01*
X0312313Y0318683D01*
X0312277Y0318732D01*
X0312244Y0318783D01*
X0312215Y0318835D01*
X0312188Y0318890D01*
X0312165Y0318945D01*
X0312145Y0319002D01*
X0312129Y0319061D01*
X0312116Y0319120D01*
X0312107Y0319179D01*
X0312102Y0319240D01*
X0312100Y0319300D01*
X0312100Y0320800D01*
X0312600Y0321300D01*
X0312600Y0335300D01*
X0312100Y0335800D01*
X0312100Y0337300D01*
X0312102Y0337360D01*
X0312107Y0337421D01*
X0312116Y0337480D01*
X0312129Y0337539D01*
X0312145Y0337598D01*
X0312165Y0337655D01*
X0312188Y0337710D01*
X0312215Y0337765D01*
X0312244Y0337817D01*
X0312277Y0337868D01*
X0312313Y0337917D01*
X0312351Y0337963D01*
X0312393Y0338007D01*
X0312437Y0338049D01*
X0312483Y0338087D01*
X0312532Y0338123D01*
X0312583Y0338156D01*
X0312635Y0338185D01*
X0312690Y0338212D01*
X0312745Y0338235D01*
X0312802Y0338255D01*
X0312861Y0338271D01*
X0312920Y0338284D01*
X0312979Y0338293D01*
X0313040Y0338298D01*
X0313100Y0338300D01*
X0319100Y0338300D01*
X0319160Y0338298D01*
X0319221Y0338293D01*
X0319280Y0338284D01*
X0319339Y0338271D01*
X0319398Y0338255D01*
X0319455Y0338235D01*
X0319510Y0338212D01*
X0319565Y0338185D01*
X0319617Y0338156D01*
X0319668Y0338123D01*
X0319717Y0338087D01*
X0319763Y0338049D01*
X0319807Y0338007D01*
X0319849Y0337963D01*
X0319887Y0337917D01*
X0319923Y0337868D01*
X0319956Y0337817D01*
X0319985Y0337765D01*
X0320012Y0337710D01*
X0320035Y0337655D01*
X0320055Y0337598D01*
X0320071Y0337539D01*
X0320084Y0337480D01*
X0320093Y0337421D01*
X0320098Y0337360D01*
X0320100Y0337300D01*
X0320100Y0335800D01*
X0329600Y0387800D02*
X0327100Y0390300D01*
X0327100Y0395300D01*
X0329600Y0397800D01*
X0327100Y0400300D01*
X0327100Y0405300D01*
X0329600Y0407800D01*
X0327100Y0410300D01*
X0327100Y0415300D01*
X0329600Y0417800D01*
X0327100Y0420300D01*
X0327100Y0425300D01*
X0329600Y0427800D01*
X0327100Y0430300D01*
X0327100Y0435300D01*
X0329600Y0437800D01*
X0327100Y0440300D01*
X0327100Y0445300D01*
X0329600Y0447800D01*
X0327100Y0450300D01*
X0327100Y0455300D01*
X0329600Y0457800D01*
X0327100Y0460300D01*
X0327100Y0465300D01*
X0329600Y0467800D01*
X0327100Y0470300D01*
X0327100Y0475300D01*
X0329600Y0477800D01*
X0327100Y0480300D01*
X0327100Y0485300D01*
X0329600Y0487800D01*
X0334600Y0487800D01*
X0337100Y0485300D01*
X0337100Y0480300D01*
X0334600Y0477800D01*
X0337100Y0475300D01*
X0337100Y0470300D01*
X0334600Y0467800D01*
X0329600Y0467800D01*
X0334600Y0467800D02*
X0337100Y0465300D01*
X0337100Y0460300D01*
X0334600Y0457800D01*
X0337100Y0455300D01*
X0337100Y0450300D01*
X0334600Y0447800D01*
X0337100Y0445300D01*
X0337100Y0440300D01*
X0334600Y0437800D01*
X0329600Y0437800D01*
X0334600Y0437800D02*
X0337100Y0435300D01*
X0337100Y0430300D01*
X0334600Y0427800D01*
X0337100Y0425300D01*
X0337100Y0420300D01*
X0334600Y0417800D01*
X0337100Y0415300D01*
X0337100Y0410300D01*
X0334600Y0407800D01*
X0329600Y0407800D01*
X0334600Y0407800D02*
X0337100Y0405300D01*
X0337100Y0400300D01*
X0334600Y0397800D01*
X0337100Y0395300D01*
X0337100Y0390300D01*
X0334600Y0387800D01*
X0329600Y0387800D01*
X0329600Y0397800D02*
X0334600Y0397800D01*
X0334600Y0417800D02*
X0329600Y0417800D01*
X0329600Y0427800D02*
X0334600Y0427800D01*
X0334600Y0447800D02*
X0329600Y0447800D01*
X0329600Y0457800D02*
X0334600Y0457800D01*
X0334600Y0477800D02*
X0329600Y0477800D01*
X0147100Y0449300D02*
X0147100Y0444300D01*
X0144600Y0441800D01*
X0147100Y0439300D01*
X0147100Y0434300D01*
X0144600Y0431800D01*
X0139600Y0431800D01*
X0137100Y0434300D01*
X0137100Y0439300D01*
X0139600Y0441800D01*
X0137100Y0444300D01*
X0137100Y0449300D01*
X0139600Y0451800D01*
X0144600Y0451800D01*
X0147100Y0449300D01*
X0144600Y0441800D02*
X0139600Y0441800D01*
X0139600Y0431800D02*
X0137100Y0429300D01*
X0137100Y0424300D01*
X0139600Y0421800D01*
X0137100Y0419300D01*
X0137100Y0414300D01*
X0139600Y0411800D01*
X0137100Y0409300D01*
X0137100Y0404300D01*
X0139600Y0401800D01*
X0144600Y0401800D01*
X0147100Y0404300D01*
X0147100Y0409300D01*
X0144600Y0411800D01*
X0139600Y0411800D01*
X0144600Y0411800D02*
X0147100Y0414300D01*
X0147100Y0419300D01*
X0144600Y0421800D01*
X0139600Y0421800D01*
X0144600Y0421800D02*
X0147100Y0424300D01*
X0147100Y0429300D01*
X0144600Y0431800D01*
X0144600Y0401800D02*
X0147100Y0399300D01*
X0147100Y0394300D01*
X0144600Y0391800D01*
X0147100Y0389300D01*
X0147100Y0384300D01*
X0144600Y0381800D01*
X0147100Y0379300D01*
X0147100Y0374300D01*
X0144600Y0371800D01*
X0139600Y0371800D01*
X0137100Y0374300D01*
X0137100Y0379300D01*
X0139600Y0381800D01*
X0137100Y0384300D01*
X0137100Y0389300D01*
X0139600Y0391800D01*
X0137100Y0394300D01*
X0137100Y0399300D01*
X0139600Y0401800D01*
X0139600Y0391800D02*
X0144600Y0391800D01*
X0144600Y0381800D02*
X0139600Y0381800D01*
X0139600Y0361800D02*
X0137100Y0359300D01*
X0137100Y0354300D01*
X0139600Y0351800D01*
X0137100Y0349300D01*
X0137100Y0344300D01*
X0139600Y0341800D01*
X0144600Y0341800D01*
X0147100Y0344300D01*
X0147100Y0349300D01*
X0144600Y0351800D01*
X0139600Y0351800D01*
X0144600Y0351800D02*
X0147100Y0354300D01*
X0147100Y0359300D01*
X0144600Y0361800D01*
X0139600Y0361800D01*
X0139600Y0341800D02*
X0137100Y0339300D01*
X0137100Y0334300D01*
X0139600Y0331800D01*
X0137100Y0329300D01*
X0137100Y0324300D01*
X0139600Y0321800D01*
X0137100Y0319300D01*
X0137100Y0314300D01*
X0139600Y0311800D01*
X0144600Y0311800D01*
X0147100Y0314300D01*
X0147100Y0319300D01*
X0144600Y0321800D01*
X0139600Y0321800D01*
X0144600Y0321800D02*
X0147100Y0324300D01*
X0147100Y0329300D01*
X0144600Y0331800D01*
X0139600Y0331800D01*
X0144600Y0331800D02*
X0147100Y0334300D01*
X0147100Y0339300D01*
X0144600Y0341800D01*
X0144600Y0311800D02*
X0147100Y0309300D01*
X0147100Y0304300D01*
X0144600Y0301800D01*
X0147100Y0299300D01*
X0147100Y0294300D01*
X0144600Y0291800D01*
X0147100Y0289300D01*
X0147100Y0284300D01*
X0144600Y0281800D01*
X0139600Y0281800D01*
X0137100Y0284300D01*
X0137100Y0289300D01*
X0139600Y0291800D01*
X0137100Y0294300D01*
X0137100Y0299300D01*
X0139600Y0301800D01*
X0137100Y0304300D01*
X0137100Y0309300D01*
X0139600Y0311800D01*
X0139600Y0301800D02*
X0144600Y0301800D01*
X0144600Y0291800D02*
X0139600Y0291800D01*
X0139600Y0271800D02*
X0137100Y0269300D01*
X0137100Y0264300D01*
X0139600Y0261800D01*
X0137100Y0259300D01*
X0137100Y0254300D01*
X0139600Y0251800D01*
X0144600Y0251800D01*
X0147100Y0254300D01*
X0147100Y0259300D01*
X0144600Y0261800D01*
X0139600Y0261800D01*
X0144600Y0261800D02*
X0147100Y0264300D01*
X0147100Y0269300D01*
X0144600Y0271800D01*
X0139600Y0271800D01*
X0139600Y0251800D02*
X0137100Y0249300D01*
X0137100Y0244300D01*
X0139600Y0241800D01*
X0137100Y0239300D01*
X0137100Y0234300D01*
X0139600Y0231800D01*
X0137100Y0229300D01*
X0137100Y0224300D01*
X0139600Y0221800D01*
X0144600Y0221800D01*
X0147100Y0224300D01*
X0147100Y0229300D01*
X0144600Y0231800D01*
X0139600Y0231800D01*
X0144600Y0231800D02*
X0147100Y0234300D01*
X0147100Y0239300D01*
X0144600Y0241800D01*
X0139600Y0241800D01*
X0144600Y0241800D02*
X0147100Y0244300D01*
X0147100Y0249300D01*
X0144600Y0251800D01*
X0150900Y0247436D02*
X0152568Y0249104D01*
X0152568Y0244100D01*
X0150900Y0244100D02*
X0154236Y0244100D01*
X0156056Y0244934D02*
X0159393Y0248270D01*
X0159393Y0244934D01*
X0158559Y0244100D01*
X0156890Y0244100D01*
X0156056Y0244934D01*
X0156056Y0248270D01*
X0156890Y0249104D01*
X0158559Y0249104D01*
X0159393Y0248270D01*
X0144600Y0221800D02*
X0147100Y0219300D01*
X0147100Y0214300D01*
X0144600Y0211800D01*
X0147100Y0209300D01*
X0147100Y0204300D01*
X0144600Y0201800D01*
X0147100Y0199300D01*
X0147100Y0194300D01*
X0144600Y0191800D01*
X0139600Y0191800D01*
X0137100Y0194300D01*
X0137100Y0199300D01*
X0139600Y0201800D01*
X0137100Y0204300D01*
X0137100Y0209300D01*
X0139600Y0211800D01*
X0137100Y0214300D01*
X0137100Y0219300D01*
X0139600Y0221800D01*
X0139600Y0211800D02*
X0144600Y0211800D01*
X0144600Y0201800D02*
X0139600Y0201800D01*
X0173398Y0211207D02*
X0173398Y0212942D01*
X0173398Y0212074D02*
X0176000Y0212074D01*
X0176000Y0214153D02*
X0173398Y0214153D01*
X0174265Y0215021D01*
X0173398Y0215888D01*
X0176000Y0215888D01*
X0189600Y0191800D02*
X0194600Y0191800D01*
X0197100Y0189300D01*
X0189600Y0191800D02*
X0187100Y0189300D01*
X0207100Y0189300D02*
X0209600Y0191800D01*
X0214600Y0191800D01*
X0217100Y0189300D01*
X0227100Y0189300D02*
X0229600Y0191800D01*
X0234600Y0191800D01*
X0237100Y0189300D01*
X0247100Y0189300D02*
X0249600Y0191800D01*
X0254600Y0191800D01*
X0257100Y0189300D01*
X0244100Y0104800D02*
X0246600Y0102300D01*
X0246600Y0097300D01*
X0244100Y0094800D01*
X0246600Y0092300D01*
X0246600Y0087300D01*
X0244100Y0084800D01*
X0239100Y0084800D01*
X0236600Y0087300D01*
X0236600Y0092300D01*
X0239100Y0094800D01*
X0236600Y0097300D01*
X0236600Y0102300D01*
X0239100Y0104800D01*
X0244100Y0104800D01*
X0244100Y0094800D02*
X0239100Y0094800D01*
X0238600Y0023300D02*
X0243600Y0023300D01*
X0246100Y0020800D01*
X0246100Y0015800D01*
X0243600Y0013300D01*
X0246100Y0010800D01*
X0246100Y0005800D01*
X0243600Y0003300D01*
X0238600Y0003300D01*
X0236100Y0005800D01*
X0236100Y0010800D01*
X0238600Y0013300D01*
X0236100Y0015800D01*
X0236100Y0020800D01*
X0238600Y0023300D01*
X0238600Y0013300D02*
X0243600Y0013300D01*
X0398100Y0016800D02*
X0400600Y0014300D01*
X0405600Y0014300D01*
X0408100Y0016800D01*
X0408100Y0021800D01*
X0405600Y0024300D01*
X0400600Y0024300D01*
X0398100Y0021800D01*
X0398100Y0016800D01*
X0401100Y0083800D02*
X0398600Y0086300D01*
X0398600Y0091300D01*
X0401100Y0093800D01*
X0398600Y0096300D01*
X0398600Y0101300D01*
X0401100Y0103800D01*
X0406100Y0103800D01*
X0408600Y0101300D01*
X0408600Y0096300D01*
X0406100Y0093800D01*
X0408600Y0091300D01*
X0408600Y0086300D01*
X0406100Y0083800D01*
X0401100Y0083800D01*
X0401100Y0093800D02*
X0406100Y0093800D01*
X0431600Y0107300D02*
X0431600Y0117300D01*
X0441600Y0117300D01*
X0451600Y0117300D01*
X0461600Y0117300D01*
X0471600Y0117300D01*
X0481600Y0117300D01*
X0491600Y0117300D01*
X0501600Y0117300D01*
X0511600Y0117300D01*
X0521600Y0117300D01*
X0531600Y0117300D01*
X0531600Y0107300D01*
X0521600Y0107300D01*
X0521600Y0117300D01*
X0511600Y0117300D02*
X0511600Y0107300D01*
X0521600Y0107300D01*
X0511600Y0107300D02*
X0501600Y0107300D01*
X0501600Y0117300D01*
X0491600Y0117300D02*
X0491600Y0107300D01*
X0501600Y0107300D01*
X0491600Y0107300D02*
X0481600Y0107300D01*
X0481600Y0117300D01*
X0471600Y0117300D02*
X0471600Y0107300D01*
X0481600Y0107300D01*
X0471600Y0107300D02*
X0461600Y0107300D01*
X0461600Y0117300D01*
X0451600Y0117300D02*
X0451600Y0107300D01*
X0461600Y0107300D01*
X0451600Y0107300D02*
X0441600Y0107300D01*
X0441600Y0117300D01*
X0441600Y0107300D02*
X0431600Y0107300D01*
X0481100Y0078800D02*
X0481100Y0077300D01*
X0481600Y0076800D01*
X0481600Y0062800D01*
X0481100Y0062300D01*
X0481100Y0060800D01*
X0481102Y0060740D01*
X0481107Y0060679D01*
X0481116Y0060620D01*
X0481129Y0060561D01*
X0481145Y0060502D01*
X0481165Y0060445D01*
X0481188Y0060390D01*
X0481215Y0060335D01*
X0481244Y0060283D01*
X0481277Y0060232D01*
X0481313Y0060183D01*
X0481351Y0060137D01*
X0481393Y0060093D01*
X0481437Y0060051D01*
X0481483Y0060013D01*
X0481532Y0059977D01*
X0481583Y0059944D01*
X0481635Y0059915D01*
X0481690Y0059888D01*
X0481745Y0059865D01*
X0481802Y0059845D01*
X0481861Y0059829D01*
X0481920Y0059816D01*
X0481979Y0059807D01*
X0482040Y0059802D01*
X0482100Y0059800D01*
X0488100Y0059800D01*
X0488160Y0059802D01*
X0488221Y0059807D01*
X0488280Y0059816D01*
X0488339Y0059829D01*
X0488398Y0059845D01*
X0488455Y0059865D01*
X0488510Y0059888D01*
X0488565Y0059915D01*
X0488617Y0059944D01*
X0488668Y0059977D01*
X0488717Y0060013D01*
X0488763Y0060051D01*
X0488807Y0060093D01*
X0488849Y0060137D01*
X0488887Y0060183D01*
X0488923Y0060232D01*
X0488956Y0060283D01*
X0488985Y0060335D01*
X0489012Y0060390D01*
X0489035Y0060445D01*
X0489055Y0060502D01*
X0489071Y0060561D01*
X0489084Y0060620D01*
X0489093Y0060679D01*
X0489098Y0060740D01*
X0489100Y0060800D01*
X0489100Y0062300D01*
X0488600Y0062800D01*
X0488600Y0076800D01*
X0489100Y0077300D01*
X0489100Y0078800D01*
X0489098Y0078860D01*
X0489093Y0078921D01*
X0489084Y0078980D01*
X0489071Y0079039D01*
X0489055Y0079098D01*
X0489035Y0079155D01*
X0489012Y0079210D01*
X0488985Y0079265D01*
X0488956Y0079317D01*
X0488923Y0079368D01*
X0488887Y0079417D01*
X0488849Y0079463D01*
X0488807Y0079507D01*
X0488763Y0079549D01*
X0488717Y0079587D01*
X0488668Y0079623D01*
X0488617Y0079656D01*
X0488565Y0079685D01*
X0488510Y0079712D01*
X0488455Y0079735D01*
X0488398Y0079755D01*
X0488339Y0079771D01*
X0488280Y0079784D01*
X0488221Y0079793D01*
X0488160Y0079798D01*
X0488100Y0079800D01*
X0482100Y0079800D01*
X0482040Y0079798D01*
X0481979Y0079793D01*
X0481920Y0079784D01*
X0481861Y0079771D01*
X0481802Y0079755D01*
X0481745Y0079735D01*
X0481690Y0079712D01*
X0481635Y0079685D01*
X0481583Y0079656D01*
X0481532Y0079623D01*
X0481483Y0079587D01*
X0481437Y0079549D01*
X0481393Y0079507D01*
X0481351Y0079463D01*
X0481313Y0079417D01*
X0481277Y0079368D01*
X0481244Y0079317D01*
X0481215Y0079265D01*
X0481188Y0079210D01*
X0481165Y0079155D01*
X0481145Y0079098D01*
X0481129Y0079039D01*
X0481116Y0078980D01*
X0481107Y0078921D01*
X0481102Y0078860D01*
X0481100Y0078800D01*
X0491600Y0078800D02*
X0491600Y0077300D01*
X0492100Y0076800D01*
X0492100Y0062800D01*
X0491600Y0062300D01*
X0491600Y0060800D01*
X0491602Y0060740D01*
X0491607Y0060679D01*
X0491616Y0060620D01*
X0491629Y0060561D01*
X0491645Y0060502D01*
X0491665Y0060445D01*
X0491688Y0060390D01*
X0491715Y0060335D01*
X0491744Y0060283D01*
X0491777Y0060232D01*
X0491813Y0060183D01*
X0491851Y0060137D01*
X0491893Y0060093D01*
X0491937Y0060051D01*
X0491983Y0060013D01*
X0492032Y0059977D01*
X0492083Y0059944D01*
X0492135Y0059915D01*
X0492190Y0059888D01*
X0492245Y0059865D01*
X0492302Y0059845D01*
X0492361Y0059829D01*
X0492420Y0059816D01*
X0492479Y0059807D01*
X0492540Y0059802D01*
X0492600Y0059800D01*
X0498600Y0059800D01*
X0498660Y0059802D01*
X0498721Y0059807D01*
X0498780Y0059816D01*
X0498839Y0059829D01*
X0498898Y0059845D01*
X0498955Y0059865D01*
X0499010Y0059888D01*
X0499065Y0059915D01*
X0499117Y0059944D01*
X0499168Y0059977D01*
X0499217Y0060013D01*
X0499263Y0060051D01*
X0499307Y0060093D01*
X0499349Y0060137D01*
X0499387Y0060183D01*
X0499423Y0060232D01*
X0499456Y0060283D01*
X0499485Y0060335D01*
X0499512Y0060390D01*
X0499535Y0060445D01*
X0499555Y0060502D01*
X0499571Y0060561D01*
X0499584Y0060620D01*
X0499593Y0060679D01*
X0499598Y0060740D01*
X0499600Y0060800D01*
X0499600Y0062300D01*
X0499100Y0062800D01*
X0499100Y0076800D01*
X0499600Y0077300D01*
X0499600Y0078800D01*
X0499598Y0078860D01*
X0499593Y0078921D01*
X0499584Y0078980D01*
X0499571Y0079039D01*
X0499555Y0079098D01*
X0499535Y0079155D01*
X0499512Y0079210D01*
X0499485Y0079265D01*
X0499456Y0079317D01*
X0499423Y0079368D01*
X0499387Y0079417D01*
X0499349Y0079463D01*
X0499307Y0079507D01*
X0499263Y0079549D01*
X0499217Y0079587D01*
X0499168Y0079623D01*
X0499117Y0079656D01*
X0499065Y0079685D01*
X0499010Y0079712D01*
X0498955Y0079735D01*
X0498898Y0079755D01*
X0498839Y0079771D01*
X0498780Y0079784D01*
X0498721Y0079793D01*
X0498660Y0079798D01*
X0498600Y0079800D01*
X0492600Y0079800D01*
X0492540Y0079798D01*
X0492479Y0079793D01*
X0492420Y0079784D01*
X0492361Y0079771D01*
X0492302Y0079755D01*
X0492245Y0079735D01*
X0492190Y0079712D01*
X0492135Y0079685D01*
X0492083Y0079656D01*
X0492032Y0079623D01*
X0491983Y0079587D01*
X0491937Y0079549D01*
X0491893Y0079507D01*
X0491851Y0079463D01*
X0491813Y0079417D01*
X0491777Y0079368D01*
X0491744Y0079317D01*
X0491715Y0079265D01*
X0491688Y0079210D01*
X0491665Y0079155D01*
X0491645Y0079098D01*
X0491629Y0079039D01*
X0491616Y0078980D01*
X0491607Y0078921D01*
X0491602Y0078860D01*
X0491600Y0078800D01*
X0501600Y0078800D02*
X0501600Y0077300D01*
X0502100Y0076800D01*
X0502100Y0062800D01*
X0501600Y0062300D01*
X0501600Y0060800D01*
X0501602Y0060740D01*
X0501607Y0060679D01*
X0501616Y0060620D01*
X0501629Y0060561D01*
X0501645Y0060502D01*
X0501665Y0060445D01*
X0501688Y0060390D01*
X0501715Y0060335D01*
X0501744Y0060283D01*
X0501777Y0060232D01*
X0501813Y0060183D01*
X0501851Y0060137D01*
X0501893Y0060093D01*
X0501937Y0060051D01*
X0501983Y0060013D01*
X0502032Y0059977D01*
X0502083Y0059944D01*
X0502135Y0059915D01*
X0502190Y0059888D01*
X0502245Y0059865D01*
X0502302Y0059845D01*
X0502361Y0059829D01*
X0502420Y0059816D01*
X0502479Y0059807D01*
X0502540Y0059802D01*
X0502600Y0059800D01*
X0508600Y0059800D01*
X0508660Y0059802D01*
X0508721Y0059807D01*
X0508780Y0059816D01*
X0508839Y0059829D01*
X0508898Y0059845D01*
X0508955Y0059865D01*
X0509010Y0059888D01*
X0509065Y0059915D01*
X0509117Y0059944D01*
X0509168Y0059977D01*
X0509217Y0060013D01*
X0509263Y0060051D01*
X0509307Y0060093D01*
X0509349Y0060137D01*
X0509387Y0060183D01*
X0509423Y0060232D01*
X0509456Y0060283D01*
X0509485Y0060335D01*
X0509512Y0060390D01*
X0509535Y0060445D01*
X0509555Y0060502D01*
X0509571Y0060561D01*
X0509584Y0060620D01*
X0509593Y0060679D01*
X0509598Y0060740D01*
X0509600Y0060800D01*
X0509600Y0062300D01*
X0509100Y0062800D01*
X0509100Y0076800D01*
X0509600Y0077300D01*
X0509600Y0078800D01*
X0509598Y0078860D01*
X0509593Y0078921D01*
X0509584Y0078980D01*
X0509571Y0079039D01*
X0509555Y0079098D01*
X0509535Y0079155D01*
X0509512Y0079210D01*
X0509485Y0079265D01*
X0509456Y0079317D01*
X0509423Y0079368D01*
X0509387Y0079417D01*
X0509349Y0079463D01*
X0509307Y0079507D01*
X0509263Y0079549D01*
X0509217Y0079587D01*
X0509168Y0079623D01*
X0509117Y0079656D01*
X0509065Y0079685D01*
X0509010Y0079712D01*
X0508955Y0079735D01*
X0508898Y0079755D01*
X0508839Y0079771D01*
X0508780Y0079784D01*
X0508721Y0079793D01*
X0508660Y0079798D01*
X0508600Y0079800D01*
X0502600Y0079800D01*
X0502540Y0079798D01*
X0502479Y0079793D01*
X0502420Y0079784D01*
X0502361Y0079771D01*
X0502302Y0079755D01*
X0502245Y0079735D01*
X0502190Y0079712D01*
X0502135Y0079685D01*
X0502083Y0079656D01*
X0502032Y0079623D01*
X0501983Y0079587D01*
X0501937Y0079549D01*
X0501893Y0079507D01*
X0501851Y0079463D01*
X0501813Y0079417D01*
X0501777Y0079368D01*
X0501744Y0079317D01*
X0501715Y0079265D01*
X0501688Y0079210D01*
X0501665Y0079155D01*
X0501645Y0079098D01*
X0501629Y0079039D01*
X0501616Y0078980D01*
X0501607Y0078921D01*
X0501602Y0078860D01*
X0501600Y0078800D01*
X0512600Y0078800D02*
X0512600Y0077300D01*
X0513100Y0076800D01*
X0513100Y0062800D01*
X0512600Y0062300D01*
X0512600Y0060800D01*
X0512602Y0060740D01*
X0512607Y0060679D01*
X0512616Y0060620D01*
X0512629Y0060561D01*
X0512645Y0060502D01*
X0512665Y0060445D01*
X0512688Y0060390D01*
X0512715Y0060335D01*
X0512744Y0060283D01*
X0512777Y0060232D01*
X0512813Y0060183D01*
X0512851Y0060137D01*
X0512893Y0060093D01*
X0512937Y0060051D01*
X0512983Y0060013D01*
X0513032Y0059977D01*
X0513083Y0059944D01*
X0513135Y0059915D01*
X0513190Y0059888D01*
X0513245Y0059865D01*
X0513302Y0059845D01*
X0513361Y0059829D01*
X0513420Y0059816D01*
X0513479Y0059807D01*
X0513540Y0059802D01*
X0513600Y0059800D01*
X0519600Y0059800D01*
X0519660Y0059802D01*
X0519721Y0059807D01*
X0519780Y0059816D01*
X0519839Y0059829D01*
X0519898Y0059845D01*
X0519955Y0059865D01*
X0520010Y0059888D01*
X0520065Y0059915D01*
X0520117Y0059944D01*
X0520168Y0059977D01*
X0520217Y0060013D01*
X0520263Y0060051D01*
X0520307Y0060093D01*
X0520349Y0060137D01*
X0520387Y0060183D01*
X0520423Y0060232D01*
X0520456Y0060283D01*
X0520485Y0060335D01*
X0520512Y0060390D01*
X0520535Y0060445D01*
X0520555Y0060502D01*
X0520571Y0060561D01*
X0520584Y0060620D01*
X0520593Y0060679D01*
X0520598Y0060740D01*
X0520600Y0060800D01*
X0520600Y0062300D01*
X0520100Y0062800D01*
X0520100Y0076800D01*
X0520600Y0077300D01*
X0520600Y0078800D01*
X0520598Y0078860D01*
X0520593Y0078921D01*
X0520584Y0078980D01*
X0520571Y0079039D01*
X0520555Y0079098D01*
X0520535Y0079155D01*
X0520512Y0079210D01*
X0520485Y0079265D01*
X0520456Y0079317D01*
X0520423Y0079368D01*
X0520387Y0079417D01*
X0520349Y0079463D01*
X0520307Y0079507D01*
X0520263Y0079549D01*
X0520217Y0079587D01*
X0520168Y0079623D01*
X0520117Y0079656D01*
X0520065Y0079685D01*
X0520010Y0079712D01*
X0519955Y0079735D01*
X0519898Y0079755D01*
X0519839Y0079771D01*
X0519780Y0079784D01*
X0519721Y0079793D01*
X0519660Y0079798D01*
X0519600Y0079800D01*
X0513600Y0079800D01*
X0513540Y0079798D01*
X0513479Y0079793D01*
X0513420Y0079784D01*
X0513361Y0079771D01*
X0513302Y0079755D01*
X0513245Y0079735D01*
X0513190Y0079712D01*
X0513135Y0079685D01*
X0513083Y0079656D01*
X0513032Y0079623D01*
X0512983Y0079587D01*
X0512937Y0079549D01*
X0512893Y0079507D01*
X0512851Y0079463D01*
X0512813Y0079417D01*
X0512777Y0079368D01*
X0512744Y0079317D01*
X0512715Y0079265D01*
X0512688Y0079210D01*
X0512665Y0079155D01*
X0512645Y0079098D01*
X0512629Y0079039D01*
X0512616Y0078980D01*
X0512607Y0078921D01*
X0512602Y0078860D01*
X0512600Y0078800D01*
X0090100Y0369800D02*
X0087600Y0367300D01*
X0082600Y0367300D01*
X0080100Y0369800D01*
X0080100Y0374800D01*
X0082600Y0377300D01*
X0080100Y0379800D01*
X0080100Y0384800D01*
X0082600Y0387300D01*
X0080100Y0389800D01*
X0080100Y0394800D01*
X0082600Y0397300D01*
X0080100Y0399800D01*
X0080100Y0404800D01*
X0082600Y0407300D01*
X0087600Y0407300D01*
X0090100Y0404800D01*
X0090100Y0399800D01*
X0087600Y0397300D01*
X0090100Y0394800D01*
X0090100Y0389800D01*
X0087600Y0387300D01*
X0082600Y0387300D01*
X0087600Y0387300D02*
X0090100Y0384800D01*
X0090100Y0379800D01*
X0087600Y0377300D01*
X0090100Y0374800D01*
X0090100Y0369800D01*
X0087600Y0377300D02*
X0082600Y0377300D01*
X0082600Y0397300D02*
X0087600Y0397300D01*
X0087600Y0421800D02*
X0082600Y0421800D01*
X0080100Y0424300D01*
X0080100Y0429300D01*
X0082600Y0431800D01*
X0080100Y0434300D01*
X0080100Y0439300D01*
X0082600Y0441800D01*
X0080100Y0444300D01*
X0080100Y0449300D01*
X0082600Y0451800D01*
X0087600Y0451800D01*
X0090100Y0449300D01*
X0090100Y0444300D01*
X0087600Y0441800D01*
X0090100Y0439300D01*
X0090100Y0434300D01*
X0087600Y0431800D01*
X0090100Y0429300D01*
X0090100Y0424300D01*
X0087600Y0421800D01*
X0087600Y0431800D02*
X0082600Y0431800D01*
X0082600Y0441800D02*
X0087600Y0441800D01*
X0038600Y0364800D02*
X0023600Y0364800D01*
X0021100Y0362300D01*
X0021100Y0357300D01*
X0023600Y0354800D01*
X0038600Y0354800D01*
X0041100Y0352300D01*
X0041100Y0347300D01*
X0038600Y0344800D01*
X0023600Y0344800D01*
X0021100Y0342300D01*
X0021100Y0337300D01*
X0023600Y0334800D01*
X0038600Y0334800D01*
X0041100Y0332300D01*
X0041100Y0327300D01*
X0038600Y0324800D01*
X0041100Y0322300D01*
X0041100Y0317300D01*
X0038600Y0314800D01*
X0023600Y0314800D01*
X0021100Y0317300D01*
X0021100Y0322300D01*
X0023600Y0324800D01*
X0038600Y0324800D01*
X0038600Y0334800D02*
X0041100Y0337300D01*
X0041100Y0342300D01*
X0038600Y0344800D01*
X0038600Y0354800D02*
X0041100Y0357300D01*
X0041100Y0362300D01*
X0038600Y0364800D01*
X0023600Y0354800D02*
X0021100Y0352300D01*
X0021100Y0347300D01*
X0023600Y0344800D01*
X0023600Y0334800D02*
X0021100Y0332300D01*
X0021100Y0327300D01*
X0023600Y0324800D01*
X0055100Y0293300D02*
X0052600Y0290800D01*
X0052600Y0285800D01*
X0055100Y0283300D01*
X0052600Y0280800D01*
X0052600Y0275800D01*
X0055100Y0273300D01*
X0060100Y0273300D01*
X0062600Y0275800D01*
X0062600Y0280800D01*
X0060100Y0283300D01*
X0055100Y0283300D01*
X0060100Y0283300D02*
X0062600Y0285800D01*
X0062600Y0290800D01*
X0060100Y0293300D01*
X0055100Y0293300D01*
X0055100Y0273300D02*
X0052600Y0270800D01*
X0052600Y0265800D01*
X0055100Y0263300D01*
X0052600Y0260800D01*
X0052600Y0255800D01*
X0055100Y0253300D01*
X0060100Y0253300D01*
X0062600Y0255800D01*
X0062600Y0260800D01*
X0060100Y0263300D01*
X0055100Y0263300D01*
X0060100Y0263300D02*
X0062600Y0265800D01*
X0062600Y0270800D01*
X0060100Y0273300D01*
X0034100Y0237800D02*
X0029100Y0237800D01*
X0026600Y0235300D01*
X0026600Y0230300D01*
X0029100Y0227800D01*
X0026600Y0225300D01*
X0026600Y0220300D01*
X0029100Y0217800D01*
X0034100Y0217800D01*
X0036600Y0220300D01*
X0036600Y0225300D01*
X0034100Y0227800D01*
X0029100Y0227800D01*
X0034100Y0227800D02*
X0036600Y0230300D01*
X0036600Y0235300D01*
X0034100Y0237800D01*
X0034100Y0217800D02*
X0036600Y0215300D01*
X0036600Y0210300D01*
X0034100Y0207800D01*
X0036600Y0205300D01*
X0036600Y0200300D01*
X0034100Y0197800D01*
X0036600Y0195300D01*
X0036600Y0190300D01*
X0034100Y0187800D01*
X0029100Y0187800D01*
X0026600Y0190300D01*
X0026600Y0195300D01*
X0029100Y0197800D01*
X0026600Y0200300D01*
X0026600Y0205300D01*
X0029100Y0207800D01*
X0026600Y0210300D01*
X0026600Y0215300D01*
X0029100Y0217800D01*
X0029100Y0207800D02*
X0034100Y0207800D01*
X0034100Y0197800D02*
X0029100Y0197800D01*
D17*
X0228645Y0340271D02*
X0228645Y0342239D01*
X0228645Y0341255D02*
X0234550Y0341255D01*
X0234550Y0340271D02*
X0234550Y0342239D01*
X0234550Y0346536D02*
X0228645Y0346536D01*
X0228645Y0344568D02*
X0228645Y0348505D01*
X0230613Y0351013D02*
X0228645Y0352982D01*
X0230613Y0354950D01*
X0234550Y0354950D01*
X0234550Y0357459D02*
X0234550Y0361396D01*
X0234550Y0357459D02*
X0228645Y0357459D01*
X0231597Y0354950D02*
X0231597Y0351013D01*
X0230613Y0351013D02*
X0234550Y0351013D01*
X0229629Y0363904D02*
X0231597Y0365873D01*
X0234550Y0365873D01*
X0231597Y0365873D02*
X0229629Y0367841D01*
X0228645Y0367841D01*
X0228645Y0363904D02*
X0229629Y0363904D01*
X0258145Y0367107D02*
X0258145Y0369076D01*
X0258145Y0368092D02*
X0264050Y0368092D01*
X0264050Y0369076D02*
X0264050Y0367107D01*
X0264050Y0371404D02*
X0258145Y0371404D01*
X0264050Y0375341D01*
X0258145Y0375341D01*
X0258145Y0358153D02*
X0258145Y0354216D01*
X0264050Y0354216D01*
X0264050Y0358153D01*
X0261097Y0356185D02*
X0261097Y0354216D01*
X0259129Y0351708D02*
X0258145Y0350723D01*
X0258145Y0347771D01*
X0264050Y0347771D01*
X0264050Y0350723D01*
X0263066Y0351708D01*
X0259129Y0351708D01*
X0260113Y0345262D02*
X0264050Y0345262D01*
X0261097Y0345262D02*
X0261097Y0341325D01*
X0260113Y0341325D02*
X0258145Y0343294D01*
X0260113Y0345262D01*
X0260113Y0341325D02*
X0264050Y0341325D01*
X0264050Y0338817D02*
X0258145Y0338817D01*
X0260113Y0336848D01*
X0258145Y0334880D01*
X0264050Y0334880D01*
D18*
X0336647Y0195637D02*
X0338982Y0195637D01*
X0340150Y0194469D01*
X0338982Y0193301D01*
X0336647Y0193301D01*
X0336647Y0191585D02*
X0336647Y0189250D01*
X0338399Y0189250D01*
X0337815Y0190418D01*
X0337815Y0191001D01*
X0338399Y0191585D01*
X0339566Y0191585D01*
X0340150Y0191001D01*
X0340150Y0189834D01*
X0339566Y0189250D01*
D19*
X0393898Y0094426D02*
X0393898Y0091423D01*
X0392397Y0092924D02*
X0395399Y0092924D01*
X0396150Y0089822D02*
X0391646Y0089822D01*
X0391646Y0086819D02*
X0396150Y0089822D01*
X0396150Y0086819D02*
X0391646Y0086819D01*
X0391646Y0085251D02*
X0391646Y0083750D01*
X0391646Y0084501D02*
X0396150Y0084501D01*
X0396150Y0085251D02*
X0396150Y0083750D01*
X0424346Y0101551D02*
X0424346Y0103053D01*
X0424346Y0102302D02*
X0428099Y0102302D01*
X0428850Y0101551D01*
X0428850Y0100801D01*
X0428099Y0100050D01*
X0427349Y0104654D02*
X0427349Y0106906D01*
X0426598Y0107656D01*
X0425097Y0107656D01*
X0424346Y0106906D01*
X0424346Y0104654D01*
X0428850Y0104654D01*
X0428099Y0109258D02*
X0428850Y0110008D01*
X0428850Y0111510D01*
X0428099Y0112260D01*
X0427349Y0112260D01*
X0426598Y0111510D01*
X0426598Y0110759D01*
X0426598Y0111510D02*
X0425847Y0112260D01*
X0425097Y0112260D01*
X0424346Y0111510D01*
X0424346Y0110008D01*
X0425097Y0109258D01*
X0404122Y0031254D02*
X0404122Y0026750D01*
X0401119Y0031254D01*
X0401119Y0026750D01*
X0399551Y0026750D02*
X0398050Y0026750D01*
X0398801Y0026750D02*
X0398801Y0031254D01*
X0399551Y0031254D02*
X0398050Y0031254D01*
X0405723Y0029002D02*
X0408726Y0029002D01*
X0233650Y0009322D02*
X0229146Y0009322D01*
X0231398Y0010923D02*
X0231398Y0013926D01*
X0231398Y0015527D02*
X0231398Y0018530D01*
X0233650Y0009322D02*
X0229146Y0006319D01*
X0233650Y0006319D01*
X0233650Y0004751D02*
X0233650Y0003250D01*
X0233650Y0004001D02*
X0229146Y0004001D01*
X0229146Y0004751D02*
X0229146Y0003250D01*
X0230397Y0084750D02*
X0233399Y0084750D01*
X0234150Y0085501D01*
X0234150Y0087002D01*
X0233399Y0087753D01*
X0230397Y0087753D01*
X0229646Y0087002D01*
X0229646Y0085501D01*
X0230397Y0084750D01*
X0229646Y0089354D02*
X0233399Y0089354D01*
X0234150Y0090105D01*
X0234150Y0091606D01*
X0233399Y0092356D01*
X0229646Y0092356D01*
X0229646Y0093958D02*
X0229646Y0096960D01*
X0229646Y0095459D02*
X0234150Y0095459D01*
X0231898Y0098562D02*
X0231898Y0101564D01*
X0230397Y0100063D02*
X0233399Y0100063D01*
X0183850Y0157545D02*
X0180347Y0157545D01*
X0181515Y0158713D01*
X0180347Y0159880D01*
X0183850Y0159880D01*
X0183266Y0161228D02*
X0183850Y0161812D01*
X0183850Y0162980D01*
X0183266Y0163564D01*
X0180931Y0163564D01*
X0180347Y0162980D01*
X0180347Y0161812D01*
X0180931Y0161228D01*
X0183266Y0161228D01*
X0183266Y0164911D02*
X0183850Y0165495D01*
X0183850Y0166663D01*
X0183266Y0167247D01*
X0182682Y0167247D01*
X0182099Y0166663D01*
X0182099Y0165495D01*
X0181515Y0164911D01*
X0180931Y0164911D01*
X0180347Y0165495D01*
X0180347Y0166663D01*
X0180931Y0167247D01*
X0180347Y0168595D02*
X0180347Y0169762D01*
X0180347Y0169178D02*
X0183850Y0169178D01*
X0183850Y0168595D02*
X0183850Y0169762D01*
X0173850Y0169118D02*
X0173850Y0167951D01*
X0173266Y0167367D01*
X0172099Y0167951D02*
X0172099Y0169118D01*
X0172682Y0169702D01*
X0173266Y0169702D01*
X0173850Y0169118D01*
X0172099Y0167951D02*
X0171515Y0167367D01*
X0170931Y0167367D01*
X0170347Y0167951D01*
X0170347Y0169118D01*
X0170931Y0169702D01*
X0170931Y0166019D02*
X0170347Y0165435D01*
X0170347Y0164268D01*
X0170931Y0163684D01*
X0171515Y0163684D01*
X0172099Y0164268D01*
X0172099Y0165435D01*
X0172682Y0166019D01*
X0173266Y0166019D01*
X0173850Y0165435D01*
X0173850Y0164268D01*
X0173266Y0163684D01*
X0174046Y0139854D02*
X0175547Y0138353D01*
X0177049Y0139854D01*
X0177049Y0135350D01*
X0174046Y0135350D02*
X0174046Y0139854D01*
X0172445Y0139103D02*
X0171694Y0139854D01*
X0170193Y0139854D01*
X0169442Y0139103D01*
X0169442Y0138353D01*
X0170193Y0137602D01*
X0171694Y0137602D01*
X0172445Y0136851D01*
X0172445Y0136101D01*
X0171694Y0135350D01*
X0170193Y0135350D01*
X0169442Y0136101D01*
X0167841Y0136101D02*
X0167841Y0137602D01*
X0166339Y0137602D01*
X0164838Y0139103D02*
X0164838Y0136101D01*
X0165589Y0135350D01*
X0167090Y0135350D01*
X0167841Y0136101D01*
X0167841Y0139103D02*
X0167090Y0139854D01*
X0165589Y0139854D01*
X0164838Y0139103D01*
X0170931Y0191501D02*
X0171515Y0191501D01*
X0172099Y0192084D01*
X0172099Y0193252D01*
X0172682Y0193836D01*
X0173266Y0193836D01*
X0173850Y0193252D01*
X0173850Y0192084D01*
X0173266Y0191501D01*
X0170931Y0191501D02*
X0170347Y0192084D01*
X0170347Y0193252D01*
X0170931Y0193836D01*
X0170931Y0195184D02*
X0173266Y0195184D01*
X0173850Y0195768D01*
X0173850Y0196935D01*
X0173266Y0197519D01*
X0172682Y0198867D02*
X0170347Y0201202D01*
X0170347Y0198867D02*
X0173850Y0198867D01*
X0172099Y0199451D02*
X0173850Y0201202D01*
X0170931Y0197519D02*
X0170347Y0196935D01*
X0170347Y0195768D01*
X0170931Y0195184D01*
X0180347Y0195728D02*
X0180347Y0196896D01*
X0180347Y0196312D02*
X0183850Y0196312D01*
X0183850Y0195728D02*
X0183850Y0196896D01*
X0183266Y0198184D02*
X0183850Y0198768D01*
X0183850Y0199935D01*
X0183266Y0200519D01*
X0182682Y0200519D01*
X0182099Y0199935D01*
X0182099Y0198768D01*
X0181515Y0198184D01*
X0180931Y0198184D01*
X0180347Y0198768D01*
X0180347Y0199935D01*
X0180931Y0200519D01*
X0180931Y0201867D02*
X0183266Y0201867D01*
X0183850Y0202451D01*
X0183850Y0203618D01*
X0183266Y0204202D01*
X0180931Y0204202D01*
X0180347Y0203618D01*
X0180347Y0202451D01*
X0180931Y0201867D01*
X0180347Y0194380D02*
X0183850Y0194380D01*
X0183850Y0192045D02*
X0180347Y0192045D01*
X0181515Y0193213D01*
X0180347Y0194380D01*
X0077600Y0306552D02*
X0077600Y0323048D01*
X0083600Y0320328D02*
X0083600Y0319272D01*
X0079628Y0324302D02*
X0079413Y0324198D01*
X0079200Y0324089D01*
X0078990Y0323975D01*
X0078783Y0323856D01*
X0078578Y0323733D01*
X0078376Y0323605D01*
X0078177Y0323472D01*
X0077982Y0323335D01*
X0077789Y0323194D01*
X0077600Y0323048D01*
X0088572Y0324300D02*
X0088802Y0324188D01*
X0089029Y0324071D01*
X0089253Y0323949D01*
X0089474Y0323821D01*
X0089691Y0323687D01*
X0089906Y0323549D01*
X0090117Y0323405D01*
X0090324Y0323256D01*
X0090528Y0323102D01*
X0090728Y0322944D01*
X0090924Y0322780D01*
X0091116Y0322612D01*
X0091304Y0322439D01*
X0091488Y0322261D01*
X0091667Y0322080D01*
X0091842Y0321893D01*
X0092012Y0321703D01*
X0092177Y0321509D01*
X0092338Y0321310D01*
X0092494Y0321108D01*
X0092645Y0320902D01*
X0092791Y0320692D01*
X0092931Y0320479D01*
X0093067Y0320263D01*
X0093197Y0320043D01*
X0093322Y0319820D01*
X0093441Y0319595D01*
X0093555Y0319366D01*
X0093663Y0319135D01*
X0093766Y0318901D01*
X0093863Y0318665D01*
X0093954Y0318426D01*
X0094039Y0318186D01*
X0094119Y0317943D01*
X0094192Y0317698D01*
X0094260Y0317452D01*
X0094321Y0317204D01*
X0094376Y0316955D01*
X0094426Y0316705D01*
X0094469Y0316453D01*
X0094506Y0316200D01*
X0094537Y0315947D01*
X0094562Y0315693D01*
X0094581Y0315438D01*
X0094593Y0315183D01*
X0094599Y0314928D01*
X0094599Y0314672D01*
X0094593Y0314417D01*
X0094581Y0314162D01*
X0094562Y0313907D01*
X0094537Y0313653D01*
X0094506Y0313400D01*
X0094469Y0313147D01*
X0094426Y0312895D01*
X0094376Y0312645D01*
X0094321Y0312396D01*
X0094260Y0312148D01*
X0094192Y0311902D01*
X0094119Y0311657D01*
X0094039Y0311414D01*
X0093954Y0311174D01*
X0093863Y0310935D01*
X0093766Y0310699D01*
X0093663Y0310465D01*
X0093555Y0310234D01*
X0093441Y0310005D01*
X0093322Y0309780D01*
X0093197Y0309557D01*
X0093067Y0309337D01*
X0092931Y0309121D01*
X0092791Y0308908D01*
X0092645Y0308698D01*
X0092494Y0308492D01*
X0092338Y0308290D01*
X0092177Y0308091D01*
X0092012Y0307897D01*
X0091842Y0307707D01*
X0091667Y0307520D01*
X0091488Y0307339D01*
X0091304Y0307161D01*
X0091116Y0306988D01*
X0090924Y0306820D01*
X0090728Y0306656D01*
X0090528Y0306498D01*
X0090324Y0306344D01*
X0090117Y0306195D01*
X0089906Y0306051D01*
X0089691Y0305913D01*
X0089474Y0305779D01*
X0089253Y0305651D01*
X0089029Y0305529D01*
X0088802Y0305412D01*
X0088572Y0305300D01*
X0083600Y0309272D02*
X0083600Y0310328D01*
X0079722Y0305254D02*
X0079497Y0305361D01*
X0079274Y0305473D01*
X0079054Y0305590D01*
X0078837Y0305712D01*
X0078622Y0305840D01*
X0078411Y0305973D01*
X0078203Y0306110D01*
X0077999Y0306253D01*
X0077797Y0306400D01*
X0077600Y0306552D01*
X0068799Y0292249D02*
X0068049Y0292249D01*
X0067298Y0291498D01*
X0067298Y0289997D01*
X0066547Y0289246D01*
X0065797Y0289246D01*
X0065046Y0289997D01*
X0065046Y0291498D01*
X0065797Y0292249D01*
X0068799Y0292249D02*
X0069550Y0291498D01*
X0069550Y0289997D01*
X0068799Y0289246D01*
X0067298Y0287645D02*
X0068049Y0286894D01*
X0068049Y0284642D01*
X0069550Y0284642D02*
X0065046Y0284642D01*
X0065046Y0286894D01*
X0065797Y0287645D01*
X0067298Y0287645D01*
X0067298Y0283041D02*
X0067298Y0281539D01*
X0067298Y0283041D02*
X0068799Y0283041D01*
X0069550Y0282290D01*
X0069550Y0280789D01*
X0068799Y0280038D01*
X0065797Y0280038D01*
X0065046Y0280789D01*
X0065046Y0282290D01*
X0065797Y0283041D01*
X0096346Y0315842D02*
X0096346Y0318845D01*
X0096346Y0317343D02*
X0100850Y0317343D01*
X0100850Y0320446D02*
X0100850Y0323449D01*
X0100850Y0321947D02*
X0096346Y0321947D01*
X0097847Y0320446D01*
X0097050Y0352603D02*
X0092546Y0352603D01*
X0094798Y0352603D02*
X0094798Y0355605D01*
X0096299Y0357207D02*
X0092546Y0357207D01*
X0092546Y0355605D02*
X0097050Y0355605D01*
X0096299Y0357207D02*
X0097050Y0357957D01*
X0097050Y0359459D01*
X0096299Y0360209D01*
X0092546Y0360209D01*
X0092546Y0361811D02*
X0094047Y0363312D01*
X0092546Y0364813D01*
X0097050Y0364813D01*
X0097050Y0366415D02*
X0092546Y0366415D01*
X0092546Y0369417D01*
X0092546Y0371018D02*
X0092546Y0373270D01*
X0093297Y0374021D01*
X0096299Y0374021D01*
X0097050Y0373270D01*
X0097050Y0371018D01*
X0092546Y0371018D01*
X0094798Y0367916D02*
X0094798Y0366415D01*
X0097050Y0366415D02*
X0097050Y0369417D01*
X0097050Y0375622D02*
X0094047Y0375622D01*
X0092546Y0377124D01*
X0094047Y0378625D01*
X0097050Y0378625D01*
X0097050Y0380226D02*
X0092546Y0380226D01*
X0092546Y0382478D01*
X0093297Y0383229D01*
X0096299Y0383229D01*
X0097050Y0382478D01*
X0097050Y0380226D01*
X0094798Y0378625D02*
X0094798Y0375622D01*
X0094047Y0384830D02*
X0094798Y0385581D01*
X0094798Y0387082D01*
X0095549Y0387833D01*
X0096299Y0387833D01*
X0097050Y0387082D01*
X0097050Y0385581D01*
X0096299Y0384830D01*
X0094047Y0384830D02*
X0093297Y0384830D01*
X0092546Y0385581D01*
X0092546Y0387082D01*
X0093297Y0387833D01*
X0092546Y0389434D02*
X0096299Y0389434D01*
X0097050Y0390185D01*
X0097050Y0391686D01*
X0096299Y0392437D01*
X0092546Y0392437D01*
X0092546Y0394038D02*
X0097050Y0394038D01*
X0097050Y0397041D01*
X0097050Y0398642D02*
X0097050Y0401645D01*
X0096299Y0403246D02*
X0097050Y0403997D01*
X0097050Y0405498D01*
X0096299Y0406249D01*
X0093297Y0406249D01*
X0092546Y0405498D01*
X0092546Y0403997D01*
X0093297Y0403246D01*
X0096299Y0403246D01*
X0097050Y0398642D02*
X0092546Y0398642D01*
X0092546Y0397041D02*
X0092546Y0394038D01*
X0094798Y0394038D02*
X0094798Y0395539D01*
X0092546Y0429330D02*
X0092546Y0431582D01*
X0093297Y0432333D01*
X0096299Y0432333D01*
X0097050Y0431582D01*
X0097050Y0429330D01*
X0092546Y0429330D01*
X0092546Y0433934D02*
X0097050Y0433934D01*
X0094798Y0433934D02*
X0094798Y0436937D01*
X0092546Y0436937D02*
X0097050Y0436937D01*
X0097050Y0440039D02*
X0092546Y0440039D01*
X0092546Y0438538D02*
X0092546Y0441541D01*
X0094047Y0443142D02*
X0092546Y0444643D01*
X0097050Y0444643D01*
X0097050Y0443142D02*
X0097050Y0446145D01*
X0097050Y0447746D02*
X0097050Y0450749D01*
X0097050Y0449247D02*
X0092546Y0449247D01*
X0094047Y0447746D01*
X0135550Y0370254D02*
X0137802Y0370254D01*
X0138553Y0369503D01*
X0138553Y0368002D01*
X0137802Y0367251D01*
X0135550Y0367251D01*
X0135550Y0365750D02*
X0135550Y0370254D01*
X0140154Y0369503D02*
X0140154Y0366501D01*
X0140905Y0365750D01*
X0142406Y0365750D01*
X0143156Y0366501D01*
X0143156Y0369503D01*
X0142406Y0370254D01*
X0140905Y0370254D01*
X0140154Y0369503D01*
X0144758Y0370254D02*
X0144758Y0365750D01*
X0146259Y0367251D01*
X0147760Y0365750D01*
X0147760Y0370254D01*
X0149362Y0370254D02*
X0149362Y0365750D01*
X0152364Y0365750D01*
X0153966Y0365750D02*
X0153966Y0370254D01*
X0156218Y0370254D01*
X0156968Y0369503D01*
X0156968Y0368002D01*
X0156218Y0367251D01*
X0153966Y0367251D01*
X0155467Y0367251D02*
X0156968Y0365750D01*
X0152364Y0370254D02*
X0149362Y0370254D01*
X0149362Y0368002D02*
X0150863Y0368002D01*
X0097050Y0361811D02*
X0092546Y0361811D01*
X0048350Y0360446D02*
X0043846Y0360446D01*
X0043846Y0362698D01*
X0044597Y0363449D01*
X0046098Y0363449D01*
X0046849Y0362698D01*
X0046849Y0360446D01*
X0046849Y0361947D02*
X0048350Y0363449D01*
X0047599Y0358845D02*
X0048350Y0358094D01*
X0048350Y0356593D01*
X0047599Y0355842D01*
X0044597Y0355842D01*
X0043846Y0356593D01*
X0043846Y0358094D01*
X0044597Y0358845D01*
X0047599Y0358845D01*
X0047599Y0354241D02*
X0048350Y0353490D01*
X0048350Y0351989D01*
X0047599Y0351238D01*
X0046098Y0351989D02*
X0045347Y0351238D01*
X0044597Y0351238D01*
X0043846Y0351989D01*
X0043846Y0353490D01*
X0044597Y0354241D01*
X0046098Y0353490D02*
X0046849Y0354241D01*
X0047599Y0354241D01*
X0046098Y0353490D02*
X0046098Y0351989D01*
X0048350Y0349637D02*
X0043846Y0349637D01*
X0043846Y0346634D02*
X0048350Y0349637D01*
X0048350Y0346634D02*
X0043846Y0346634D01*
X0043846Y0345033D02*
X0043846Y0342030D01*
X0048350Y0342030D01*
X0048350Y0345033D01*
X0046098Y0343532D02*
X0046098Y0342030D01*
X0046849Y0340429D02*
X0047599Y0340429D01*
X0048350Y0339678D01*
X0048350Y0338177D01*
X0047599Y0337426D01*
X0046098Y0338177D02*
X0046098Y0339678D01*
X0046849Y0340429D01*
X0044597Y0340429D02*
X0043846Y0339678D01*
X0043846Y0338177D01*
X0044597Y0337426D01*
X0045347Y0337426D01*
X0046098Y0338177D01*
X0046849Y0335825D02*
X0043846Y0335825D01*
X0043846Y0332822D02*
X0046849Y0332822D01*
X0048350Y0334324D01*
X0046849Y0335825D01*
X0047599Y0331221D02*
X0043846Y0331221D01*
X0043846Y0328219D02*
X0047599Y0328219D01*
X0048350Y0328969D01*
X0048350Y0330470D01*
X0047599Y0331221D01*
X0042799Y0236749D02*
X0043550Y0235998D01*
X0043550Y0234497D01*
X0042799Y0233746D01*
X0039797Y0233746D01*
X0039046Y0234497D01*
X0039046Y0235998D01*
X0039797Y0236749D01*
X0039046Y0232145D02*
X0039046Y0229142D01*
X0039046Y0230643D02*
X0043550Y0230643D01*
X0043550Y0227541D02*
X0042049Y0226039D01*
X0042049Y0226790D02*
X0042049Y0224538D01*
X0043550Y0224538D02*
X0039046Y0224538D01*
X0039046Y0226790D01*
X0039797Y0227541D01*
X0041298Y0227541D01*
X0042049Y0226790D01*
X0339546Y0476039D02*
X0339546Y0477541D01*
X0339546Y0476790D02*
X0343299Y0476790D01*
X0344050Y0476039D01*
X0344050Y0475289D01*
X0343299Y0474538D01*
X0342549Y0479142D02*
X0342549Y0481394D01*
X0341798Y0482145D01*
X0340297Y0482145D01*
X0339546Y0481394D01*
X0339546Y0479142D01*
X0344050Y0479142D01*
X0344050Y0483746D02*
X0344050Y0486749D01*
X0344050Y0485247D02*
X0339546Y0485247D01*
X0341047Y0483746D01*
X0350850Y0348156D02*
X0350850Y0345154D01*
X0350850Y0346655D02*
X0346346Y0346655D01*
X0347847Y0345154D01*
X0347097Y0343553D02*
X0346346Y0342802D01*
X0346346Y0340550D01*
X0350850Y0340550D01*
X0350850Y0342802D01*
X0350099Y0343553D01*
X0347097Y0343553D01*
X0363893Y0305054D02*
X0363142Y0304303D01*
X0363142Y0303553D01*
X0363893Y0302802D01*
X0365394Y0302802D01*
X0366145Y0302051D01*
X0366145Y0301301D01*
X0365394Y0300550D01*
X0363893Y0300550D01*
X0363142Y0301301D01*
X0363893Y0305054D02*
X0365394Y0305054D01*
X0366145Y0304303D01*
X0367746Y0303553D02*
X0369247Y0305054D01*
X0369247Y0300550D01*
X0367746Y0300550D02*
X0370749Y0300550D01*
D20*
X0183850Y0299556D02*
X0182432Y0300974D01*
X0181014Y0300974D01*
X0179596Y0299556D01*
X0179596Y0295303D01*
X0182432Y0295303D01*
X0183850Y0296721D01*
X0183850Y0299556D01*
X0182432Y0304511D02*
X0176761Y0304511D01*
X0175343Y0305928D01*
X0175343Y0308764D01*
X0176761Y0310182D01*
X0182432Y0304511D01*
X0183850Y0305928D01*
X0183850Y0308764D01*
X0182432Y0310182D01*
X0176761Y0310182D01*
X0175343Y0300974D02*
X0176761Y0298138D01*
X0179596Y0295303D01*
X0179596Y0291766D02*
X0182432Y0291766D01*
X0183850Y0290348D01*
X0183850Y0287513D01*
X0182432Y0286095D01*
X0179596Y0286095D02*
X0178178Y0288931D01*
X0178178Y0290348D01*
X0179596Y0291766D01*
X0175343Y0291766D02*
X0175343Y0286095D01*
X0179596Y0286095D01*
X0178178Y0282559D02*
X0176761Y0282559D01*
X0175343Y0281141D01*
X0175343Y0278305D01*
X0176761Y0276887D01*
X0178178Y0282559D02*
X0183850Y0276887D01*
X0183850Y0282559D01*
X0183850Y0264143D02*
X0178178Y0264143D01*
X0175343Y0261307D01*
X0178178Y0258471D01*
X0183850Y0258471D01*
X0182432Y0254935D02*
X0179596Y0254935D01*
X0179596Y0252099D01*
X0176761Y0249263D02*
X0182432Y0249263D01*
X0183850Y0250681D01*
X0183850Y0253517D01*
X0182432Y0254935D01*
X0179596Y0258471D02*
X0179596Y0264143D01*
X0176761Y0254935D02*
X0175343Y0253517D01*
X0175343Y0250681D01*
X0176761Y0249263D01*
X0175343Y0245727D02*
X0175343Y0240056D01*
X0183850Y0240056D01*
X0183850Y0245727D01*
X0179596Y0242891D02*
X0179596Y0240056D01*
X0175343Y0236519D02*
X0183850Y0236519D01*
X0183850Y0230848D02*
X0175343Y0230848D01*
X0178178Y0233683D01*
X0175343Y0236519D01*
X0178178Y0322926D02*
X0175343Y0325762D01*
X0178178Y0328598D01*
X0183850Y0328598D01*
X0183850Y0332134D02*
X0175343Y0332134D01*
X0175343Y0336388D01*
X0176761Y0337806D01*
X0182432Y0337806D01*
X0183850Y0336388D01*
X0183850Y0332134D01*
X0179596Y0328598D02*
X0179596Y0322926D01*
X0178178Y0322926D02*
X0183850Y0322926D01*
X0183850Y0341342D02*
X0175343Y0341342D01*
X0179596Y0342760D02*
X0183850Y0347014D01*
X0181014Y0341342D02*
X0175343Y0347014D01*
D21*
X0310297Y0274843D02*
X0310297Y0273675D01*
X0310881Y0273091D01*
X0310881Y0271835D02*
X0312049Y0271835D01*
X0312632Y0271251D01*
X0312632Y0269500D01*
X0312632Y0270668D02*
X0313800Y0271835D01*
X0313800Y0273091D02*
X0311465Y0275426D01*
X0310881Y0275426D01*
X0310297Y0274843D01*
X0310881Y0271835D02*
X0310297Y0271251D01*
X0310297Y0269500D01*
X0313800Y0269500D01*
X0313800Y0273091D02*
X0313800Y0275426D01*
X0321397Y0331318D02*
X0321397Y0333069D01*
X0321981Y0333653D01*
X0323149Y0333653D01*
X0323732Y0333069D01*
X0323732Y0331318D01*
X0323732Y0332486D02*
X0324900Y0333653D01*
X0324316Y0334909D02*
X0324900Y0335493D01*
X0324900Y0336660D01*
X0324316Y0337244D01*
X0323732Y0337244D01*
X0323149Y0336660D01*
X0323149Y0334909D01*
X0324316Y0334909D01*
X0323149Y0334909D02*
X0321981Y0336077D01*
X0321397Y0337244D01*
X0321397Y0331318D02*
X0324900Y0331318D01*
X0372800Y0494500D02*
X0375102Y0494500D01*
X0375869Y0495267D01*
X0375869Y0498337D01*
X0375102Y0499104D01*
X0372800Y0499104D01*
X0372800Y0494500D01*
X0377404Y0494500D02*
X0378939Y0494500D01*
X0378171Y0494500D02*
X0378171Y0499104D01*
X0377404Y0499104D02*
X0378939Y0499104D01*
X0380473Y0498337D02*
X0380473Y0497569D01*
X0381241Y0496802D01*
X0382775Y0496802D01*
X0383542Y0496035D01*
X0383542Y0495267D01*
X0382775Y0494500D01*
X0381241Y0494500D01*
X0380473Y0495267D01*
X0380473Y0498337D02*
X0381241Y0499104D01*
X0382775Y0499104D01*
X0383542Y0498337D01*
X0385077Y0497569D02*
X0386612Y0499104D01*
X0386612Y0494500D01*
X0388146Y0494500D02*
X0385077Y0494500D01*
X0337156Y0527745D02*
X0332552Y0527745D01*
X0332552Y0530047D01*
X0333319Y0530814D01*
X0334854Y0530814D01*
X0335621Y0530047D01*
X0335621Y0527745D01*
X0335621Y0529280D02*
X0337156Y0530814D01*
X0337156Y0532349D02*
X0337156Y0535418D01*
X0337156Y0533883D02*
X0332552Y0533883D01*
X0334087Y0532349D01*
X0490397Y0078744D02*
X0490981Y0078744D01*
X0493316Y0076409D01*
X0493900Y0076409D01*
X0493900Y0075153D02*
X0492732Y0073986D01*
X0492732Y0074569D02*
X0492732Y0072818D01*
X0493900Y0072818D02*
X0490397Y0072818D01*
X0490397Y0074569D01*
X0490981Y0075153D01*
X0492149Y0075153D01*
X0492732Y0074569D01*
X0490397Y0076409D02*
X0490397Y0078744D01*
X0500897Y0078744D02*
X0500897Y0076409D01*
X0502649Y0076409D01*
X0502065Y0077577D01*
X0502065Y0078160D01*
X0502649Y0078744D01*
X0503816Y0078744D01*
X0504400Y0078160D01*
X0504400Y0076993D01*
X0503816Y0076409D01*
X0504400Y0075153D02*
X0503232Y0073986D01*
X0503232Y0074569D02*
X0503232Y0072818D01*
X0504400Y0072818D02*
X0500897Y0072818D01*
X0500897Y0074569D01*
X0501481Y0075153D01*
X0502649Y0075153D01*
X0503232Y0074569D01*
X0510897Y0074569D02*
X0511481Y0075153D01*
X0512649Y0075153D01*
X0513232Y0074569D01*
X0513232Y0072818D01*
X0513232Y0073986D02*
X0514400Y0075153D01*
X0512649Y0076409D02*
X0512649Y0078744D01*
X0514400Y0078160D02*
X0510897Y0078160D01*
X0512649Y0076409D01*
X0510897Y0074569D02*
X0510897Y0072818D01*
X0514400Y0072818D01*
X0521897Y0072818D02*
X0521897Y0074569D01*
X0522481Y0075153D01*
X0523649Y0075153D01*
X0524232Y0074569D01*
X0524232Y0072818D01*
X0524232Y0073986D02*
X0525400Y0075153D01*
X0524816Y0076409D02*
X0525400Y0076993D01*
X0525400Y0078160D01*
X0524816Y0078744D01*
X0524232Y0078744D01*
X0523649Y0078160D01*
X0523649Y0077577D01*
X0523649Y0078160D02*
X0523065Y0078744D01*
X0522481Y0078744D01*
X0521897Y0078160D01*
X0521897Y0076993D01*
X0522481Y0076409D01*
X0521897Y0072818D02*
X0525400Y0072818D01*
D22*
X0516600Y0080550D03*
X0505600Y0080550D03*
X0495600Y0080550D03*
X0485100Y0080550D03*
X0485100Y0059050D03*
X0495600Y0059050D03*
X0505600Y0059050D03*
X0516600Y0059050D03*
X0319100Y0268550D03*
X0319100Y0290050D03*
X0316100Y0317550D03*
X0316100Y0339050D03*
D23*
X0414824Y0410481D03*
X0429194Y0410481D03*
X0443565Y0410481D03*
X0457935Y0410481D03*
X0472305Y0410481D03*
X0486675Y0410481D03*
X0501045Y0410481D03*
X0515415Y0410481D03*
X0529785Y0410481D03*
X0544155Y0410481D03*
X0558525Y0410481D03*
X0572895Y0410481D03*
X0587265Y0410481D03*
X0601635Y0410481D03*
X0616006Y0410481D03*
X0630376Y0410481D03*
X0630376Y0430757D03*
X0616006Y0430757D03*
X0601635Y0430757D03*
X0587265Y0430757D03*
X0572895Y0430757D03*
X0558525Y0430757D03*
X0544155Y0430757D03*
X0529785Y0430757D03*
X0515415Y0430757D03*
X0501045Y0430757D03*
X0486675Y0430757D03*
X0472305Y0430757D03*
X0457935Y0430757D03*
X0443565Y0430757D03*
X0429194Y0430757D03*
X0414824Y0430757D03*
D24*
X0370041Y0482824D02*
X0370043Y0482964D01*
X0370049Y0483104D01*
X0370059Y0483243D01*
X0370073Y0483382D01*
X0370091Y0483521D01*
X0370112Y0483659D01*
X0370138Y0483797D01*
X0370168Y0483934D01*
X0370201Y0484069D01*
X0370239Y0484204D01*
X0370280Y0484338D01*
X0370325Y0484471D01*
X0370373Y0484602D01*
X0370426Y0484731D01*
X0370482Y0484860D01*
X0370541Y0484986D01*
X0370605Y0485111D01*
X0370671Y0485234D01*
X0370742Y0485355D01*
X0370815Y0485474D01*
X0370892Y0485591D01*
X0370973Y0485705D01*
X0371056Y0485817D01*
X0371143Y0485927D01*
X0371233Y0486035D01*
X0371325Y0486139D01*
X0371421Y0486241D01*
X0371520Y0486341D01*
X0371621Y0486437D01*
X0371725Y0486531D01*
X0371832Y0486621D01*
X0371941Y0486708D01*
X0372053Y0486793D01*
X0372167Y0486874D01*
X0372283Y0486952D01*
X0372401Y0487026D01*
X0372522Y0487097D01*
X0372644Y0487165D01*
X0372769Y0487229D01*
X0372895Y0487290D01*
X0373022Y0487347D01*
X0373152Y0487400D01*
X0373283Y0487450D01*
X0373415Y0487495D01*
X0373548Y0487538D01*
X0373683Y0487576D01*
X0373818Y0487610D01*
X0373955Y0487641D01*
X0374092Y0487668D01*
X0374230Y0487690D01*
X0374369Y0487709D01*
X0374508Y0487724D01*
X0374647Y0487735D01*
X0374787Y0487742D01*
X0374927Y0487745D01*
X0375067Y0487744D01*
X0375207Y0487739D01*
X0375346Y0487730D01*
X0375486Y0487717D01*
X0375625Y0487700D01*
X0375763Y0487679D01*
X0375901Y0487655D01*
X0376038Y0487626D01*
X0376174Y0487594D01*
X0376309Y0487557D01*
X0376443Y0487517D01*
X0376576Y0487473D01*
X0376707Y0487425D01*
X0376837Y0487374D01*
X0376966Y0487319D01*
X0377093Y0487260D01*
X0377218Y0487197D01*
X0377341Y0487132D01*
X0377463Y0487062D01*
X0377582Y0486989D01*
X0377700Y0486913D01*
X0377815Y0486834D01*
X0377928Y0486751D01*
X0378038Y0486665D01*
X0378146Y0486576D01*
X0378251Y0486484D01*
X0378354Y0486389D01*
X0378454Y0486291D01*
X0378551Y0486191D01*
X0378645Y0486087D01*
X0378737Y0485981D01*
X0378825Y0485873D01*
X0378910Y0485762D01*
X0378992Y0485648D01*
X0379071Y0485532D01*
X0379146Y0485415D01*
X0379218Y0485295D01*
X0379286Y0485173D01*
X0379351Y0485049D01*
X0379413Y0484923D01*
X0379471Y0484796D01*
X0379525Y0484667D01*
X0379576Y0484536D01*
X0379622Y0484404D01*
X0379665Y0484271D01*
X0379705Y0484137D01*
X0379740Y0484002D01*
X0379772Y0483865D01*
X0379799Y0483728D01*
X0379823Y0483590D01*
X0379843Y0483452D01*
X0379859Y0483313D01*
X0379871Y0483173D01*
X0379879Y0483034D01*
X0379883Y0482894D01*
X0379883Y0482754D01*
X0379879Y0482614D01*
X0379871Y0482475D01*
X0379859Y0482335D01*
X0379843Y0482196D01*
X0379823Y0482058D01*
X0379799Y0481920D01*
X0379772Y0481783D01*
X0379740Y0481646D01*
X0379705Y0481511D01*
X0379665Y0481377D01*
X0379622Y0481244D01*
X0379576Y0481112D01*
X0379525Y0480981D01*
X0379471Y0480852D01*
X0379413Y0480725D01*
X0379351Y0480599D01*
X0379286Y0480475D01*
X0379218Y0480353D01*
X0379146Y0480233D01*
X0379071Y0480116D01*
X0378992Y0480000D01*
X0378910Y0479886D01*
X0378825Y0479775D01*
X0378737Y0479667D01*
X0378645Y0479561D01*
X0378551Y0479457D01*
X0378454Y0479357D01*
X0378354Y0479259D01*
X0378251Y0479164D01*
X0378146Y0479072D01*
X0378038Y0478983D01*
X0377928Y0478897D01*
X0377815Y0478814D01*
X0377700Y0478735D01*
X0377582Y0478659D01*
X0377463Y0478586D01*
X0377341Y0478516D01*
X0377218Y0478451D01*
X0377093Y0478388D01*
X0376966Y0478329D01*
X0376837Y0478274D01*
X0376707Y0478223D01*
X0376576Y0478175D01*
X0376443Y0478131D01*
X0376309Y0478091D01*
X0376174Y0478054D01*
X0376038Y0478022D01*
X0375901Y0477993D01*
X0375763Y0477969D01*
X0375625Y0477948D01*
X0375486Y0477931D01*
X0375346Y0477918D01*
X0375207Y0477909D01*
X0375067Y0477904D01*
X0374927Y0477903D01*
X0374787Y0477906D01*
X0374647Y0477913D01*
X0374508Y0477924D01*
X0374369Y0477939D01*
X0374230Y0477958D01*
X0374092Y0477980D01*
X0373955Y0478007D01*
X0373818Y0478038D01*
X0373683Y0478072D01*
X0373548Y0478110D01*
X0373415Y0478153D01*
X0373283Y0478198D01*
X0373152Y0478248D01*
X0373022Y0478301D01*
X0372895Y0478358D01*
X0372769Y0478419D01*
X0372644Y0478483D01*
X0372522Y0478551D01*
X0372401Y0478622D01*
X0372283Y0478696D01*
X0372167Y0478774D01*
X0372053Y0478855D01*
X0371941Y0478940D01*
X0371832Y0479027D01*
X0371725Y0479117D01*
X0371621Y0479211D01*
X0371520Y0479307D01*
X0371421Y0479407D01*
X0371325Y0479509D01*
X0371233Y0479613D01*
X0371143Y0479721D01*
X0371056Y0479831D01*
X0370973Y0479943D01*
X0370892Y0480057D01*
X0370815Y0480174D01*
X0370742Y0480293D01*
X0370671Y0480414D01*
X0370605Y0480537D01*
X0370541Y0480662D01*
X0370482Y0480788D01*
X0370426Y0480917D01*
X0370373Y0481046D01*
X0370325Y0481177D01*
X0370280Y0481310D01*
X0370239Y0481444D01*
X0370201Y0481579D01*
X0370168Y0481714D01*
X0370138Y0481851D01*
X0370112Y0481989D01*
X0370091Y0482127D01*
X0370073Y0482266D01*
X0370059Y0482405D01*
X0370049Y0482544D01*
X0370043Y0482684D01*
X0370041Y0482824D01*
X0370041Y0360776D02*
X0370043Y0360916D01*
X0370049Y0361056D01*
X0370059Y0361195D01*
X0370073Y0361334D01*
X0370091Y0361473D01*
X0370112Y0361611D01*
X0370138Y0361749D01*
X0370168Y0361886D01*
X0370201Y0362021D01*
X0370239Y0362156D01*
X0370280Y0362290D01*
X0370325Y0362423D01*
X0370373Y0362554D01*
X0370426Y0362683D01*
X0370482Y0362812D01*
X0370541Y0362938D01*
X0370605Y0363063D01*
X0370671Y0363186D01*
X0370742Y0363307D01*
X0370815Y0363426D01*
X0370892Y0363543D01*
X0370973Y0363657D01*
X0371056Y0363769D01*
X0371143Y0363879D01*
X0371233Y0363987D01*
X0371325Y0364091D01*
X0371421Y0364193D01*
X0371520Y0364293D01*
X0371621Y0364389D01*
X0371725Y0364483D01*
X0371832Y0364573D01*
X0371941Y0364660D01*
X0372053Y0364745D01*
X0372167Y0364826D01*
X0372283Y0364904D01*
X0372401Y0364978D01*
X0372522Y0365049D01*
X0372644Y0365117D01*
X0372769Y0365181D01*
X0372895Y0365242D01*
X0373022Y0365299D01*
X0373152Y0365352D01*
X0373283Y0365402D01*
X0373415Y0365447D01*
X0373548Y0365490D01*
X0373683Y0365528D01*
X0373818Y0365562D01*
X0373955Y0365593D01*
X0374092Y0365620D01*
X0374230Y0365642D01*
X0374369Y0365661D01*
X0374508Y0365676D01*
X0374647Y0365687D01*
X0374787Y0365694D01*
X0374927Y0365697D01*
X0375067Y0365696D01*
X0375207Y0365691D01*
X0375346Y0365682D01*
X0375486Y0365669D01*
X0375625Y0365652D01*
X0375763Y0365631D01*
X0375901Y0365607D01*
X0376038Y0365578D01*
X0376174Y0365546D01*
X0376309Y0365509D01*
X0376443Y0365469D01*
X0376576Y0365425D01*
X0376707Y0365377D01*
X0376837Y0365326D01*
X0376966Y0365271D01*
X0377093Y0365212D01*
X0377218Y0365149D01*
X0377341Y0365084D01*
X0377463Y0365014D01*
X0377582Y0364941D01*
X0377700Y0364865D01*
X0377815Y0364786D01*
X0377928Y0364703D01*
X0378038Y0364617D01*
X0378146Y0364528D01*
X0378251Y0364436D01*
X0378354Y0364341D01*
X0378454Y0364243D01*
X0378551Y0364143D01*
X0378645Y0364039D01*
X0378737Y0363933D01*
X0378825Y0363825D01*
X0378910Y0363714D01*
X0378992Y0363600D01*
X0379071Y0363484D01*
X0379146Y0363367D01*
X0379218Y0363247D01*
X0379286Y0363125D01*
X0379351Y0363001D01*
X0379413Y0362875D01*
X0379471Y0362748D01*
X0379525Y0362619D01*
X0379576Y0362488D01*
X0379622Y0362356D01*
X0379665Y0362223D01*
X0379705Y0362089D01*
X0379740Y0361954D01*
X0379772Y0361817D01*
X0379799Y0361680D01*
X0379823Y0361542D01*
X0379843Y0361404D01*
X0379859Y0361265D01*
X0379871Y0361125D01*
X0379879Y0360986D01*
X0379883Y0360846D01*
X0379883Y0360706D01*
X0379879Y0360566D01*
X0379871Y0360427D01*
X0379859Y0360287D01*
X0379843Y0360148D01*
X0379823Y0360010D01*
X0379799Y0359872D01*
X0379772Y0359735D01*
X0379740Y0359598D01*
X0379705Y0359463D01*
X0379665Y0359329D01*
X0379622Y0359196D01*
X0379576Y0359064D01*
X0379525Y0358933D01*
X0379471Y0358804D01*
X0379413Y0358677D01*
X0379351Y0358551D01*
X0379286Y0358427D01*
X0379218Y0358305D01*
X0379146Y0358185D01*
X0379071Y0358068D01*
X0378992Y0357952D01*
X0378910Y0357838D01*
X0378825Y0357727D01*
X0378737Y0357619D01*
X0378645Y0357513D01*
X0378551Y0357409D01*
X0378454Y0357309D01*
X0378354Y0357211D01*
X0378251Y0357116D01*
X0378146Y0357024D01*
X0378038Y0356935D01*
X0377928Y0356849D01*
X0377815Y0356766D01*
X0377700Y0356687D01*
X0377582Y0356611D01*
X0377463Y0356538D01*
X0377341Y0356468D01*
X0377218Y0356403D01*
X0377093Y0356340D01*
X0376966Y0356281D01*
X0376837Y0356226D01*
X0376707Y0356175D01*
X0376576Y0356127D01*
X0376443Y0356083D01*
X0376309Y0356043D01*
X0376174Y0356006D01*
X0376038Y0355974D01*
X0375901Y0355945D01*
X0375763Y0355921D01*
X0375625Y0355900D01*
X0375486Y0355883D01*
X0375346Y0355870D01*
X0375207Y0355861D01*
X0375067Y0355856D01*
X0374927Y0355855D01*
X0374787Y0355858D01*
X0374647Y0355865D01*
X0374508Y0355876D01*
X0374369Y0355891D01*
X0374230Y0355910D01*
X0374092Y0355932D01*
X0373955Y0355959D01*
X0373818Y0355990D01*
X0373683Y0356024D01*
X0373548Y0356062D01*
X0373415Y0356105D01*
X0373283Y0356150D01*
X0373152Y0356200D01*
X0373022Y0356253D01*
X0372895Y0356310D01*
X0372769Y0356371D01*
X0372644Y0356435D01*
X0372522Y0356503D01*
X0372401Y0356574D01*
X0372283Y0356648D01*
X0372167Y0356726D01*
X0372053Y0356807D01*
X0371941Y0356892D01*
X0371832Y0356979D01*
X0371725Y0357069D01*
X0371621Y0357163D01*
X0371520Y0357259D01*
X0371421Y0357359D01*
X0371325Y0357461D01*
X0371233Y0357565D01*
X0371143Y0357673D01*
X0371056Y0357783D01*
X0370973Y0357895D01*
X0370892Y0358009D01*
X0370815Y0358126D01*
X0370742Y0358245D01*
X0370671Y0358366D01*
X0370605Y0358489D01*
X0370541Y0358614D01*
X0370482Y0358740D01*
X0370426Y0358869D01*
X0370373Y0358998D01*
X0370325Y0359129D01*
X0370280Y0359262D01*
X0370239Y0359396D01*
X0370201Y0359531D01*
X0370168Y0359666D01*
X0370138Y0359803D01*
X0370112Y0359941D01*
X0370091Y0360079D01*
X0370073Y0360218D01*
X0370059Y0360357D01*
X0370049Y0360496D01*
X0370043Y0360636D01*
X0370041Y0360776D01*
X0665317Y0360776D02*
X0665319Y0360916D01*
X0665325Y0361056D01*
X0665335Y0361195D01*
X0665349Y0361334D01*
X0665367Y0361473D01*
X0665388Y0361611D01*
X0665414Y0361749D01*
X0665444Y0361886D01*
X0665477Y0362021D01*
X0665515Y0362156D01*
X0665556Y0362290D01*
X0665601Y0362423D01*
X0665649Y0362554D01*
X0665702Y0362683D01*
X0665758Y0362812D01*
X0665817Y0362938D01*
X0665881Y0363063D01*
X0665947Y0363186D01*
X0666018Y0363307D01*
X0666091Y0363426D01*
X0666168Y0363543D01*
X0666249Y0363657D01*
X0666332Y0363769D01*
X0666419Y0363879D01*
X0666509Y0363987D01*
X0666601Y0364091D01*
X0666697Y0364193D01*
X0666796Y0364293D01*
X0666897Y0364389D01*
X0667001Y0364483D01*
X0667108Y0364573D01*
X0667217Y0364660D01*
X0667329Y0364745D01*
X0667443Y0364826D01*
X0667559Y0364904D01*
X0667677Y0364978D01*
X0667798Y0365049D01*
X0667920Y0365117D01*
X0668045Y0365181D01*
X0668171Y0365242D01*
X0668298Y0365299D01*
X0668428Y0365352D01*
X0668559Y0365402D01*
X0668691Y0365447D01*
X0668824Y0365490D01*
X0668959Y0365528D01*
X0669094Y0365562D01*
X0669231Y0365593D01*
X0669368Y0365620D01*
X0669506Y0365642D01*
X0669645Y0365661D01*
X0669784Y0365676D01*
X0669923Y0365687D01*
X0670063Y0365694D01*
X0670203Y0365697D01*
X0670343Y0365696D01*
X0670483Y0365691D01*
X0670622Y0365682D01*
X0670762Y0365669D01*
X0670901Y0365652D01*
X0671039Y0365631D01*
X0671177Y0365607D01*
X0671314Y0365578D01*
X0671450Y0365546D01*
X0671585Y0365509D01*
X0671719Y0365469D01*
X0671852Y0365425D01*
X0671983Y0365377D01*
X0672113Y0365326D01*
X0672242Y0365271D01*
X0672369Y0365212D01*
X0672494Y0365149D01*
X0672617Y0365084D01*
X0672739Y0365014D01*
X0672858Y0364941D01*
X0672976Y0364865D01*
X0673091Y0364786D01*
X0673204Y0364703D01*
X0673314Y0364617D01*
X0673422Y0364528D01*
X0673527Y0364436D01*
X0673630Y0364341D01*
X0673730Y0364243D01*
X0673827Y0364143D01*
X0673921Y0364039D01*
X0674013Y0363933D01*
X0674101Y0363825D01*
X0674186Y0363714D01*
X0674268Y0363600D01*
X0674347Y0363484D01*
X0674422Y0363367D01*
X0674494Y0363247D01*
X0674562Y0363125D01*
X0674627Y0363001D01*
X0674689Y0362875D01*
X0674747Y0362748D01*
X0674801Y0362619D01*
X0674852Y0362488D01*
X0674898Y0362356D01*
X0674941Y0362223D01*
X0674981Y0362089D01*
X0675016Y0361954D01*
X0675048Y0361817D01*
X0675075Y0361680D01*
X0675099Y0361542D01*
X0675119Y0361404D01*
X0675135Y0361265D01*
X0675147Y0361125D01*
X0675155Y0360986D01*
X0675159Y0360846D01*
X0675159Y0360706D01*
X0675155Y0360566D01*
X0675147Y0360427D01*
X0675135Y0360287D01*
X0675119Y0360148D01*
X0675099Y0360010D01*
X0675075Y0359872D01*
X0675048Y0359735D01*
X0675016Y0359598D01*
X0674981Y0359463D01*
X0674941Y0359329D01*
X0674898Y0359196D01*
X0674852Y0359064D01*
X0674801Y0358933D01*
X0674747Y0358804D01*
X0674689Y0358677D01*
X0674627Y0358551D01*
X0674562Y0358427D01*
X0674494Y0358305D01*
X0674422Y0358185D01*
X0674347Y0358068D01*
X0674268Y0357952D01*
X0674186Y0357838D01*
X0674101Y0357727D01*
X0674013Y0357619D01*
X0673921Y0357513D01*
X0673827Y0357409D01*
X0673730Y0357309D01*
X0673630Y0357211D01*
X0673527Y0357116D01*
X0673422Y0357024D01*
X0673314Y0356935D01*
X0673204Y0356849D01*
X0673091Y0356766D01*
X0672976Y0356687D01*
X0672858Y0356611D01*
X0672739Y0356538D01*
X0672617Y0356468D01*
X0672494Y0356403D01*
X0672369Y0356340D01*
X0672242Y0356281D01*
X0672113Y0356226D01*
X0671983Y0356175D01*
X0671852Y0356127D01*
X0671719Y0356083D01*
X0671585Y0356043D01*
X0671450Y0356006D01*
X0671314Y0355974D01*
X0671177Y0355945D01*
X0671039Y0355921D01*
X0670901Y0355900D01*
X0670762Y0355883D01*
X0670622Y0355870D01*
X0670483Y0355861D01*
X0670343Y0355856D01*
X0670203Y0355855D01*
X0670063Y0355858D01*
X0669923Y0355865D01*
X0669784Y0355876D01*
X0669645Y0355891D01*
X0669506Y0355910D01*
X0669368Y0355932D01*
X0669231Y0355959D01*
X0669094Y0355990D01*
X0668959Y0356024D01*
X0668824Y0356062D01*
X0668691Y0356105D01*
X0668559Y0356150D01*
X0668428Y0356200D01*
X0668298Y0356253D01*
X0668171Y0356310D01*
X0668045Y0356371D01*
X0667920Y0356435D01*
X0667798Y0356503D01*
X0667677Y0356574D01*
X0667559Y0356648D01*
X0667443Y0356726D01*
X0667329Y0356807D01*
X0667217Y0356892D01*
X0667108Y0356979D01*
X0667001Y0357069D01*
X0666897Y0357163D01*
X0666796Y0357259D01*
X0666697Y0357359D01*
X0666601Y0357461D01*
X0666509Y0357565D01*
X0666419Y0357673D01*
X0666332Y0357783D01*
X0666249Y0357895D01*
X0666168Y0358009D01*
X0666091Y0358126D01*
X0666018Y0358245D01*
X0665947Y0358366D01*
X0665881Y0358489D01*
X0665817Y0358614D01*
X0665758Y0358740D01*
X0665702Y0358869D01*
X0665649Y0358998D01*
X0665601Y0359129D01*
X0665556Y0359262D01*
X0665515Y0359396D01*
X0665477Y0359531D01*
X0665444Y0359666D01*
X0665414Y0359803D01*
X0665388Y0359941D01*
X0665367Y0360079D01*
X0665349Y0360218D01*
X0665335Y0360357D01*
X0665325Y0360496D01*
X0665319Y0360636D01*
X0665317Y0360776D01*
X0665317Y0482824D02*
X0665319Y0482964D01*
X0665325Y0483104D01*
X0665335Y0483243D01*
X0665349Y0483382D01*
X0665367Y0483521D01*
X0665388Y0483659D01*
X0665414Y0483797D01*
X0665444Y0483934D01*
X0665477Y0484069D01*
X0665515Y0484204D01*
X0665556Y0484338D01*
X0665601Y0484471D01*
X0665649Y0484602D01*
X0665702Y0484731D01*
X0665758Y0484860D01*
X0665817Y0484986D01*
X0665881Y0485111D01*
X0665947Y0485234D01*
X0666018Y0485355D01*
X0666091Y0485474D01*
X0666168Y0485591D01*
X0666249Y0485705D01*
X0666332Y0485817D01*
X0666419Y0485927D01*
X0666509Y0486035D01*
X0666601Y0486139D01*
X0666697Y0486241D01*
X0666796Y0486341D01*
X0666897Y0486437D01*
X0667001Y0486531D01*
X0667108Y0486621D01*
X0667217Y0486708D01*
X0667329Y0486793D01*
X0667443Y0486874D01*
X0667559Y0486952D01*
X0667677Y0487026D01*
X0667798Y0487097D01*
X0667920Y0487165D01*
X0668045Y0487229D01*
X0668171Y0487290D01*
X0668298Y0487347D01*
X0668428Y0487400D01*
X0668559Y0487450D01*
X0668691Y0487495D01*
X0668824Y0487538D01*
X0668959Y0487576D01*
X0669094Y0487610D01*
X0669231Y0487641D01*
X0669368Y0487668D01*
X0669506Y0487690D01*
X0669645Y0487709D01*
X0669784Y0487724D01*
X0669923Y0487735D01*
X0670063Y0487742D01*
X0670203Y0487745D01*
X0670343Y0487744D01*
X0670483Y0487739D01*
X0670622Y0487730D01*
X0670762Y0487717D01*
X0670901Y0487700D01*
X0671039Y0487679D01*
X0671177Y0487655D01*
X0671314Y0487626D01*
X0671450Y0487594D01*
X0671585Y0487557D01*
X0671719Y0487517D01*
X0671852Y0487473D01*
X0671983Y0487425D01*
X0672113Y0487374D01*
X0672242Y0487319D01*
X0672369Y0487260D01*
X0672494Y0487197D01*
X0672617Y0487132D01*
X0672739Y0487062D01*
X0672858Y0486989D01*
X0672976Y0486913D01*
X0673091Y0486834D01*
X0673204Y0486751D01*
X0673314Y0486665D01*
X0673422Y0486576D01*
X0673527Y0486484D01*
X0673630Y0486389D01*
X0673730Y0486291D01*
X0673827Y0486191D01*
X0673921Y0486087D01*
X0674013Y0485981D01*
X0674101Y0485873D01*
X0674186Y0485762D01*
X0674268Y0485648D01*
X0674347Y0485532D01*
X0674422Y0485415D01*
X0674494Y0485295D01*
X0674562Y0485173D01*
X0674627Y0485049D01*
X0674689Y0484923D01*
X0674747Y0484796D01*
X0674801Y0484667D01*
X0674852Y0484536D01*
X0674898Y0484404D01*
X0674941Y0484271D01*
X0674981Y0484137D01*
X0675016Y0484002D01*
X0675048Y0483865D01*
X0675075Y0483728D01*
X0675099Y0483590D01*
X0675119Y0483452D01*
X0675135Y0483313D01*
X0675147Y0483173D01*
X0675155Y0483034D01*
X0675159Y0482894D01*
X0675159Y0482754D01*
X0675155Y0482614D01*
X0675147Y0482475D01*
X0675135Y0482335D01*
X0675119Y0482196D01*
X0675099Y0482058D01*
X0675075Y0481920D01*
X0675048Y0481783D01*
X0675016Y0481646D01*
X0674981Y0481511D01*
X0674941Y0481377D01*
X0674898Y0481244D01*
X0674852Y0481112D01*
X0674801Y0480981D01*
X0674747Y0480852D01*
X0674689Y0480725D01*
X0674627Y0480599D01*
X0674562Y0480475D01*
X0674494Y0480353D01*
X0674422Y0480233D01*
X0674347Y0480116D01*
X0674268Y0480000D01*
X0674186Y0479886D01*
X0674101Y0479775D01*
X0674013Y0479667D01*
X0673921Y0479561D01*
X0673827Y0479457D01*
X0673730Y0479357D01*
X0673630Y0479259D01*
X0673527Y0479164D01*
X0673422Y0479072D01*
X0673314Y0478983D01*
X0673204Y0478897D01*
X0673091Y0478814D01*
X0672976Y0478735D01*
X0672858Y0478659D01*
X0672739Y0478586D01*
X0672617Y0478516D01*
X0672494Y0478451D01*
X0672369Y0478388D01*
X0672242Y0478329D01*
X0672113Y0478274D01*
X0671983Y0478223D01*
X0671852Y0478175D01*
X0671719Y0478131D01*
X0671585Y0478091D01*
X0671450Y0478054D01*
X0671314Y0478022D01*
X0671177Y0477993D01*
X0671039Y0477969D01*
X0670901Y0477948D01*
X0670762Y0477931D01*
X0670622Y0477918D01*
X0670483Y0477909D01*
X0670343Y0477904D01*
X0670203Y0477903D01*
X0670063Y0477906D01*
X0669923Y0477913D01*
X0669784Y0477924D01*
X0669645Y0477939D01*
X0669506Y0477958D01*
X0669368Y0477980D01*
X0669231Y0478007D01*
X0669094Y0478038D01*
X0668959Y0478072D01*
X0668824Y0478110D01*
X0668691Y0478153D01*
X0668559Y0478198D01*
X0668428Y0478248D01*
X0668298Y0478301D01*
X0668171Y0478358D01*
X0668045Y0478419D01*
X0667920Y0478483D01*
X0667798Y0478551D01*
X0667677Y0478622D01*
X0667559Y0478696D01*
X0667443Y0478774D01*
X0667329Y0478855D01*
X0667217Y0478940D01*
X0667108Y0479027D01*
X0667001Y0479117D01*
X0666897Y0479211D01*
X0666796Y0479307D01*
X0666697Y0479407D01*
X0666601Y0479509D01*
X0666509Y0479613D01*
X0666419Y0479721D01*
X0666332Y0479831D01*
X0666249Y0479943D01*
X0666168Y0480057D01*
X0666091Y0480174D01*
X0666018Y0480293D01*
X0665947Y0480414D01*
X0665881Y0480537D01*
X0665817Y0480662D01*
X0665758Y0480788D01*
X0665702Y0480917D01*
X0665649Y0481046D01*
X0665601Y0481177D01*
X0665556Y0481310D01*
X0665515Y0481444D01*
X0665477Y0481579D01*
X0665444Y0481714D01*
X0665414Y0481851D01*
X0665388Y0481989D01*
X0665367Y0482127D01*
X0665349Y0482266D01*
X0665335Y0482405D01*
X0665325Y0482544D01*
X0665319Y0482684D01*
X0665317Y0482824D01*
D25*
X0365100Y0331800D02*
X0365100Y0330800D01*
X0355600Y0330800D01*
X0355600Y0331800D01*
X0355100Y0308800D02*
X0355100Y0307800D01*
X0355100Y0308800D02*
X0365100Y0308800D01*
X0365100Y0307800D01*
D26*
X0436600Y0142300D02*
X0436600Y0119800D01*
X0446600Y0119800D02*
X0446600Y0142300D01*
X0456600Y0142300D02*
X0456600Y0119800D01*
X0466600Y0119800D02*
X0466600Y0142300D01*
X0476600Y0142300D02*
X0476600Y0119800D01*
X0486600Y0119800D02*
X0486600Y0142300D01*
X0496600Y0142300D02*
X0496600Y0119800D01*
X0506600Y0119800D02*
X0506600Y0142300D01*
X0516600Y0142300D02*
X0516600Y0119800D01*
X0526600Y0119800D02*
X0526600Y0142300D01*
D27*
X0526600Y0118300D03*
X0516600Y0118300D03*
X0506600Y0118300D03*
X0496600Y0118300D03*
X0486600Y0118300D03*
X0476600Y0118300D03*
X0466600Y0118300D03*
X0456600Y0118300D03*
X0446600Y0118300D03*
X0436600Y0118300D03*
D28*
X0436600Y0105300D03*
X0446600Y0105300D03*
X0456600Y0105300D03*
X0466600Y0105300D03*
X0476600Y0105300D03*
X0486600Y0105300D03*
X0496600Y0105300D03*
X0506600Y0105300D03*
X0516600Y0105300D03*
X0526600Y0105300D03*
M02*
