G75*
%MOIN*%
%OFA0B0*%
%FSLAX25Y25*%
%IPPOS*%
%LPD*%
%AMOC8*
5,1,8,0,0,1.08239X$1,22.5*
%
%ADD10C,0.00000*%
%ADD11C,0.06400*%
%ADD12R,0.08600X0.03000*%
D10*
X0004167Y0001000D02*
X0004167Y0139701D01*
X0094088Y0139701D01*
X0094088Y0001000D01*
X0004167Y0001000D01*
D11*
X0011367Y0011000D02*
X0016967Y0011000D01*
X0016967Y0021000D02*
X0011367Y0021000D01*
X0011367Y0031000D02*
X0016967Y0031000D01*
X0016967Y0041000D02*
X0011367Y0041000D01*
X0011367Y0056000D02*
X0016967Y0056000D01*
X0016967Y0066000D02*
X0011367Y0066000D01*
X0011367Y0076000D02*
X0016967Y0076000D01*
X0016967Y0086000D02*
X0011367Y0086000D01*
X0011367Y0101000D02*
X0016967Y0101000D01*
X0016967Y0111000D02*
X0011367Y0111000D01*
X0011367Y0121000D02*
X0016967Y0121000D01*
X0016967Y0131000D02*
X0011367Y0131000D01*
X0081367Y0131000D02*
X0086967Y0131000D01*
X0086967Y0121000D02*
X0081367Y0121000D01*
X0081367Y0111000D02*
X0086967Y0111000D01*
X0086967Y0101000D02*
X0081367Y0101000D01*
X0081367Y0086000D02*
X0086967Y0086000D01*
X0086967Y0076000D02*
X0081367Y0076000D01*
X0081367Y0066000D02*
X0086967Y0066000D01*
X0086967Y0056000D02*
X0081367Y0056000D01*
X0081367Y0041000D02*
X0086967Y0041000D01*
X0086967Y0031000D02*
X0081367Y0031000D01*
X0081367Y0021000D02*
X0086967Y0021000D01*
X0086967Y0011000D02*
X0081367Y0011000D01*
D12*
X0058867Y0023500D03*
X0058867Y0028500D03*
X0058867Y0033500D03*
X0058867Y0038500D03*
X0058867Y0063500D03*
X0058867Y0068500D03*
X0058867Y0073500D03*
X0058867Y0078500D03*
X0039467Y0078500D03*
X0039467Y0073500D03*
X0039467Y0068500D03*
X0039467Y0063500D03*
X0039467Y0038500D03*
X0039467Y0033500D03*
X0039467Y0028500D03*
X0039467Y0023500D03*
X0039467Y0108500D03*
X0039467Y0113500D03*
X0039467Y0118500D03*
X0039467Y0123500D03*
X0058867Y0123500D03*
X0058867Y0118500D03*
X0058867Y0113500D03*
X0058867Y0108500D03*
M02*
