%
M48
M72
T01C0.03600
%
T01
X14167Y101000
X14167Y111000
X14167Y121000
X14167Y131000
X14167Y56000
X14167Y66000
X14167Y76000
X14167Y86000
X14167Y11000
X14167Y21000
X14167Y31000
X14167Y41000
X84167Y131000
X84167Y121000
X84167Y111000
X84167Y101000
X84167Y86000
X84167Y76000
X84167Y66000
X84167Y56000
X84167Y41000
X84167Y31000
X84167Y21000
X84167Y11000
M30
