G75*
%MOIN*%
%OFA0B0*%
%FSLAX25Y25*%
%IPPOS*%
%LPD*%
%AMOC8*
5,1,8,0,0,1.08239X$1,22.5*
%
%ADD10C,0.00000*%
%ADD11C,0.05600*%
%ADD12R,0.07800X0.02200*%
%ADD13C,0.01000*%
D10*
X0004167Y0001000D02*
X0004167Y0139701D01*
X0094088Y0139701D01*
X0094088Y0001000D01*
X0004167Y0001000D01*
D11*
X0011367Y0011000D02*
X0016967Y0011000D01*
X0016967Y0021000D02*
X0011367Y0021000D01*
X0011367Y0031000D02*
X0016967Y0031000D01*
X0016967Y0041000D02*
X0011367Y0041000D01*
X0011367Y0056000D02*
X0016967Y0056000D01*
X0016967Y0066000D02*
X0011367Y0066000D01*
X0011367Y0076000D02*
X0016967Y0076000D01*
X0016967Y0086000D02*
X0011367Y0086000D01*
X0011367Y0101000D02*
X0016967Y0101000D01*
X0016967Y0111000D02*
X0011367Y0111000D01*
X0011367Y0121000D02*
X0016967Y0121000D01*
X0016967Y0131000D02*
X0011367Y0131000D01*
X0081367Y0131000D02*
X0086967Y0131000D01*
X0086967Y0121000D02*
X0081367Y0121000D01*
X0081367Y0111000D02*
X0086967Y0111000D01*
X0086967Y0101000D02*
X0081367Y0101000D01*
X0081367Y0086000D02*
X0086967Y0086000D01*
X0086967Y0076000D02*
X0081367Y0076000D01*
X0081367Y0066000D02*
X0086967Y0066000D01*
X0086967Y0056000D02*
X0081367Y0056000D01*
X0081367Y0041000D02*
X0086967Y0041000D01*
X0086967Y0031000D02*
X0081367Y0031000D01*
X0081367Y0021000D02*
X0086967Y0021000D01*
X0086967Y0011000D02*
X0081367Y0011000D01*
D12*
X0058867Y0023500D03*
X0058867Y0028500D03*
X0058867Y0033500D03*
X0058867Y0038500D03*
X0058867Y0063500D03*
X0058867Y0068500D03*
X0058867Y0073500D03*
X0058867Y0078500D03*
X0039467Y0078500D03*
X0039467Y0073500D03*
X0039467Y0068500D03*
X0039467Y0063500D03*
X0039467Y0038500D03*
X0039467Y0033500D03*
X0039467Y0028500D03*
X0039467Y0023500D03*
X0039467Y0108500D03*
X0039467Y0113500D03*
X0039467Y0118500D03*
X0039467Y0123500D03*
X0058867Y0123500D03*
X0058867Y0118500D03*
X0058867Y0113500D03*
X0058867Y0108500D03*
D13*
X0058967Y0108400D01*
X0076967Y0108400D01*
X0084167Y0101200D01*
X0084167Y0101000D01*
X0084167Y0111000D02*
X0084167Y0111100D01*
X0082367Y0112900D01*
X0058967Y0112900D01*
X0058867Y0113500D01*
X0058867Y0118500D02*
X0058967Y0119200D01*
X0082367Y0119200D01*
X0084167Y0121000D01*
X0076967Y0123700D02*
X0084167Y0130900D01*
X0084167Y0131000D01*
X0076967Y0123700D02*
X0058967Y0123700D01*
X0058867Y0123500D01*
X0039467Y0123500D02*
X0039167Y0123700D01*
X0022067Y0123700D01*
X0014867Y0130900D01*
X0014167Y0131000D01*
X0014167Y0121000D02*
X0014867Y0121000D01*
X0016667Y0119200D01*
X0039167Y0119200D01*
X0039467Y0118500D01*
X0039467Y0113500D02*
X0039167Y0112900D01*
X0016667Y0112900D01*
X0014867Y0111100D01*
X0014167Y0111000D01*
X0022067Y0108400D02*
X0014867Y0101200D01*
X0014167Y0101000D01*
X0022067Y0108400D02*
X0039167Y0108400D01*
X0039467Y0108500D01*
X0039167Y0078700D02*
X0022067Y0078700D01*
X0014867Y0085900D01*
X0014167Y0086000D01*
X0014167Y0076000D02*
X0014867Y0076000D01*
X0016667Y0074200D01*
X0039167Y0074200D01*
X0039467Y0073500D01*
X0039467Y0078500D02*
X0039167Y0078700D01*
X0039467Y0068500D02*
X0039167Y0067900D01*
X0016667Y0067900D01*
X0014867Y0066100D01*
X0014167Y0066000D01*
X0022067Y0063400D02*
X0014867Y0056200D01*
X0014167Y0056000D01*
X0022067Y0063400D02*
X0039167Y0063400D01*
X0039467Y0063500D01*
X0039167Y0039100D02*
X0039467Y0038500D01*
X0039167Y0039100D02*
X0016667Y0039100D01*
X0014867Y0040900D01*
X0014167Y0041000D01*
X0016667Y0032800D02*
X0014867Y0031000D01*
X0014167Y0031000D01*
X0016667Y0032800D02*
X0039167Y0032800D01*
X0039467Y0033500D01*
X0039467Y0028500D02*
X0039167Y0028300D01*
X0022067Y0028300D01*
X0014867Y0021100D01*
X0014167Y0021000D01*
X0014867Y0011200D02*
X0014167Y0011000D01*
X0014867Y0011200D02*
X0026567Y0022900D01*
X0039167Y0022900D01*
X0039467Y0023500D01*
X0058867Y0023500D02*
X0058967Y0022900D01*
X0072467Y0022900D01*
X0084167Y0011200D01*
X0084167Y0011000D01*
X0084167Y0021000D02*
X0084167Y0021100D01*
X0076967Y0028300D01*
X0058967Y0028300D01*
X0058867Y0028500D01*
X0058967Y0032800D02*
X0058867Y0033500D01*
X0058967Y0032800D02*
X0082367Y0032800D01*
X0084167Y0031000D01*
X0082367Y0039100D02*
X0084167Y0040900D01*
X0084167Y0041000D01*
X0082367Y0039100D02*
X0058967Y0039100D01*
X0058867Y0038500D01*
X0058967Y0063400D02*
X0058867Y0063500D01*
X0058967Y0063400D02*
X0076967Y0063400D01*
X0084167Y0056200D01*
X0084167Y0056000D01*
X0084167Y0066000D02*
X0084167Y0066100D01*
X0082367Y0067900D01*
X0058967Y0067900D01*
X0058867Y0068500D01*
X0058867Y0073500D02*
X0058967Y0074200D01*
X0082367Y0074200D01*
X0084167Y0076000D01*
X0076967Y0078700D02*
X0084167Y0085900D01*
X0084167Y0086000D01*
X0076967Y0078700D02*
X0058967Y0078700D01*
X0058867Y0078500D01*
M02*
