G75*
%MOIN*%
%OFA0B0*%
%FSLAX25Y25*%
%IPPOS*%
%LPD*%
%AMOC8*
5,1,8,0,0,1.08239X$1,22.5*
%
%ADD10C,0.00000*%
%ADD11C,0.00600*%
%ADD12C,0.00500*%
%ADD13C,0.00300*%
%ADD14C,0.00800*%
D10*
X0004167Y0001000D02*
X0004167Y0139701D01*
X0094088Y0139701D01*
X0094088Y0001000D01*
X0004167Y0001000D01*
X0047967Y0040800D02*
X0047969Y0040731D01*
X0047975Y0040663D01*
X0047985Y0040595D01*
X0047998Y0040528D01*
X0048016Y0040462D01*
X0048037Y0040397D01*
X0048062Y0040333D01*
X0048090Y0040271D01*
X0048122Y0040210D01*
X0048157Y0040151D01*
X0048196Y0040095D01*
X0048238Y0040040D01*
X0048283Y0039989D01*
X0048331Y0039939D01*
X0048381Y0039893D01*
X0048434Y0039850D01*
X0048490Y0039809D01*
X0048547Y0039772D01*
X0048607Y0039739D01*
X0048669Y0039708D01*
X0048732Y0039682D01*
X0048796Y0039659D01*
X0048862Y0039639D01*
X0048929Y0039624D01*
X0048996Y0039612D01*
X0049064Y0039604D01*
X0049133Y0039600D01*
X0049201Y0039600D01*
X0049270Y0039604D01*
X0049338Y0039612D01*
X0049405Y0039624D01*
X0049472Y0039639D01*
X0049538Y0039659D01*
X0049602Y0039682D01*
X0049665Y0039708D01*
X0049727Y0039739D01*
X0049787Y0039772D01*
X0049844Y0039809D01*
X0049900Y0039850D01*
X0049953Y0039893D01*
X0050003Y0039939D01*
X0050051Y0039989D01*
X0050096Y0040040D01*
X0050138Y0040095D01*
X0050177Y0040151D01*
X0050212Y0040210D01*
X0050244Y0040271D01*
X0050272Y0040333D01*
X0050297Y0040397D01*
X0050318Y0040462D01*
X0050336Y0040528D01*
X0050349Y0040595D01*
X0050359Y0040663D01*
X0050365Y0040731D01*
X0050367Y0040800D01*
X0050367Y0080800D02*
X0050365Y0080731D01*
X0050359Y0080663D01*
X0050349Y0080595D01*
X0050336Y0080528D01*
X0050318Y0080462D01*
X0050297Y0080397D01*
X0050272Y0080333D01*
X0050244Y0080271D01*
X0050212Y0080210D01*
X0050177Y0080151D01*
X0050138Y0080095D01*
X0050096Y0080040D01*
X0050051Y0079989D01*
X0050003Y0079939D01*
X0049953Y0079893D01*
X0049900Y0079850D01*
X0049844Y0079809D01*
X0049787Y0079772D01*
X0049727Y0079739D01*
X0049665Y0079708D01*
X0049602Y0079682D01*
X0049538Y0079659D01*
X0049472Y0079639D01*
X0049405Y0079624D01*
X0049338Y0079612D01*
X0049270Y0079604D01*
X0049201Y0079600D01*
X0049133Y0079600D01*
X0049064Y0079604D01*
X0048996Y0079612D01*
X0048929Y0079624D01*
X0048862Y0079639D01*
X0048796Y0079659D01*
X0048732Y0079682D01*
X0048669Y0079708D01*
X0048607Y0079739D01*
X0048547Y0079772D01*
X0048490Y0079809D01*
X0048434Y0079850D01*
X0048381Y0079893D01*
X0048331Y0079939D01*
X0048283Y0079989D01*
X0048238Y0080040D01*
X0048196Y0080095D01*
X0048157Y0080151D01*
X0048122Y0080210D01*
X0048090Y0080271D01*
X0048062Y0080333D01*
X0048037Y0080397D01*
X0048016Y0080462D01*
X0047998Y0080528D01*
X0047985Y0080595D01*
X0047975Y0080663D01*
X0047969Y0080731D01*
X0047967Y0080800D01*
X0047967Y0125800D02*
X0047969Y0125731D01*
X0047975Y0125663D01*
X0047985Y0125595D01*
X0047998Y0125528D01*
X0048016Y0125462D01*
X0048037Y0125397D01*
X0048062Y0125333D01*
X0048090Y0125271D01*
X0048122Y0125210D01*
X0048157Y0125151D01*
X0048196Y0125095D01*
X0048238Y0125040D01*
X0048283Y0124989D01*
X0048331Y0124939D01*
X0048381Y0124893D01*
X0048434Y0124850D01*
X0048490Y0124809D01*
X0048547Y0124772D01*
X0048607Y0124739D01*
X0048669Y0124708D01*
X0048732Y0124682D01*
X0048796Y0124659D01*
X0048862Y0124639D01*
X0048929Y0124624D01*
X0048996Y0124612D01*
X0049064Y0124604D01*
X0049133Y0124600D01*
X0049201Y0124600D01*
X0049270Y0124604D01*
X0049338Y0124612D01*
X0049405Y0124624D01*
X0049472Y0124639D01*
X0049538Y0124659D01*
X0049602Y0124682D01*
X0049665Y0124708D01*
X0049727Y0124739D01*
X0049787Y0124772D01*
X0049844Y0124809D01*
X0049900Y0124850D01*
X0049953Y0124893D01*
X0050003Y0124939D01*
X0050051Y0124989D01*
X0050096Y0125040D01*
X0050138Y0125095D01*
X0050177Y0125151D01*
X0050212Y0125210D01*
X0050244Y0125271D01*
X0050272Y0125333D01*
X0050297Y0125397D01*
X0050318Y0125462D01*
X0050336Y0125528D01*
X0050349Y0125595D01*
X0050359Y0125663D01*
X0050365Y0125731D01*
X0050367Y0125800D01*
D11*
X0047967Y0125800D01*
X0043767Y0125800D01*
X0050367Y0125800D02*
X0054567Y0125800D01*
X0054567Y0106200D02*
X0043767Y0106200D01*
X0043767Y0080800D02*
X0047967Y0080800D01*
X0050367Y0080800D01*
X0054567Y0080800D01*
X0054567Y0061200D02*
X0043767Y0061200D01*
X0043767Y0040800D02*
X0047967Y0040800D01*
X0050367Y0040800D01*
X0054567Y0040800D01*
X0054567Y0021200D02*
X0043767Y0021200D01*
X0019167Y0025000D02*
X0019167Y0017000D01*
X0018167Y0016000D01*
X0019167Y0015000D01*
X0019167Y0007000D01*
X0018167Y0006000D01*
X0010167Y0006000D01*
X0009167Y0007000D01*
X0009167Y0015000D01*
X0010167Y0016000D01*
X0009167Y0017000D01*
X0009167Y0025000D01*
X0010167Y0026000D01*
X0009167Y0027000D01*
X0009167Y0035000D01*
X0010167Y0036000D01*
X0009167Y0037000D01*
X0009167Y0045000D01*
X0010167Y0046000D01*
X0018167Y0046000D01*
X0019167Y0045000D01*
X0019167Y0037000D01*
X0018167Y0036000D01*
X0019167Y0035000D01*
X0019167Y0027000D01*
X0018167Y0026000D01*
X0019167Y0025000D01*
X0018167Y0051000D02*
X0010167Y0051000D01*
X0009167Y0052000D01*
X0009167Y0060000D01*
X0010167Y0061000D01*
X0009167Y0062000D01*
X0009167Y0070000D01*
X0010167Y0071000D01*
X0009167Y0072000D01*
X0009167Y0080000D01*
X0010167Y0081000D01*
X0009167Y0082000D01*
X0009167Y0090000D01*
X0010167Y0091000D01*
X0018167Y0091000D01*
X0019167Y0090000D01*
X0019167Y0082000D01*
X0018167Y0081000D01*
X0019167Y0080000D01*
X0019167Y0072000D01*
X0018167Y0071000D01*
X0019167Y0070000D01*
X0019167Y0062000D01*
X0018167Y0061000D01*
X0019167Y0060000D01*
X0019167Y0052000D01*
X0018167Y0051000D01*
X0018167Y0096000D02*
X0010167Y0096000D01*
X0009167Y0097000D01*
X0009167Y0105000D01*
X0010167Y0106000D01*
X0009167Y0107000D01*
X0009167Y0115000D01*
X0010167Y0116000D01*
X0009167Y0117000D01*
X0009167Y0125000D01*
X0010167Y0126000D01*
X0009167Y0127000D01*
X0009167Y0135000D01*
X0010167Y0136000D01*
X0018167Y0136000D01*
X0019167Y0135000D01*
X0019167Y0127000D01*
X0018167Y0126000D01*
X0019167Y0125000D01*
X0019167Y0117000D01*
X0018167Y0116000D01*
X0019167Y0115000D01*
X0019167Y0107000D01*
X0018167Y0106000D01*
X0019167Y0105000D01*
X0019167Y0097000D01*
X0018167Y0096000D01*
X0079167Y0097000D02*
X0079167Y0105000D01*
X0080167Y0106000D01*
X0079167Y0107000D01*
X0079167Y0115000D01*
X0080167Y0116000D01*
X0079167Y0117000D01*
X0079167Y0125000D01*
X0080167Y0126000D01*
X0079167Y0127000D01*
X0079167Y0135000D01*
X0080167Y0136000D01*
X0088167Y0136000D01*
X0089167Y0135000D01*
X0089167Y0127000D01*
X0088167Y0126000D01*
X0089167Y0125000D01*
X0089167Y0117000D01*
X0088167Y0116000D01*
X0089167Y0115000D01*
X0089167Y0107000D01*
X0088167Y0106000D01*
X0089167Y0105000D01*
X0089167Y0097000D01*
X0088167Y0096000D01*
X0080167Y0096000D01*
X0079167Y0097000D01*
X0080167Y0091000D02*
X0079167Y0090000D01*
X0079167Y0082000D01*
X0080167Y0081000D01*
X0079167Y0080000D01*
X0079167Y0072000D01*
X0080167Y0071000D01*
X0079167Y0070000D01*
X0079167Y0062000D01*
X0080167Y0061000D01*
X0079167Y0060000D01*
X0079167Y0052000D01*
X0080167Y0051000D01*
X0088167Y0051000D01*
X0089167Y0052000D01*
X0089167Y0060000D01*
X0088167Y0061000D01*
X0089167Y0062000D01*
X0089167Y0070000D01*
X0088167Y0071000D01*
X0089167Y0072000D01*
X0089167Y0080000D01*
X0088167Y0081000D01*
X0089167Y0082000D01*
X0089167Y0090000D01*
X0088167Y0091000D01*
X0080167Y0091000D01*
X0080167Y0046000D02*
X0079167Y0045000D01*
X0079167Y0037000D01*
X0080167Y0036000D01*
X0079167Y0035000D01*
X0079167Y0027000D01*
X0080167Y0026000D01*
X0079167Y0025000D01*
X0079167Y0017000D01*
X0080167Y0016000D01*
X0079167Y0015000D01*
X0079167Y0007000D01*
X0080167Y0006000D01*
X0088167Y0006000D01*
X0089167Y0007000D01*
X0089167Y0015000D01*
X0088167Y0016000D01*
X0089167Y0017000D01*
X0089167Y0025000D01*
X0088167Y0026000D01*
X0089167Y0027000D01*
X0089167Y0035000D01*
X0088167Y0036000D01*
X0089167Y0037000D01*
X0089167Y0045000D01*
X0088167Y0046000D01*
X0080167Y0046000D01*
D12*
X0077317Y0039928D02*
X0077317Y0037659D01*
X0077317Y0038793D02*
X0073914Y0038793D01*
X0075048Y0037659D01*
X0075048Y0029928D02*
X0074481Y0029928D01*
X0073914Y0029360D01*
X0073914Y0028226D01*
X0074481Y0027659D01*
X0075048Y0029928D02*
X0077317Y0027659D01*
X0077317Y0029928D01*
X0076750Y0019928D02*
X0076182Y0019928D01*
X0075615Y0019360D01*
X0075615Y0018793D01*
X0075615Y0019360D02*
X0075048Y0019928D01*
X0074481Y0019928D01*
X0073914Y0019360D01*
X0073914Y0018226D01*
X0074481Y0017659D01*
X0076750Y0017659D02*
X0077317Y0018226D01*
X0077317Y0019360D01*
X0076750Y0019928D01*
X0075615Y0009928D02*
X0075615Y0007659D01*
X0073914Y0009360D01*
X0077317Y0009360D01*
X0090913Y0033939D02*
X0090913Y0035441D01*
X0090913Y0034690D02*
X0094666Y0034690D01*
X0095417Y0033939D01*
X0095417Y0033189D01*
X0094666Y0032438D01*
X0093915Y0037042D02*
X0093915Y0039294D01*
X0093165Y0040045D01*
X0091663Y0040045D01*
X0090913Y0039294D01*
X0090913Y0037042D01*
X0095417Y0037042D01*
X0094666Y0041646D02*
X0093165Y0041646D01*
X0093165Y0043898D01*
X0093915Y0044649D01*
X0094666Y0044649D01*
X0095417Y0043898D01*
X0095417Y0042397D01*
X0094666Y0041646D01*
X0093165Y0041646D02*
X0091663Y0043147D01*
X0090913Y0044649D01*
X0077317Y0054360D02*
X0073914Y0054360D01*
X0075615Y0052659D01*
X0075615Y0054928D01*
X0074481Y0062659D02*
X0073914Y0063226D01*
X0073914Y0064360D01*
X0074481Y0064928D01*
X0075048Y0064928D01*
X0075615Y0064360D01*
X0076182Y0064928D01*
X0076750Y0064928D01*
X0077317Y0064360D01*
X0077317Y0063226D01*
X0076750Y0062659D01*
X0075615Y0063793D02*
X0075615Y0064360D01*
X0074481Y0072659D02*
X0073914Y0073226D01*
X0073914Y0074360D01*
X0074481Y0074928D01*
X0075048Y0074928D01*
X0077317Y0072659D01*
X0077317Y0074928D01*
X0077317Y0082659D02*
X0077317Y0084928D01*
X0077317Y0083793D02*
X0073914Y0083793D01*
X0075048Y0082659D01*
X0075615Y0097659D02*
X0075615Y0099928D01*
X0073914Y0099360D02*
X0075615Y0097659D01*
X0073914Y0099360D02*
X0077317Y0099360D01*
X0076750Y0107659D02*
X0077317Y0108226D01*
X0077317Y0109360D01*
X0076750Y0109928D01*
X0076182Y0109928D01*
X0075615Y0109360D01*
X0075615Y0108793D01*
X0075615Y0109360D02*
X0075048Y0109928D01*
X0074481Y0109928D01*
X0073914Y0109360D01*
X0073914Y0108226D01*
X0074481Y0107659D01*
X0074481Y0117659D02*
X0073914Y0118226D01*
X0073914Y0119360D01*
X0074481Y0119928D01*
X0075048Y0119928D01*
X0077317Y0117659D01*
X0077317Y0119928D01*
X0077317Y0127659D02*
X0077317Y0129928D01*
X0077317Y0128793D02*
X0073914Y0128793D01*
X0075048Y0127659D01*
X0090913Y0127042D02*
X0090913Y0129294D01*
X0091663Y0130045D01*
X0093165Y0130045D01*
X0093915Y0129294D01*
X0093915Y0127042D01*
X0094666Y0124690D02*
X0090913Y0124690D01*
X0090913Y0123939D02*
X0090913Y0125441D01*
X0090913Y0127042D02*
X0095417Y0127042D01*
X0094666Y0124690D02*
X0095417Y0123939D01*
X0095417Y0123189D01*
X0094666Y0122438D01*
X0093165Y0131646D02*
X0093165Y0134649D01*
X0095417Y0133898D02*
X0090913Y0133898D01*
X0093165Y0131646D01*
X0093165Y0089649D02*
X0094666Y0089649D01*
X0095417Y0088898D01*
X0095417Y0087397D01*
X0094666Y0086646D01*
X0093165Y0086646D02*
X0092414Y0088147D01*
X0092414Y0088898D01*
X0093165Y0089649D01*
X0090913Y0089649D02*
X0090913Y0086646D01*
X0093165Y0086646D01*
X0093165Y0085045D02*
X0091663Y0085045D01*
X0090913Y0084294D01*
X0090913Y0082042D01*
X0095417Y0082042D01*
X0093915Y0082042D02*
X0093915Y0084294D01*
X0093165Y0085045D01*
X0090913Y0080441D02*
X0090913Y0078939D01*
X0090913Y0079690D02*
X0094666Y0079690D01*
X0095417Y0078939D01*
X0095417Y0078189D01*
X0094666Y0077438D01*
X0024417Y0077951D02*
X0024417Y0076817D01*
X0023850Y0076250D01*
X0022715Y0077384D02*
X0022715Y0077951D01*
X0023282Y0078519D01*
X0023850Y0078519D01*
X0024417Y0077951D01*
X0022715Y0077951D02*
X0022148Y0078519D01*
X0021581Y0078519D01*
X0021014Y0077951D01*
X0021014Y0076817D01*
X0021581Y0076250D01*
X0021581Y0068519D02*
X0021014Y0067951D01*
X0021014Y0066817D01*
X0021581Y0066250D01*
X0021581Y0068519D02*
X0022148Y0068519D01*
X0024417Y0066250D01*
X0024417Y0068519D01*
X0024417Y0058519D02*
X0024417Y0056250D01*
X0024417Y0057384D02*
X0021014Y0057384D01*
X0022148Y0056250D01*
X0022715Y0043519D02*
X0022715Y0041250D01*
X0021014Y0042951D01*
X0024417Y0042951D01*
X0023850Y0033519D02*
X0023282Y0033519D01*
X0022715Y0032951D01*
X0022715Y0032384D01*
X0022715Y0032951D02*
X0022148Y0033519D01*
X0021581Y0033519D01*
X0021014Y0032951D01*
X0021014Y0031817D01*
X0021581Y0031250D01*
X0023850Y0031250D02*
X0024417Y0031817D01*
X0024417Y0032951D01*
X0023850Y0033519D01*
X0024417Y0023519D02*
X0024417Y0021250D01*
X0022148Y0023519D01*
X0021581Y0023519D01*
X0021014Y0022951D01*
X0021014Y0021817D01*
X0021581Y0021250D01*
X0024417Y0013519D02*
X0024417Y0011250D01*
X0024417Y0012384D02*
X0021014Y0012384D01*
X0022148Y0011250D01*
X0007417Y0010854D02*
X0002913Y0010854D01*
X0002913Y0013106D01*
X0003663Y0013856D01*
X0005165Y0013856D01*
X0005915Y0013106D01*
X0005915Y0010854D01*
X0006666Y0008502D02*
X0002913Y0008502D01*
X0002913Y0007751D02*
X0002913Y0009253D01*
X0006666Y0008502D02*
X0007417Y0007751D01*
X0007417Y0007001D01*
X0006666Y0006250D01*
X0006666Y0015458D02*
X0007417Y0016208D01*
X0007417Y0017710D01*
X0006666Y0018460D01*
X0005915Y0018460D01*
X0005165Y0017710D01*
X0005165Y0016959D01*
X0005165Y0017710D02*
X0004414Y0018460D01*
X0003663Y0018460D01*
X0002913Y0017710D01*
X0002913Y0016208D01*
X0003663Y0015458D01*
X0006666Y0051250D02*
X0007417Y0052001D01*
X0007417Y0052751D01*
X0006666Y0053502D01*
X0002913Y0053502D01*
X0002913Y0052751D02*
X0002913Y0054253D01*
X0002913Y0055854D02*
X0002913Y0058106D01*
X0003663Y0058856D01*
X0005165Y0058856D01*
X0005915Y0058106D01*
X0005915Y0055854D01*
X0007417Y0055854D02*
X0002913Y0055854D01*
X0003663Y0060458D02*
X0002913Y0061208D01*
X0002913Y0062710D01*
X0003663Y0063460D01*
X0004414Y0063460D01*
X0007417Y0060458D01*
X0007417Y0063460D01*
X0022715Y0086250D02*
X0022715Y0088519D01*
X0021014Y0087951D02*
X0022715Y0086250D01*
X0021014Y0087951D02*
X0024417Y0087951D01*
X0024417Y0101250D02*
X0024417Y0103519D01*
X0024417Y0102384D02*
X0021014Y0102384D01*
X0022148Y0101250D01*
X0021581Y0111250D02*
X0021014Y0111817D01*
X0021014Y0112951D01*
X0021581Y0113519D01*
X0022148Y0113519D01*
X0024417Y0111250D01*
X0024417Y0113519D01*
X0023850Y0121250D02*
X0024417Y0121817D01*
X0024417Y0122951D01*
X0023850Y0123519D01*
X0023282Y0123519D01*
X0022715Y0122951D01*
X0022715Y0122384D01*
X0022715Y0122951D02*
X0022148Y0123519D01*
X0021581Y0123519D01*
X0021014Y0122951D01*
X0021014Y0121817D01*
X0021581Y0121250D01*
X0022715Y0131250D02*
X0022715Y0133519D01*
X0021014Y0132951D02*
X0024417Y0132951D01*
X0022715Y0131250D02*
X0021014Y0132951D01*
X0007417Y0108460D02*
X0007417Y0105458D01*
X0007417Y0106959D02*
X0002913Y0106959D01*
X0004414Y0105458D01*
X0003663Y0103856D02*
X0005165Y0103856D01*
X0005915Y0103106D01*
X0005915Y0100854D01*
X0007417Y0100854D02*
X0002913Y0100854D01*
X0002913Y0103106D01*
X0003663Y0103856D01*
X0002913Y0099253D02*
X0002913Y0097751D01*
X0002913Y0098502D02*
X0006666Y0098502D01*
X0007417Y0097751D01*
X0007417Y0097001D01*
X0006666Y0096250D01*
D13*
X0036317Y0084270D02*
X0039453Y0081134D01*
X0039453Y0082702D02*
X0036317Y0082702D01*
X0036317Y0081134D02*
X0039453Y0084270D01*
X0037885Y0084270D02*
X0037885Y0081134D01*
X0037885Y0044270D02*
X0037885Y0041134D01*
X0039453Y0041134D02*
X0036317Y0044270D01*
X0036317Y0042702D02*
X0039453Y0042702D01*
X0039453Y0044270D02*
X0036317Y0041134D01*
X0036317Y0126134D02*
X0039453Y0129270D01*
X0039453Y0127702D02*
X0036317Y0127702D01*
X0036317Y0129270D02*
X0039453Y0126134D01*
X0037885Y0126134D02*
X0037885Y0129270D01*
D14*
X0038717Y0129700D02*
X0043655Y0129700D01*
X0041186Y0129700D02*
X0041186Y0137106D01*
X0038717Y0134638D01*
X0036104Y0137106D02*
X0036104Y0130934D01*
X0034870Y0129700D01*
X0032401Y0129700D01*
X0031167Y0130934D01*
X0031167Y0137106D01*
X0031167Y0092106D02*
X0031167Y0085934D01*
X0032401Y0084700D01*
X0034870Y0084700D01*
X0036104Y0085934D01*
X0036104Y0092106D01*
X0038717Y0090872D02*
X0039951Y0092106D01*
X0042420Y0092106D01*
X0043655Y0090872D01*
X0043655Y0089638D01*
X0038717Y0084700D01*
X0043655Y0084700D01*
X0042420Y0052106D02*
X0039951Y0052106D01*
X0038717Y0050872D01*
X0041186Y0048403D02*
X0042420Y0048403D01*
X0043655Y0047169D01*
X0043655Y0045934D01*
X0042420Y0044700D01*
X0039951Y0044700D01*
X0038717Y0045934D01*
X0036104Y0045934D02*
X0036104Y0052106D01*
X0036104Y0045934D02*
X0034870Y0044700D01*
X0032401Y0044700D01*
X0031167Y0045934D01*
X0031167Y0052106D01*
X0042420Y0052106D02*
X0043655Y0050872D01*
X0043655Y0049638D01*
X0042420Y0048403D01*
M02*
